<svg width="267" height="177" viewBox="0 0 267 177" fill="none" xmlns="http://www.w3.org/2000/svg">
<path fill-rule="evenodd" clip-rule="evenodd" d="M191.853 0.813491C188.483 1.36077 185.138 3.23465 182.037 6.31291C179.759 8.57449 179.061 9.57963 178.03 12.0848C176.292 16.3031 176.037 18.3315 176.69 22.7333C177.406 27.5574 178.538 29.7793 182.173 33.4927C184.808 36.1852 185.458 36.6311 188.374 37.7469C193.125 39.5645 198.22 39.8134 199.73 38.3015C201.149 36.8809 202.624 27.4719 202.623 19.8427C202.623 11.8154 201.112 2.71243 199.513 1.11183C198.697 0.295149 195.751 0.180264 191.853 0.813491ZM197.798 1.8622C196.804 4.23015 196.127 7.39166 195.704 11.6285L195.217 16.5185L194.322 15.9312C193.291 15.2548 192.623 15.5134 192.623 16.5895C192.623 17.3641 193.885 18.8792 194.53 18.8792C194.732 18.8792 194.451 18.4321 193.906 17.886C192.742 16.7213 193.148 15.8167 194.506 16.5448C195.235 16.9352 195.317 17.3171 195.317 20.3013C195.317 23.4956 195.29 23.5989 194.613 22.9857C194.226 22.635 193.443 22.3479 192.872 22.3479C191.839 22.3479 191.837 22.3536 192.439 23.5206C192.772 24.1658 193.513 24.8996 194.085 25.1509C195.537 25.7892 195.587 25.9121 195.891 29.5681C196.041 31.3618 196.302 33.3154 196.472 33.9097C196.757 34.9045 196.685 35.0093 195.568 35.2325C194.901 35.3658 194.052 35.4806 193.682 35.4872C193.236 35.4953 193.008 35.804 193.008 36.3979C193.008 36.899 193.306 37.41 193.682 37.553C194.222 37.7588 194.26 37.7137 193.874 37.3244C193.61 37.0577 193.393 36.5925 193.393 36.2912C193.393 35.846 193.502 35.8337 193.973 36.2253C194.312 36.507 195.077 36.6226 195.811 36.5035C196.857 36.3336 197.139 36.4503 197.493 37.2015C198.017 38.313 197.589 38.535 194.927 38.535C193.328 38.535 193.021 38.4105 192.789 37.6679C192.639 37.1911 192.233 36.4361 191.886 35.9909C191.374 35.3326 191.167 35.2749 190.788 35.6815C190.292 36.2133 190.804 36.8261 191.424 36.4422C191.758 36.2361 192.355 37.7758 192.057 38.0741C191.865 38.2664 188.037 36.8369 186.112 35.8537C184.168 34.8605 180.172 30.4553 178.953 27.9598C176.976 23.9134 176.683 18.1211 178.237 13.8076C179.547 10.1712 180.535 8.64656 183.055 6.37303C185.782 3.91297 187.458 2.88431 189.939 2.14625C192.267 1.45406 192.753 1.39854 192.47 1.8568C192.361 2.0337 192.516 2.17824 192.815 2.17824C193.115 2.17824 193.278 2.04681 193.179 1.88609C192.934 1.48989 193.986 1.26674 196.211 1.244C197.791 1.22743 198.026 1.31916 197.798 1.8622ZM194.224 2.30656C194.224 2.8365 194.311 3.05351 194.418 2.78834C194.525 2.52357 194.525 2.08997 194.418 1.82481C194.311 1.56004 194.224 1.77663 194.224 2.30656ZM194.993 2.30656C194.993 2.8365 195.081 3.05351 195.187 2.78834C195.294 2.52357 195.294 2.08997 195.187 1.82481C195.081 1.56004 194.993 1.77663 194.993 2.30656ZM196.472 2.13661C196.472 2.46691 196.645 2.63032 196.857 2.49928C197.069 2.36824 197.242 2.09806 197.242 1.89842C197.242 1.69878 197.069 1.53575 196.857 1.53575C196.645 1.53575 196.472 1.80632 196.472 2.13661ZM216.103 1.7462C216.103 1.85643 216.542 2.81455 217.079 3.8752C218.631 6.9419 219.952 14.2843 219.952 19.8427C219.952 26.355 218.608 33.0395 216.696 36.0322C215.582 37.7746 215.461 38.1481 216.012 38.1412C218.004 38.1161 223.779 34.1795 225.891 31.4069C226.463 30.6569 227.478 28.7888 228.148 27.2552C229.299 24.621 229.365 24.2132 229.346 19.8427C229.329 15.9851 229.18 14.847 228.453 12.9836C227.427 10.3524 223.675 5.46537 221.783 4.29411C220.157 3.28819 216.103 1.46948 216.103 1.7462ZM1.39293 3.57765L0.16272 4.84834V21.1138V37.3788H2.85716H5.55161V31.405V25.4311H17.2162H28.8809L30.1111 24.16L31.3413 22.8894V13.8299V4.77013L30.0718 3.53834L28.8027 2.30656H15.7131H2.62313L1.39293 3.57765ZM37.5755 3.57765L36.3453 4.84834V19.8816V34.9153L37.6147 36.147L38.8838 37.3788H50.2771H61.6703L62.8648 36.0164L64.0595 34.6539V19.8427V5.03142L62.8648 3.66899L61.6703 2.30656H50.2382H38.8057L37.5755 3.57765ZM69.0635 19.8427V37.3788H82.1508H95.2381V34.6809V31.9831H84.8453H74.4524V17.1448V2.30656H71.758H69.0635V19.8427ZM91.0898 3.17375C91.3978 3.6505 95.1419 10.2938 99.4099 17.9364L107.171 31.832V34.6054V37.3788H110.058H112.944V34.854V32.3295L120.106 18.9559C124.044 11.6007 127.689 4.84526 128.205 3.94456L129.143 2.30656L126.144 2.31081L123.145 2.31505L116.651 13.7143L110.157 25.1135L103.371 13.7174L96.5853 2.32161L93.5579 2.31428L90.5305 2.30656L91.0898 3.17375ZM131.806 19.8427V37.3788H134.878H137.952L138.054 27.3539L138.157 17.3287L142.776 27.3493L147.395 37.3703L150.126 37.3746L152.857 37.3788L157.439 27.4796L162.022 17.58L162.125 27.4796L162.227 37.3788H165.3H168.373V19.8427V2.30656L165.39 2.32005L162.407 2.33357L156.415 15.3276C153.12 22.4743 150.282 28.2889 150.109 28.2492C149.936 28.2091 147.098 22.3559 143.802 15.2417L137.81 2.30656H134.808H131.806V19.8427ZM238.044 19.8257V37.3788H240.931H243.817V25.6238C243.817 19.1586 243.947 13.8762 244.106 13.8854C244.265 13.8947 248.1 19.1844 252.629 25.6404L260.863 37.3788H263.888H266.913V19.8427V2.30656H264.031H261.15L261.048 14.6782L260.946 27.0498L252.286 14.7746L243.625 2.49928L240.834 2.38597L238.044 2.27266V19.8257ZM191.62 3.68709C191.748 4.02239 191.853 4.54272 191.853 4.84334C191.853 5.14396 191.996 5.38985 192.172 5.38985C192.347 5.38985 192.413 4.86955 192.32 4.23363C192.227 3.5977 191.979 3.07741 191.768 3.07741C191.558 3.07741 191.491 3.35178 191.62 3.68709ZM189.17 4.02705C188.571 4.75047 188.939 7.04017 189.766 7.72697C190.244 8.12433 190.462 8.10351 190.95 7.61558C191.684 6.88061 191.363 4.99171 190.347 4.07097C189.73 3.51212 189.601 3.50752 189.17 4.02705ZM192.88 3.71986C192.738 3.86092 192.623 4.10873 192.623 4.27022C192.623 4.70342 193.77 5.77525 194.233 5.77525C194.453 5.77525 194.224 5.44342 193.724 5.03758C192.521 4.06096 193.075 3.56456 194.439 4.39705L195.51 5.05031L194.601 4.25636C193.636 3.41347 193.292 3.30632 192.88 3.71986ZM186.882 4.42631C186.894 4.85026 187.052 5.54402 187.234 5.96797C187.537 6.67404 187.567 6.65784 187.586 5.77525C187.598 5.24531 187.439 4.55159 187.234 4.23363C186.926 3.75649 186.865 3.79 186.882 4.42631ZM190.656 5.43303C190.896 6.12137 190.935 6.88022 190.748 7.21437C190.476 7.70114 190.32 7.64873 189.791 6.89256C189.015 5.78335 188.961 4.23363 189.698 4.23363C189.995 4.23363 190.426 4.77321 190.656 5.43303ZM201.3 14.8324C201.801 25.6539 201.661 28.0284 200.322 31.4034C199.687 33.0052 199.167 34.6925 199.167 35.1535C199.167 38.204 197.04 30.1073 196.714 25.8165C196.61 24.4387 196.674 20.0161 196.858 15.9886C197.137 9.85443 197.331 8.29933 198.055 6.40813L198.92 4.15037L199.959 6.21541C200.913 8.11393 201.021 8.80805 201.3 14.8324ZM198.282 7.37355C197.524 9.37729 196.834 22.1729 197.256 26.3946C197.555 29.3908 198.436 33.5247 198.774 33.5247C198.894 33.5247 199.465 32.2532 200.042 30.6993C201.005 28.1062 201.089 27.4325 201.069 22.5093C201.034 14.1313 200.559 8.90131 199.676 7.17815L198.917 5.69548L198.282 7.37355ZM192.495 6.80315C192.025 7.27412 192.23 7.70269 192.912 7.67186C193.318 7.65336 193.394 7.56394 193.102 7.44639C192.836 7.33887 192.716 7.09259 192.836 6.89873C193.088 6.48904 192.869 6.42776 192.495 6.80315ZM183.604 7.27336C183.488 7.46105 183.638 7.81791 183.936 8.06612C184.38 8.43457 184.441 8.37216 184.272 7.72429C184.044 6.84902 183.918 6.76462 183.604 7.27336ZM25.6333 7.95476C26.2492 8.51283 26.3373 9.2447 26.3373 13.8018C26.3373 18.1083 26.2269 19.1332 25.7003 19.7159C25.1167 20.3615 24.2857 20.4208 15.819 20.4208C7.75721 20.4208 6.48466 20.3391 5.87071 19.7829C5.25484 19.2249 5.16669 18.493 5.16669 13.9359C5.16669 9.62937 5.27716 8.60454 5.80373 8.0218C6.38727 7.37624 7.21831 7.31691 15.685 7.31691C23.7468 7.31691 25.0193 7.39861 25.6333 7.95476ZM58.1649 8.15477C59.0548 8.99226 59.0556 9.00227 59.0556 19.7887C59.0556 33.6484 59.9698 32.3685 50.0692 32.3685C43.8054 32.3685 42.656 32.2771 42.0532 31.7306C41.402 31.1405 41.3492 30.2541 41.3492 19.9097C41.3492 10.0444 41.4243 8.64347 41.9863 8.0218C42.561 7.38588 43.3408 7.31691 49.9487 7.31691C56.9397 7.31691 57.3146 7.35505 58.1649 8.15477ZM190.891 8.47313C190.76 8.6851 191.02 8.85853 191.468 8.85853C191.917 8.85853 192.177 8.6851 192.046 8.47313C191.915 8.26115 191.655 8.08772 191.468 8.08772C191.282 8.08772 191.022 8.26115 190.891 8.47313ZM181.106 9.08324C181.124 9.53224 181.216 9.62356 181.338 9.31639C181.45 9.03812 181.436 8.70552 181.308 8.57756C181.18 8.4496 181.089 8.67701 181.106 9.08324ZM182.305 9.43666C182.313 10.0726 182.399 10.2861 182.497 9.91109C182.595 9.53608 182.588 9.01579 182.483 8.75487C182.377 8.49394 182.298 8.80073 182.305 9.43666ZM189.549 8.89052C189.558 9.85712 190.009 11.171 190.332 11.171C190.504 11.171 190.489 10.6272 190.298 9.96236C189.907 8.59724 189.541 8.07345 189.549 8.89052ZM192.668 8.96684C192.643 9.34454 192.864 9.74573 193.157 9.85866C193.451 9.97158 193.797 10.5944 193.927 11.2431C194.126 12.2382 194.252 12.3473 194.74 11.9418C195.058 11.6778 195.304 11.2666 195.287 11.0276C195.268 10.7543 195.185 10.7721 195.063 11.0746C194.702 11.9688 194.163 11.5645 194.163 10.4002C194.163 9.23584 194.702 8.83154 195.063 9.72569C195.182 10.0225 195.268 9.95695 195.287 9.55574C195.33 8.64155 194.725 8.37291 194.159 9.05546C193.53 9.81434 193.104 9.78042 192.888 8.95488C192.723 8.32281 192.71 8.32359 192.668 8.96684ZM185.735 10.1011C185.42 10.9305 185.72 14.023 186.158 14.4616C186.256 14.5591 186.256 13.685 186.159 12.5195C185.894 9.31294 187.258 9.88796 188.268 13.4087L188.787 15.2178L188.568 13.4854C188.336 11.6439 187.347 9.60277 186.559 9.33992C186.298 9.25282 185.927 9.59505 185.735 10.1011ZM188.807 9.62935C188.818 9.94731 188.977 10.5543 189.159 10.9783L189.489 11.7491L189.511 10.9783C189.522 10.5543 189.364 9.94731 189.159 9.62935C188.827 9.1156 188.788 9.1156 188.807 9.62935ZM191.216 9.83864C191.091 10.1658 191.096 10.5416 191.228 10.6738C191.36 10.806 191.468 10.6148 191.468 10.2491C191.468 9.84439 191.642 9.69139 191.913 9.85866C192.188 10.0294 192.253 9.96467 192.082 9.6891C191.713 9.08979 191.488 9.12871 191.216 9.83864ZM181.491 10.6249C181.509 11.0739 181.6 11.1652 181.723 10.858C181.834 10.5798 181.821 10.2472 181.693 10.1192C181.565 9.99126 181.474 10.2186 181.491 10.6249ZM182.646 11.3957C182.664 11.8447 182.755 11.936 182.878 11.6289C182.989 11.3506 182.975 11.018 182.848 10.89C182.72 10.7621 182.629 10.9895 182.646 11.3957ZM189.929 12.4787C189.929 12.7739 190.213 13.1246 190.56 13.2584C191.06 13.4503 191.101 13.3909 190.756 12.9751C190.516 12.6856 190.434 12.3349 190.573 12.1954C190.713 12.0559 190.625 11.9418 190.378 11.9418C190.131 11.9418 189.929 12.1835 189.929 12.4787ZM200.003 19.3667C200.047 23.1198 199.913 24.8218 199.494 25.8084L198.925 27.1493L198.411 24.7293C197.906 22.3467 198.045 15.6552 198.656 12.9053L198.913 11.7491L199.428 13.0075C199.756 13.808 199.965 16.1212 200.003 19.3667ZM180.586 13.5112C180.689 13.9058 181.058 14.4431 181.406 14.7048C181.938 15.1053 181.962 15.0952 181.557 14.6405C180.515 13.4707 181.651 12.9589 182.78 14.0889C183.113 14.4223 183.385 14.519 183.385 14.3044C183.385 13.8188 182.899 13.5112 181.494 13.1077C180.541 12.834 180.423 12.8861 180.586 13.5112ZM193.393 13.8218C193.393 14.2196 193.651 14.7595 193.966 15.0212C194.43 15.407 194.584 15.3785 194.779 14.8709C195.022 14.2357 194.349 13.098 193.731 13.098C193.545 13.098 193.393 13.4237 193.393 13.8218ZM198.611 16.9363C198.28 21.172 198.676 25.909 199.273 24.843C199.738 24.0105 199.685 14.2334 199.213 13.7609C199.032 13.5802 198.762 15.0081 198.611 16.9363ZM189.758 14.8324C189.907 15.4683 190.201 16.162 190.413 16.374C190.67 16.6311 190.708 16.374 190.528 15.6032C190.38 14.9673 190.086 14.2735 189.874 14.0615C189.618 13.8045 189.579 14.0616 189.758 14.8324ZM190.704 14.5433C190.708 14.9283 190.834 15.0524 190.997 14.8324C191.155 14.6204 191.442 14.3171 191.633 14.1579C191.825 13.9987 191.693 13.8688 191.34 13.8688C190.983 13.8688 190.701 14.1683 190.704 14.5433ZM182.519 15.2802C182.784 15.3873 183.217 15.3873 183.481 15.2802C183.746 15.1734 183.529 15.086 183 15.086C182.471 15.086 182.254 15.1734 182.519 15.2802ZM186.464 15.3877C186.464 15.5874 186.636 15.8564 186.845 15.9859C187.063 16.1208 187.128 15.9663 186.996 15.6232C186.74 14.9557 186.464 14.8335 186.464 15.3877ZM189.256 18.301C189.26 19.1489 189.339 19.4503 189.431 18.9709C189.523 18.4914 189.519 17.7977 189.423 17.4292C189.327 17.0608 189.252 17.4531 189.256 18.301ZM190.443 19.65C190.443 21.2398 190.511 21.8904 190.594 21.0953C190.677 20.3005 190.677 18.9998 190.594 18.2047C190.511 17.41 190.443 18.0602 190.443 19.65ZM182.712 19.4573C182.716 20.3052 182.795 20.6066 182.887 20.1271C182.979 19.6477 182.976 18.9539 182.88 18.5855C182.783 18.217 182.708 18.6094 182.712 19.4573ZM183.776 19.2966C183.779 19.8091 183.952 20.4882 184.16 20.8062C184.427 21.2128 184.465 20.9843 184.291 20.0354C183.987 18.3731 183.768 18.0598 183.776 19.2966ZM184.601 19.2646C184.601 19.7945 184.688 20.0115 184.794 19.7463C184.902 19.4815 184.902 19.048 184.794 18.7828C184.688 18.518 184.601 18.7346 184.601 19.2646ZM188.114 20.2281C188.117 21.288 188.192 21.6757 188.28 21.0899C188.368 20.5041 188.366 19.6369 188.275 19.1628C188.184 18.6888 188.111 19.1682 188.114 20.2281ZM191.468 18.9019C191.468 19.1262 191.642 19.2029 191.853 19.0719C192.065 18.9408 192.238 18.7574 192.238 18.6637C192.238 18.5701 192.065 18.4938 191.853 18.4938C191.642 18.4938 191.468 18.6776 191.468 18.9019ZM185.364 19.4573C185.364 19.8812 185.512 20.575 185.694 20.9989L186.025 21.7697V20.9989C186.025 20.575 185.877 19.8812 185.694 19.4573L185.364 18.6864V19.4573ZM186.969 20.9989C186.97 22.2708 187.042 22.7444 187.128 22.0519C187.214 21.3593 187.212 20.3187 187.124 19.7394C187.036 19.1601 186.966 19.7271 186.969 20.9989ZM181.15 20.2281C181.158 20.864 181.244 21.0775 181.342 20.7025C181.44 20.3275 181.433 19.8072 181.328 19.5463C181.222 19.2854 181.143 19.5922 181.15 20.2281ZM188.897 22.7333C188.897 24.1111 188.967 24.6749 189.052 23.9858C189.138 23.2967 189.138 22.1698 189.052 21.4807C188.967 20.7916 188.897 21.3554 188.897 22.7333ZM191.536 21.0633C191.605 21.4167 191.921 21.7767 192.238 21.8634C192.713 21.9929 192.721 21.9551 192.285 21.6495C191.993 21.4452 191.874 21.0849 192.019 20.8494C192.165 20.6135 192.087 20.4208 191.848 20.4208C191.608 20.4208 191.468 20.7099 191.536 21.0633ZM180.025 22.3479C180.025 23.3017 180.1 23.6918 180.192 23.215C180.284 22.7383 180.284 21.9574 180.192 21.4807C180.1 21.0039 180.025 21.394 180.025 22.3479ZM181.491 22.5726C181.509 23.0216 181.6 23.1129 181.723 22.8057C181.834 22.5274 181.821 22.1948 181.693 22.0669C181.565 21.9389 181.474 22.1663 181.491 22.5726ZM194.847 24.2117C195.043 24.7998 194.061 24.7902 193.47 24.1978C193.216 23.9434 193.008 23.4887 193.008 23.1873C193.008 22.7178 193.129 22.7197 193.853 23.2011C194.318 23.5098 194.765 23.9646 194.847 24.2117ZM187.724 24.6603C187.724 25.6142 187.799 26.0042 187.891 25.5275C187.982 25.0507 187.982 24.2699 187.891 23.7931C187.799 23.3164 187.724 23.7064 187.724 24.6603ZM190.698 23.8895C190.698 24.3689 190.953 24.658 191.372 24.6545C191.905 24.6499 191.935 24.5782 191.515 24.3119C191.223 24.1269 191.104 23.7827 191.249 23.5472C191.395 23.3114 191.33 23.1187 191.106 23.1187C190.882 23.1187 190.698 23.4655 190.698 23.8895ZM189.817 24.6603C189.928 25.0842 190.155 25.4311 190.322 25.4311C190.489 25.4311 190.536 25.0842 190.425 24.6603C190.314 24.2363 190.087 23.8895 189.92 23.8895C189.753 23.8895 189.706 24.2363 189.817 24.6603ZM180.142 26.0713C180.01 26.4158 179.993 26.7885 180.104 26.8995C180.215 27.0105 180.306 26.8988 180.306 26.6517C180.306 25.7799 181.484 26.2147 181.869 27.2283C182.403 28.6335 181.737 29.2328 180.928 28.0758C180.585 27.5867 180.306 27.3859 180.306 27.6299C180.306 27.8735 180.762 28.4327 181.32 28.8717C182.466 29.7743 183.33 29.9554 182.666 29.1534C182.43 28.869 182.327 28.546 182.437 28.4361C182.805 28.0673 181.891 26.2536 181.132 25.847C180.546 25.5329 180.33 25.5814 180.142 26.0713ZM190.876 25.8408C190.502 26.4455 191.846 27.7517 192.779 27.6912C193.563 27.6399 193.562 27.6341 192.747 27.4753C191.518 27.2356 190.78 26.2451 191.493 25.793C191.84 25.5733 191.875 25.4408 191.587 25.4369C191.335 25.4338 191.015 25.6153 190.876 25.8408ZM192.238 25.9622C192.238 26.042 192.541 26.3457 192.912 26.6367C193.522 27.1157 193.536 27.1022 193.057 26.491C192.554 25.8489 192.238 25.645 192.238 25.9622ZM189.762 27.9949C189.909 28.8104 190.099 29.6005 190.184 29.75C190.446 30.2117 191.468 29.6224 191.468 29.01C191.468 28.6547 191.246 28.5175 190.891 28.6539C190.476 28.8131 190.313 28.6142 190.313 27.9471C190.313 27.436 190.129 26.9042 189.904 26.765C189.625 26.5924 189.58 26.9847 189.762 27.9949ZM185.119 27.3551C184.989 27.5655 185.07 28.0423 185.298 28.415C185.679 29.0362 185.705 29.0285 185.608 28.3217C185.535 27.791 185.71 27.5675 186.171 27.6037C186.54 27.6326 186.746 27.5027 186.63 27.3146C186.347 26.8552 185.412 26.8803 185.119 27.3551ZM188.236 27.6792C188.127 27.8561 188.282 28.0006 188.581 28.0006C188.88 28.0006 189.036 27.8561 188.927 27.6792C188.818 27.5027 188.662 27.3582 188.581 27.3582C188.501 27.3582 188.345 27.5027 188.236 27.6792ZM188.678 30.0553C189.812 31.3294 188.869 32.6174 187.618 31.5013C187.156 31.0885 187.156 31.1205 187.614 31.7249C187.953 32.1716 188.476 32.3681 189.039 32.2602C189.535 32.1654 189.931 32.2794 189.934 32.5184C189.938 32.7697 190.074 32.7358 190.263 32.4363C190.68 31.7784 191.744 32.7616 192.084 34.1182C192.283 34.911 192.393 34.9665 192.854 34.5044C193.566 33.7914 193.544 32.9986 192.819 33.2773C192.435 33.4249 192.168 33.1848 192.008 32.5477C191.822 31.805 191.573 31.6335 190.866 31.7619C190.235 31.8763 189.895 31.7125 189.738 31.2184C189.615 30.8295 189.217 30.2869 188.855 30.0132C188.297 29.5908 188.27 29.5974 188.678 30.0553ZM190.506 30.8269C190.375 31.0388 190.441 31.2123 190.653 31.2123C190.865 31.2123 191.145 31.0388 191.276 30.8269C191.407 30.6149 191.34 30.4414 191.129 30.4414C190.917 30.4414 190.637 30.6149 190.506 30.8269ZM183.585 32.4648C184.412 33.4715 185.149 34.2955 185.225 34.2955C185.5 34.2955 183.828 32.1542 182.968 31.405C182.481 30.981 182.759 31.4581 183.585 32.4648ZM184.736 32.5138C185.101 33.0699 185.471 33.5247 185.56 33.5247C185.838 33.5247 184.942 32.0393 184.498 31.7645C184.265 31.6204 184.373 31.9576 184.736 32.5138ZM193.778 32.7793C193.778 33.4384 194.541 34.6809 194.946 34.6809C195.471 34.6809 195.408 33.384 194.856 32.831C194.284 32.2583 193.778 32.234 193.778 32.7793ZM189.351 33.5247C189.482 33.7367 189.762 33.9101 189.974 33.9101C190.186 33.9101 190.252 33.7367 190.121 33.5247C189.99 33.3127 189.71 33.1393 189.498 33.1393C189.287 33.1393 189.22 33.3127 189.351 33.5247ZM188.389 33.7093C188.389 34.3815 189.32 36.608 189.601 36.608C189.759 36.608 189.701 36.0445 189.471 35.3554C189.049 34.0893 188.389 33.085 188.389 33.7093ZM196.665 35.8372C196.534 36.0491 195.994 36.2226 195.465 36.2226C194.921 36.2226 194.606 36.0549 194.74 35.8372C194.871 35.6252 195.411 35.4518 195.94 35.4518C196.484 35.4518 196.799 35.6194 196.665 35.8372ZM194.933 37.5943C194.933 37.9245 195.108 38.086 195.324 37.953C195.539 37.8197 195.615 37.5495 195.493 37.3522C195.163 36.8177 194.933 36.9171 194.933 37.5943ZM117.969 50.9151C108.561 52.0066 101.654 56.1028 99.4996 61.8681C99.0611 63.0413 98.7024 64.3262 98.7024 64.7236C98.7024 65.2735 98.3121 65.5109 97.0665 65.7191C92.9706 66.4032 88.1406 70.2819 86.2906 74.3723C84.9049 77.4367 84.4854 80.1635 84.9103 83.3415C85.3276 86.4603 85.7721 87.5521 87.8084 90.4589C89.609 93.0288 91.4774 94.4941 94.8532 95.9826C96.6831 96.7896 97.5442 96.9141 101.204 96.9018C105.284 96.8879 105.546 96.8351 108.387 95.4626C110.334 94.5222 111.844 93.4596 112.834 92.3342L114.332 90.63L117.391 92.7428C119.074 93.9048 121.923 95.6534 123.722 96.6281C125.522 97.6028 127.063 98.4553 127.147 98.5224C127.232 98.5898 126.718 100.079 126.005 101.832C124.829 104.726 124.711 105.372 124.721 108.872C124.739 115.362 125.795 118.439 129.677 123.311C132.13 126.389 133.965 127.764 137.798 129.396C141.841 131.117 144.118 131.499 148.55 131.199C152.696 130.918 154.596 130.418 158.119 128.676C160.932 127.286 162.29 126.15 164.636 123.223C167.96 119.075 168.995 116.351 169.447 110.561L169.72 107.048L172.599 106.317C178.393 104.846 182.636 102.23 184.862 98.7575C188.775 92.6511 187.417 85.2343 180.819 76.6847L179.179 74.5588L180.19 72.5134C181.624 69.6117 181.651 65.4435 180.255 62.4304C179.178 60.1048 177.012 57.9257 174.453 56.5918C173.106 55.89 172.158 55.7285 169.335 55.7197C165.461 55.7077 163.673 56.3409 160.889 58.7112L159.37 60.0038L155.726 58.3103C147.456 54.467 137.084 51.6532 128.341 50.8804C123.348 50.4392 122.035 50.4434 117.969 50.9151ZM129.159 52.6001C133.324 52.8853 140.073 54.2805 145.085 55.8919C149.03 57.1603 157.518 60.6594 158.128 61.2691C158.325 61.4661 158.192 62.3036 157.809 63.2605C157.065 65.1225 156.964 68.5622 157.586 70.8739C157.981 72.3423 160.106 75.5308 161.414 76.6165C161.749 76.8936 162.975 77.5639 164.139 78.1054C167.128 79.4959 171.316 79.4531 174.553 77.999C175.805 77.4363 177.027 76.7379 177.268 76.4477C177.508 76.1571 177.841 75.9197 178.007 75.9197C178.61 75.9197 182.243 81.263 183.661 84.2368C185.045 87.139 185.117 87.4793 185.117 91.1434C185.117 94.4906 184.991 95.2449 184.158 96.8771C182.444 100.238 178.902 102.767 173.625 104.396C170.718 105.294 169.143 105.433 169.143 104.793C169.143 103.866 166.746 98.4646 165.507 96.6015C163.902 94.1869 159.058 90.3679 156.087 89.175C152.684 87.8084 148.182 87.3047 144.08 87.8315C138.039 88.6074 134.982 90.1355 130.313 94.7142L127.851 97.1291L124.92 95.5224C123.309 94.6386 120.484 92.9035 118.642 91.6659L115.294 89.4164L116.029 87.7533C117.15 85.2161 117.707 80.9162 117.214 78.6126C116.562 75.5694 114.708 71.8968 112.972 70.2103C109.636 66.9682 106.712 65.6389 102.458 65.4296C101.242 65.3699 100.246 65.2223 100.245 65.102C100.243 64.9814 100.506 63.994 100.828 62.9075C102.063 58.7439 107.063 54.9114 113.329 53.3262C115.882 52.6807 122.599 52.0479 124.685 52.2568C125.32 52.3204 127.333 52.4749 129.159 52.6001ZM170.298 57.015C170.298 57.4347 170.644 57.9639 171.067 58.1909C171.619 58.4865 171.837 58.4838 171.837 58.1816C171.837 57.9496 172.037 57.8833 172.28 58.0344C172.598 58.231 172.561 58.4283 172.148 58.7316C171.832 58.964 171.447 59.8297 171.292 60.6552C170.967 62.3961 170.448 63.0131 169.239 63.0948C168.567 63.1403 168.373 62.9476 168.373 62.2365C168.373 61.7324 168.565 61.2009 168.799 61.056C169.089 60.8764 169.142 61.0849 168.967 61.7077C168.767 62.4134 168.8 62.4909 169.112 62.045C169.446 61.5671 169.517 61.5617 169.522 62.013C169.525 62.3132 169.623 62.4635 169.739 62.3475C169.855 62.2311 169.836 61.6819 169.697 61.1269C169.513 60.3904 169.196 60.1179 168.524 60.1179C168.017 60.1179 167.603 59.9445 167.603 59.7325C167.603 59.5206 167.776 59.3471 167.988 59.3471C168.2 59.3471 168.373 59.1837 168.373 58.9837C168.373 58.784 168.017 58.6892 167.583 58.7728C166.935 58.8977 166.831 58.7725 167.002 58.0764C167.117 57.6093 167.111 57.4451 166.989 57.7114C166.867 57.9778 166.596 58.0895 166.386 57.9596C166.159 57.8186 166.055 58.1677 166.13 58.8245C166.202 59.4508 166.488 59.9252 166.794 59.9252C167.357 59.9252 167.915 60.9851 167.961 62.1413C167.976 62.5121 167.796 62.8158 167.562 62.8158C167.328 62.8158 167.237 62.5518 167.361 62.2288C167.542 61.7551 167.444 61.7178 166.85 62.0361C166.445 62.2531 166.036 62.4304 165.941 62.4304C165.554 62.4304 165.41 60.9265 165.763 60.5731C166.012 60.3234 166.013 59.9595 165.765 59.5152C165.416 58.8919 165.35 58.9066 164.926 59.7009C164.554 60.3962 164.582 60.8121 165.072 61.8442C165.405 62.5487 165.671 63.5323 165.662 64.0302C165.649 64.7213 165.52 64.5864 165.12 63.4617C164.831 62.6508 164.492 61.885 164.367 61.7594C163.974 61.3659 164.119 63.5997 164.537 64.3829C164.812 64.8966 164.812 65.1283 164.537 65.1283C164.318 65.1283 164.139 64.9548 164.139 64.7428C164.139 64.5309 163.966 64.3574 163.754 64.3574C163.542 64.3574 163.369 64.791 163.369 65.3209C163.369 66.1291 163.551 66.2845 164.496 66.2845C165.234 66.2845 165.692 66.0521 165.826 65.61C165.938 65.2392 165.939 65.9326 165.827 67.1517C165.694 68.5981 165.766 69.3678 166.036 69.3678C166.263 69.3678 166.448 69.6279 166.448 69.9458C166.448 70.2638 166.698 70.524 167.004 70.524C167.309 70.524 167.811 70.8836 168.119 71.3229C168.468 71.8228 168.773 71.9673 168.933 71.7083C169.298 71.1167 169.793 71.1981 170.06 71.893C170.191 72.236 170.126 72.3905 169.909 72.2556C169.699 72.1261 169.524 72.2471 169.519 72.5246C169.515 72.8021 169.172 73.4627 168.758 73.9927C168.344 74.5226 168.001 75.2599 167.997 75.6306C167.987 76.376 167.571 76.504 167.003 75.9359C166.798 75.7297 166.405 75.7085 166.115 75.8877C165.753 76.1116 165.725 76.2886 166.022 76.4724C166.257 76.6173 166.454 76.509 166.46 76.2315C166.467 75.9239 166.627 75.9933 166.869 76.4096C167.087 76.7849 167.41 77.0027 167.587 76.8936C167.763 76.7842 168.011 76.9649 168.137 77.2952C168.264 77.6255 168.55 77.7824 168.774 77.644C169.055 77.4702 169.045 77.2289 168.74 76.862C167.988 75.9551 168.493 75.4688 169.473 76.1556C170.18 76.6516 170.263 76.8609 169.856 77.1195C169.506 77.3411 169.486 77.4513 169.794 77.4556C170.541 77.4652 170.844 76.6073 170.255 76.1502C169.598 75.6411 169.292 73.2218 169.884 73.2218C170.256 73.2218 170.479 74.0493 170.334 74.8883C170.303 75.0633 170.485 75.0779 170.738 74.9215C171.049 74.7291 171.121 74.8386 170.96 75.2587C170.803 75.6696 170.89 75.8156 171.218 75.69C171.491 75.5852 171.958 75.8106 172.257 76.191C172.758 76.83 172.745 76.8404 172.089 76.3232C171.447 75.818 171.385 75.8368 171.459 76.5159C171.638 78.1581 171.524 78.2322 168.82 78.2322C165.302 78.2322 162.226 76.7518 160.243 74.1044C158.517 71.8004 157.981 70.2318 157.978 67.4796C157.976 64.4388 159.016 61.7809 160.984 59.798C162.796 57.9723 165.719 56.4693 166.871 56.7706C167.273 56.8762 167.676 56.8431 167.766 56.6974C167.856 56.5514 168.462 56.3918 169.114 56.3421C170.067 56.2692 170.298 56.3999 170.298 57.015ZM173.185 57.1803C173.185 57.3665 172.635 57.5619 171.964 57.6151C171.129 57.6806 170.8 57.5615 170.924 57.2377C171.128 56.7059 173.185 56.6539 173.185 57.1803ZM164.859 58.0945C164.381 58.7058 164.394 58.7193 165.005 58.2402C165.646 57.7365 165.85 57.4201 165.533 57.4201C165.453 57.4201 165.15 57.7238 164.859 58.0945ZM168.453 57.6806C168.071 57.834 168.06 58.0059 168.404 58.421C169.042 59.1906 169.49 59.0896 169.422 58.1909C169.362 57.3904 169.281 57.348 168.453 57.6806ZM169.207 59.2993C168.793 59.5618 168.812 59.6708 169.303 59.8593C170.015 60.1329 171.067 59.803 171.067 59.3059C171.067 58.8719 169.887 58.868 169.207 59.2993ZM172.153 62.8821C171.997 63.9412 171.067 64.2969 171.067 63.2976C171.067 62.4978 171.378 62.045 171.928 62.045C172.119 62.045 172.22 62.4215 172.153 62.8821ZM169.909 64.3574C170.087 64.3574 170.317 64.1408 170.419 63.8757C170.521 63.6109 170.584 63.7886 170.561 64.2707C170.534 64.8037 170.328 65.0747 170.035 64.9617C169.323 64.6885 169.003 65.4586 169.553 66.1218C169.932 66.5797 169.923 66.9085 169.508 67.7429C169.221 68.3187 168.908 68.9465 168.813 69.1384C168.717 69.33 168.821 69.3743 169.042 69.2371C169.287 69.086 169.424 69.3658 169.391 69.9482C169.316 71.2343 168.397 71.1807 167.208 69.821C166.408 68.9068 166.25 68.3175 166.22 66.1357L166.183 63.5392L167.663 63.7893C168.757 63.9747 169.154 63.9054 169.188 63.5242C169.212 63.2405 169.311 63.3122 169.408 63.683C169.505 64.0537 169.73 64.3574 169.909 64.3574ZM167.09 64.6145C166.625 65.0804 166.823 66.1978 167.411 66.424C167.763 66.5589 167.988 66.4244 167.988 66.0798C167.988 65.7684 168.156 65.5137 168.361 65.5137C168.566 65.5137 168.621 65.2188 168.483 64.8588C168.326 64.4492 168.174 64.3767 168.078 64.6662C167.993 64.9201 167.755 65.1283 167.549 65.1283C167.342 65.1283 167.28 64.9548 167.411 64.7428C167.68 64.3066 167.478 64.2256 167.09 64.6145ZM98.5265 66.6433C98.4045 66.8406 98.4811 67.1108 98.6963 67.2441C98.9114 67.3771 99.0873 67.2156 99.0873 66.8853C99.0873 66.4028 99.58 66.2845 101.589 66.2845C102.965 66.2845 104.091 66.4279 104.091 66.6032C104.091 66.7786 104.591 66.8483 105.201 66.7589C106.281 66.6001 107.148 67.2272 106.579 67.7556C106.423 67.9001 106.216 67.7949 106.118 67.5209C105.979 67.1285 105.822 67.122 105.378 67.4908C105.069 67.7479 104.413 68.0015 103.92 68.0539C103.207 68.1302 103.064 67.9988 103.218 67.4099C103.44 66.5616 103.094 66.4506 102.414 67.1517C102.047 67.5305 102.078 67.7621 102.562 68.2358C102.9 68.5669 103.383 68.7692 103.634 68.6852C103.886 68.6012 104.104 68.7638 104.121 69.0467C104.137 69.3292 104.215 69.9073 104.294 70.3313C104.373 70.7552 104.186 71.4863 103.879 71.9558C103.572 72.4252 103.321 73.1436 103.321 73.5525C103.321 74.2925 102.342 74.9758 102.025 74.4574C101.668 73.8743 101.692 71.8259 102.067 70.9094C102.524 69.7948 102.355 69.4101 101.698 70.068C101.448 70.3186 100.888 70.5413 100.454 70.5625C99.7775 70.5953 99.8021 70.645 100.627 70.9094C101.486 71.1849 101.434 71.222 100.146 71.2563C98.5658 71.2983 98.2136 70.6801 99.5381 70.1894C100.127 69.9713 100.233 69.7932 99.8972 69.5855C99.6354 69.4232 99.3129 69.3986 99.1809 69.5308C99.0488 69.6634 98.734 69.2903 98.4811 68.7025C98.055 67.712 98.0357 67.761 98.2212 69.3678C98.3313 70.3216 98.5558 71.2755 98.7201 71.4875C99.3087 72.2475 99.5581 74.6648 99.0789 74.9616C98.5015 75.3188 97.951 74.491 97.9229 73.2218C97.911 72.6919 97.4033 71.6752 96.7944 70.9626L95.6873 69.6668L95.0537 70.894C94.5607 71.8482 94.5206 72.2425 94.8732 72.6676C95.1223 72.9686 95.5514 73.8666 95.827 74.6637C96.2043 75.7563 96.5484 76.1228 97.2262 76.154C98.8363 76.2292 99.0873 76.2997 99.0873 76.6786C99.0873 76.8836 98.784 76.9449 98.4137 76.8142C97.8698 76.6227 97.8309 76.6751 98.212 77.0871C98.6016 77.508 98.8163 77.4775 99.4388 76.9133C99.8541 76.5375 100.358 76.3313 100.559 76.4558C100.76 76.5799 101.016 76.3298 101.129 75.8996C101.294 75.2668 101.192 75.162 100.595 75.3516C99.9861 75.5451 99.8583 75.3963 99.8629 74.5002C99.8664 73.9032 100.04 73.1544 100.248 72.8364C100.585 72.3227 100.669 72.3227 101.006 72.8364C101.214 73.1544 101.388 73.6315 101.391 73.8963C101.394 74.1614 101.743 74.7249 102.167 75.1489C102.607 75.5898 102.937 76.4335 102.937 77.1203V78.3208L101.927 77.6583C101.371 77.2941 101.04 77.195 101.19 77.4382C101.34 77.6814 101.254 78.1331 100.998 78.4418C100.661 78.8484 100.654 79.003 100.973 79.003C101.215 79.003 101.624 79.4797 101.88 80.0629C102.137 80.646 102.653 81.3493 103.027 81.6264C103.401 81.9032 103.706 82.393 103.706 82.7145C103.706 83.6121 102.424 83.172 102.184 82.1922C102.046 81.6319 101.809 81.4414 101.495 81.6376C101.185 81.8311 101.059 82.6409 101.138 83.9385C101.244 85.6775 101.166 85.9403 100.543 85.9403C100.149 85.9403 99.1839 85.2855 98.3983 84.4854C97.1577 83.2216 96.9868 82.8297 97.0957 81.4985C97.2366 79.7773 96.7716 76.235 96.5026 76.9796C96.237 77.7149 95.623 77.5531 95.623 76.7479C95.623 75.6935 94.8309 73.6073 94.4305 73.6073C93.8751 73.6073 94.0295 75.8538 94.6707 77.0952C94.9937 77.7203 95.0857 78.2322 94.8755 78.2322C94.665 78.2322 94.2477 77.7639 93.9482 77.1912L93.4032 76.1502L93.2573 77.9893C93.1195 79.7244 93.1607 79.8193 93.9821 79.662C94.7489 79.5152 94.8605 79.662 94.9148 80.8872L94.9764 82.2789L95.1315 81.0264C95.2169 80.3372 95.4491 79.7738 95.6473 79.7738C95.8459 79.7738 96.008 79.5241 96.008 79.2184C96.008 78.9128 96.1977 78.5455 96.4298 78.4017C96.7308 78.2156 96.7732 78.9837 96.5772 81.0769C96.3836 83.1477 96.4294 84.0133 96.7328 84.0133C96.9691 84.0133 97.1627 84.2823 97.1627 84.6114C97.1627 84.9406 97.6754 85.3884 98.3017 85.6073C98.9283 85.8259 99.5535 86.36 99.6909 86.7944C99.8887 87.4184 100.012 87.4723 100.278 87.0511C100.558 86.609 100.617 86.6167 100.627 87.0966C100.637 87.5926 100.689 87.596 100.988 87.1212C101.617 86.1265 102.646 87.398 102.465 88.9465C102.331 90.0962 102.544 90.4928 104.164 92.1061C105.208 93.1463 106.016 94.3049 106.016 94.7631C106.016 95.2098 105.886 95.5702 105.727 95.5632C105.292 95.5447 104.091 94.5685 104.091 94.2332C104.091 94.0717 104.336 94.1426 104.634 94.3908C105.395 95.0233 105.72 94.3026 105.073 93.4169C104.381 92.4696 103.93 92.9509 103.976 94.5881C104.012 95.8592 103.973 95.8927 102.287 96.0269C101.337 96.1028 100.467 96.0134 100.353 95.8288C100.239 95.6441 100.012 95.7101 99.8483 95.9756C99.4507 96.6196 96.6731 95.9282 93.4182 94.3754C91.6641 93.5387 90.5382 92.6411 89.2222 91.0312C86.6336 87.8647 85.9161 86.0016 85.7013 81.8905C85.5316 78.6399 85.6005 78.2133 86.7418 75.4684C88.0443 72.3358 89.5086 70.5552 92.4474 68.5306C94.6215 67.0329 99.1547 65.6254 98.5265 66.6433ZM168.766 66.8718C169.034 67.1948 169.332 67.3798 169.429 67.2831C169.696 67.0156 169.153 66.2845 168.688 66.2845C168.433 66.2845 168.462 66.5057 168.766 66.8718ZM167.792 67.4469C167.659 67.6623 167.389 67.739 167.192 67.6168C166.995 67.495 166.833 67.7525 166.833 68.1888C166.833 69.3157 167.861 69.1758 168.082 68.0188C168.278 66.9932 168.185 66.8098 167.792 67.4469ZM171.014 68.5507C170.931 68.795 170.663 68.8259 170.345 68.6278C170.053 68.4462 169.942 68.0897 170.099 67.8357C170.437 67.2892 171.234 67.9121 171.014 68.5507ZM95.2304 68.4135C94.4867 69.3111 95.0172 69.4799 95.8132 68.5992C96.1977 68.1741 96.3332 67.8261 96.1146 67.8261C95.8963 67.8261 95.4983 68.0905 95.2304 68.4135ZM163.731 68.5969C163.473 71.1603 164.076 72.3327 165.31 71.6713C165.982 71.3114 166.833 71.8621 166.833 72.6564C166.833 72.8969 167.093 73.0935 167.411 73.0935C167.728 73.0935 167.988 72.8623 167.988 72.5794C167.988 72.2969 167.734 72.0656 167.423 72.0656C167.112 72.0656 166.6 71.5888 166.284 71.0057C165.968 70.4226 165.702 70.1729 165.694 70.4504C165.686 70.7279 165.505 70.8477 165.294 70.7167C165.082 70.5857 164.888 70.7055 164.863 70.983C164.838 71.2605 164.595 70.6203 164.323 69.5604C163.961 68.151 163.802 67.8924 163.731 68.5969ZM96.6762 68.6933C96.4572 69.3307 97.1435 71.2948 97.5854 71.2948C97.9795 71.2948 98.0507 69.7393 97.6989 68.8212C97.4191 68.0905 96.9056 68.0265 96.6762 68.6933ZM99.6766 68.5777C99.4276 68.9812 100.949 69.9447 101.292 69.6009C101.547 69.3458 100.67 68.2115 100.218 68.2115C100.044 68.2115 99.801 68.3761 99.6766 68.5777ZM105.33 69.4383C105.079 69.6892 104.763 69.7836 104.627 69.6476C104.492 69.5119 104.495 69.1045 104.634 68.7418C104.826 68.2393 104.993 68.1896 105.336 68.5326C105.678 68.8752 105.677 69.0906 105.33 69.4383ZM102.838 69.8495C102.739 70.1147 102.795 70.6781 102.963 71.1021C103.211 71.7299 103.272 71.6405 103.295 70.6203C103.323 69.3176 103.148 69.0228 102.838 69.8495ZM167.996 69.9551C168.264 70.2781 168.562 70.4631 168.659 70.3663C168.926 70.0989 168.383 69.3678 167.918 69.3678C167.663 69.3678 167.692 69.589 167.996 69.9551ZM170.683 70.3767C170.683 70.6947 170.509 70.8477 170.298 70.7167C170.086 70.5857 169.913 70.2183 169.913 69.9004C169.913 69.5824 170.086 69.4294 170.298 69.5604C170.509 69.6915 170.683 70.0588 170.683 70.3767ZM91.9829 70.8828C91.8608 71.0801 91.9374 71.3503 92.1526 71.4836C92.3678 71.6166 92.5437 71.4551 92.5437 71.1248C92.5437 70.4477 92.3127 70.3482 91.9829 70.8828ZM97.5476 73.2727C97.5476 74.1688 97.3944 74.4051 96.8783 74.3056C96.0514 74.1461 95.7859 72.9906 96.4048 72.2441C97.0526 71.4621 97.5476 71.9076 97.5476 73.2727ZM102.197 72.2903C102.216 72.7393 102.307 72.8307 102.43 72.5235C102.541 72.2452 102.527 71.9126 102.399 71.7847C102.271 71.6567 102.181 71.8841 102.197 72.2903ZM160.572 72.4988C160.833 72.7624 161.144 72.8807 161.262 72.762C161.381 72.6433 161.167 72.4279 160.787 72.283C160.239 72.0741 160.195 72.118 160.572 72.4988ZM91.0648 73.6073C91.0648 74.1372 91.1522 74.3542 91.2588 74.089C91.3658 73.8242 91.3658 73.3906 91.2588 73.1255C91.1522 72.8607 91.0648 73.0773 91.0648 73.6073ZM165.486 73.2218C165.617 73.4338 165.8 73.6073 165.894 73.6073C165.987 73.6073 166.063 73.4338 166.063 73.2218C166.063 73.0099 165.88 72.8364 165.656 72.8364C165.432 72.8364 165.355 73.0099 165.486 73.2218ZM164.524 73.5618C164.524 73.7738 164.697 74.0543 164.909 74.1853C165.12 74.3164 165.294 74.2501 165.294 74.0381C165.294 73.8262 165.12 73.5456 164.909 73.4145C164.697 73.2835 164.524 73.3498 164.524 73.5618ZM100.242 74.2081C100.242 74.5384 100.415 74.7018 100.627 74.5708C100.839 74.4397 101.012 74.1695 101.012 73.9699C101.012 73.7703 100.839 73.6073 100.627 73.6073C100.415 73.6073 100.242 73.8778 100.242 74.2081ZM163.369 73.9927C163.369 74.2046 163.553 74.3781 163.777 74.3781C164.001 74.3781 164.077 74.2046 163.946 73.9927C163.816 73.7807 163.632 73.6073 163.539 73.6073C163.445 73.6073 163.369 73.7807 163.369 73.9927ZM172.607 73.9927C172.607 74.2046 172.444 74.3781 172.245 74.3781C172.046 74.3781 171.776 74.2046 171.645 73.9927C171.514 73.7807 171.677 73.6073 172.007 73.6073C172.337 73.6073 172.607 73.7807 172.607 73.9927ZM105.246 75.1246C105.246 75.9109 104.35 76.8208 103.96 76.4304C103.559 76.0292 103.664 74.9596 104.153 74.4706C104.72 73.9029 105.246 74.2174 105.246 75.1246ZM169.34 75.4653C169.034 75.7717 168.372 75.0764 168.607 74.6956C168.767 74.4366 168.965 74.4764 169.17 74.8074C169.344 75.0892 169.42 75.3851 169.34 75.4653ZM104.091 75.3643C104.091 75.6946 104.264 75.858 104.476 75.727C104.688 75.596 104.861 75.3258 104.861 75.1261C104.861 74.9265 104.688 74.7635 104.476 74.7635C104.264 74.7635 104.091 75.034 104.091 75.3643ZM89.4947 75.5836C89.4782 75.9285 89.7676 76.4489 90.1379 76.7399C90.7234 77.1993 90.7553 77.1927 90.382 76.6905C90.146 76.3725 89.8565 75.8522 89.7388 75.5343C89.5602 75.0506 89.5201 75.0587 89.4947 75.5836ZM90.9409 76.0214C91.2238 76.371 91.3435 76.8378 91.2068 77.059C91.0702 77.2802 91.2346 77.4613 91.5721 77.4613C92.0606 77.4613 92.1041 77.3087 91.7854 76.7121C91.5648 76.2997 91.1691 75.833 90.9058 75.6746C90.5679 75.4715 90.5783 75.5736 90.9409 76.0214ZM101.456 76.1324C101.53 76.5101 101.822 76.8971 102.107 76.9919C102.438 77.1025 102.577 76.9171 102.492 76.4778C102.419 76.1001 102.126 75.7131 101.841 75.6183C101.51 75.5077 101.371 75.6931 101.456 76.1324ZM165.126 76.8035C165.271 77.1835 165.486 77.3973 165.604 77.2786C165.723 77.1603 165.605 76.8493 165.341 76.5876C164.961 76.2099 164.917 76.2542 165.126 76.8035ZM98.7024 77.8456C97.5746 78.1327 97.5873 79.1679 98.7305 80.1222C99.2436 80.5504 99.3602 80.9053 99.1143 81.2908C98.8217 81.7494 98.657 81.7575 98.1543 81.3397C97.6239 80.8992 97.5476 80.9871 97.5476 82.0392C97.5476 83.0505 97.6943 83.2425 98.4665 83.2425C99.2059 83.2425 99.423 82.9985 99.5796 81.9899C99.687 81.3008 99.62 80.5724 99.4311 80.3712C98.9545 79.8636 98.9996 79.5314 99.6297 78.9005C100.383 78.1462 99.8591 77.5508 98.7024 77.8456ZM100.242 79.8598C100.242 80.5997 101.249 81.4808 101.546 81.0002C101.666 80.8063 101.421 80.3372 101.003 79.9584C100.362 79.378 100.242 79.3622 100.242 79.8598ZM91.0933 80.93C91.0933 81.6719 91.1726 81.9752 91.2692 81.6045C91.3662 81.2337 91.3662 80.6263 91.2692 80.2555C91.1726 79.8848 91.0933 80.1881 91.0933 80.93ZM91.7738 80.7373C91.7738 81.2673 91.9232 81.7008 92.1052 81.7008C92.2877 81.7008 92.3543 81.2673 92.2531 80.7373C92.1518 80.2074 92.0025 79.7738 91.9213 79.7738C91.8404 79.7738 91.7738 80.2074 91.7738 80.7373ZM89.9462 81.8935C89.9505 82.7414 90.0293 83.0428 90.1213 82.5634C90.2133 82.0839 90.2099 81.3902 90.1137 81.0217C90.0174 80.6533 89.942 81.0456 89.9462 81.8935ZM88.8046 83.0498C88.8076 84.1096 88.8823 84.4974 88.9708 83.9115C89.059 83.3257 89.0567 82.4586 88.9654 81.9845C88.8742 81.5105 88.8019 81.9899 88.8046 83.0498ZM93.5449 83.7393C93.2758 85.5942 93.3297 86.0903 93.8662 86.6838C94.5872 87.4812 96.4067 87.5814 96.11 86.8075C96.0087 86.5427 96.1334 86.3257 96.3879 86.3257C96.6419 86.3257 96.9406 86.6726 97.0511 87.0966C97.162 87.5205 97.4056 87.8674 97.5927 87.8674C97.7794 87.8674 97.9464 88.2578 97.963 88.7345C97.9795 89.2113 98.0831 89.3778 98.1928 89.1038C98.346 88.7214 98.5176 88.7103 98.9322 89.0549C99.3668 89.4156 99.4722 89.3435 99.4722 88.6852C99.4722 88.2165 99.2267 87.8674 98.8972 87.8674C98.5811 87.8674 97.8017 87.1474 97.165 86.2679C96.4402 85.2659 96.008 84.9144 96.008 85.3271C96.008 85.6894 95.8347 85.8787 95.623 85.7476C95.4113 85.6166 95.2381 85.6933 95.2381 85.9176C95.2381 86.1419 95.0572 86.3257 94.8359 86.3257C94.5849 86.3257 94.5233 85.7811 94.6723 84.8804C94.8409 83.8576 94.7978 83.5978 94.5248 83.9913C94.2323 84.4122 94.1061 84.1786 94.0037 83.0278C93.8744 81.5771 93.8536 81.6095 93.5449 83.7393ZM99.1836 84.495C99.2713 84.7602 99.6701 85.04 100.069 85.1175C100.697 85.2393 100.726 85.1745 100.279 84.6357C99.6686 83.8992 98.9549 83.8075 99.1836 84.495ZM102.923 84.5744C103.557 85.3395 103.057 86.135 102.325 85.5264C101.725 85.0281 101.588 84.0133 102.12 84.0133C102.305 84.0133 102.667 84.2657 102.923 84.5744ZM91.3947 85.844C91.3982 86.229 91.524 86.3531 91.688 86.133C91.8458 85.9211 92.1322 85.6177 92.3235 85.4586C92.5152 85.2994 92.3832 85.1695 92.0306 85.1695C91.6737 85.1695 91.3916 85.469 91.3947 85.844ZM88.7391 86.4221C88.7726 87.0746 88.8273 87.1224 88.9597 86.6148C89.2241 85.6016 89.8042 85.8031 90.0679 87.0002C90.4385 88.6825 90.5563 88.8941 90.5887 87.9383C90.6052 87.4477 90.4397 86.7104 90.2207 86.3003C89.6664 85.2636 88.6837 85.3445 88.7391 86.4221ZM101.077 89.1103C100.735 90.208 100.709 90.8019 100.992 91.0852C101.568 91.6617 101.493 92.1069 100.819 92.1069C100.495 92.1069 100.242 91.7627 100.242 91.3211C100.242 90.7002 100.139 90.6315 99.7505 90.9946C99.4799 91.2478 99.2632 91.888 99.2694 92.4175C99.2833 93.6836 98.5561 93.9017 98.0222 92.7921C97.7897 92.3092 97.5881 92.1423 97.5738 92.4214C97.5592 92.7 97.7259 93.262 97.9441 93.6701C98.2794 94.2976 98.4568 94.3388 99.0989 93.9372C99.5158 93.6766 99.8572 93.2446 99.8572 92.9775C99.8572 92.6954 100.34 92.4923 101.012 92.4923C102.129 92.4923 102.543 91.9997 101.808 91.5449C101.61 91.4228 101.463 90.8115 101.481 90.1864C101.499 89.5616 101.66 89.1412 101.84 89.2522C102.02 89.3635 102.167 89.1077 102.167 88.6837C102.167 87.2831 101.574 87.5151 101.077 89.1103ZM96.0199 88.6382C96.0199 88.9562 96.1877 89.4765 96.3929 89.7944C96.7247 90.3082 96.7659 90.3082 96.7659 89.7944C96.7659 89.4765 96.598 88.9562 96.3929 88.6382C96.0611 88.1244 96.0199 88.1244 96.0199 88.6382ZM93.0749 89.1978C92.8147 89.8765 93.1915 90.5676 93.8174 90.5595C94.1145 90.5556 94.0868 90.4335 93.7385 90.213C93.4432 90.0257 93.3077 89.5944 93.4378 89.2552C93.5679 88.9157 93.5876 88.6382 93.4817 88.6382C93.3759 88.6382 93.1927 88.8899 93.0749 89.1978ZM151.33 89.4294C151.504 90.0943 151.589 90.1193 151.965 89.6152C152.281 89.1905 152.79 89.0972 153.842 89.271C155.508 89.5466 155.603 89.7821 154.45 90.7945C153.701 91.4536 153.641 91.4598 153.861 90.8543C154.151 90.0596 153.985 90.0234 152.855 90.635C152.392 90.8855 151.549 91.143 150.98 91.2074C150.077 91.3095 149.955 91.1966 150.018 90.3124C150.057 89.7559 149.891 89.2298 149.648 89.1431C149.405 89.0568 149.232 89.298 149.263 89.6792C149.299 90.1294 149.093 90.3352 148.675 90.2658C148.32 90.2072 147.93 90.3213 147.808 90.519C147.686 90.7167 147.197 90.7861 146.721 90.6735C145.868 90.472 145.867 90.4782 146.625 91.0682C147.048 91.3977 147.453 91.5064 147.523 91.3091C147.759 90.6512 149.094 90.9402 149.523 91.7415C150.166 92.9447 149.836 93.8254 148.738 93.8339C148.018 93.8393 147.797 94.0312 147.848 94.6062C147.886 95.0271 147.713 95.5015 147.463 95.6603C146.812 96.075 144.801 96.0161 144.123 95.5624C143.623 95.2275 143.646 95.0988 144.293 94.6047C144.704 94.2906 145.288 94.0339 145.591 94.0339C146.019 94.0339 146.042 93.9137 145.696 93.4955C145.45 93.1995 144.927 93.0419 144.532 93.1452C143.979 93.2897 143.755 93.0592 143.553 92.1419C143.41 91.4867 143.133 90.9506 142.938 90.9506C142.453 90.9506 142.492 91.4763 143.017 92.0013C143.255 92.2402 143.464 93.1853 143.482 94.1018C143.499 95.0183 143.694 95.892 143.914 96.0427C144.135 96.1938 144.348 96.6274 144.387 97.0062C144.426 97.3855 144.575 98.3201 144.717 99.0836C144.926 100.207 144.845 100.522 144.291 100.735C143.282 101.122 142.736 99.9484 142.941 97.8333C142.975 97.4849 142.561 96.8524 142.021 96.4269C141.481 96.0018 140.8 95.0838 140.507 94.3866L139.975 93.1189L138.974 95.0976C138.3 96.4273 138.11 97.1619 138.393 97.3373C139.697 98.1439 141.023 104.44 139.889 104.44C139.677 104.44 139.504 103.945 139.504 103.341C139.504 101.962 138.798 99.7993 138.106 99.0581C137.656 98.5756 137.581 98.7999 137.593 100.6C137.601 101.758 137.854 103.139 138.157 103.669C138.81 104.812 138.885 105.596 138.343 105.596C138.128 105.596 137.651 104.965 137.285 104.194L136.617 102.793L136.351 104.291C135.799 107.393 135.884 107.649 137.387 107.405C138.637 107.202 138.738 107.261 138.792 108.222L138.85 109.258L139.013 108.167C139.125 107.418 139.347 107.143 139.725 107.288C140.109 107.436 140.274 107.213 140.274 106.548C140.274 105.953 140.494 105.596 140.859 105.596C141.265 105.596 141.385 105.86 141.251 106.463C141.043 107.405 140.274 114.442 140.274 115.409C140.274 116.588 139.502 115.971 139.449 114.75C139.395 113.506 139.393 113.507 139.161 114.955C138.843 116.931 138.169 116.774 138.256 114.744C138.295 113.846 138.231 113.329 138.113 113.593C137.996 113.859 137.725 114.075 137.509 114.075C137.263 114.075 137.201 113.184 137.34 111.666L137.56 109.258L137 111.185C136.087 114.326 136.243 116.045 137.579 117.544C138.467 118.54 138.734 118.679 138.734 118.146C138.734 117.654 138.947 117.51 139.471 117.647C139.97 117.777 140.268 117.606 140.397 117.114C140.684 116.014 141.303 116.244 141.564 117.547C141.693 118.196 142.011 118.662 142.286 118.607C142.604 118.542 142.774 118.951 142.771 119.773C142.767 120.869 142.83 120.952 143.24 120.39C143.63 119.857 143.819 119.829 144.304 120.232C144.805 120.648 144.892 120.585 144.884 119.807C144.879 119.164 144.515 118.721 143.659 118.315C142.989 117.997 142.257 117.397 142.031 116.982C141.806 116.567 141.405 115.991 141.14 115.702C140.511 115.015 140.502 113.188 141.129 113.397C141.388 113.484 141.695 113.958 141.812 114.452C141.946 115.022 142.36 115.401 142.947 115.491C144.131 115.672 144.874 116.299 145.36 117.528C145.727 118.457 145.764 118.467 146.063 117.737C146.237 117.313 146.391 117.183 146.406 117.448C146.444 118.137 147.202 118.045 147.202 117.351C147.202 116.586 147.573 116.62 148.232 117.448C149.172 118.629 149.474 119.752 149.155 120.88C148.903 121.769 149.023 122.169 149.79 122.997C150.568 123.837 150.661 124.157 150.315 124.804C150.079 125.246 150.045 125.683 150.237 125.802C150.425 125.919 150.674 125.649 150.791 125.204L151.002 124.394L152.168 125.225C153.192 125.955 154.419 128.561 153.957 129.023C153.647 129.334 152.157 128.636 151.404 127.826L150.628 126.992L150.882 128.585L151.137 130.178L148.802 130.211C147.517 130.229 146.362 130.075 146.234 129.868C146.107 129.661 145.731 129.492 145.401 129.492C144.888 129.492 144.876 129.585 145.318 130.118C145.789 130.687 145.677 130.72 144.114 130.477C140.436 129.904 135.075 127.615 132.867 125.673C130.834 123.885 127.614 119.393 126.767 117.162C125.604 114.096 125.038 108.365 125.634 105.694C126.261 102.885 128.642 97.7134 130.104 95.9856C131.812 93.9672 136.938 90.3243 139.008 89.6587C141.49 88.8602 142.112 88.7865 146.953 88.7191C150.827 88.6648 151.144 88.7164 151.33 89.4294ZM94.6195 89.6333C94.7481 89.9687 94.8532 90.3155 94.8532 90.4042C94.8532 90.4928 95.1192 90.5652 95.444 90.5652C95.9156 90.5652 95.9518 90.4095 95.623 89.7944C95.1369 88.8849 94.28 88.7473 94.6195 89.6333ZM143.61 89.2807C143.242 89.6487 143.294 90.1798 143.697 90.1798C143.886 90.1798 144.14 89.9197 144.262 89.6017C144.488 89.0144 144.077 88.8124 143.61 89.2807ZM105.439 90.1529C105.439 91.0347 104.592 91.0505 104.363 90.1733C104.204 89.564 104.31 89.3947 104.795 89.488C105.149 89.5566 105.439 89.8557 105.439 90.1529ZM144.923 90.0191C144.942 90.4681 145.033 90.5594 145.156 90.2523C145.267 89.974 145.253 89.6414 145.125 89.5134C144.998 89.3855 144.907 89.6129 144.923 90.0191ZM98.7328 90.4045C98.7513 90.8535 98.8425 90.9449 98.9653 90.6377C99.0765 90.3594 99.0627 90.0268 98.9349 89.8989C98.8071 89.7709 98.7162 89.9983 98.7328 90.4045ZM91.004 90.711C91.004 90.7907 91.3073 91.0944 91.6776 91.3854C92.2881 91.8645 92.3016 91.851 91.8231 91.2397C91.32 90.5976 91.004 90.3938 91.004 90.711ZM139.134 91.513C138.657 92.0213 138.329 92.6233 138.405 92.8511C138.48 93.0789 139.022 92.7567 139.608 92.135C140.193 91.5134 140.522 90.9113 140.337 90.7969C140.152 90.6824 139.611 91.005 139.134 91.513ZM102.649 91.56C103.02 92.0013 103.224 92.4607 103.104 92.5813C102.984 92.7019 103.07 92.9147 103.296 93.0546C104.084 93.5425 103.699 92.2202 102.84 91.4922C101.975 90.7587 101.975 90.7587 102.649 91.56ZM141.297 91.5962C140.84 92.0537 141.032 94.2559 141.595 95.0202C142.413 96.1297 143.136 95.2418 142.814 93.5233C142.558 92.1589 141.755 91.138 141.297 91.5962ZM145.474 91.7157C145.109 92.3073 145.988 93.2631 146.897 93.2631C147.815 93.2631 147.642 92.5578 146.544 91.8282C145.974 91.449 145.659 91.4158 145.474 91.7157ZM147.06 92.764C146.742 93.0816 145.663 92.5728 145.663 92.1053C145.663 91.8205 145.909 91.8263 146.466 92.1246C146.907 92.3613 147.174 92.6488 147.06 92.764ZM153.361 92.0753C153.361 92.8661 152.862 93.6485 152.358 93.6485C151.812 93.6485 151.611 92.4464 152.078 91.9785C152.458 91.5985 153.361 91.6667 153.361 92.0753ZM151.437 94.4313C151.437 96.1421 151.284 96.8146 150.859 96.9776C150.505 97.1141 150.282 97.6992 150.282 98.4939C150.282 99.4112 150.048 99.9134 149.479 100.218C149.037 100.455 148.61 100.582 148.529 100.501C148.448 100.42 148.263 99.3383 148.117 98.0973C147.922 96.4331 147.969 95.9136 148.297 96.1167C148.59 96.2974 148.742 96.0538 148.742 95.4056C148.742 94.0705 149.505 94.1414 149.536 95.4792L149.561 96.5391L149.97 95.5755C150.196 95.0456 150.353 94.0482 150.319 93.3595C150.275 92.4649 150.426 92.1069 150.847 92.1069C151.311 92.1069 151.437 92.601 151.437 94.4313ZM96.4006 93.0797C96.6685 93.4026 96.9668 93.5876 97.0638 93.4909C97.3305 93.2234 96.7882 92.4923 96.3232 92.4923C96.0676 92.4923 96.0969 92.7135 96.4006 93.0797ZM101.782 93.4558C102.045 93.7738 102.521 94.0339 102.838 94.0339C103.308 94.0339 103.326 93.926 102.937 93.4558C102.673 93.1378 102.197 92.8777 101.88 92.8777C101.41 92.8777 101.392 92.9856 101.782 93.4558ZM95.6538 94.0339C96.215 95.2137 96.3929 95.4322 96.3929 94.9427C96.3929 94.7358 96.1234 94.2301 95.7943 93.8185C95.2297 93.1132 95.222 93.1255 95.6538 94.0339ZM99.4722 94.58C99.4722 94.9153 99.7463 95.1901 100.082 95.1901C100.417 95.1901 100.623 94.9843 100.539 94.7327C100.301 94.0177 99.4722 93.8994 99.4722 94.58ZM101.397 94.4313C101.397 94.6367 101.657 94.8047 101.974 94.8047C102.292 94.8047 102.552 94.7366 102.552 94.6533C102.552 94.5701 102.292 94.402 101.974 94.2798C101.657 94.158 101.397 94.2263 101.397 94.4313ZM134.624 95.0364C134.494 95.3755 134.63 95.8068 134.925 95.9941C135.789 96.5422 136.256 96.3965 135.472 95.823C134.778 95.3146 134.778 95.288 135.495 94.8714C136.17 94.4787 136.174 94.4417 135.547 94.4309C135.169 94.4247 134.754 94.6968 134.624 95.0364ZM145.759 95.0703C146.129 95.1674 146.736 95.1674 147.106 95.0703C147.476 94.9735 147.174 94.8942 146.433 94.8942C145.692 94.8942 145.389 94.9735 145.759 95.0703ZM133.05 97.1172C133.05 97.8591 133.129 98.1628 133.226 97.7917C133.323 97.4205 133.323 96.8139 133.226 96.4427C133.129 96.0716 133.05 96.3753 133.05 97.1172ZM131.881 97.3099C131.888 97.9458 131.975 98.1593 132.072 97.7843C132.17 97.4093 132.164 96.889 132.058 96.6281C131.953 96.3672 131.873 96.674 131.881 97.3099ZM142.265 97.9169C142.479 98.927 142.395 99.351 141.906 99.7237C141.002 100.413 140.551 100.144 140.174 98.6904C139.91 97.6707 139.982 97.3234 140.542 96.899C141.524 96.1537 141.945 96.4022 142.265 97.9169ZM147.366 99.1926C147.382 99.921 147.469 100.444 147.559 100.355C147.649 100.266 148.125 100.572 148.617 101.035C149.286 101.664 149.512 102.297 149.512 103.543C149.512 105.412 149.263 105.562 148.045 104.425C147.475 103.893 147.202 103.183 147.202 102.228C147.202 101.131 147.1 100.92 146.74 101.28C146.002 102.019 145.714 101.83 145.453 100.434C145.279 99.5098 145.404 98.8238 145.877 98.1011C146.7 96.8428 147.324 97.2995 147.366 99.1926ZM148.772 97.7273C148.791 98.1763 148.882 98.2676 149.005 97.9605C149.116 97.6822 149.102 97.3496 148.975 97.2216C148.847 97.0937 148.756 97.3211 148.772 97.7273ZM133.376 99.2689C133.394 99.7179 133.485 99.8093 133.608 99.5021C133.719 99.2238 133.706 98.8912 133.578 98.7633C133.45 98.6353 133.359 98.8627 133.376 99.2689ZM143.799 99.4296C143.799 99.9596 143.886 100.177 143.993 99.9114C144.1 99.6466 144.1 99.2131 143.993 98.9479C143.886 98.6831 143.799 98.8997 143.799 99.4296ZM146.048 99.6451C146.048 100.204 146.214 100.528 146.433 100.393C146.644 100.262 146.817 99.8186 146.817 99.4069C146.817 98.9953 146.644 98.6588 146.433 98.6588C146.221 98.6588 146.048 99.1028 146.048 99.6451ZM152.846 100.418C153.203 101.347 152.326 102.898 151.445 102.898C150.849 102.898 150.667 102.645 150.667 101.819C150.667 100.094 152.316 99.0334 152.846 100.418ZM151.312 101.126C151.071 101.754 151.395 102.199 151.875 101.902C152.312 101.631 152.303 100.586 151.863 100.586C151.674 100.586 151.426 100.829 151.312 101.126ZM131.036 101.868C131.036 102.61 132.597 103.913 133.842 104.208L134.917 104.463L134.319 103.306C133.455 101.634 131.036 100.574 131.036 101.868ZM147.777 101.808C147.478 102.582 148.244 104.17 148.761 103.85C149.284 103.526 149.213 102.777 148.577 101.912C148.08 101.235 148.003 101.226 147.777 101.808ZM133.437 102.605C134.228 103.397 134.242 103.479 133.601 103.602C132.817 103.754 131.327 102.591 131.645 102.076C131.982 101.53 132.523 101.69 133.437 102.605ZM144.123 102.898C144.546 103.322 144.893 103.821 144.893 104.008C144.893 104.622 143.847 105.229 143.21 104.983C142.697 104.786 142.583 105.017 142.583 106.26C142.583 107.585 142.693 107.773 143.449 107.746C144.118 107.723 144.343 107.958 144.437 108.776C144.568 109.912 143.879 110.208 143.045 109.373C142.686 109.014 142.582 109.078 142.578 109.662C142.575 110.075 142.468 110.804 142.341 111.281C142.131 112.064 142.244 112.148 143.514 112.148C144.287 112.148 145.39 112.426 145.965 112.767L147.01 113.386L145.951 112.542C145.231 111.968 144.893 111.339 144.893 110.575C144.893 109.956 145.058 109.45 145.26 109.45C145.462 109.45 145.346 108.959 145.001 108.359C144.274 107.09 144.553 105.982 145.599 105.982C146.713 105.982 148.357 107.463 148.357 108.467C148.357 109.441 147.5 110.383 147.026 109.929C146.753 109.668 146.987 111.37 147.45 113.015C147.554 113.386 147.459 113.69 147.238 113.69C146.966 113.69 146.958 114.009 147.212 114.678C147.722 116.021 147.732 116.002 146.485 116.002C145.246 116.002 143.353 114.699 143.353 113.846C143.353 113.539 142.898 113.08 142.342 112.827C141.341 112.37 141.333 112.334 141.521 109.034C141.625 107.201 141.584 105.461 141.429 105.167C141.274 104.873 141.037 104.168 140.902 103.6C140.698 102.738 140.802 102.539 141.524 102.4C143.145 102.087 143.353 102.127 144.123 102.898ZM147.162 103.926C147.744 105.205 147.06 106.277 146.146 105.518C145.329 104.839 144.92 103.553 145.35 103.017C145.865 102.377 146.632 102.762 147.162 103.926ZM143.041 103.693C143.133 103.971 143.436 104.275 143.714 104.368C144.003 104.464 144.147 104.32 144.051 104.031C143.958 103.752 143.655 103.449 143.377 103.356C143.089 103.26 142.944 103.404 143.041 103.693ZM133.455 108.872C133.458 109.932 133.533 110.32 133.622 109.734C133.71 109.148 133.707 108.281 133.616 107.807C133.525 107.333 133.453 107.812 133.455 108.872ZM145.663 107.656C145.663 108.273 146.882 109.45 147.521 109.45C148.132 109.45 148.088 109.017 147.373 107.995C146.712 107.05 145.663 106.842 145.663 107.656ZM135.345 108.487C135.353 109.123 135.439 109.336 135.537 108.961C135.634 108.586 135.628 108.066 135.522 107.805C135.417 107.544 135.337 107.851 135.345 108.487ZM131.525 109.836C131.525 110.79 131.6 111.18 131.692 110.703C131.784 110.226 131.784 109.445 131.692 108.969C131.6 108.492 131.525 108.882 131.525 109.836ZM134.146 109.29C134.164 109.739 134.255 109.83 134.378 109.523C134.489 109.244 134.475 108.912 134.348 108.784C134.22 108.656 134.129 108.883 134.146 109.29ZM143.546 109.065C143.677 109.277 143.86 109.45 143.953 109.45C144.047 109.45 144.123 109.277 144.123 109.065C144.123 108.853 143.939 108.679 143.715 108.679C143.491 108.679 143.415 108.853 143.546 109.065ZM129.986 110.607C129.986 111.56 130.061 111.95 130.153 111.474C130.244 110.997 130.244 110.216 130.153 109.739C130.061 109.263 129.986 109.653 129.986 110.607ZM138.454 110.992C138.454 111.946 138.529 112.336 138.621 111.859C138.713 111.382 138.713 110.601 138.621 110.125C138.529 109.648 138.454 110.038 138.454 110.992ZM150.436 110.669C150.757 111.128 150.93 111.648 150.82 111.826C150.446 112.432 149.155 112.149 148.738 111.369C147.916 109.833 149.418 109.214 150.436 110.669ZM149.127 110.561C149.127 110.773 149.3 111.054 149.512 111.185C149.724 111.316 149.897 111.249 149.897 111.037C149.897 110.825 149.724 110.545 149.512 110.414C149.3 110.283 149.127 110.349 149.127 110.561ZM130.341 113.497C130.349 114.133 130.435 114.347 130.533 113.972C130.63 113.597 130.624 113.076 130.518 112.815C130.413 112.554 130.333 112.861 130.341 113.497ZM144.373 113.893C144.634 114.574 146.008 115.399 146.335 115.072C146.647 114.759 145.263 113.304 144.653 113.304C144.357 113.304 144.241 113.549 144.373 113.893ZM149.435 113.767C149.988 114.321 150.053 116.002 149.521 116.002C148.959 116.002 147.868 114.17 148.154 113.707C148.48 113.18 148.867 113.198 149.435 113.767ZM133.605 115.135C133.43 115.433 133.973 117.158 134.242 117.158C134.325 117.158 134.307 116.706 134.201 116.152C134.028 115.245 134.1 115.172 134.928 115.406C135.636 115.607 135.714 115.574 135.27 115.263C134.59 114.786 133.845 114.729 133.605 115.135ZM130.105 116.206C129.858 117.191 130.762 119.471 131.399 119.471C131.588 119.471 131.995 119.568 132.304 119.687C132.763 119.863 132.816 119.63 132.592 118.404C132.266 116.62 131.995 116.131 131.054 115.627C130.47 115.314 130.303 115.416 130.105 116.206ZM131.655 116.677C132.315 117.548 132.354 119.203 131.709 118.993C131.074 118.786 130.158 116.875 130.46 116.386C130.796 115.84 131.071 115.907 131.655 116.677ZM147.654 119.08C147.723 119.792 147.996 120.446 148.261 120.533C148.969 120.766 148.864 118.896 148.135 118.29C147.6 117.845 147.543 117.939 147.654 119.08ZM137.194 118.677C137.194 118.877 137.366 119.146 137.575 119.276C137.793 119.41 137.858 119.256 137.726 118.913C137.47 118.245 137.194 118.123 137.194 118.677ZM140.161 119.476C140.033 119.967 140.16 120.692 140.446 121.101C141.163 122.126 141.379 121.468 140.84 119.898C140.424 118.684 140.376 118.654 140.161 119.476ZM135.774 120.487C135.462 121.3 136.111 122.325 137.043 122.493C137.755 122.62 137.755 122.61 137.038 122.068C136.552 121.701 136.378 121.234 136.521 120.685C136.773 119.722 136.132 119.552 135.774 120.487ZM137.964 120.416C137.964 121.06 138.949 122.554 139.374 122.554C140.113 122.554 140.009 121.626 139.185 120.88C138.504 120.262 137.964 120.058 137.964 120.416ZM146.879 121.105C146.274 121.711 146.318 122.406 147.031 123.496C147.446 124.131 147.5 124.49 147.207 124.671C146.578 125.06 145.581 124.063 145.792 123.256C145.893 122.87 145.818 122.458 145.627 122.339C145.435 122.22 145.278 122.394 145.278 122.724C145.278 123.054 145.105 123.325 144.893 123.325C144.681 123.325 144.508 122.989 144.508 122.577C144.508 122.165 144.306 121.704 144.058 121.55C143.772 121.373 143.682 121.47 143.811 121.817C144.778 124.408 144.98 125.24 144.772 125.782C144.436 126.659 143.322 126.564 143.08 125.637C142.969 125.214 142.661 124.867 142.394 124.867C142.049 124.867 142.124 125.299 142.653 126.37L143.396 127.872L144.337 126.93C144.854 126.412 145.278 125.841 145.278 125.661C145.278 125.19 146.37 124.839 146.613 125.232C146.726 125.415 147.24 125.365 147.755 125.122C148.615 124.716 148.642 124.624 148.089 124.013C147.686 123.566 147.563 122.965 147.717 122.194C147.97 120.926 147.573 120.41 146.879 121.105ZM152.972 121.2C153.565 121.916 153.21 122.94 152.37 122.94C151.974 122.94 151.82 122.73 151.956 122.374C152.075 122.063 152.004 121.704 151.798 121.576C151.391 121.324 151.672 120.627 152.182 120.627C152.355 120.627 152.711 120.885 152.972 121.2ZM132.575 121.498C132.575 121.804 135.698 126.023 135.925 126.023C136.154 126.023 135.694 125.283 134.367 123.518C132.857 121.509 132.575 121.191 132.575 121.498ZM135.077 123.325C135.406 123.961 135.761 124.481 135.867 124.481C135.973 124.481 135.791 123.961 135.462 123.325C135.134 122.689 134.779 122.169 134.673 122.169C134.567 122.169 134.749 122.689 135.077 123.325ZM148.898 123.654C149.712 124.573 149.897 124.657 149.897 124.109C149.897 123.905 149.507 123.533 149.031 123.283C148.169 122.83 148.169 122.832 148.898 123.654ZM141.429 123.665C141.429 123.877 141.602 124.157 141.814 124.289C142.025 124.42 142.198 124.353 142.198 124.141C142.198 123.929 142.025 123.649 141.814 123.518C141.602 123.387 141.429 123.453 141.429 123.665ZM140.894 126.228C141.62 127.336 142.008 127.243 141.63 126.052C141.491 125.612 141.124 125.252 140.817 125.252C140.347 125.252 140.359 125.409 140.894 126.228ZM147.799 126.128C147.903 126.397 148.351 126.845 148.795 127.123C149.868 127.793 150.567 127.134 149.702 126.268C148.952 125.518 147.525 125.412 147.799 126.128ZM151.437 126.36C151.437 127.248 152.803 128.543 153.148 127.983C153.47 127.462 152.781 126.178 152.025 125.888C151.63 125.736 151.437 125.892 151.437 126.36ZM139.333 126.89C139.639 127.892 140.307 128.816 140.549 128.573C140.748 128.374 139.574 126.023 139.276 126.023C139.161 126.023 139.187 126.413 139.333 126.89ZM145.171 127.029C145.018 127.182 144.893 127.628 144.893 128.02C144.893 128.579 145.149 128.713 146.077 128.642C146.728 128.593 147.341 128.424 147.438 128.266C147.535 128.108 148.042 128.142 148.563 128.34C149.085 128.539 149.512 128.551 149.512 128.367C149.512 127.837 148.383 127.543 147.344 127.804C146.691 127.968 146.246 127.841 145.921 127.397C145.662 127.041 145.324 126.876 145.171 127.029ZM149.927 128.945C149.946 129.394 150.037 129.486 150.16 129.179C150.271 128.9 150.257 128.568 150.129 128.44C150.002 128.312 149.911 128.539 149.927 128.945ZM67.5712 149.906C65.6835 150.371 64.3721 151.465 63.3686 153.41C62.5141 155.065 62.4887 155.398 62.5988 163.6C62.7077 171.73 62.7497 172.139 63.6173 173.536C65.3286 176.293 66.2755 176.511 76.4971 176.511C85.2252 176.511 85.5412 176.484 86.7999 175.635C87.5143 175.153 88.5008 174.161 88.9924 173.431C89.875 172.12 89.885 171.985 89.7715 162.841C89.6618 153.973 89.6202 153.528 88.7984 152.374C87.1055 149.998 85.9511 149.734 76.9544 149.655C72.5086 149.616 68.286 149.729 67.5712 149.906ZM179.151 163.6V173.814H181.268H183.385V163.6V153.387H181.268H179.151V163.6ZM97.9326 163.793V173.814H100.041H102.149L102.254 166.798L102.359 159.783L106.382 158.925C108.979 158.371 110.631 158.189 111.046 158.411C111.982 158.913 112.175 160.463 112.175 167.503V173.814H114.292H116.409V166.891V159.969L117.852 159.585C118.646 159.375 120.162 159.015 121.22 158.786C122.279 158.556 123.439 158.28 123.799 158.171C124.163 158.06 124.802 158.322 125.242 158.763C125.981 159.503 126.032 160.008 126.032 166.684V173.814H128.149H130.266L130.264 166.394C130.261 158.24 129.97 156.5 128.335 154.863C126.963 153.489 125.914 153.471 120.011 154.723L115.528 155.674L114.399 154.723C112.998 153.543 111.604 153.511 106.593 154.543C104.535 154.967 102.697 155.314 102.509 155.314C102.321 155.314 102.167 154.967 102.167 154.543C102.167 153.866 101.91 153.772 100.05 153.772H97.9326V163.793ZM139.696 154.162C136.883 154.508 135.7 154.961 134.692 156.08C134 156.848 133.91 157.576 133.8 163.303C133.665 170.297 133.865 171.283 135.734 172.858C136.841 173.79 137.022 173.814 143.206 173.814C148.703 173.814 149.735 173.715 150.997 173.071C151.796 172.662 152.694 172.034 152.992 171.675C153.475 171.093 153.367 170.88 152.006 169.737C150.593 168.549 150.415 168.495 149.624 169.013C148.978 169.437 147.446 169.574 143.367 169.574H137.964V167.871V166.167L140.563 165.591C141.991 165.274 145.013 164.627 147.276 164.152C149.539 163.677 151.554 163.185 151.753 163.059C152.231 162.757 151.593 158.257 150.815 156.44C149.926 154.364 148.596 153.763 145.026 153.825C143.365 153.854 140.967 154.005 139.696 154.162ZM156.44 163.793V173.814H158.549H160.657L160.762 166.78L160.867 159.746L165.441 158.81C169.845 157.909 170.034 157.9 170.527 158.575C170.809 158.961 171.089 159.419 171.15 159.593C171.272 159.944 174.524 159.242 175.072 158.747C175.579 158.29 174.237 155.036 173.259 154.35C172.153 153.574 170.106 153.622 165.101 154.543C162.797 154.967 160.858 155.314 160.793 155.314C160.728 155.314 160.675 154.967 160.675 154.543C160.675 153.866 160.418 153.772 158.558 153.772H156.44V163.793ZM189.88 154.421C188.431 155.322 187.593 156.954 187.345 159.36C186.952 163.175 188.125 164.041 196.026 165.772C201.746 167.024 202.584 167.451 201.885 168.758C201.478 169.521 201.142 169.574 196.737 169.574C193.004 169.574 191.838 169.443 191.128 168.946C190.262 168.338 190.182 168.368 188.711 169.841L187.189 171.365L188.813 172.493C190.423 173.611 190.49 173.622 196.704 173.743L202.971 173.865L204.361 172.587C206.69 170.444 207.188 166.526 205.388 164.508C204.385 163.384 203.775 163.168 197.98 161.882C192.95 160.765 191.638 160.342 191.534 159.806C191.243 158.293 192.101 158.012 197.011 158.012C200.713 158.012 201.877 158.143 202.586 158.64C203.452 159.248 203.532 159.218 205.041 157.707L206.601 156.145L204.733 154.959L202.865 153.772L196.878 153.783C192.026 153.791 190.699 153.912 189.88 154.421ZM70.0258 155.428L71.5655 156.301L71.6702 163.544L71.7753 170.788L70.9004 170.517C70.4196 170.368 69.3765 169.918 68.5824 169.517L67.1389 168.787V161.665C67.1389 153.627 67.0785 153.758 70.0258 155.428ZM85.0558 172.189C84.9515 172.294 84.0388 172.021 83.0273 171.583L81.1885 170.786L81.0834 164L80.9783 157.214L83.008 156.272L85.0377 155.33L85.1417 163.665C85.1986 168.249 85.1601 172.085 85.0558 172.189ZM76.6657 158.204L78.3016 158.866V164.812V170.758L76.5375 171.515C75.5671 171.931 74.6144 172.272 74.4204 172.272C74.2184 172.272 74.0675 169.041 74.0675 164.715C74.0675 158.825 74.1737 157.201 74.5486 157.35C74.8135 157.456 75.7661 157.84 76.6657 158.204ZM147.133 159.072C147.2 159.548 147.154 159.939 147.03 159.939C146.724 159.939 139.484 161.478 138.638 161.723C138.089 161.882 137.964 161.672 137.964 160.59C137.964 159.86 138.181 159.082 138.447 158.861C139.077 158.337 140.985 158.11 144.315 158.162C146.802 158.201 147.02 158.272 147.133 159.072Z" fill="black"/>
</svg>
