<svg width="86" height="77" viewBox="0 0 86 77" fill="none" xmlns="http://www.w3.org/2000/svg">
<path fill-rule="evenodd" clip-rule="evenodd" d="M23.9309 1.30595C22.8686 2.14268 22.5722 3.20486 23.4013 3.20486C23.668 3.20486 24.1095 2.84721 24.3821 2.40977C24.6931 1.91105 25.1942 1.65938 25.7258 1.7353C26.9098 1.90373 26.8967 3.64114 25.7073 4.16337C24.5972 4.65092 24.6161 4.90567 25.8036 5.44717C26.9068 5.95052 27.1396 7.60355 26.1608 7.9797C25.4783 8.24217 24.0714 7.61279 24.0714 7.04547C24.0714 6.84082 23.8116 6.67355 23.4941 6.67355C22.7585 6.67355 22.7642 7.05511 23.516 8.12924C24.1892 9.09199 26.6458 9.3375 27.4587 8.52351C28.0554 7.92613 28.0554 5.80638 27.4587 5.209C27.0996 4.84941 27.0996 4.6436 27.4587 4.28401C28.2243 3.51743 28.0076 1.76806 27.065 1.10708C25.9175 0.301965 25.1427 0.351294 23.9309 1.30595ZM58.3829 3.3887C56.7612 7.25667 56.7855 7.44437 58.9068 7.44437C60.3822 7.44437 60.6389 7.55844 60.6389 8.21518C60.6389 8.64337 60.8956 8.98601 61.2163 8.98601C61.5369 8.98601 61.7937 8.64337 61.7937 8.21518C61.7937 7.79123 61.9669 7.44437 62.1786 7.44437C62.3903 7.44437 62.5635 7.18422 62.5635 6.86626C62.5635 6.54829 62.3903 6.28813 62.1786 6.28813C61.9669 6.28813 61.7937 5.50769 61.7937 4.5538C61.7937 3.26923 61.6439 2.81946 61.2163 2.81946C60.7886 2.81946 60.6389 3.26923 60.6389 4.5538C60.6389 6.21646 60.5919 6.28813 59.5061 6.28813H58.3729L59.5061 3.53709C60.8221 0.341281 60.789 0.507002 60.115 0.507002C59.8267 0.507002 59.0472 1.8039 58.3829 3.3887ZM42.9325 8.74859V13.9065L40.3409 14.1844C34.2599 14.8365 28.3279 17.608 23.6322 21.9908L21.8462 23.6581L18.1679 20.5618C16.1448 18.8586 14.3172 17.465 14.1066 17.465C12.9314 17.465 13.6563 18.4543 16.6636 20.9541C18.5151 22.4934 20.2665 23.9684 20.5556 24.2324C20.9948 24.6328 20.8924 24.9878 19.9335 26.388C16.5274 31.3625 15.1428 35.7727 14.9915 42.1312L14.8768 46.9488L10.3321 47.7466C4.85966 48.707 4.7642 48.7371 5.16144 49.3773C5.41318 49.7835 6.352 49.7284 10.0996 49.0882C12.6443 48.6535 14.8938 48.2977 15.0985 48.2977C15.3033 48.2977 15.679 49.2081 15.9334 50.3211C16.7687 53.9733 19.3138 58.4926 22.3651 61.7396C23.9094 63.3838 25.8779 65.2176 26.7393 65.8153C27.6008 66.4131 28.3056 67.0421 28.3056 67.2128C28.3056 67.384 27.1931 69.4282 25.834 71.756C23.8259 75.1939 23.4752 76.0314 23.9644 76.2195C24.2955 76.3466 24.6046 76.4033 24.6507 76.3455C24.6969 76.2873 25.7251 74.5055 26.9356 72.3858C28.1458 70.266 29.2867 68.3764 29.4699 68.1864C29.6655 67.984 30.6424 68.2022 31.8245 68.7113C36.2191 70.604 37.4851 70.8349 43.5099 70.8395C49.0994 70.8441 49.3942 70.8033 52.748 69.5665C54.6534 68.8635 56.4721 68.2091 56.7897 68.1124C57.1965 67.9879 58.0295 69.1322 59.6115 71.9881C61.9307 76.1751 62.3949 76.7556 62.9665 76.1832C63.1578 75.9917 62.2117 73.9706 60.7682 71.4882C58.3232 67.2837 58.2605 67.1111 58.9903 66.5989C64.8295 62.5039 68.7018 57.3059 70.6861 50.8992C71.1291 49.4686 71.5179 48.3 71.5502 48.3031C71.5826 48.3058 73.8109 48.709 76.5015 49.1988C80.6101 49.9465 81.4273 50.0024 81.6017 49.5476C81.716 49.2493 81.8095 48.9552 81.8095 48.8936C81.8095 48.8319 81.0732 48.6685 80.1736 48.5305C79.2741 48.3921 77.0223 48.0052 75.1697 47.6703L71.8016 47.0613V42.9236C71.8016 36.8164 70.2442 31.3898 67.1914 26.8605C66.5513 25.9112 66.0278 25.004 66.0278 24.8444C66.0278 24.6849 67.6733 23.1987 69.6845 21.5419C72.9356 18.8636 74.0668 17.465 72.9825 17.465C72.7854 17.465 70.9759 18.8525 68.9616 20.5483C66.947 22.2441 65.1517 23.6315 64.9716 23.6315C64.7918 23.6315 63.9596 22.9158 63.1228 22.041C59.2058 17.946 52.7977 14.9487 46.3006 14.1721L44.0873 13.9077V8.74898C44.0873 4.42045 43.9945 3.59027 43.5099 3.59027C43.0253 3.59027 42.9325 4.42045 42.9325 8.74859ZM49.512 18.062C59.3694 20.576 66.8211 28.7529 68.3823 38.7677C70.2623 50.8283 62.8237 62.9514 51.2911 66.6228C37.6972 70.9505 23.5714 63.6462 19.2064 50.0321C17.9685 46.1714 17.8172 40.272 18.8558 36.35C20.397 30.5284 24.7893 24.4051 29.5623 21.4232C33.3392 19.0637 35.82 18.1714 41.0079 17.3054C42.5342 17.0503 47.1605 17.4619 49.512 18.062ZM34.472 23.6389C34.4878 24.7866 36.2954 39.4672 36.4362 39.5902C36.5921 39.7262 45.1162 35.834 45.4961 35.4532C45.6216 35.3275 43.6851 33.0066 41.1931 30.2957C34.6541 23.1806 34.4631 22.9918 34.472 23.6389ZM0.993134 28.1297C0.413058 28.8681 0.3022 29.277 0.600899 29.5749C0.899597 29.8729 1.21215 29.733 1.70293 29.0832C2.477 28.0572 3.56287 28.0884 4.20684 29.1556C4.57021 29.7576 4.33848 30.1265 2.63328 31.6608C1.53356 32.6501 0.518914 33.9362 0.378418 34.5193L0.122833 35.5792H2.66677C4.67105 35.5792 5.21033 35.4567 5.21033 35.0011C5.21033 34.5729 4.76112 34.423 3.47818 34.423C2.5255 34.423 1.74604 34.3035 1.74604 34.1571C1.74604 34.011 2.63405 33.0698 3.71953 32.0654C5.45821 30.4564 5.66146 30.1103 5.4305 29.1517C4.89238 26.9198 2.3954 26.3448 0.993134 28.1297ZM80.2698 29.22C80.2698 31.3285 80.276 31.3397 81.45 31.3397C83.1314 31.3397 84.1191 31.9814 84.1191 33.0741C84.1191 33.6055 83.7969 34.1829 83.3746 34.4095C82.3811 34.9418 82.3403 34.9329 81.4685 33.996C80.445 32.896 79.7618 33.1658 80.3865 34.423C81.0755 35.8093 83.773 36.0113 84.6603 34.7429C85.9875 32.8463 84.9451 30.5689 82.7499 30.5689C81.5339 30.5689 81.4246 30.4733 81.4246 29.4127C81.4246 28.3208 81.5101 28.2565 82.9643 28.2565C84.0763 28.2565 84.504 28.0957 84.504 27.6783C84.504 27.2344 84.012 27.1002 82.3869 27.1002H80.2698V29.22ZM75.538 63.3348C74.5769 64.0918 74.496 64.3716 74.496 66.9442C74.496 70.3177 74.9941 71.191 76.9168 71.191C78.7498 71.191 79.5 70.478 79.5 68.7371C79.5 66.8571 78.4357 65.835 76.816 66.1595C75.7832 66.3661 75.6508 66.2898 75.6508 65.4858C75.6508 64.9875 75.9021 64.3704 76.2097 64.1149C76.8945 63.546 78.3452 63.9461 78.3452 64.7034C78.3452 65.0071 78.6051 65.2557 78.9226 65.2557C79.6251 65.2557 79.6713 64.4714 79.0189 63.6162C78.1986 62.5409 76.6997 62.4199 75.538 63.3348ZM8.67461 63.5214C8.67461 63.8393 8.84783 64.0995 9.05953 64.0995C9.28894 64.0995 9.44445 65.5768 9.44445 67.7609C9.44445 70.7586 9.54915 71.4223 10.0218 71.4223C10.4999 71.4223 10.5992 70.6942 10.5992 67.1828V62.9433H9.63691C9.03797 62.9433 8.67461 63.1618 8.67461 63.5214ZM78.271 68.5953C78.3637 69.5546 78.2163 69.8698 77.5789 70.0722C76.5654 70.3944 75.6508 69.6713 75.6508 68.5486C75.6508 67.419 76.0003 67.1242 77.1762 67.2614C77.9611 67.3531 78.1759 67.6148 78.271 68.5953Z" fill="black"/>
</svg>
