<svg width="243" height="177" viewBox="0 0 243 177" fill="none" xmlns="http://www.w3.org/2000/svg">
<path fill-rule="evenodd" clip-rule="evenodd" d="M104.426 0.46524C102.047 1.24024 100.259 2.44849 98.333 4.58354C95.8974 7.283 95.2579 9.50602 95.0251 16.082C94.7079 25.0489 95.6954 28.7997 99.2959 32.3038C102.709 35.6249 108.161 36.795 112.814 35.2041C116.732 33.8651 120.501 29.4622 121.35 25.2342L121.585 24.0617H118.442H115.298L114.853 25.4047C114.315 27.0306 112.301 28.8713 110.363 29.5085C107.52 30.4435 103.869 28.8783 102.505 26.1399C101.863 24.8519 101.76 23.7581 101.76 18.2229C101.76 12.4678 101.845 11.6383 102.576 10.2433C103.977 7.56637 106.946 6.15027 109.972 6.71585C111.655 7.03037 113.996 9.00817 114.715 10.7236L115.248 11.9949H118.411H121.575L121.315 10.6165C120.585 6.73843 117.716 2.958 114.203 1.24529C111.59 -0.0287346 107.054 -0.390337 104.426 0.46524ZM0 18.2393V36.1612L3.02742 36.0476L6.05484 35.9339L6.25016 24.4883L6.44548 13.0428L9.61119 20.5958L12.7765 28.1489H16.0188H19.261L22.424 20.6133L25.5866 13.0774L25.7819 24.5059L25.9772 35.9339L29.0047 36.0476L32.0321 36.1612V18.2393V0.317322H28.196H24.36L20.3208 10.0486C18.0993 15.4009 16.1598 19.7799 16.0106 19.7799C15.8613 19.7799 13.93 15.4009 11.7191 10.0486L7.69903 0.317322H3.84932H0V18.2393ZM37.501 18.2229V36.1286H48.8294H60.1578V33.0145V29.9005H51.9545H43.7511V25.6187V21.337H50.3919H57.0327V18.2229V15.1089H50.3919H43.7511V10.8271V6.54536H51.9545H60.1578V3.43134V0.317322H48.8294H37.501V18.2229ZM65.2361 18.2381V36.1589L68.6541 36.0464L72.0722 35.9339L72.1784 28.6354L72.2847 21.337L74.3269 21.3409L76.3691 21.3447L80.5958 28.7367L84.8225 36.1286H88.5062C90.6555 36.1286 92.1899 35.9694 92.1899 35.7463C92.1899 35.5361 90.2562 32.2049 87.8929 28.3435C85.5295 24.4821 83.5959 21.2408 83.5959 21.1404C83.5959 21.0403 84.1799 20.7149 84.894 20.4179C91.8176 17.5351 93.3356 8.06851 87.6702 3.0997C84.8819 0.65364 83.1799 0.317322 73.5898 0.317322H65.2361V18.2381ZM125.654 0.57695C125.233 0.996564 125.362 21.6904 125.803 24.3973C126.349 27.7495 127.669 30.1835 130.18 32.4665C132.852 34.895 135.588 35.9331 139.261 35.9117C144.137 35.8829 148.864 32.8756 151.07 28.3988L152.152 26.2026L152.27 13.26L152.387 0.317322H149.242H146.098V12.3016C146.098 23.9566 146.073 24.3338 145.219 26.0197C144.253 27.9243 142.403 29.3633 140.452 29.7281C137.34 30.3096 133.693 28.0107 132.833 24.9259C132.598 24.0796 132.429 18.664 132.428 11.8976L132.425 0.317322H129.17C127.379 0.317322 125.797 0.434094 125.654 0.57695ZM157.035 18.2229V36.1286H160.551H164.067V28.7328V21.337H166.138H168.209L172.435 28.7328L176.66 36.1286H180.543C182.679 36.1286 184.346 35.9974 184.249 35.8366C180.756 30.0737 176.111 22.3315 175.807 21.7655C175.455 21.1104 175.625 20.906 177.125 20.1828C180.519 18.5456 183.208 14.4094 183.208 10.8271C183.208 8.3367 181.994 5.67421 179.913 3.60067C176.905 0.603032 175.639 0.317322 165.363 0.317322H157.035V18.2229ZM183.989 0.668039C183.989 0.861108 186.758 5.89687 190.142 11.859L196.294 22.6993L196.489 29.3166L196.685 35.9339L199.907 36.0468L203.13 36.1601V29.8733V23.5864L209.576 12.1253C213.121 5.82175 216.021 0.580057 216.021 0.476905C216.021 0.373753 214.331 0.339116 212.265 0.400618L208.509 0.511948L204.494 7.45777C202.286 11.2779 200.313 14.5686 200.111 14.7703C199.88 15.0003 198.149 12.3701 195.479 7.73063L191.216 0.323546L187.602 0.320434C185.615 0.318877 183.989 0.474969 183.989 0.668039ZM219.928 3.62012V6.93461H227.545C232.099 6.93461 235.162 7.0833 235.162 7.30479C235.162 7.50798 232.279 14.033 228.755 21.8044L222.348 35.9339L225.888 36.0468C227.835 36.1087 229.572 36.0157 229.748 35.8405C229.924 35.665 232.978 29.0453 236.534 21.1306L243 6.73999L242.89 3.62597L242.78 0.511948L231.354 0.40879L219.928 0.305633V3.62012ZM83.626 8.46164C85.1409 9.97116 85.142 11.5652 83.6291 13.2537L82.49 14.525L77.379 14.6531L72.2675 14.7816V11.0525V7.32387H77.3758H82.4841L83.626 8.46164ZM175.556 8.52161C176.904 10.1183 176.863 11.6524 175.428 13.2537L174.289 14.525L169.178 14.6531L164.067 14.7816V11.0525V7.32387H169.306H174.544L175.556 8.52161ZM100.003 73.3018L79.1063 94.1272L99.8073 114.758C111.193 126.104 120.685 135.388 120.902 135.388C121.118 135.388 130.61 126.104 141.996 114.757L162.698 94.1264L141.799 73.3014L120.9 52.4764L100.003 73.3018ZM138.954 73.3415C138.908 73.3827 135.461 73.0402 131.293 72.5809C124.498 71.8316 123.684 71.6646 123.412 70.9667C123.245 70.5385 122.824 67.5607 122.475 64.3494C122.127 61.138 121.744 57.8975 121.623 57.1482C121.421 55.8921 122.091 56.4678 130.22 64.5261C135.069 69.3333 138.999 73.3002 138.954 73.3415ZM118.526 63.3965C117.986 66.9176 117.394 70.1629 117.211 70.6074C116.916 71.3232 116.147 71.5159 110.491 72.2905C106.979 72.772 103.753 73.2574 103.323 73.3691C102.893 73.4812 106.313 69.7962 110.922 65.1804C115.532 60.5647 119.35 56.8344 119.406 56.8909C119.463 56.9473 119.067 59.8749 118.526 63.3965ZM122.43 69.1722L122.711 71.6599L121.09 71.4435C120.199 71.3244 119.415 71.1683 119.348 71.0967C119.237 70.9783 120.904 60.326 121.104 59.873C121.196 59.6655 121.964 65.0531 122.43 69.1722ZM117.037 72.5556C116.907 72.8942 116.8 73.6825 116.8 74.3072C116.8 75.2862 116.652 75.4434 115.726 75.445C113.787 75.4485 103.305 74.1142 104.059 73.9596C105.066 73.7533 116.085 72.0359 116.744 71.9826C117.073 71.9561 117.184 72.1729 117.037 72.5556ZM122.675 72.5902C122.847 72.7677 123.042 73.7011 123.108 74.6646L123.229 76.4162L121.87 76.3033C118.826 76.0511 118.349 75.8382 118.558 74.8284C119.227 71.5969 119.045 71.8242 120.773 72.055C121.648 72.1718 122.504 72.4127 122.675 72.5902ZM132.23 73.3399C135.453 73.6887 138.135 74.0141 138.191 74.0632C138.246 74.1122 135.119 74.677 131.241 75.3185C127.363 75.96 124.132 76.3815 124.06 76.2558C123.989 76.1301 123.807 75.1772 123.656 74.1387L123.381 72.2504L124.876 72.4781C125.698 72.6031 129.007 72.9908 132.23 73.3399ZM109.494 75.4781C113.19 75.9257 116.261 76.3372 116.318 76.3928C116.375 76.4485 116.024 78.9759 115.537 82.0097L114.651 87.525L108.21 81.095C104.668 77.5583 101.995 74.6646 102.272 74.6646C102.548 74.6646 105.798 75.0308 109.494 75.4781ZM132.928 81.7517C129.016 85.6492 125.733 88.7555 125.631 88.6539C125.406 88.4308 124.222 79.5933 124.222 78.1445V77.1157L131.156 75.9335C134.969 75.2835 138.528 74.7319 139.065 74.7081C139.859 74.6727 138.719 75.9806 132.928 81.7517ZM107.958 81.6185C113.535 87.1845 114.056 87.8158 113.227 88.0105C110.821 88.576 103.457 89.5247 103.23 89.2981C102.901 88.9707 101.264 75.4431 101.553 75.4431C101.672 75.4431 104.554 78.2219 107.958 81.6185ZM139.135 82.9362C138.201 89.7753 138.086 90.2346 137.318 90.2346C136.866 90.2346 134.394 89.9735 131.824 89.6539C129.254 89.3343 126.978 89.0716 126.765 89.07C126.553 89.0685 129.445 86.0078 133.192 82.269C136.94 78.5302 140.034 75.5088 140.069 75.5544C140.104 75.6003 139.684 78.9222 139.135 82.9362ZM141.813 83.16C142.28 87.2919 142.601 90.7185 142.525 90.7745C142.449 90.8302 141.537 90.8006 140.499 90.7084C138.806 90.5577 138.632 90.4546 138.805 89.7064C138.911 89.2475 139.397 85.8532 139.884 82.1635C140.372 78.4734 140.814 75.4979 140.867 75.5505C140.92 75.6034 141.345 79.0277 141.813 83.16ZM99.049 83.4527C98.4951 87.258 97.9998 90.3974 97.9482 90.4285C97.7963 90.5204 84.2193 92.5787 83.7947 92.5741C83.5818 92.5721 87.0894 88.8983 91.5895 84.4103C96.0896 79.9226 99.8354 76.3142 99.9135 76.392C99.9916 76.4703 99.6026 79.6474 99.049 83.4527ZM150.332 84.5278C157.282 91.4592 158.478 92.8107 157.555 92.6943C156.947 92.6176 153.564 92.2085 150.038 91.7854C146.512 91.3623 143.56 90.9497 143.478 90.8684C143.176 90.5671 141.632 76.2216 141.902 76.2216C141.957 76.2216 145.751 79.9592 150.332 84.5278ZM123.309 77.141C123.547 77.3426 124.691 88.3401 124.494 88.5359C124.238 88.7913 117.16 87.9984 116.839 87.6788C116.664 87.5036 117.789 79.2916 118.241 77.4543C118.453 76.5871 118.571 76.5583 120.854 76.8167C122.17 76.9658 123.274 77.1118 123.309 77.141ZM101.717 83.7563C102.089 86.9373 102.339 89.5885 102.272 89.6481C102.205 89.7076 101.378 89.8839 100.433 90.0396L98.7143 90.3226L98.9252 89.0136C99.0412 88.2935 99.4533 85.3826 99.8409 82.5446C100.228 79.7069 100.657 77.5174 100.794 77.6789C100.93 77.8409 101.346 80.5758 101.717 83.7563ZM115.126 93.91C115.392 96.038 115.552 97.836 115.483 97.9053C115.413 97.9742 112.797 97.7356 109.668 97.3743L103.98 96.718L103.749 95.5686C103.622 94.9364 103.518 93.7605 103.518 92.9551V91.4912L108.304 90.7088C110.935 90.2783 113.439 89.9517 113.867 89.9832C114.552 90.0334 114.702 90.5013 115.126 93.91ZM122.966 90.5947C123.832 90.8228 123.815 90.8707 122.364 92.2829L120.87 93.736L118.944 91.7878L117.019 89.8396L119.546 90.1C120.936 90.2428 122.475 90.4659 122.966 90.5947ZM119.053 95.5666C118.258 96.3591 117.535 96.9286 117.446 96.8325C117.358 96.7363 117.163 95.256 117.013 93.5433L116.74 90.4293L118.619 92.2775L120.499 94.1256L119.053 95.5666ZM125.594 95.5896L125.861 98.6036L123.587 96.3716L121.313 94.1392L123.055 92.3701L124.798 90.601L125.063 91.5881C125.208 92.1311 125.448 93.9318 125.594 95.5896ZM132.517 91.6551L137.883 92.3078L138.077 93.5094C138.184 94.1704 138.318 95.3163 138.376 96.0559L138.48 97.4008L133.402 98.2696C126.029 99.5315 126.768 99.8165 126.238 95.5121C125.988 93.4911 125.784 91.6519 125.784 91.425C125.784 90.8769 126.255 90.8929 132.517 91.6551ZM102.737 92.321C102.737 92.6126 102.849 93.6636 102.985 94.6566L103.234 96.4627H102.034C101.374 96.4627 100.384 96.2918 99.8326 96.0832C98.9639 95.7539 98.8307 95.4728 98.8307 93.9691C98.8307 92.4802 98.9549 92.2113 99.7096 92.0665C101.608 91.7022 102.737 91.7971 102.737 92.321ZM98.249 94.1533C98.3967 95.024 98.4521 95.8017 98.3721 95.8815C98.2631 95.9901 90.1761 95.0875 85.7444 94.472C85.1444 94.3884 95.3431 92.6679 96.7455 92.6161C97.8963 92.5733 97.999 92.6784 98.249 94.1533ZM142.736 93.0003C142.811 93.0847 142.99 93.9625 143.134 94.9508L143.395 96.7472L141.38 97.0139C140.272 97.1602 139.323 97.2276 139.27 97.1634C139.218 97.0991 139.058 96.0166 138.916 94.7578L138.657 92.4693L140.628 92.6581C141.712 92.7617 142.66 92.9158 142.736 93.0003ZM150.394 93.7601C152.865 94.0264 155.022 94.3611 155.186 94.5036C155.422 94.7076 145.26 96.5016 144.047 96.4701C143.885 96.4662 143.754 95.6527 143.754 94.6624C143.754 92.9076 143.781 92.8672 144.828 93.0688C145.419 93.1825 147.924 93.4935 150.394 93.7601ZM125.239 99.0819C125.067 99.2536 117.833 98.3875 117.605 98.1684C117.512 98.0777 118.208 97.2178 119.154 96.2576L120.874 94.5114L123.123 96.7297C124.361 97.95 125.313 99.0084 125.239 99.0819ZM90.8226 95.7461C94.9048 96.2148 98.2978 96.6355 98.3627 96.6807C98.5232 96.7924 100.015 111.761 99.8791 111.896C99.8198 111.955 95.9138 108.157 91.1988 103.455C86.4839 98.7526 82.8002 94.903 83.0135 94.8995C83.2263 94.8963 86.7405 95.277 90.8226 95.7461ZM150.604 103.455C145.889 108.157 141.976 111.948 141.908 111.88C141.678 111.652 143.848 97.829 144.168 97.4806C144.449 97.1742 156.44 95.0357 158.399 94.9426C158.916 94.9181 156.297 97.778 150.604 103.455ZM103.044 97.4179C103.204 97.5767 100.862 110.916 100.635 111.143C100.581 111.197 100.321 108.924 100.059 106.09C99.7963 103.257 99.4733 99.992 99.3404 98.8344L99.0994 96.7293L100.985 96.987C102.022 97.1287 102.949 97.3225 103.044 97.4179ZM109.964 98.0617C112.327 98.3175 114.567 98.6351 114.941 98.7671C115.475 98.9558 114.069 100.553 108.398 106.198C104.425 110.152 101.177 113.126 101.18 112.807C101.183 112.488 101.798 108.911 102.547 104.858C103.296 100.805 103.909 97.4296 103.909 97.3576C103.909 97.2852 104.305 97.3097 104.788 97.4113C105.271 97.5133 107.6 97.806 109.964 98.0617ZM143.162 98.5062C143.032 99.2018 142.526 102.399 142.038 105.61C141.398 109.827 141.083 111.125 140.906 110.281C140.384 107.807 139.367 98.368 139.597 98.1396C139.794 97.943 141.61 97.4989 143.088 97.286C143.259 97.2614 143.292 97.8106 143.162 98.5062ZM138.809 99.2847C138.931 99.9803 139.308 103.002 139.647 105.999C139.986 108.997 140.355 111.887 140.468 112.422C140.616 113.123 138.813 111.549 134.024 106.796C130.367 103.167 127.461 100.112 127.566 100.007C127.706 99.8674 135.488 98.4572 138.339 98.0547C138.476 98.0356 138.688 98.5891 138.809 99.2847ZM124.646 99.8223L126.047 100.045L125.554 103.022C125.283 104.66 124.854 107.284 124.6 108.855L124.14 111.71L121.739 111.439C120.419 111.289 119.289 111.122 119.228 111.068C119.168 111.014 118.861 108.8 118.547 106.149C118.233 103.498 117.887 100.822 117.777 100.202L117.578 99.0753L120.412 99.3373C121.97 99.4813 123.875 99.6997 124.646 99.8223ZM116.503 105.318C116.846 108.262 117.009 110.781 116.866 110.915C116.638 111.129 103.078 113.59 102.128 113.59C101.93 113.59 104.841 110.524 108.597 106.778C112.352 103.031 115.527 99.9659 115.652 99.9659C115.777 99.9659 116.16 102.375 116.503 105.318ZM139.64 113.537C139.542 113.635 136.208 113.299 132.232 112.791C125.519 111.932 125.004 111.81 125.01 111.074C125.014 110.638 125.363 108.179 125.784 105.61C126.206 103.041 126.555 100.766 126.559 100.554C126.563 100.342 129.548 103.137 133.192 106.764C136.837 110.391 139.739 113.439 139.64 113.537ZM117.335 112.519C117.8 114.248 117.63 115.213 116.898 115.006C116.522 114.9 113.313 114.687 109.768 114.534C106.223 114.381 103.516 114.188 103.751 114.105C104.18 113.954 115.819 111.775 116.657 111.689C116.9 111.664 117.205 112.038 117.335 112.519ZM122.976 112.266C123.728 112.418 123.859 112.658 123.757 113.7C123.639 114.918 123.58 114.955 121.585 115.07C119.672 115.179 119.534 115.127 119.529 114.291C119.526 113.798 119.42 113.009 119.293 112.537C119.078 111.739 119.167 111.693 120.568 111.881C121.396 111.992 122.48 112.166 122.976 112.266ZM132.131 113.444C135.084 113.811 137.457 114.155 137.404 114.209C137.204 114.408 124.574 115.238 124.399 115.064C124.299 114.964 124.329 114.32 124.467 113.633C124.687 112.536 124.843 112.407 125.74 112.58C126.301 112.688 129.178 113.077 132.131 113.444ZM114.249 115.482L117.752 115.731L118.644 123.126C119.134 127.194 119.491 130.745 119.437 131.017C119.383 131.289 115.566 127.746 110.955 123.146L102.571 114.78L106.658 115.007C108.906 115.132 112.322 115.346 114.249 115.482ZM130.584 123.402C125.813 128.156 121.825 131.961 121.721 131.858C121.468 131.606 123.861 116.593 124.217 116.196C124.438 115.951 131.393 115.274 138.479 114.809C138.988 114.775 136.248 117.758 130.584 123.402ZM123.279 116.996C123.156 117.585 122.689 120.342 122.242 123.123C121.464 127.966 121.112 129.374 121.084 127.765C121.076 127.355 120.76 124.523 120.381 121.472L119.691 115.925H121.597C123.47 115.925 123.499 115.944 123.279 116.996ZM51.2802 150.594C50.3497 151.06 49.2423 152.04 48.7411 152.843C47.9016 154.189 47.8458 154.724 47.7266 162.603C47.586 171.907 47.8661 173.436 50.047 175.265C51.9549 176.865 53.7186 177.103 62.6747 176.968C70.8964 176.844 70.9717 176.836 72.5292 175.808C75.2238 174.029 75.3926 173.282 75.3926 163.121C75.3926 154.497 75.3621 154.143 74.5136 152.9C72.5429 150.015 72.4687 149.997 62.1809 149.877C53.4209 149.775 52.8435 149.814 51.2802 150.594ZM83.6869 163.901L83.7912 174.119L85.842 174.236L87.8929 174.354V167.172V159.989L90.9203 159.302C92.5856 158.924 94.7282 158.6 95.6822 158.582C97.9326 158.538 97.9611 158.647 98.0103 167.424L98.0494 174.354L100.1 174.236L102.151 174.119L102.257 167.089L102.364 160.06L105.968 159.2C110.363 158.153 111.188 158.139 111.708 159.107C111.945 159.548 112.112 162.856 112.112 167.107V174.354L114.163 174.236L116.214 174.119L116.333 167.501C116.476 159.548 116.24 157.239 115.114 155.576C113.781 153.606 112.461 153.466 106.618 154.676L101.602 155.714L100.589 154.92C99.0065 153.68 97.7384 153.597 93.3458 154.447C88.2335 155.436 87.8929 155.437 87.8929 154.461C87.8929 153.777 87.6323 153.683 85.7377 153.683H83.583L83.6869 163.901ZM127.315 154.074C120.38 154.737 119.928 155.339 119.927 163.913C119.924 173.835 120.195 174.119 129.691 174.119C136.043 174.119 136.163 174.103 137.992 173.032C139.012 172.434 139.847 171.811 139.847 171.648C139.847 171.485 139.242 170.768 138.502 170.053C137.157 168.754 137.157 168.754 135.807 169.393C134.797 169.87 133.318 170.031 129.957 170.031C127.482 170.031 125.18 169.925 124.84 169.795C124.413 169.632 124.222 169.056 124.222 167.931V166.304L130.57 164.996C139.479 163.162 138.677 163.712 138.059 159.863C137.101 153.899 135.904 153.254 127.315 154.074ZM142.972 163.998V174.313H145.121H147.269V167.144V159.975L149.32 159.536C150.448 159.295 152.577 158.891 154.051 158.639C156.652 158.194 156.753 158.208 157.466 159.085C158.165 159.946 158.298 159.967 160.179 159.517C162.12 159.053 162.152 159.022 161.91 157.823C161.597 156.276 160.567 154.818 159.267 154.083C158.367 153.575 157.807 153.589 154.227 154.217C147.132 155.461 147.269 155.455 147.269 154.513C147.269 153.766 147.053 153.683 145.121 153.683H142.972V163.998ZM166.02 163.998V174.313H168.168H170.317V163.998V153.683H168.168H166.02V163.998ZM177.076 154.444C175.305 155.52 174.651 156.71 174.378 159.354C174.172 161.356 174.254 161.806 174.997 162.741C176.256 164.324 177.379 164.77 183.136 165.975C188.931 167.188 189.686 167.535 189.284 168.796C189.026 169.608 188.808 169.642 183.896 169.642C179.866 169.642 178.638 169.516 178.121 169.051C177.526 168.514 177.308 168.599 175.777 169.953L174.088 171.446L175.425 172.437C176.161 172.982 177.36 173.627 178.09 173.87C179.824 174.449 188.485 174.402 190.226 173.805C192.025 173.187 193.249 171.282 193.589 168.57C194.098 164.514 192.948 163.654 184.691 161.909C181.775 161.293 179.194 160.669 178.955 160.522C178.26 160.094 178.452 158.807 179.276 158.367C180.5 157.714 188.121 157.86 189.484 158.562C190.603 159.138 190.697 159.116 192.199 157.912C193.705 156.707 193.734 156.64 193.072 155.898C191.52 154.157 189.601 153.7 183.794 153.693C179.053 153.687 178.159 153.787 177.076 154.444ZM55.0795 155.365L56.8374 156.223L56.9437 163.561L57.0503 170.899L55.9671 170.633C55.3717 170.486 54.3569 170.063 53.7123 169.691L52.5404 169.015L52.4342 161.738C52.351 156.044 52.4361 154.466 52.8248 154.484C53.0982 154.497 54.1127 154.893 55.0795 155.365ZM70.7049 164.183V172.737L69.7256 172.366C69.1869 172.162 68.2201 171.724 67.5771 171.392L66.408 170.79V164.003V157.216L68.0682 156.455C68.9811 156.037 69.9483 155.68 70.2167 155.662C70.5936 155.636 70.7049 157.582 70.7049 164.183ZM63.586 164.886L63.6938 170.78L62.5145 171.387C61.8657 171.722 60.8945 172.162 60.3558 172.366L59.3765 172.737V164.969V157.201L61.4274 158.097L63.4782 158.991L63.586 164.886ZM133.402 159.113C133.402 160.009 133.152 160.121 129.3 160.951C127.044 161.436 124.979 161.839 124.71 161.845C124.089 161.86 124.052 159.283 124.668 158.903C125.326 158.499 129.204 158.042 131.449 158.104C133.246 158.155 133.402 158.235 133.402 159.113Z" fill="white"/>
</svg>
