<svg width="116" height="94" viewBox="0 0 116 94" fill="none" xmlns="http://www.w3.org/2000/svg">
<path fill-rule="evenodd" clip-rule="evenodd" d="M49.2335 3.82844C49.2335 6.18592 49.3709 7.42612 49.6151 7.27449C49.825 7.14431 49.9968 6.45853 49.9968 5.75056C49.9968 4.63098 50.1464 4.43073 51.1448 4.21057C51.7764 4.07158 52.473 3.62053 52.6928 3.20853C53.1317 2.38531 52.8142 0.821196 52.276 1.15508C52.0902 1.26995 52.036 1.61914 52.1554 1.9312C52.4386 2.67172 51.6226 3.637 50.7135 3.637C50.1334 3.637 49.9968 3.34905 49.9968 2.128C49.9968 1.29788 49.825 0.512582 49.6151 0.382398C49.3709 0.230772 49.2335 1.47097 49.2335 3.82844ZM56.5135 1.9982C56.2998 2.79424 55.8819 4.25497 55.585 5.24399C55.2881 6.23339 55.14 7.13778 55.256 7.25418C55.3724 7.37058 56.2971 7.46594 57.312 7.46594C58.768 7.46594 59.1565 7.33345 59.1565 6.83722C59.1565 5.83825 57.6432 1.00997 57.2543 0.769125C57.0608 0.648896 56.7273 1.20216 56.5135 1.9982ZM48.0885 12.4455C48.0885 12.6572 48.6037 15.2689 49.2335 18.2494C50.5639 24.5464 50.4845 23.9304 49.9651 23.9304C48.9232 23.9304 43.5041 26.4265 41.1787 27.9776C38.0342 30.0747 33.7833 34.5622 32.2865 37.3642C31.677 38.5045 31.1438 39.4847 31.1014 39.5417C31.0591 39.5992 29.5523 39.0072 27.7536 38.2265L24.4828 36.8067L25.2713 35.2503C28.5409 28.7985 35.5073 22.0527 41.8442 19.2024C43.0591 18.656 43.3743 18.3286 43.2277 17.7665C42.9713 16.7825 42.5522 16.8415 39.8829 18.2379C33.2433 21.7111 27.8268 26.9836 24.0691 33.631C23.0668 35.4042 22.6585 35.8189 22.0894 35.6412C21.6952 35.5179 21.0528 35.3173 20.662 35.1947C20.2075 35.0527 19.8651 35.1978 19.7125 35.5976C19.4732 36.2232 21.2925 37.2 27.9719 40.0318C30.4248 41.0722 30.3481 40.7605 29.1466 44.7981C28.647 46.4771 28.4589 48.4348 28.4482 52.0731C28.4321 57.4049 28.9577 60.1786 30.7129 64.027L31.6247 66.0254L29.4565 67.3291C25.3942 69.7716 25.7113 69.7483 24.6717 67.6841C21.494 61.3751 20.251 51.869 21.7383 45.2522C22.0066 44.0591 21.9448 43.7651 21.3593 43.4507C20.9742 43.2439 20.58 43.0751 20.4827 43.0751C20.0411 43.0751 19.4644 48.3361 19.4644 52.3668C19.4644 58.3323 20.3869 62.5119 23.0012 68.3913L23.9576 70.5424L22.6642 71.284C21.5551 71.92 21.4387 72.1161 21.8486 72.6571C22.2783 73.2242 22.844 72.9921 27.4253 70.3655C31.7506 67.8858 32.5754 67.5343 32.862 68.0482C34.1451 70.3482 39.1948 75.4266 41.4672 76.7028C41.9217 76.9578 41.7298 77.5317 40.4104 79.8597C39.5234 81.4242 38.7441 82.7739 38.6781 82.8585C38.4269 83.1817 34.3936 80.207 32.0491 77.9686C29.8782 75.8964 29.5328 75.6938 29.0294 76.1989C28.5264 76.7039 28.6779 76.9922 30.3557 78.7191C31.3972 79.7916 33.2803 81.4564 34.5398 82.419C35.7992 83.3812 36.9732 84.2933 37.1484 84.4456C37.3236 84.598 37.1881 85.2643 36.8465 85.9263C36.2095 87.1627 36.3229 87.8737 37.1575 87.8737C37.4178 87.8737 38.9044 85.6295 40.4608 82.8865C42.6263 79.0706 43.4281 77.9602 43.8766 78.1574C46.9233 79.4986 51.0963 80.6914 54.0484 81.0654C58.6062 81.6432 62.8906 81.0762 67.7174 79.2574C69.6097 78.5445 71.1809 77.9947 71.2099 78.0356C71.2389 78.0766 72.5217 80.3066 74.0605 82.9918C75.5997 85.677 77.0733 87.8737 77.3359 87.8737C78.2251 87.8737 78.3018 87.0884 77.532 85.8685L76.7649 84.6532L78.6598 83.3731C81.2936 81.5935 85.551 77.4915 87.6558 74.7052C90.8224 70.5136 94.6504 61.3273 94.6504 57.9199C94.6504 56.4293 93.2345 56.4232 92.9059 57.9122C90.9632 66.7123 87.9562 72.4699 82.5271 77.784C80.1746 80.0868 76.0836 83.1829 75.8146 82.8639C75.3921 82.3635 72.4679 77.0799 72.5759 77.0121C72.6469 76.9673 73.9498 75.9397 75.4715 74.7286C78.6885 72.1674 81.5867 68.5015 83.3935 64.7086C88.3485 54.3054 86.6051 41.5561 79.0678 33.0758L77.4156 31.2172L78.1782 30.1582C78.5973 29.5758 79.7063 28.352 80.6422 27.4385L82.3439 25.7775L84.8774 28.7786C89.2088 33.9097 93.1116 43.0804 93.1211 48.1484C93.1234 49.4239 93.2303 49.5843 94.0779 49.5843C95.2275 49.5843 95.2779 49.0211 94.4943 44.9275C93.152 37.9164 90.453 32.5746 84.9579 26.0539L83.4714 24.2899L84.2873 23.4181C84.9197 22.743 85.001 22.4436 84.6484 22.0898C84.398 21.8386 84.0732 21.633 83.9263 21.633C83.7797 21.633 81.9829 23.5226 79.9338 25.8322L76.2077 30.031L74.4563 28.7503C72.1656 27.0747 68.6921 25.3425 65.4164 24.2413C63.1555 23.4816 62.0128 23.356 57.3513 23.356H51.9199L51.5028 21.2501C51.2734 20.0919 50.9315 18.5507 50.7425 17.8255C50.5536 17.1003 50.4948 16.4111 50.6112 16.2939C50.728 16.1768 53.6862 16.0898 57.1845 16.1006C64.6042 16.1232 67.3522 16.7102 72.9361 19.4651C76.1592 21.0556 76.3466 21.1016 76.9347 20.4495C77.5164 19.8047 77.3794 19.6787 74.5563 18.2559C68.349 15.128 61.7617 13.7109 55.1774 14.0869C53.0626 14.2076 51.0532 14.4143 50.7116 14.5464C50.2319 14.7321 50.0323 14.4767 49.8354 13.4238C49.6464 12.4137 49.3873 12.0607 48.8347 12.0607C48.4244 12.0607 48.0885 12.2337 48.0885 12.4455ZM86.8902 12.6989C86.7502 12.8391 86.6357 13.6144 86.6357 14.422C86.6357 15.8337 86.6845 15.8896 87.9249 15.8896C89.4172 15.8896 90.182 16.6213 90.0045 17.8787C89.8442 19.0136 88.2275 19.3184 87.5196 18.347C86.8654 17.4495 86.4563 17.9006 86.9997 18.9198C87.5161 19.8882 89.3538 20 90.2343 19.117C90.9438 18.4048 91.0243 16.6167 90.3759 15.9662C90.124 15.7135 89.3511 15.5067 88.6584 15.5067C87.5135 15.5067 87.399 15.4022 87.399 14.358C87.399 13.2733 87.4837 13.2093 88.9256 13.2093C89.7652 13.2093 90.4522 13.037 90.4522 12.8265C90.4522 12.4041 87.2967 12.2912 86.8902 12.6989ZM91.9788 12.8265C91.9788 13.037 92.3154 13.2093 92.7272 13.2093C93.4039 13.2093 93.4879 13.5302 93.6028 16.5597L93.7302 19.91L93.8085 16.5597C93.8806 13.4908 93.9512 13.2093 94.6504 13.2093C95.0702 13.2093 95.4137 13.037 95.4137 12.8265C95.4137 12.6159 94.6409 12.4436 93.6963 12.4436C92.7517 12.4436 91.9788 12.6159 91.9788 12.8265ZM96.5587 16.0811C96.5587 18.2509 96.7129 19.7185 96.9403 19.7185C97.1502 19.7185 97.322 18.9432 97.322 17.9955C97.322 16.3364 97.3644 16.2725 98.467 16.2725C99.5696 16.2725 99.6119 16.3364 99.6119 17.9955C99.6119 18.9432 99.7837 19.7185 99.9936 19.7185C100.221 19.7185 100.375 18.2432 100.375 16.0585C100.375 13.7159 100.238 12.4834 99.9936 12.635C99.7837 12.7652 99.6119 13.5505 99.6119 14.3806C99.6119 15.8019 99.5455 15.8896 98.467 15.8896C97.3644 15.8896 97.322 15.8257 97.322 14.1666C97.322 13.2189 97.1502 12.4436 96.9403 12.4436C96.7129 12.4436 96.5587 13.9112 96.5587 16.0811ZM7.25144 30.2481C7.25144 32.418 7.40563 33.8856 7.6331 33.8856C7.84301 33.8856 8.01475 33.1964 8.01475 32.3541C8.01475 31.0024 8.12008 30.8225 8.90972 30.8225C9.99209 30.8225 11.068 29.7209 11.068 28.6124C11.068 27.5993 9.70662 26.6106 8.31129 26.6106H7.25144V30.2481ZM13.872 27.1704C13.9899 27.4783 14.4643 29.1151 14.9269 30.8079C15.3891 32.5007 15.8864 33.8856 16.0314 33.8856C16.2955 33.8856 17.9527 27.9933 17.9431 27.0893C17.9393 26.7638 17.2527 26.6106 15.7978 26.6106C14.0773 26.6106 13.6999 26.7201 13.872 27.1704ZM64.118 27.9573C71.184 30.0999 76.9111 35.0783 79.9666 41.735C81.6623 45.4284 82.21 48.0094 82.202 52.2645C82.1833 62.0169 76.9267 70.4095 68.0785 74.8139C64.6493 76.5209 61.3636 77.2641 57.2482 77.2641C52.96 77.2641 49.8323 76.5243 45.7986 74.5563C42.2095 72.8049 37.0514 67.8078 35.2382 64.3257C27.3181 49.1152 35.4412 31.3861 52.0959 27.533C54.9858 26.8645 61.2419 27.0854 64.118 27.9573ZM10.1139 28.7166C10.1139 29.6849 9.94936 29.8844 9.0643 29.9862C8.08994 30.0988 8.01475 30.0081 8.01475 28.7166C8.01475 27.4251 8.08994 27.3343 9.0643 27.4469C9.94936 27.5487 10.1139 27.7482 10.1139 28.7166ZM48.8583 58.678C48.387 60.9421 47.6175 64.5601 47.1477 66.7184C46.4127 70.0986 46.3787 70.5761 46.905 70.1645C48.7457 68.7244 58.3932 59.7999 58.3932 59.5372C58.3932 59.2558 50.3972 54.5619 49.9178 54.5619C49.806 54.5619 49.3293 56.414 48.8583 58.678ZM4.79244 66.1341C4.44476 66.6315 4.1982 67.7882 4.1982 68.9204C4.1982 71.1895 4.98785 72.5579 6.29731 72.5579C7.60676 72.5579 8.39641 71.1895 8.39641 68.9204C8.39641 66.6514 7.60676 65.2829 6.29731 65.2829C5.78856 65.2829 5.1241 65.659 4.79244 66.1341ZM10.1409 65.8845C9.19139 66.8375 9.31315 71.083 10.3161 71.9939C11.4653 73.0373 13.1316 72.3784 13.2663 70.828L13.3659 69.6862L12.7648 70.7625C12.3416 71.5207 11.9175 71.8036 11.3298 71.7198C10.5627 71.6103 10.4955 71.3851 10.4955 68.9204C10.4955 66.3256 10.5268 66.2364 11.4783 66.1253C12.1935 66.0422 12.5763 66.2505 12.8835 66.8911C13.2816 67.7204 13.3079 67.7262 13.332 66.9868C13.385 65.376 11.3489 64.673 10.1409 65.8845ZM14.1212 65.6658C14.1212 65.8764 14.4647 66.0487 14.8845 66.0487C15.5879 66.0487 15.6479 66.3041 15.6479 69.3033C15.6479 71.2178 15.8051 72.5579 16.0295 72.5579C16.2539 72.5579 16.4112 71.2178 16.4112 69.3033C16.4112 66.3041 16.4711 66.0487 17.1745 66.0487C17.5943 66.0487 17.9378 65.8764 17.9378 65.6658C17.9378 65.4552 17.0791 65.2829 16.0295 65.2829C14.98 65.2829 14.1212 65.4552 14.1212 65.6658ZM7.44227 68.9204C7.44227 71.454 7.39265 71.6076 6.53125 71.7297C5.31263 71.9028 4.9745 71.2465 4.96724 68.6972C4.96076 66.257 5.12945 65.9695 6.47402 66.1268C7.40754 66.236 7.44227 66.3359 7.44227 68.9204ZM0 69.1119C0 69.3225 0.601106 69.4948 1.33579 69.4948C2.07048 69.4948 2.67158 69.3225 2.67158 69.1119C2.67158 68.9013 2.07048 68.729 1.33579 68.729C0.601106 68.729 0 68.9013 0 69.1119ZM19.0732 87.7071C18.4087 89.4604 18.6156 92.3827 19.4644 93.2342C21.1902 94.9657 22.8993 93.5245 22.8993 90.3372C22.8993 87.4874 22.4516 86.725 20.7773 86.725C19.6987 86.725 19.3747 86.9119 19.0732 87.7071ZM24.4927 90.2668C24.5293 92.2146 24.6251 93.0761 24.7053 92.1812C24.8412 90.6688 24.9305 90.5539 25.9743 90.5539C26.5922 90.5539 27.0975 90.3817 27.0975 90.1711C27.0975 89.9605 26.5712 89.7882 25.9285 89.7882C24.8396 89.7882 24.7675 89.7028 24.8789 88.5453C24.9782 87.5134 25.1927 87.2614 26.1434 87.0593C27.2509 86.8234 27.2414 86.8142 25.8571 86.7702L24.4259 86.725L24.4927 90.2668ZM28.2425 90.1711C28.2425 92.213 28.3978 93.6171 28.6241 93.6171C28.834 93.6171 29.0058 92.9279 29.0058 92.0855C29.0058 90.639 29.0695 90.5539 30.1507 90.5539C30.7805 90.5539 31.2957 90.3817 31.2957 90.1711C31.2957 89.9605 30.7694 89.7882 30.1267 89.7882C29.0378 89.7882 28.9657 89.7028 29.0771 88.5453C29.1764 87.5134 29.3909 87.2614 30.3416 87.0593C31.3678 86.841 31.3186 86.8108 29.8645 86.7702L28.2425 86.725V90.1711ZM82.5863 87.2714C82.1111 88.5131 82.642 89.6036 84.0595 90.2982C85.109 90.8128 85.4907 91.2401 85.4907 91.8998C85.4907 93.2384 84.0259 93.5861 83.1195 92.4627C82.2985 91.4453 81.8085 91.672 82.4062 92.7927C82.9966 93.8993 84.2152 94.1738 85.3186 93.4486C86.962 92.3685 86.2994 90.3001 84.0946 89.6273C83.079 89.3176 82.6592 88.337 83.2408 87.6336C83.8694 86.874 84.5991 86.9861 85.2693 87.9464C85.9849 88.9711 86.4815 88.6326 85.8899 87.5237C85.3804 86.5688 82.9267 86.3816 82.5863 87.2714ZM87.399 90.1711C87.399 92.213 87.5543 93.6171 87.7806 93.6171C87.9905 93.6171 88.1623 92.9279 88.1623 92.0855C88.1623 90.639 88.226 90.5539 89.3072 90.5539C90.3885 90.5539 90.4522 90.639 90.4522 92.0855C90.4522 92.9279 90.6239 93.6171 90.8339 93.6171C91.0602 93.6171 91.2155 92.213 91.2155 90.1711C91.2155 88.1291 91.0602 86.725 90.8339 86.725C90.6239 86.725 90.4522 87.4142 90.4522 88.2566C90.4522 89.7032 90.3885 89.7882 89.3072 89.7882C88.226 89.7882 88.1623 89.7032 88.1623 88.2566C88.1623 87.4142 87.9905 86.725 87.7806 86.725C87.5543 86.725 87.399 88.1291 87.399 90.1711ZM92.7421 90.3625C92.7421 92.5324 92.8963 94 93.1238 94C93.3513 94 93.5054 92.5324 93.5054 90.3625C93.5054 88.1926 93.3513 86.725 93.1238 86.725C92.8963 86.725 92.7421 88.1926 92.7421 90.3625ZM94.6504 90.1711C94.6504 92.213 94.8057 93.6171 95.0321 93.6171C95.242 93.6171 95.4294 92.5408 95.4488 91.224L95.4839 88.8309L96.2858 91.224C96.7266 92.5404 97.2117 93.6171 97.3636 93.6171C97.5155 93.6171 97.9842 92.6266 98.4051 91.4155L99.17 89.2138L99.2001 91.4155C99.2165 92.6266 99.402 93.6171 99.6119 93.6171C99.8382 93.6171 99.9936 92.2027 99.9936 90.1393C99.9936 85.906 99.4432 85.7398 98.2811 89.6227C97.8437 91.0823 97.3823 92.1047 97.2556 91.8941C97.1285 91.6835 96.7255 90.4345 96.3598 89.1181C95.3477 85.476 94.6504 85.9056 94.6504 90.1711ZM101.586 90.2668C101.65 93.7105 101.658 93.7396 101.872 91.3197L102.093 88.8309L102.888 91.1283C103.325 92.3918 103.826 93.4257 104.001 93.4257C104.176 93.4257 104.677 92.3918 105.114 91.1283L105.909 88.8309L106.129 91.3197C106.344 93.7396 106.352 93.7105 106.416 90.2668C106.454 88.2195 106.328 86.725 106.116 86.725C105.915 86.725 105.393 87.9311 104.955 89.4053C104.517 90.8794 104.098 92.0855 104.022 92.0855C103.946 92.0855 103.519 90.8794 103.073 89.4053C102.627 87.9311 102.095 86.725 101.891 86.725C101.673 86.725 101.547 88.1854 101.586 90.2668ZM108.008 90.1711V93.6171L109.63 93.5558C111.036 93.5026 111.087 93.4739 110.012 93.3403C108.883 93.1997 108.772 93.0673 108.772 91.87C108.772 90.6631 108.867 90.5539 109.917 90.5539C110.546 90.5539 111.062 90.3817 111.062 90.1711C111.062 89.9605 110.546 89.7882 109.917 89.7882C108.867 89.7882 108.772 89.679 108.772 88.4722C108.772 87.2748 108.883 87.1424 110.012 87.0019C111.087 86.8682 111.036 86.8395 109.63 86.7863L108.008 86.725V90.1711ZM112.207 90.1711C112.207 92.213 112.362 93.6171 112.588 93.6171C112.798 93.6171 112.97 92.9279 112.97 92.0855C112.97 90.9759 113.128 90.5539 113.545 90.5539C113.862 90.5539 114.396 91.2432 114.732 92.0855C115.068 92.9279 115.494 93.6171 115.68 93.6171C115.865 93.6171 115.744 92.9325 115.41 92.0959C114.855 90.7037 114.855 90.5222 115.413 89.9624C116.12 89.2533 116.184 88.5082 115.628 87.4655C115.34 86.9245 114.825 86.725 113.72 86.725H112.207V90.1711ZM21.7276 87.6501C22.4104 88.4752 22.0955 92.486 21.3093 92.9811C20.167 93.6998 19.4644 92.6411 19.4644 90.2009C19.4644 87.4399 20.5456 86.2211 21.7276 87.6501ZM114.656 87.6118C115.656 88.3458 115.284 89.5711 114.016 89.7177C113.048 89.8299 112.97 89.7365 112.97 88.4733C112.97 87.003 113.474 86.7453 114.656 87.6118Z" fill="white"/>
</svg>
