<svg width="140" height="140" viewBox="0 0 140 140" fill="none" xmlns="http://www.w3.org/2000/svg">
<rect width="140" height="140" fill="black"/>
<path fill-rule="evenodd" clip-rule="evenodd" d="M2 51.8365V63.636H13.7598H25.5196V51.8365V40.037H17.2067H8.89369V42.4209V44.8048L12.2992 45.018C17.5197 45.3448 19.8295 47.1871 20.1689 51.2941C20.4986 55.2791 17.7225 58.3466 13.787 58.3466C11.2959 58.3466 9.50398 57.4189 8.21081 55.4598C7.08957 53.761 7.06646 53.606 6.93345 46.8832L6.7976 40.037H4.399H2V51.8365ZM30.3858 51.8178V63.636H42.1229C53.7749 63.636 53.8681 63.6291 54.9411 62.7034C56.0368 61.7574 56.1564 60.8806 55.9634 55.2246C55.9468 54.738 55.4516 53.7659 54.8632 53.0645L53.7931 51.7885L54.6447 51.1904C56.2156 50.0861 56.8308 45.4835 55.8089 42.4799C55.0851 40.3524 53.5344 39.9939 45.6322 40.129L39.1043 40.2405L38.9846 42.9751L38.865 45.7101L44.459 45.8232L50.0531 45.9368V47.3608V48.7849L44.4773 48.898L38.9015 49.0111V51.8479V54.6846H44.5787H50.2558V56.3122V57.9397H43.1675H36.0788L35.9697 49.0901L35.8602 40.2405L33.123 40.12L30.3858 40V51.8178ZM61.7253 40.3084C61.231 40.4122 60.3644 41.0481 59.7991 41.7223L58.7716 42.9474V52.1026V61.2574L59.9569 62.4467L61.1422 63.636H70.7341H80.3261L81.5114 62.4467L82.6967 61.2574V52.0778V42.8982L81.5143 41.5693L80.3318 40.2405L71.4779 40.1802C66.6081 40.1473 62.2196 40.2051 61.7253 40.3084ZM88.088 40.4736C85.8682 41.1413 85.5353 42.0661 85.5353 47.5643C85.5353 53.1637 85.8548 53.9897 88.2843 54.6667C89.1143 54.8979 93.0324 55.0879 96.991 55.0891L104.189 55.0915V56.5156V57.9397H97.6881C92.2834 57.9397 91.1476 57.8367 90.9537 57.3294C90.7798 56.8749 90.058 56.719 88.1277 56.719H85.5353V59.1786C85.5353 61.248 85.6935 61.7973 86.5308 62.6371L87.526 63.636H97.4569C107.368 63.636 107.39 63.6339 108.525 62.655C109.625 61.707 109.668 61.5222 109.799 57.1959C109.944 52.4594 109.396 50.2432 107.909 49.5478C107.536 49.3737 103.581 49.1308 99.1199 49.0079L91.0097 48.7849V47.3608V45.9368L97.4318 45.8245C103.63 45.7162 103.862 45.7415 104.073 46.554C104.271 47.314 104.552 47.384 106.978 47.2766L109.663 47.1574L109.653 44.8166C109.644 42.8144 109.482 42.3147 108.529 41.3582L107.416 40.2405L98.4018 40.1615C93.444 40.118 88.8029 40.2584 88.088 40.4736ZM115.257 40.4874C113.038 41.1315 112.705 42.0596 112.705 47.5993C112.705 52.3337 112.747 52.5819 113.724 53.5621C115.1 54.9426 116.13 55.0915 124.312 55.0915H131.358V56.5156V57.9397H124.857C119.453 57.9397 118.317 57.8367 118.123 57.3294C117.949 56.8749 117.227 56.719 115.297 56.719H112.705V59.1786C112.705 61.248 112.863 61.7973 113.7 62.6371L114.695 63.636H124.626C134.537 63.636 134.559 63.6339 135.695 62.655C136.796 61.7053 136.837 61.5275 136.97 57.1316C137.12 52.2279 136.729 50.5325 135.256 49.6849C134.701 49.3651 131.545 49.1202 126.289 48.9884L118.179 48.7849V47.3608V45.9368L124.601 45.8245C130.8 45.7162 131.031 45.7415 131.242 46.554C131.44 47.314 131.721 47.384 134.147 47.2766L136.832 47.1574L136.955 45.2459C137.124 42.6073 136.234 41.0046 134.297 40.4651C132.434 39.9459 117.061 39.9642 115.257 40.4874ZM5.24409 46.9772C5.24409 53.4852 5.70191 55.1827 8.107 57.5963C10.208 59.7039 11.7327 60.2174 14.8446 59.8654C17.2533 59.5932 19.7131 57.8359 20.9585 55.4984C21.748 54.0161 21.9037 53.2215 21.7748 51.3259C21.4601 46.7009 18.0319 43.6989 13.0656 43.6989C10.7862 43.6989 10.5157 43.6127 10.5157 42.8852C10.5157 42.1052 10.7862 42.0714 17.0039 42.0714H23.4921V52.0399V62.0085H13.5571H3.62204V52.0399C3.62204 42.3428 3.64394 42.0714 4.43307 42.0714C5.19908 42.0714 5.24409 42.3428 5.24409 46.9772ZM76.9291 51.9382L77.0411 57.9397H70.7451H64.4487V52.1079C64.4487 48.9001 64.5752 46.1492 64.7293 45.9941C64.8838 45.8391 67.6669 45.763 70.9134 45.8245L76.8168 45.9368L76.9291 51.9382ZM13.8527 76.5214C12.4447 77.0898 12.1378 78.9252 12.1378 86.7768C12.1378 94.4879 12.139 94.4977 13.1876 95.748L14.2375 97H27.786H41.3346V95.169V93.3381H31.8339C21.0233 93.3381 21.059 93.3483 21.059 90.2576V88.4556H30.183H39.307V86.6246V84.7936H30.183H21.059V82.9916C21.059 79.9009 21.0233 79.9111 31.8339 79.9111H41.3346V78.0802V76.2492L27.8513 76.2813C20.4358 76.2988 14.1361 76.4071 13.8527 76.5214ZM45.6285 77.5012C44.6691 78.6449 44.5787 79.0689 44.5787 82.415C44.5787 85.9199 44.6294 86.1278 45.764 87.2662L46.9493 88.4556H55.9285C61.3425 88.4556 65.2188 88.6228 65.692 88.8767C66.263 89.1835 66.4763 89.7323 66.4763 90.8968C66.4763 92.0613 66.263 92.6102 65.692 92.917C65.2135 93.1737 61.1004 93.3381 55.1487 93.3381H45.3897V95.169V97H59.2038C68.3238 97 73.2962 96.8507 73.8363 96.5606C76.4656 95.1487 76.4656 86.6449 73.8363 85.2331C73.3209 84.9564 69.7041 84.7936 64.07 84.7936C55.6625 84.7936 55.0729 84.7444 54.3109 83.9799C53.3389 83.0046 53.2595 81.4312 54.137 80.5503C54.6824 80.0035 56.2339 79.9111 64.883 79.9111H74.992V78.0802V76.2492H60.8352H46.6784L45.6285 77.5012ZM95.9119 77.5012C95.038 78.5428 94.8621 79.1616 94.8621 81.1895C94.8621 84.0263 95.2692 84.9662 96.9403 85.9858L98.1556 86.7275L97.1244 86.9871C95.6832 87.3501 94.8621 89.1932 94.8621 92.0662C94.8621 94.0867 95.0389 94.7072 95.9119 95.748L96.9618 97L109.395 96.987C122.46 96.9736 122.599 96.9548 123.587 95.0942C124.17 93.996 124.208 89.4951 123.643 88.4364C123.415 88.008 122.766 87.4148 122.204 87.119L121.18 86.5807L122.169 86.0493C123.553 85.3059 124.059 83.9457 124.059 80.9686C124.059 78.8085 123.902 78.2319 123.065 77.3258L122.07 76.2492H109.516H96.9618L95.9119 77.5012ZM114.501 80.5503C115.378 81.4312 115.299 83.0046 114.327 83.9799C113.636 84.6724 112.975 84.7936 109.892 84.7936C105.027 84.7936 104.189 84.4486 104.189 82.4439C104.189 81.5879 104.408 80.6679 104.675 80.3994C105.459 79.6133 113.693 79.7402 114.501 80.5503ZM79.0471 88.659V90.4899H85.3325H91.618V88.659V86.828H85.3325H79.0471V88.659ZM114.501 89.0948C115.331 89.9285 115.314 91.654 114.466 92.5939C113.902 93.2197 113.155 93.3381 109.776 93.3381C104.9 93.3381 104.189 93.0362 104.189 90.964C104.189 90.1213 104.408 89.2123 104.675 88.9438C105.459 88.1577 113.693 88.2847 114.501 89.0948Z" fill="white"/>
</svg>
