<svg width="146" height="146" viewBox="0 0 146 146" fill="none" xmlns="http://www.w3.org/2000/svg">
<rect x="1.5" y="1.5" width="143" height="143" fill="white" stroke="black" stroke-width="3"/>
<path fill-rule="evenodd" clip-rule="evenodd" d="M8 35.8234V25.4214V15.0194L9.74671 15.084L11.4934 15.1485L11.5547 19.4012L11.6158 23.654H16.2314H20.8468V19.346V15.038H22.6499H24.4529V25.4214V35.8048H22.6499H20.8468V31.4968V27.1888H16.2314H11.6158L11.5547 31.4416L11.4934 35.6944L9.74671 35.7589L8 35.8234ZM28.5098 35.8048V25.4214V15.038H35.9474H43.385V16.8054V18.5728H37.7505H32.1159V21.1134V23.654H36.849H41.582V25.4214V27.1888H36.849H32.1159V29.7294V32.2701H37.7505H43.385V34.0374V35.8048H35.9474H28.5098ZM46.9912 25.5869C46.9912 19.9469 47.0669 15.2585 47.1593 15.1679C47.2517 15.0771 49.6097 15.0371 52.3994 15.0789C57.16 15.1498 57.5445 15.1867 58.6592 15.6778C60.1504 16.3344 61.9122 18.1782 62.406 19.5985C62.6936 20.4259 62.7679 21.6023 62.7679 25.3249C62.7679 31.0775 62.6043 31.7474 60.7476 33.6011C58.8393 35.5061 58.2776 35.646 52.1186 35.7525L46.9912 35.8411V25.5869ZM65.6979 35.8234V25.4117V15L70.4873 15.0762C75.8663 15.1617 76.4692 15.3036 78.2837 16.9106C80.9845 19.3023 81.181 23.7811 78.6987 26.3617L78.1129 26.9705L80.1267 31.3324L82.1405 35.6944L80.4188 35.7595C79.4719 35.7953 78.5792 35.7803 78.4352 35.7262C78.2909 35.6718 77.432 34.0271 76.5264 32.071L74.8798 28.5143H72.0974H69.3153L69.2533 32.1044L69.1913 35.6944L67.4446 35.7589L65.6979 35.8234ZM86.8573 26.9358L88.8077 21.1998L90.7584 15.4637L92.7747 15.5271L94.7912 15.5903L96.3846 20.3402C97.2612 22.9526 98.043 25.1578 98.1221 25.2409C98.201 25.324 100.175 24.9588 102.508 24.4295C104.842 23.9004 107.783 23.3034 109.044 23.103C110.534 22.8664 112.049 22.4434 113.366 21.8953C117.702 20.0916 120.46 19.5674 124.635 19.7532C128.006 19.9032 129.835 20.2825 131.805 21.2404C133.551 22.0892 134.429 22.7337 136.098 24.3912C137.631 25.9143 139.127 28.0979 140.211 30.3975C141.548 33.235 141.249 33.376 138.824 31.0517C134.788 27.1846 129.525 24.6941 123.144 23.6317C120.806 23.2427 119.65 23.1806 115.96 23.2462L111.563 23.3244L108.383 25.0304C104.912 26.8921 103.944 27.3335 101.125 28.3394C99.9558 28.7567 99.291 29.1073 99.3556 29.2728C99.4127 29.4184 100.19 31.7613 101.083 34.4793C101.976 37.1973 102.758 39.5519 102.82 39.7117C102.909 39.9379 102.516 40.0019 101.051 40L99.1672 39.9975L97.4899 34.9125L95.8126 29.8275L94.4473 29.9954C93.6963 30.0875 92.2976 30.1562 91.3388 30.1479L89.5955 30.1326L88.6405 32.9686L87.6858 35.8048H85.8307H83.9755L84.2667 34.8659C84.4268 34.3496 84.8987 32.9114 85.3154 31.6702C85.7322 30.4289 86.0274 29.385 85.9713 29.3505C85.9154 29.3159 85.109 28.9142 84.1793 28.4578C82.1849 27.4789 80.1156 25.7979 80.4677 25.4428C80.6313 25.278 80.966 25.3364 81.5946 25.6393C82.5029 26.0767 84.5155 26.6137 86.0254 26.8214L86.8573 26.9358ZM59.2745 25.4214C59.2745 20.6777 59.1537 20.1842 57.7376 19.1483C57.1746 18.7363 56.7376 18.6753 53.903 18.6125C52.1434 18.5737 50.6293 18.6152 50.538 18.7047C50.3395 18.8991 50.3117 31.4177 50.5087 31.9206C50.6234 32.2139 51.1053 32.2701 53.5036 32.2701C56.0209 32.2701 56.4811 32.2108 57.3621 31.773C59.1298 30.8948 59.2745 30.4143 59.2745 25.4214ZM76.1325 23.6671C77.2999 22.3068 76.7759 19.9467 75.1176 19.0979C74.3251 18.6921 69.796 18.3702 69.4731 18.6965C69.38 18.7904 69.304 20.2425 69.304 21.9235V24.9796H71.6778C74.3747 24.9796 75.2194 24.7308 76.1325 23.6671ZM131.908 22.0218C131.106 21.5822 129.658 21.0242 128.69 20.7814C127.722 20.5388 126.718 20.3461 126.459 20.3534C126.2 20.3607 126.66 20.5445 127.482 20.7619C130.868 21.6575 133.786 23.4338 136.477 26.2366C137.827 27.6421 137.99 27.763 137.358 26.889C136.199 25.2853 133.556 22.9254 131.908 22.0218ZM132.399 23.3765C130.88 22.4239 128.927 21.6003 127.114 21.1479C125.49 20.7427 122.541 20.5476 121.142 20.7529C120.343 20.8704 120.725 20.9329 122.945 21.0484C126.292 21.2225 127.828 21.5842 130.338 22.7889C132.341 23.7499 133.913 24.8894 136.221 27.0516C137.064 27.8414 137.472 28.1282 137.201 27.7411C136.466 26.688 133.766 24.2333 132.399 23.3765ZM90.7924 26.6752C90.916 26.7964 94.5471 26.2446 94.5446 26.105C94.5354 25.5568 92.7447 20.7456 92.646 21.0036C92.1143 22.3945 90.7341 26.6179 90.7924 26.6752ZM119.174 21.156C119.393 21.2122 119.698 21.2084 119.85 21.1479C120.003 21.0873 119.824 21.0416 119.452 21.046C119.08 21.0504 118.955 21.0999 119.174 21.156ZM131.848 24.1739C130.904 23.4371 127.721 22.1294 126.054 21.7941C125.035 21.5893 123.357 21.4576 121.997 21.4755L119.677 21.5064L121.604 21.675C124.114 21.8944 127.952 22.8092 130.372 23.7651C131.432 24.1836 132.096 24.3674 131.848 24.1739ZM134.102 26.4039C132.474 25.098 128.991 23.6421 125.333 22.7385C124.006 22.4109 122.463 22.2562 119.677 22.1719C117.57 22.108 115.926 22.1374 116.023 22.2372C116.121 22.3373 117.592 22.4906 119.291 22.5781C124.426 22.8424 128.783 23.9361 132.862 25.9846C134.207 26.6601 134.576 26.785 134.102 26.4039ZM99.0545 28.1238C99.0545 28.5157 103.257 26.912 106.605 25.2425C107.844 24.6243 108.757 24.1226 108.633 24.1279C107.936 24.1569 99.0545 27.8617 99.0545 28.1238ZM102.47 26.2945C104.248 25.5597 105.9 24.8813 106.14 24.7869C106.443 24.6683 106.495 24.5653 106.309 24.4531C106.162 24.3639 106.041 24.4027 106.041 24.5395C106.041 24.6928 105.857 24.7313 105.562 24.6393C105.209 24.5296 105.13 24.564 105.26 24.7697C105.388 24.9732 105.303 25.0154 104.949 24.9246C104.682 24.8558 104.509 24.8729 104.565 24.9621C104.621 25.0512 103.402 25.603 101.854 26.188C99.345 27.1371 98.3752 27.6307 99.0198 27.6307C99.1395 27.6307 100.692 27.0293 102.47 26.2945ZM100.815 25.5723C100.978 25.6361 101.172 25.6282 101.247 25.5549C101.322 25.4815 101.189 25.4294 100.952 25.4389C100.689 25.4495 100.636 25.5018 100.815 25.5723ZM98.615 26.2883C98.7947 26.279 99.2968 26.1374 99.7307 25.9737C100.517 25.677 100.35 25.6134 99.2799 25.8016C98.643 25.9136 98.0944 26.3151 98.615 26.2883ZM98.695 26.91C98.8145 27.0271 101.534 26.1045 101.534 25.9468C101.534 25.8098 101.261 25.8756 99.8857 26.3455C99.1652 26.5916 98.6292 26.8457 98.695 26.91ZM93.1382 27.7524C94.161 27.5288 94.9976 27.2666 94.9976 27.1698C94.9976 26.8307 94.6413 26.8402 92.4057 27.2381C90.7934 27.5253 89.3822 27.6174 87.4473 27.5617C84.8113 27.4859 84.7684 27.4921 85.757 27.8078C87.2201 28.2753 90.8716 28.2477 93.1382 27.7524ZM89.2504 29.0505C91.5078 29.0485 95.223 28.4202 95.223 28.0405C95.223 27.8109 94.4826 27.8304 93.42 28.088C90.7118 28.7446 87.528 28.7788 85.3747 28.1748C85.1511 28.1118 85.4245 28.2837 85.9823 28.5565C86.8316 28.9719 87.3635 29.0523 89.2504 29.0505ZM92.4057 29.4882C94.8067 29.3426 95.4484 29.2034 95.4484 28.8283C95.4484 28.4589 95.2584 28.4602 93.758 28.8391C93.1382 28.9955 92.1747 29.2304 91.6169 29.3605C90.6987 29.575 90.7735 29.5869 92.4057 29.4882ZM122.397 69.7374C122.397 69.3948 125.17 66.5654 130.365 61.6059C136.14 56.0924 138.502 54 138.952 54C139.721 54 141 55.2914 141 56.0682C141 56.6646 139.981 57.695 130.144 67.0409C126.112 70.8728 125.117 71.6879 124.393 71.7546C123.678 71.8205 123.414 71.6911 122.957 71.0493C122.649 70.6169 122.397 70.0266 122.397 69.7374ZM123.67 68.8832C123.953 68.8832 138.874 54.893 138.874 54.6283C138.874 54.5751 138.778 54.5315 138.66 54.5315C138.497 54.5315 129.362 63.0825 123.867 68.3782C123.56 68.673 123.479 68.8832 123.67 68.8832ZM134.299 61.3164C138.976 56.8663 140.369 55.3961 140.154 55.1372C139.999 54.9501 139.771 54.7973 139.647 54.7973C139.523 54.7973 136.004 58.0466 131.828 62.0183C125.133 68.3844 124.281 69.2859 124.626 69.6316C124.686 69.6912 124.736 69.745 124.797 69.7745C125.211 69.9735 126.159 69.0624 134.299 61.3164ZM132.868 63.8362C137.048 59.8478 140.469 56.4815 140.469 56.3555C140.469 56.2293 140.439 56.1299 140.402 56.1342C140.128 56.1674 125.433 70.3952 125.36 70.6984C125.309 70.9124 128.687 67.8244 132.868 63.8362ZM93.2837 68.2446C93.5574 68.6188 93.8213 68.4298 95.3082 66.7966C96.2487 65.7636 97.1493 64.9134 97.3093 64.9075C97.8485 64.8873 98.5352 65.8981 98.3593 66.4525C98.2458 66.8099 98.3447 67.0696 98.662 67.2471C99.0983 67.4911 99.1012 67.5469 98.701 67.9977C98.4634 68.2656 98.2269 68.7139 98.1751 68.994C98.1236 69.2744 97.9152 69.5588 97.7122 69.6266C97.4661 69.7084 97.4132 69.6356 97.5538 69.4081C97.6933 69.1827 97.6593 69.1322 97.4536 69.2593C97.2825 69.3651 97.202 69.5479 97.2748 69.6656C97.41 69.8844 88.8428 77.9195 88.4739 77.9195C88.3623 77.9195 88.7989 77.3813 89.4444 76.7235C90.0899 76.0657 90.5587 75.5275 90.4864 75.5275C90.4139 75.5275 89.7612 76.1425 89.0357 76.8944C88.3104 77.646 87.8667 78.177 88.0492 78.0744C88.9145 77.5888 88.0386 78.4587 83.8076 82.2864C79.7488 85.9585 78.4134 87.0221 78.9473 86.1584C79.0376 86.0122 78.9292 85.8926 78.7065 85.8926C78.4838 85.8926 78.1737 85.6534 78.0172 85.3611C77.8508 85.0501 77.4607 84.8295 77.0777 84.8295C75.7394 84.8295 75.9026 84.615 82.6409 77.5189C85.1406 74.8867 88.1662 71.668 89.3647 70.366C91.1386 68.4391 91.614 68.0569 91.9204 68.3113C92.2141 68.555 92.3711 68.5348 92.6332 68.219C92.9332 67.8576 93.0028 67.8603 93.2837 68.2446ZM97.7369 66.8998C97.8161 66.979 97.9436 66.8043 98.0202 66.5115C98.2094 65.788 97.4871 65.1677 97.2655 65.8633C97.1788 66.1357 96.988 66.655 96.8416 67.0178C96.5843 67.6546 96.5926 67.6615 97.084 67.2166C97.3641 66.963 97.6577 66.8206 97.7369 66.8998ZM96.2139 67.6402C96.2357 67.3739 96.4055 66.8764 96.591 66.5349C96.7767 66.1936 96.8889 65.8933 96.8405 65.8675C96.7921 65.8417 92.5133 70.0981 87.3322 75.3255C80.3329 82.3876 77.989 84.9077 78.2119 85.1306C78.4349 85.3536 79.9154 84.046 83.9726 80.0432C88.8871 75.195 89.4806 74.6917 89.9039 75.0124C90.3073 75.3181 90.3264 75.3149 90.0376 74.9917C89.7567 74.677 90.2379 74.0759 92.9374 71.3698C94.7177 69.5851 96.1921 67.9068 96.2139 67.6402ZM69.2931 66.5989C68.6957 67.1227 68.4703 66.8432 69.0348 66.2787C69.2827 66.0307 69.2506 65.9597 68.8892 65.9597C68.6338 65.9597 68.1182 66.2885 67.7438 66.6906C66.9213 67.5732 60.0729 75.7646 53.0188 84.3033C47.9767 90.4063 47.1496 91.3721 47.2538 91.4859C47.2863 91.5215 47.4099 91.4738 47.5242 91.4738C47.7437 91.4738 48.8048 90.3685 49.8819 89.0175C50.9592 87.6666 54.0547 83.9892 56.7608 80.8451C65.1609 71.0859 67.4283 68.3517 67.1211 68.3517C66.9577 68.3517 66.9032 68.2241 66.9994 68.0681C67.0959 67.9123 67.2434 67.8536 67.3276 67.9379C67.4118 68.0218 67.7587 67.8297 68.0983 67.5105C69.2253 66.4514 68.7377 67.3152 67.2543 69.0047C65.811 70.6487 65.292 71.5449 66.3241 70.6107C67.1116 69.8982 66.9688 70.4635 66.1442 71.3243C65.7528 71.7328 65.4979 72.1323 65.5779 72.212C65.6576 72.2917 66.6869 71.2486 67.8649 69.8937C69.4214 68.104 69.9333 67.3417 69.7372 67.1055C69.5889 66.9266 69.5581 66.6255 69.6689 66.4365C69.7797 66.2473 69.6104 66.3204 69.2931 66.5989ZM67.8004 67.5424C67.1828 68.0548 67.3021 67.5464 67.9649 66.8405C68.2827 66.5024 68.5859 66.2255 68.6385 66.2255C68.8291 66.2255 68.204 67.2073 67.8004 67.5424ZM66.9192 70.0986C66.8495 70.029 67.3619 69.3055 68.0579 68.4909C68.7536 67.6763 69.38 67.0669 69.4496 67.1363C69.5192 67.2059 69.0069 67.9294 68.3109 68.744C67.6152 69.5585 66.9888 70.168 66.9192 70.0986ZM94.0951 69.2819L95.0108 68.2852C95.5147 67.7372 95.963 67.2886 96.0074 67.2886C96.2104 67.2886 96.0191 67.5134 95.0916 68.366L94.0951 69.2819ZM97.9455 67.9511C98.0959 68.0442 98.1406 67.9376 98.05 67.7011C97.8732 67.2407 97.6827 67.1565 97.6827 67.5387C97.6827 67.6763 97.8009 67.8618 97.9455 67.9511ZM97.414 68.2169C97.5644 68.3099 97.6091 68.2034 97.5184 67.9668C97.3417 67.5065 97.1512 67.4223 97.1512 67.8044C97.1512 67.9421 97.2694 68.1276 97.414 68.2169ZM96.7696 68.4296C96.8695 68.6916 97.018 68.8391 97.0999 68.7572C97.1817 68.6756 97.1002 68.4612 96.9184 68.2807C96.6558 68.0202 96.6255 68.0508 96.7696 68.4296ZM87.3482 73.5342C89.3392 71.4878 91.04 69.604 91.128 69.3483C91.2159 69.0926 91.2619 68.8837 91.23 68.8845C91.1978 68.8853 89.3594 70.8289 87.1438 73.2033C84.9285 75.578 81.8256 78.8962 80.2484 80.5772C78.6709 82.2582 77.7628 83.2822 78.2303 82.853C79.4084 81.7707 79.2991 82.3193 78.0836 83.5892C77.5356 84.1616 77.2311 84.5853 77.4073 84.5305C77.8574 84.3905 89.9339 72.6465 91.2749 71.045C91.9659 70.2195 92.222 69.7488 91.9589 69.7876C91.728 69.8214 88.7064 72.6516 85.2448 76.0769C79.1352 82.1221 79.9401 81.1491 87.3482 73.5342ZM96.0799 69.6805C96.2213 69.6805 96.2684 69.5011 96.1844 69.2819C96.1001 69.0626 95.9843 68.8832 95.9269 68.8832C95.8695 68.8832 95.8224 69.0626 95.8224 69.2819C95.8224 69.5011 95.9383 69.6805 96.0799 69.6805ZM95.5538 70.0773C95.7042 70.1703 95.7488 70.0638 95.6582 69.8272C95.4815 69.3669 95.2909 69.2827 95.2909 69.6648C95.2909 69.8025 95.4092 69.988 95.5538 70.0773ZM124.345 71.2752C124.94 71.2752 124.914 70.4077 124.303 69.8546C123.653 69.2657 122.929 69.2922 122.929 69.9051C122.929 70.4978 123.732 71.2752 124.345 71.2752ZM95.0252 70.6107C95.1713 70.7011 95.2909 70.6554 95.2909 70.5092C95.2909 70.0614 94.9101 69.9827 94.5628 70.3588C94.3552 70.5834 94.3308 70.7758 94.4963 70.8781C94.6409 70.9677 94.7594 70.9071 94.7594 70.7436C94.7594 70.5802 94.879 70.5204 95.0252 70.6107ZM95.2245 71.4182C95.992 70.6926 96.6197 70.0648 96.6197 70.0229C96.6197 69.8243 96.3736 70.0452 95.1479 71.3416L93.8293 72.7369L95.2245 71.4182ZM51.4182 83.4494C48.4402 77.5875 42.8565 73.0901 36.1418 71.1441C33.876 70.4874 32.015 70.3439 30.7136 70.7258C30.1265 70.898 30.1885 70.9435 31.2451 71.117C35.6443 71.8397 40.5652 73.7466 43.561 75.8895C46.4651 77.967 49.2462 81.2868 50.7777 84.5042C51.0701 85.1184 51.3908 85.622 51.4907 85.6239C51.9826 85.6321 51.9444 84.4848 51.4182 83.4494ZM52.4318 80.5043C48.6695 74.7424 45.3314 72.0656 40.8121 71.1861C39.7159 70.973 38.1612 70.7287 37.3573 70.6432L35.8957 70.488L37.3573 70.9677C42.9562 72.8044 48.2791 77.0097 51.1535 81.867C51.9446 83.2041 52.6098 84.298 52.6316 84.298C52.6531 84.298 52.9383 83.9363 53.2649 83.4943L53.8591 82.6906L52.4318 80.5043ZM62.9358 74.8854C62.8633 74.8128 63.4936 73.968 64.3363 73.008C65.179 72.048 65.8091 71.2031 65.7366 71.1303C65.6637 71.0578 64.3658 72.4658 62.8521 74.2595C61.3387 76.0532 58.9493 78.8364 57.5429 80.4443C53.841 84.6767 49.0429 90.4577 48.7198 91.0751C48.4452 91.5998 48.449 91.6 49.0116 91.1004C49.3254 90.8218 49.5819 90.7177 49.5819 90.8686C49.5819 91.0193 49.3998 91.2942 49.1771 91.4789C48.9228 91.6899 48.8372 92.0181 48.9465 92.3628C49.3887 93.7554 49.6478 93.6064 52.8697 90.1043C54.5974 88.2266 56.0981 86.7439 56.2044 86.8098C56.3109 86.8754 57.286 86.0085 58.3713 84.8832L60.3447 82.8368L58.514 84.564C55.5264 87.3828 56.7983 85.8445 62.3235 79.9561C65.1817 76.9103 67.7068 74.04 67.9354 73.5775C68.1637 73.1151 68.4783 72.7622 68.6346 72.7927C68.7906 72.8236 69.1305 72.6141 69.3898 72.3276C69.9078 71.7554 69.7518 71.6603 68.9766 72.0751C68.7007 72.2229 64.2667 77.0097 59.1236 82.7126C53.9803 88.4156 49.715 93.0246 49.6454 92.9547C49.5755 92.8848 51.1219 91.0581 53.0815 88.895C55.0414 86.7322 59.062 82.2941 62.0161 79.0328C64.9701 75.7715 67.3842 72.9012 67.3808 72.6543C67.3765 72.3656 66.8445 72.7744 65.8896 73.8C64.2983 75.5092 64.4618 75.0427 66.1623 73.0221C66.731 72.3462 67.1341 71.731 67.0581 71.6547C66.9819 71.5787 64.255 74.5721 60.998 78.307C57.7412 82.0418 55.0173 85.0384 54.9447 84.9659C54.8721 84.8936 54.6524 84.9675 54.4562 85.1301C54.2601 85.293 54.0996 85.3127 54.0996 85.1742C54.0996 84.8378 55.2976 83.7242 55.472 83.8985C55.5472 83.9737 55.8374 83.7656 56.1164 83.4358L56.6242 82.8362L56.0263 83.3425C55.6976 83.6211 55.4284 83.7316 55.4284 83.5881C55.4284 83.2508 56.6224 82.1258 56.7962 82.2994C56.869 82.3725 57.2788 82.045 57.7066 81.5719C58.46 80.739 58.4614 80.7324 57.7537 81.3553C57.3516 81.7091 57.0229 81.8792 57.0229 81.733C57.0229 81.3899 58.2158 80.2644 58.3925 80.4408C58.4662 80.5147 58.8161 80.2465 59.1699 79.8452L59.7638 79.1715C59.9766 79.0196 60.7342 78.1452 62.8529 75.7114C64.3554 73.9855 65.5271 72.5158 65.4567 72.4451C65.386 72.3747 64.8197 72.9245 64.1981 73.6671C63.5765 74.4097 63.0084 74.958 62.9358 74.8854ZM59.724 79.1941L59.8133 79.1154L59.7638 79.1715C59.7474 79.1832 59.7343 79.1906 59.724 79.1941ZM59.724 79.1941L59.0824 79.7597C58.0819 80.642 58.1542 80.0685 59.1659 79.0992C59.809 78.4829 59.9403 78.4305 59.7912 78.8502C59.7259 79.0336 59.6721 79.1727 59.7019 79.1938C59.7068 79.1973 59.7141 79.1975 59.724 79.1941ZM41.6093 75.1902C39.2436 73.8183 36.1625 72.667 32.8396 71.913C29.3638 71.1245 28.3641 71.1316 26.2107 71.9598C25.2689 72.322 24.4724 72.6449 24.4411 72.6776C24.4094 72.7103 25.5987 72.7465 27.0834 72.7584C31.2042 72.7911 34.8991 73.9738 39.9354 76.8723C44.3569 79.4165 47.2215 82.2691 49.1078 86.0061L49.9045 87.5848L50.4094 86.9382C51.0379 86.1331 50.9632 85.8208 49.5359 83.2849C48.0923 80.7196 44.0814 76.6236 41.6093 75.1902ZM60.2119 82.8471C60.2119 83.0092 67.3191 75.7279 69.4741 73.3583C70.0938 72.6768 70.4858 72.048 70.3455 71.9614C70.2049 71.8745 70.05 71.9117 70.0008 72.044C69.9519 72.1764 67.7294 74.6244 65.0618 77.4844C62.3942 80.3441 60.2119 82.7573 60.2119 82.8471ZM75.8911 73.9568C75.8911 73.7088 76.3302 73.2549 76.867 72.9482C77.7865 72.4225 77.8936 72.4148 78.7272 72.8121C79.5197 73.1901 79.6116 73.3487 79.6116 74.3382C79.6116 75.2766 79.5022 75.4972 78.8808 75.8082C78.4788 76.0096 77.9109 76.2042 77.6185 76.2408C77.3262 76.2773 76.7455 76.3873 76.328 76.4853C75.8109 76.6065 75.4944 76.5457 75.3355 76.2948C74.9666 75.7122 75.0556 74.7281 75.4925 74.5606C75.7118 74.4764 75.8911 74.2048 75.8911 73.9568ZM50.1726 94.2795C50.2834 94.3901 65.5226 78.7149 69.8886 73.9993C70.599 73.2318 71.072 72.604 70.9394 72.604C70.8068 72.604 67.1038 76.3416 62.7102 80.9094C51.2117 92.8646 50.0241 94.131 50.1726 94.2795ZM38.6861 76.6549C36.5019 75.4263 32.8755 74.0325 30.6729 73.5751C28.182 73.0577 26.3433 72.9187 24.9999 73.1459L23.9369 73.3259L25.1328 73.3681C30.3894 73.5544 36.6215 76.6313 41.0183 81.2113C43.0763 83.3553 43.2076 83.4456 43.3628 82.8272C43.4531 82.4668 43.6338 82.1718 43.764 82.1718C44.0702 82.1718 44.0638 82.5038 43.7415 83.3516C43.5193 83.9365 43.6469 84.2921 44.6296 85.8272C45.261 86.8135 46.1159 88.2511 46.5297 89.0223C46.9435 89.7933 47.3721 90.3913 47.4822 90.3512C47.5922 90.3108 48.1027 89.7447 48.6166 89.0928L49.551 87.9077L48.4742 85.8379C46.662 82.3541 43.4329 79.3246 38.6861 76.6549ZM54.668 79.9276C53.8867 78.4547 51.4623 75.498 50.4676 74.8046C50.0536 74.516 48.9972 73.9618 48.1202 73.573L46.5257 72.8658L47.9191 74.086C49.2518 75.2535 52.2548 79.0423 53.5562 81.1983L54.1716 82.218L54.7308 81.6589L55.2897 81.0997L54.668 79.9276ZM76.4644 74.0626C76.6892 74.2885 78.2829 73.4702 78.2829 73.1287C78.2829 72.9862 78.1168 72.8698 77.9138 72.8698C77.4216 72.8698 76.2427 73.8399 76.4644 74.0626ZM92.0355 74.3416C92.803 73.6161 93.4307 72.9883 93.4307 72.9463C93.4307 72.7478 93.1846 72.9687 91.9589 74.2651L90.6403 75.6604L92.0355 74.3416ZM116.485 75.5373C115.797 74.7703 115.508 73.4696 115.931 73.0471C116.028 72.9495 116.483 72.8698 116.942 72.8698C118.41 72.8698 120.088 75.1772 119.466 76.341C119.098 77.0275 117.413 76.5733 116.485 75.5373ZM100.68 78.0523L102.945 75.5939C104.521 73.8832 105.393 73.1356 105.812 73.1356C106.404 73.1356 107.519 74.2486 107.512 74.8325C107.51 74.9954 106.624 76.0856 105.543 77.255L103.577 79.3812L104.402 80.245C104.934 80.8018 105.483 81.1087 105.944 81.1087C106.417 81.1087 107.105 81.5079 107.967 82.2834C109.163 83.3585 109.266 83.545 109.179 84.476C109 86.4005 108.861 86.7691 108.448 86.426C108.162 86.1889 107.719 86.1887 106.582 86.4247L105.091 86.7343L103.806 85.5827C102.915 84.7841 102.512 84.214 102.493 83.7236C102.476 83.2803 102.158 82.7568 101.64 82.3209C100.954 81.7439 100.835 81.4805 100.939 80.773C101.007 80.3042 100.933 79.7118 100.774 79.4567C100.508 79.0301 100.442 79.0469 99.9474 79.6648C99.5195 80.1995 98.8557 80.461 96.6909 80.9482C94.1599 81.5177 93.9444 81.5294 93.5715 81.1175C92.9901 80.4751 92.803 79.1946 93.2149 78.6782C93.4206 78.4204 94.6244 78.0127 96.1509 77.6842C98.637 77.149 98.776 77.1453 99.7093 77.5896L100.68 78.0523ZM76.7798 74.9104C76.9459 75.0762 79.0754 73.8627 79.078 73.6007C79.0788 73.5238 79.0798 73.4682 79.0529 73.4447C78.9832 73.3842 78.727 73.5383 77.7995 74.0942C77.1684 74.4727 76.7094 74.8397 76.7798 74.9104ZM106.627 74.996C107.139 74.996 107.067 74.3565 106.498 73.8412C105.93 73.3272 105.75 73.2985 105.512 73.6838C105.301 74.0251 106.126 74.996 106.627 74.996ZM117.614 73.5797C117.614 73.9191 118.634 74.8617 118.81 74.6853C118.882 74.6138 118.642 74.2747 118.277 73.9318C117.912 73.5892 117.614 73.4306 117.614 73.5797ZM33.9026 76.479C31.0569 75.0156 29.5661 74.5091 26.7273 74.0413C24.1652 73.6193 22.7676 73.5741 22.2582 73.8973C22.0371 74.0373 22.4987 74.1808 23.5099 74.2866C25.6744 74.5128 30.2482 76.2376 32.8792 77.82C35.1112 79.1625 39.2885 82.8968 40.6792 84.7931C41.1177 85.3908 41.5543 85.8828 41.6495 85.8862C41.7446 85.8897 42.0632 85.4846 42.3574 84.9858L42.8924 84.0792L41.3872 82.3305C39.4161 80.0403 36.7017 77.9181 33.9026 76.479ZM132.567 78.1772C132.446 77.2736 132.58 76.8968 133.556 75.3994C134.177 74.4466 134.861 73.6671 135.077 73.6671C135.73 73.6671 136.967 74.5229 137.111 75.0746C137.196 75.397 136.84 76.2371 136.168 77.3005C135.347 78.6001 134.905 79.0455 134.32 79.1625C133.707 79.2853 133.624 79.3769 133.91 79.6145C134.107 79.7785 134.667 81.2618 135.154 82.9104L136.039 85.9083L135.475 86.6711C135.165 87.0907 134.834 87.744 134.738 88.1227C134.611 88.6319 134.297 88.8921 133.536 89.1201C132.97 89.29 132.439 89.6405 132.357 89.8991C132.266 90.1861 131.567 90.5861 130.565 90.9242L128.923 91.4789L127.771 90.6521C127.062 90.1426 126.421 89.8768 126.103 89.96C125.879 90.0187 125.735 90.0583 125.668 90.0037C125.549 89.9058 125.677 89.5057 126.034 88.3723L126.482 86.9512L128.212 86.4324C129.481 86.0515 130.035 85.9904 130.291 86.2028C130.543 86.4125 130.958 86.4029 131.795 86.1685L132.951 85.8448L132.192 83.4236C131.27 80.4818 131.26 80.1713 132.07 79.6403C132.615 79.2834 132.687 79.0702 132.567 78.1772ZM101.039 78.3846C100.596 79.1247 101.152 78.6062 103.119 76.445C104.256 75.1956 105.134 74.1208 105.07 74.0565C104.956 73.9427 101.436 77.7228 101.039 78.3846ZM118.302 76.0168C118.709 75.9384 118.651 75.7824 117.902 74.929C117.023 73.9278 116.285 73.6326 116.285 74.2818C116.285 74.8336 117.778 76.1178 118.302 76.0168ZM77.6079 75.5905C78.1352 75.8858 79.3459 75.1894 79.3459 74.5912C79.3459 74.0674 79.1142 74.1006 78.0586 74.7767C77.3002 75.2623 77.2343 75.3816 77.6079 75.5905ZM33.7123 78.9599C31.4003 77.3616 27.1863 75.4265 24.7839 74.8599C22.5638 74.3366 21.5896 74.3666 20.8439 74.9821C20.239 75.4815 20.2369 75.4948 20.7886 75.3566C21.6138 75.1498 24.2681 75.7542 25.6901 76.4726C27.7114 77.494 32.0354 80.8786 34.3586 83.2577C36.8317 85.7906 39.545 89.2987 39.3167 89.6682C39.233 89.8037 39.1291 89.8768 39.086 89.8306C39.0427 89.784 38.2981 88.7895 37.4312 87.6201C36.5643 86.4507 35.2066 84.7841 34.4139 83.9168C32.3264 81.6325 27.7212 78.0576 25.3013 76.8428C23.4868 75.9317 22.9752 75.7933 21.4227 75.7933C20.0177 75.7933 19.5388 75.8991 19.1877 76.2868C18.7588 76.761 18.7968 76.7865 20.1431 76.9273C25.3911 77.477 31.2711 82.2276 36.4214 90.0785C36.8288 90.6999 37.2295 91.208 37.3116 91.208C37.3937 91.208 37.7966 90.8867 38.2064 90.4939C38.6165 90.1011 38.9518 89.9071 38.9518 90.0626C38.9518 90.2183 38.7738 90.4934 38.5561 90.6741C38.3385 90.8548 38.225 91.107 38.3042 91.2351C38.3831 91.363 38.2816 91.4039 38.078 91.3258C37.8747 91.2476 37.5548 91.3688 37.3672 91.595C37.0706 91.9522 36.9239 91.8451 36.2476 90.7783C33.6217 86.6376 29.4483 81.9826 26.6556 80.0794C23.6895 78.0579 19.7245 76.8417 18.1896 77.4823C17.6615 77.7026 17.8794 77.7775 19.5281 77.9418C21.0073 78.0893 21.9733 78.3798 23.4108 79.1093C27.271 81.0688 30.839 84.4343 34.7586 89.8127C35.6374 91.0185 36.4689 92.0053 36.6069 92.0053C36.7445 92.0053 36.7833 92.1249 36.693 92.2711C36.6026 92.4173 36.4341 92.5369 36.3185 92.5369C36.2029 92.5369 34.9629 91.0055 33.563 89.1339C29.7946 84.0957 26.1095 80.806 22.2593 79.0431C20.4814 78.2291 17.3221 78.0292 16.9033 78.704C16.7718 78.9164 16.7229 79.1853 16.7949 79.302C16.8669 79.4187 16.7885 79.5141 16.6206 79.5141C16.4529 79.5141 16.0962 79.7833 15.8286 80.1121L15.342 80.7101L16.8491 80.8647L18.3562 81.0194L16.7277 81.0641C15.801 81.0896 14.9809 81.252 14.8244 81.4409C14.608 81.7019 15.0133 81.7731 16.7184 81.7731C18.5972 81.7731 19.1011 81.88 20.4822 82.5705C22.5819 83.6205 25.6805 86.7104 28.877 90.9422C31.3814 94.258 31.3883 94.2644 32.4893 94.2644C33.096 94.2644 33.5725 94.1448 33.5481 93.9986C33.5239 93.8524 32.9416 92.8957 32.2541 91.8725C28.3657 86.0845 24.4132 82.79 19.8178 81.5068C18.3578 81.0991 18.3575 81.0989 19.5521 81.2395C21.1718 81.43 24.6367 83.1791 26.6585 84.8269C28.43 86.2708 30.9722 89.2642 32.7067 91.949C33.6326 93.382 33.8553 93.5763 34.4341 93.4562C34.9661 93.3456 35.019 93.3767 34.6998 93.6122C34.3456 93.8735 34.3456 93.8934 34.6998 93.7919C35.302 93.6194 35.0365 92.8409 33.7732 91.0751C31.1266 87.3764 27.9152 84.143 24.3292 81.5661C23.8995 81.2573 23.8578 81.1802 24.2085 81.3437C26.5248 82.423 30.5839 86.2788 33.4742 90.145C34.5122 91.5336 35.4219 92.7296 35.4958 92.8027C35.9667 93.2691 35.5813 93.7126 34.1059 94.4029C32.5326 95.139 29.8361 95.854 31.1122 95.1967C31.5425 94.9751 31.4649 94.9493 30.7043 95.0601C30.1874 95.1356 28.4587 95.3211 26.8623 95.4723C25.2662 95.6236 23.895 95.8168 23.8158 95.9018C23.7363 95.9869 24.6165 95.9704 25.7719 95.8649C26.9274 95.7594 28.9288 95.6374 30.2193 95.5935C32.2427 95.5252 32.8135 95.3931 34.3637 94.6354C35.3525 94.1522 36.2678 93.706 36.3977 93.6438C36.5277 93.5819 36.5479 93.6704 36.4426 93.8408C36.255 94.1443 38.5463 98.1221 38.9043 98.1141C39.0034 98.1117 39.2351 98.0144 39.4188 97.8978C39.6614 97.7436 39.3228 97.0986 38.1796 95.5377L36.6061 93.3895L37.3709 92.6568C37.7916 92.2538 38.0711 91.8198 37.9925 91.6923C37.9138 91.565 38.0076 91.4935 38.2014 91.5336C38.3948 91.5737 38.5203 91.4483 38.4801 91.2548C38.4365 91.0441 38.533 90.9805 38.7206 91.0964C38.9303 91.2261 38.9627 91.1751 38.819 90.9422C38.6678 90.6975 38.7071 90.6581 38.9518 90.8094C39.1721 90.9454 39.2354 90.9202 39.1241 90.74C39.0273 90.5837 39.2779 90.0623 39.6808 89.5813C40.0837 89.1005 40.2641 88.7983 40.0813 88.9102C39.5583 89.2299 39.6861 88.8982 40.541 87.7179L41.3332 86.6245L40.7459 85.7935C39.5229 84.0625 35.6494 80.2994 33.7123 78.9599ZM134.195 77.4732C134.613 77.6337 136.321 75.115 136.07 74.7087C135.799 74.2701 135.565 74.4546 134.688 75.7949C134.016 76.8231 133.803 77.142 133.888 77.2993C133.929 77.3742 134.037 77.4124 134.195 77.4732ZM101.489 79.592C101.942 79.766 106.034 75.3941 105.789 74.9973C105.48 74.4971 105.16 74.7297 103.215 76.8704C101.042 79.2621 100.961 79.3897 101.489 79.592ZM60.0067 78.3343C59.94 78.2676 60.5159 77.4881 61.2863 76.602C62.057 75.7162 62.7421 75.0459 62.8088 75.1126C62.8755 75.1794 62.2996 75.9588 61.5292 76.8449C60.7585 77.7307 60.0734 78.401 60.0067 78.3343ZM75.5776 75.8517C75.9347 76.2089 76.7673 75.8975 76.622 75.4608C76.4742 75.0167 75.7221 74.8902 75.4872 75.2702C75.3841 75.4371 75.4248 75.6989 75.5776 75.8517ZM89.0346 75.7755C89.1797 76.0099 89.3211 76.0229 89.5231 75.8209C89.6796 75.6644 89.7258 75.4547 89.6259 75.3548C89.5263 75.2548 89.4444 75.3197 89.4444 75.4988C89.4444 75.6779 89.3062 75.7393 89.1375 75.6352C88.9398 75.5129 88.9034 75.5626 89.0346 75.7755ZM102.559 79.6956C102.675 79.8109 104.717 77.7199 106.046 76.1255C107.355 74.5548 106.54 75.2277 104.476 77.4214C103.359 78.6091 102.496 79.6326 102.559 79.6956ZM118.964 75.6825C118.976 75.9921 119.039 76.0551 119.124 75.8432C119.201 75.6514 119.191 75.422 119.103 75.3338C119.015 75.2455 118.952 75.4023 118.964 75.6825ZM135.22 77.6537C135.291 77.6537 135.673 77.1644 136.068 76.5662C136.464 75.9682 136.745 75.4353 136.691 75.3824C136.639 75.3292 136.432 75.5496 136.232 75.8717C136.033 76.1941 135.695 76.7269 135.481 77.0557C135.267 77.3845 135.15 77.6537 135.22 77.6537ZM126.403 78.3279C124.946 77.5747 125.041 76.306 126.586 75.873C127.133 75.7199 127.722 75.5796 127.896 75.561C128.25 75.5235 128.657 77.6834 128.415 78.3149C128.22 78.8239 127.372 78.8292 126.403 78.3279ZM133.408 76.8564C133.481 76.8564 133.668 76.6172 133.825 76.3248C133.981 76.0325 134.049 75.7933 133.976 75.7933C133.903 75.7933 133.716 76.0325 133.559 76.3248C133.402 76.6172 133.334 76.8564 133.408 76.8564ZM87.9998 76.7785C87.8558 77.1572 87.8861 77.1878 88.1486 76.9273C88.3304 76.7469 88.412 76.5324 88.3301 76.4508C88.2483 76.3689 88.0997 76.5164 87.9998 76.7785ZM126.517 76.6868C126.736 76.6026 126.915 76.4867 126.915 76.4293C126.915 76.3719 126.736 76.3248 126.517 76.3248C126.297 76.3248 126.118 76.4407 126.118 76.5824C126.118 76.7237 126.297 76.7708 126.517 76.6868ZM126.771 77.3701C127.066 77.8477 127.378 77.6874 127.512 76.9893C127.582 76.6238 127.626 76.3285 127.609 76.3333C127.222 76.4439 126.643 77.1615 126.771 77.3701ZM55.8525 80.2415C55.9397 80.1543 55.6535 79.5662 55.2166 78.9347C54.7794 78.3032 54.0962 77.4876 53.6983 77.1221C53.1822 76.6483 53.3404 76.9914 54.2495 78.3181C54.9506 79.3413 55.5623 80.2285 55.6091 80.2893C55.6558 80.3502 55.7653 80.3287 55.8525 80.2415ZM109.016 79.8195C107.687 78.459 107.795 77.9187 109.51 77.3332C111.164 76.7679 111.358 76.7612 111.767 77.254C112.032 77.5739 112 77.9497 111.6 79.1808C110.968 81.1276 110.424 81.2621 109.016 79.8195ZM127.978 77.9195C128.124 77.9195 128.244 77.807 128.244 77.6694C128.244 77.5317 128.124 77.3454 127.978 77.255C127.832 77.1647 127.712 77.2773 127.712 77.5051C127.712 77.7329 127.832 77.9195 127.978 77.9195ZM111.263 78.2203C111.433 78.4882 111.495 78.4265 111.498 77.9859C111.501 77.5405 111.349 77.389 110.904 77.3919C110.463 77.3951 110.401 77.4567 110.669 77.6263C110.869 77.7531 111.137 78.0205 111.263 78.2203ZM72.1706 82.2335C71.3782 81.7386 71.4087 79.1292 72.2169 78.2687C72.5347 77.9306 72.9506 77.6537 73.1409 77.6537C73.737 77.6537 74.2544 78.7851 74.4457 80.5062C74.6009 81.901 74.5619 82.1888 74.1975 82.3286C73.9597 82.4198 73.7651 82.6611 73.7651 82.8647C73.7651 83.0683 73.6456 83.2349 73.4994 83.2349C73.3532 83.2349 73.2166 82.7865 73.1959 82.2383L73.1582 81.2416L72.9679 82.3047C72.8632 82.8894 72.7606 83.1873 72.7399 82.9667C72.7192 82.7459 72.463 82.416 72.1706 82.2335ZM93.5856 78.9756C94.1118 78.961 98.2633 77.9588 98.4114 77.811C98.6824 77.5397 97.6218 77.6752 95.6157 78.1679C93.9106 78.5868 92.884 78.9953 93.5856 78.9756ZM126.579 77.9524C126.759 78.1342 126.973 78.2158 127.055 78.1339C127.137 78.0521 126.989 77.9035 126.727 77.8036C126.349 77.6595 126.318 77.6898 126.579 77.9524ZM133.829 78.3155C133.978 78.2235 134.03 78.0372 133.946 77.9011C133.718 77.5325 133.559 77.6011 133.559 78.068C133.559 78.2958 133.68 78.4071 133.829 78.3155ZM108.877 78.6726C109.001 78.4776 109.104 78.2285 109.106 78.1188C109.111 77.8804 108.732 77.8549 108.508 78.0784C108.421 78.1658 108.417 78.4149 108.501 78.6323C108.624 78.9541 108.694 78.9615 108.877 78.6726ZM110.075 79.4617C110.742 79.5571 111.119 78.818 110.677 78.2844C110.326 77.8623 110.174 77.8424 109.682 78.1547C109.158 78.4869 109.423 79.3682 110.075 79.4617ZM72.4364 82.0389C72.6041 82.1426 72.7021 81.51 72.7021 80.3271C72.7021 79.2954 72.6623 78.451 72.6136 78.451C72.1217 78.451 71.9591 81.7439 72.4364 82.0389ZM73.3006 79.3812C73.3035 79.9659 73.358 80.1737 73.4215 79.8431C73.485 79.5125 73.4827 79.0341 73.4162 78.78C73.3498 78.5259 73.2977 78.7965 73.3006 79.3812ZM84.949 80.8429C85.0221 80.8429 85.6099 80.3048 86.2554 79.647C86.9009 78.9892 87.3692 78.451 87.2961 78.451C87.223 78.451 86.6352 78.9892 85.9897 79.647C85.3442 80.3048 84.8759 80.8429 84.949 80.8429ZM98.1477 79.521C98.3306 79.5173 98.4799 79.2749 98.4799 78.9825C98.4799 78.3386 98.03 78.3338 95.4238 78.9504C93.8963 79.3118 93.5489 79.4923 93.482 79.9585L93.4004 80.5264L95.608 80.027C96.8222 79.7525 97.9652 79.5247 98.1477 79.521ZM99.1286 78.9825C99.3394 78.9825 99.5855 78.8629 99.6758 78.7168C99.7662 78.5706 99.5937 78.451 99.2929 78.451C98.992 78.451 98.7457 78.5706 98.7457 78.7168C98.7457 78.8629 98.9179 78.9825 99.1286 78.9825ZM18.9541 79.1657C18.6985 79.2326 18.2796 79.2326 18.024 79.1657C17.7683 79.099 17.9775 79.0442 18.4891 79.0442C19.0006 79.0442 19.2098 79.099 18.9541 79.1657ZM73.7861 79.4033C73.7989 79.7129 73.8619 79.7759 73.9466 79.564C74.0235 79.3722 74.0139 79.1428 73.9257 79.0546C73.8374 78.9663 73.7747 79.1231 73.7861 79.4033ZM20.2773 79.4088C20.1891 79.4971 19.9597 79.5066 19.7681 79.4298C19.556 79.345 19.619 79.2821 19.9286 79.2693C20.2087 79.2579 20.3655 79.3206 20.2773 79.4088ZM99.5429 79.647C99.6891 79.5566 99.8087 79.4301 99.8087 79.3655C99.8087 79.3009 99.6891 79.2483 99.5429 79.2483C99.3968 79.2483 99.2772 79.3751 99.2772 79.5298C99.2772 79.6844 99.3968 79.7373 99.5429 79.647ZM94.1171 81.1018C94.6433 81.0872 98.7948 80.085 98.9429 79.9372C99.0292 79.8505 98.8708 79.7915 98.5908 79.8056C97.1961 79.8761 92.8428 81.1377 94.1171 81.1018ZM110.257 80.389C110.668 80.5466 110.97 80.3824 110.97 80.0012C110.97 79.7201 110.671 79.7246 110.217 80.0127C109.928 80.1958 109.936 80.2654 110.257 80.389ZM132.137 80.5907C132.474 80.9269 133.559 80.5036 133.559 80.0363C133.559 79.7097 132.751 79.711 132.232 80.0387C131.937 80.2256 131.913 80.3659 132.137 80.5907ZM22.7411 80.7101C22.3026 80.4834 21.9438 80.238 21.9438 80.1649C21.9438 80.0919 22.3026 80.2176 22.7411 80.4443C23.1796 80.671 23.5383 80.9163 23.5383 80.9894C23.5383 81.0625 23.1796 80.9368 22.7411 80.7101ZM74.0309 81.906C74.1771 81.906 74.2948 81.6368 74.2927 81.308C74.2903 80.9793 74.1725 80.5307 74.0309 80.3114C73.8393 80.0148 73.7723 80.1682 73.7691 80.9094C73.767 81.4577 73.8847 81.906 74.0309 81.906ZM104.886 81.3054L104.294 80.6755C103.668 80.0095 103.341 79.9202 102.795 80.2665C102.243 80.617 103.536 81.6583 104.281 81.4632L104.886 81.3054ZM102.571 82.4376C102.679 82.4376 102.729 82.1224 102.683 81.7367C102.637 81.3514 102.33 80.8584 102.001 80.6412C101.436 80.2681 101.403 80.2824 101.403 80.9022C101.403 81.5068 102.111 82.4376 102.571 82.4376ZM83.2657 82.3172C83.8868 81.7394 84.3952 81.231 84.3952 81.1876C84.3952 80.9865 84.1637 81.1879 83.1868 82.2383L82.1363 83.3678L83.2657 82.3172ZM134.633 86.6899C135.021 86.6899 134.952 86.2362 134.157 83.5679C133.742 82.1707 133.283 81.11 133.094 81.1095C132.911 81.109 132.762 81.1852 132.762 81.2785C132.762 81.876 134.427 86.6899 134.633 86.6899ZM108.736 84.9249C108.837 84.3862 108.806 83.7656 108.667 83.5456C108.529 83.3258 107.944 82.7669 107.367 82.3039C106.403 81.5289 106.23 81.4805 105.2 81.6977L104.08 81.9334L105.961 83.7138C108.476 86.0938 108.514 86.1103 108.736 84.9249ZM80.9149 83.6553C81.7329 82.9364 82.5772 82.1891 82.7911 81.9943C83.0053 81.7994 83.1084 81.6403 83.0207 81.6403C82.933 81.6403 82.0887 82.3879 81.1445 83.3013C79.6398 84.7572 79.6116 84.8011 80.9149 83.6553ZM107.055 85.9354C107.45 85.7789 107.304 85.5413 106.125 84.421C105.355 83.6902 104.35 82.7562 103.891 82.3454L103.057 81.5983L102.933 82.7488C102.819 83.806 102.896 83.991 103.889 85.0288C104.981 86.1714 105.838 86.4167 107.055 85.9354ZM28.5488 91.4073C25.2378 87.0019 22.2933 84.0843 20.0836 83.0201C18.387 82.2029 16.3468 81.8252 15.0343 82.0852C13.5979 82.3698 14.0885 82.575 15.9769 82.4796C17.7067 82.3921 18.1518 82.4703 19.3977 83.0797C21.4997 84.1085 25.1929 88.2109 28.4494 93.1349C29.2923 94.4095 29.5876 94.663 30.2278 94.663C30.983 94.663 30.9554 94.6096 28.5488 91.4073ZM21.9486 85.878C20.9959 84.9178 19.6783 83.885 19.0206 83.583C17.5549 82.9101 16.0625 82.6978 14.5639 82.9489C13.0218 83.2075 12.4602 83.7664 13.7428 83.7664C15.5685 83.7664 17.632 85.1237 20.8423 88.4363C22.4878 90.1343 24.4363 92.2897 25.1722 93.2263C26.4555 94.8595 26.5578 94.9288 27.6816 94.9288C28.3261 94.9288 28.8533 94.8353 28.8533 94.7213C28.8533 94.2748 23.5854 87.5276 21.9486 85.878ZM93.1668 85.3164C93.1657 84.9263 93.0924 84.4181 93.0036 84.1869C92.7086 83.418 94.1546 83.7122 95.6935 84.7344C97.2038 85.7371 97.4225 86.1339 96.7653 86.6793C95.6186 87.631 93.1702 86.7037 93.1668 85.3164ZM23.0068 92.2103C20.8513 89.1358 17.4154 85.6308 15.8316 84.8909C13.5525 83.8265 12.9163 83.8536 11.3632 85.0812C10.6053 85.6805 9.98505 86.2349 9.98505 86.313C9.98505 86.3914 10.1033 86.3824 10.2479 86.2931C10.3924 86.2038 11.2383 86.1273 12.1278 86.123C13.3625 86.1169 14.097 86.2875 15.2347 86.8443C17.0856 87.7498 20.3323 90.8173 22.1912 93.4171C23.3916 95.0957 23.6853 95.3586 24.241 95.2523C24.5976 95.1842 24.8543 95.0261 24.8118 94.9012C24.769 94.7763 23.9569 93.5652 23.0068 92.2103ZM80.3425 84.9791C80.8176 84.5499 81.2062 84.1611 81.2062 84.1154C81.2062 83.9099 80.9869 84.0909 80.2593 84.896L79.4788 85.7597L80.3425 84.9791ZM95.4847 86.6041C96.0077 86.6376 96.3274 86.5714 96.1953 86.4571C96.0632 86.3428 95.3871 85.7959 94.693 85.2415C93.4466 84.2467 93.4307 84.2421 93.4307 84.8893C93.4307 85.7775 94.3326 86.5305 95.4847 86.6041ZM96.6197 85.9731C96.6197 85.853 96.3505 85.588 96.0217 85.3845C95.693 85.1806 95.1546 84.8391 94.8259 84.6254C93.7554 83.9299 94.196 84.4508 95.4238 85.3326C96.0815 85.8049 96.6197 86.0933 96.6197 85.9731ZM46.7601 91.3266C46.9371 90.8652 46.0508 88.9928 44.4707 86.4906C43.894 85.5771 43.3949 84.8295 43.3622 84.8295C43.2509 84.8295 42.4066 86.7059 42.4066 86.953C42.4066 87.0878 42.7813 87.8311 43.2392 88.6051C43.6971 89.379 44.6923 91.4326 45.4508 93.1686L46.8295 96.3252L48.0727 96.432C48.7567 96.4908 49.3161 96.4259 49.3161 96.2877C49.3161 95.6105 47.3371 91.7396 46.9908 91.7396C46.7482 91.7396 46.6613 91.5841 46.7601 91.3266ZM54.0996 85.4974C54.0996 85.6271 54.2413 85.5915 54.414 85.4187C55.0244 84.8083 54.979 85.3722 54.3654 86.0255C54.0231 86.3899 53.6837 86.6283 53.6109 86.5555C53.5381 86.4826 53.2593 86.6211 52.9917 86.8635C52.1687 87.6084 52.4541 86.8382 53.3024 86.0255C53.7409 85.6053 54.0996 85.3677 54.0996 85.4974ZM61.6214 93.5449C61.6172 93.356 61.29 91.7752 60.8946 90.0323C60.092 86.4943 59.6081 85.0987 59.3362 85.5389C59.2371 85.6991 59.3835 86.4919 59.6618 87.3004C59.94 88.1091 60.3636 89.7675 60.6033 90.9858C60.8428 92.2044 61.1109 93.3807 61.1991 93.6C61.2871 93.8192 61.3386 94.0935 61.3131 94.2094C61.2879 94.3252 61.5082 94.2913 61.8027 94.1337C62.4025 93.8126 62.5305 93.5428 61.9836 93.7525C61.7886 93.8275 61.6257 93.7339 61.6214 93.5449ZM85.2828 88.8235C85.7587 87.2898 86.0359 86.8414 86.9057 86.1972C87.7941 85.5389 88.0506 85.4639 88.5842 85.7071C89.2475 86.0093 89.9759 87.4179 89.9759 88.3983C89.9759 88.7175 89.7352 89.6897 89.441 90.5585C88.8398 92.3336 87.7279 93.3342 86.3561 93.3342C85.6341 93.3342 85.5198 93.2098 85.1342 92.0035C84.7287 90.7355 84.7356 90.5861 85.2828 88.8235ZM60.2932 94.3292C60.7051 94.0225 60.6884 93.782 60.062 91.0087C59.1303 86.8821 58.8103 86.0042 58.4133 86.4826C58.1858 86.7569 58.176 87.1269 58.3774 87.8561C58.5289 88.4049 58.9219 90.1603 59.2509 91.7568C59.7909 94.3768 59.8924 94.6274 60.2932 94.3292ZM88.9568 87.913C89.4396 88.2115 89.4843 87.8035 89.0585 86.9804C88.8247 86.5283 88.5233 86.1584 88.3883 86.1584C88.092 86.1584 88.5863 87.6839 88.9568 87.913ZM22.6082 95.6302C23.6127 95.2446 17.8895 88.8889 15.2894 87.5029C14.2076 86.9262 13.1961 86.6107 12.169 86.5291L10.6494 86.4085L12.2439 86.9443C14.8812 87.8303 18.299 90.7801 21.6076 95.0253C21.9797 95.5029 22.3525 95.7283 22.6082 95.6302ZM86.5709 91.7108C87.4649 90.8973 88.2267 88.562 87.9974 87.3387C87.9031 86.8356 87.7383 86.4241 87.6312 86.4241C86.417 86.4241 84.9317 90.0413 85.5368 91.5246L85.8722 92.3466L86.5709 91.7108ZM131.142 87.8564C131.397 87.7756 131.232 87.5282 130.626 87.0811C130.136 86.7197 129.728 86.438 129.72 86.455C129.712 86.472 129.082 86.6679 128.319 86.8898C127.116 87.2403 126.893 87.4144 126.632 88.2056C126.466 88.7071 126.381 89.1682 126.443 89.2302C126.505 89.2918 127.504 89.0348 128.662 88.6585C129.821 88.2824 130.937 87.9212 131.142 87.8564ZM132.781 87.3501C133.435 87.2066 133.527 87.104 133.273 86.7989C133.102 86.5929 132.828 86.438 132.663 86.455C131.964 86.527 131.433 86.7447 131.433 86.9594C131.433 87.3759 131.964 87.5298 132.781 87.3501ZM52.5099 87.3573C52.6202 87.4256 52.8607 87.3004 53.0443 87.0793C53.228 86.8582 53.4413 86.7401 53.5184 86.8175C53.7103 87.0091 52.4753 88.2976 52.2394 88.1517C52.1357 88.0876 51.7645 88.3603 51.4142 88.7579L50.7777 89.4805L51.5085 88.8363C52.4214 88.0315 52.4817 88.4958 51.575 89.3476C51.2096 89.691 50.9106 89.8704 50.9106 89.7463C50.9106 89.6222 50.6116 89.8016 50.2462 90.145C49.1189 91.204 49.5112 90.4501 50.9454 88.8009C51.6954 87.9385 52.3993 87.289 52.5099 87.3573ZM20.5654 94.5833C18.3312 91.8746 15.1698 88.9546 13.5288 88.0839C11.3571 86.9312 9.76262 86.7053 9.08522 87.4538C8.81017 87.7578 8.48993 87.9473 8.37327 87.8753C8.25687 87.8032 8.0751 87.8843 7.96933 88.0555C7.84921 88.2497 7.892 88.2954 8.0836 88.1769C8.25235 88.0727 8.39054 88.1004 8.39054 88.238C8.39054 88.376 8.95845 88.482 9.65286 88.4735C10.958 88.4576 12.8514 89.1751 13.8459 90.0626C14.1425 90.3273 15.21 91.5602 16.218 92.8027C17.2262 94.0451 18.4317 95.4917 18.8965 96.0172L19.7421 96.9726L20.7235 96.469L21.7052 95.9653L20.5654 94.5833ZM105.834 92.1045C107.366 90.9649 112.033 87.1601 112.033 87.0511C112.033 86.9985 112.003 86.9607 111.967 86.9671C111.694 87.0144 107.928 89.645 105.587 91.4244C102.491 93.778 100.254 95.0101 97.1368 96.0796C94.0637 97.1339 91.1678 97.5331 84.2365 97.8579C73.6195 98.3552 71.35 99.1402 66.2577 104.079C64.7086 105.581 64.4639 105.946 64.4639 106.759V107.7L66.9221 105.228C68.8259 103.313 69.8724 102.501 71.5629 101.625C75.036 99.8246 76.956 99.4422 83.8637 99.1751C90.6531 98.9128 92.7926 98.5332 97.207 96.807C99.8834 95.7604 103.76 93.6473 105.834 92.1045ZM59.3623 94.7904C59.4064 94.7537 59.0731 93.0711 58.6216 91.0515C58.1701 89.0316 57.7643 87.3429 57.7202 87.2988C57.6758 87.2544 57.439 87.4399 57.1937 87.711C56.776 88.1727 56.7808 88.3441 57.2719 90.4368C57.5602 91.6649 57.8762 93.2938 57.974 94.0566C58.1422 95.366 58.1837 95.4271 58.717 95.1502C59.0277 94.9889 59.3179 94.8268 59.3623 94.7904ZM46.1271 96.2478C46.1271 96.0964 45.4686 94.5116 44.6636 92.7264C43.8589 90.9412 42.9243 89.0242 42.5868 88.4663L41.9734 87.4524L41.0247 88.8815L40.0757 90.3108L41.9721 93.4145L43.8682 96.5179L44.9977 96.5208C45.6187 96.5221 46.1271 96.3993 46.1271 96.2478ZM133.36 88.6654C133.943 88.4833 134.344 88.0879 134.352 87.6866C134.359 87.3344 133.61 87.4739 133.179 87.9048C132.573 88.5115 132.661 88.8833 133.36 88.6654ZM130.384 90.4535C131.603 90.0392 131.836 89.8444 132.13 88.9971C132.316 88.4589 132.385 88.0244 132.283 88.0313C131.838 88.061 127.824 89.4183 127.626 89.6062C127.505 89.7203 127.759 90.0655 128.191 90.373C128.966 90.9247 128.994 90.9258 130.384 90.4535ZM88.2236 91.4738C88.5321 91.4738 89.4444 89.4736 89.4444 88.7972C89.4444 88.6928 89.2738 88.5418 89.0655 88.4618C88.8 88.3598 88.5611 88.684 88.2682 89.5438C87.7524 91.0573 87.7428 91.4738 88.2236 91.4738ZM17.0928 94.5908C14.3447 91.2046 12.9442 89.8172 11.6609 89.2081C11.0834 88.9341 9.98133 88.7162 9.0815 88.6978L7.51012 88.6662L6.33044 90.1364C5.68148 90.9452 4.78777 92.3636 4.34397 93.2885C3.62777 94.7821 3.55309 95.1627 3.6756 96.6911C3.82256 98.5213 4.91984 101.147 6.14655 102.605C7.56007 104.286 10.1025 104.591 12.5036 103.371C13.8198 102.702 16.7043 100.763 16.5757 100.634C16.5238 100.582 15.6631 100.952 14.6628 101.455C13.6628 101.958 12.6495 102.367 12.4113 102.364C12.173 102.361 12.6675 102.074 13.5105 101.728C14.3532 101.381 16.0274 100.392 17.231 99.5291C20.2393 97.3726 20.7719 97.0553 22.3212 96.4974C23.0637 96.2298 23.432 96.0068 23.1397 96.0017C22.4139 95.989 19.6286 97.3346 17.7649 98.5983C16.0083 99.7895 13.6186 101.043 13.1164 101.038C12.8557 101.034 12.8607 100.979 13.1387 100.803C13.6091 100.505 10.453 97.8345 8.45698 96.841C7.04824 96.1402 6.55554 95.5393 7.65973 95.8686C8.723 96.1859 10.3409 97.2349 12.2676 98.8564C14.0101 100.323 14.1985 100.416 14.7808 100.105C15.4074 99.7693 15.4021 99.7598 13.5562 97.9137C11.5551 95.9124 8.71236 93.9207 7.51038 93.6778C7.03468 93.5819 6.8553 93.4344 7.01688 93.2728C7.41019 92.8795 9.6013 93.9678 11.7887 95.6432C13.8655 97.2339 15.6381 99.115 15.4093 99.4855C15.1066 99.975 16.1313 99.533 17.1345 98.7413C17.1935 98.6948 16.3793 97.5238 15.3248 96.1391C12.8644 92.9081 10.8586 91.4297 8.52342 91.1256C7.87711 91.0416 7.93026 91.0143 8.80352 90.9821C10.1503 90.9322 12.195 91.9155 13.5631 93.2712C14.1145 93.8174 15.2823 95.2018 16.1584 96.3475C17.2488 97.7734 17.8374 98.3445 18.0243 98.1577C18.4035 97.7784 16.1239 94.759 13.6625 92.3793C11.4762 90.2659 10.9718 89.9422 9.37462 89.6264L8.25767 89.4058L9.26274 89.3769C10.7722 89.333 11.9588 89.9544 13.8698 91.7895C15.1773 93.0453 17.9581 96.3852 18.6629 97.5467C18.694 97.598 18.8465 97.5613 19.002 97.4651C19.1696 97.3614 18.3934 96.1928 17.0928 94.5908ZM5.30173 99.0483C4.11223 96.5253 4.60972 93.5524 6.79073 90.1532C7.64937 88.8153 8.0658 88.4257 7.74557 89.2599C7.65202 89.5042 7.70464 89.7838 7.8625 89.8813C8.0541 89.9996 8.01052 90.1747 7.73254 90.4054C7.37484 90.7023 7.34163 90.6831 7.49948 90.2717C7.61562 89.9693 7.5816 89.855 7.407 89.9629C7.255 90.057 6.67406 91.0576 6.11625 92.1869C5.27648 93.8867 5.10242 94.5163 5.10561 95.8468C5.11172 98.6262 6.74794 101.146 9.08814 101.98C9.65445 102.182 9.90479 102.352 9.64435 102.359C8.93905 102.376 7.28928 101.628 6.56511 100.962C6.21511 100.641 5.64641 99.7792 5.30173 99.0483ZM57.5544 94.9629C57.5544 94.3728 57.0667 91.6396 56.5645 89.4141C56.3827 88.6088 56.1533 88.6585 55.2386 89.7003L54.4621 90.5845L54.8469 93.0889C55.0582 94.4664 55.2678 95.732 55.3122 95.9016C55.372 96.1291 55.6771 96.1381 56.4738 95.9358C57.3939 95.7022 57.5544 95.5577 57.5544 94.9629ZM79.6366 89.8306C80.0613 89.6825 80.4126 89.4236 80.4174 89.2551C80.4219 89.0866 80.609 89.1882 80.8328 89.4805C81.5654 90.4378 80.604 94.3951 79.6377 94.3989C79.4041 94.3999 78.8798 94.5743 78.4726 94.7866C77.7503 95.1635 77.7219 95.1507 77.2986 94.2631C76.8928 93.4118 76.896 93.2842 77.3485 92.2807C77.6145 91.6907 77.9853 91.208 78.1723 91.208C78.3597 91.208 78.592 90.9587 78.6887 90.6539C78.7854 90.3491 79.212 89.9786 79.6366 89.8306ZM49.1245 92.168C49.0543 92.0978 49.3879 91.5543 49.8654 90.9601C50.343 90.3655 50.7878 89.9337 50.8543 89.9998C50.9205 90.0663 50.5872 90.6098 50.1134 91.208C49.6395 91.8063 49.1947 92.2382 49.1245 92.168ZM93.1025 91.3143C93.2098 91.1535 94.0153 90.7743 94.8923 90.4716C95.7693 90.1689 96.6401 89.9116 96.8275 89.9002C97.2907 89.8717 99.0114 90.605 99.0114 90.8309C99.0114 90.9308 98.7707 91.402 98.4765 91.878C98.0614 92.5496 97.511 92.9031 96.0204 93.4559L94.099 94.1679L93.499 93.4705C92.9002 92.7742 92.7334 91.8671 93.1025 91.3143ZM80.4299 90.5657C80.4426 90.8753 80.5056 90.9383 80.5904 90.7264C80.6672 90.5346 80.6576 90.3052 80.5694 90.217C80.4812 90.1287 80.4185 90.2856 80.4299 90.5657ZM79.3146 90.9422C79.4607 90.9422 79.6542 90.8227 79.7445 90.6765C79.8349 90.5303 79.7892 90.4107 79.643 90.4107C79.4968 90.4107 79.3034 90.5303 79.213 90.6765C79.1227 90.8227 79.1684 90.9422 79.3146 90.9422ZM93.4748 91.6067C93.5883 91.7199 96.3592 90.7557 96.5976 90.5202C96.8681 90.2529 96.1405 90.4631 93.7249 91.3502C93.5213 91.4252 93.4086 91.5405 93.4748 91.6067ZM99.7396 97.2208C102.797 95.6858 104.829 94.2737 107.383 91.9107C109.078 90.3419 109.337 89.897 107.781 91.2277C105.005 93.6021 99.3003 96.7531 95.6199 97.9456C91.7057 99.2138 89.7984 99.4982 83.7308 99.7186C74.6195 100.049 71.9288 101.012 67.3207 105.591C65.1065 107.791 64.7296 108.291 64.7296 109.026V109.887L65.6494 108.724C67.4416 106.459 71.0742 103.9 74.4356 102.534C76.8901 101.537 79.567 101.092 84.9471 100.788C92.26 100.375 94.5665 99.8185 99.7396 97.2208ZM43.169 96.6452C43.2233 96.592 42.5057 95.3259 41.5745 93.8312C40.6436 92.3368 39.8113 91.0092 39.7249 90.8814C39.6383 90.7533 39.2466 91.0698 38.8538 91.5846L38.1402 92.5204L39.6619 94.8074C41.1825 97.0925 41.1847 97.0941 42.1273 96.9181C42.6463 96.8211 43.1151 96.6983 43.169 96.6452ZM97.5498 91.4738C97.7691 91.2917 97.9484 91.0977 97.9484 91.0427C97.9484 90.9874 97.7691 90.9422 97.5498 90.9422C97.3306 90.9422 97.1512 91.1362 97.1512 91.3733C97.1512 91.7265 97.2232 91.7449 97.5498 91.4738ZM54.7876 95.6857C54.7146 95.3426 54.5192 94.1945 54.3534 93.1349C54.1873 92.0752 54.0265 91.208 53.996 91.208C53.9651 91.208 53.8208 91.3274 53.6747 91.4735C53.3279 91.8204 54.1559 96.0549 54.5995 96.2029C54.8116 96.2736 54.8751 96.0982 54.7876 95.6857ZM93.541 92.7663C93.7658 93.1301 96.9412 92.0404 96.8097 91.6444C96.6582 91.1902 96.0805 91.2072 94.8434 91.7021C93.5434 92.2225 93.3185 92.4064 93.541 92.7663ZM77.7883 92.429C77.0602 94.0273 77.7642 94.6062 78.554 93.0581C78.8604 92.4572 79.0743 91.8807 79.0291 91.7765C78.858 91.3821 78.0788 91.7917 77.7883 92.429ZM78.9239 94.1315C79.4573 94.1315 80.1102 93.4248 80.3092 92.6318C80.4012 92.2658 80.351 91.8411 80.1976 91.6878C80.0034 91.4935 79.7105 91.8212 79.2295 92.7702C78.6993 93.8166 78.6286 94.1315 78.9239 94.1315ZM36.1561 92.7046C36.3236 92.7689 36.681 92.5781 36.9502 92.2804C37.2194 91.983 37.5707 91.7444 37.7307 91.7505C38.0246 91.7614 36.3222 93.3342 36.0164 93.3342C35.9257 93.3342 35.8513 93.1662 35.8513 92.9608C35.8513 92.7556 35.9885 92.6403 36.1561 92.7046ZM48.386 92.8027C48.6063 93.188 48.7663 93.2996 48.7668 93.0684C48.7673 92.8492 48.5922 92.4375 48.3775 92.1539C47.8811 91.4974 47.8866 91.9291 48.386 92.8027ZM86.654 92.7854C87.2754 92.7859 88.1863 92.1648 87.9344 91.9126C87.657 91.6354 87.4175 91.7061 86.75 92.2623C86.1608 92.753 86.155 92.7851 86.654 92.7854ZM99.0114 100.211C101.59 98.8782 104.168 96.9375 106.984 94.2088C108.226 93.0052 109.183 92.0226 109.11 92.0258C109.037 92.029 107.901 93.0466 106.585 94.2875C104.956 95.8247 103.262 97.0864 101.27 98.247C95.7111 101.487 93.3552 102.23 87.3195 102.651C77.3124 103.347 76.1428 103.584 72.5693 105.638C70.14 107.034 67.2383 109.977 66.0746 112.225C65.1027 114.103 65.1144 114.844 66.1166 114.888C66.7055 114.914 66.7036 114.92 66.0584 115.118C65.0174 115.437 62.7203 115.204 61.4739 114.653C60.0112 114.005 58.6684 112.652 58.0088 111.161L57.4861 109.979L56.9998 110.892C56.3766 112.063 56.3766 112.533 56.9984 113.743C58.0925 115.87 59.8614 116.852 62.2709 116.671C63.7464 116.56 67.2288 115.251 67.0063 114.89C66.9487 114.797 67.3111 113.836 67.8121 112.755C68.5184 111.23 69.1833 110.338 70.781 108.773C74.3062 105.319 77.5707 104.113 85.591 103.303C93.1219 102.543 95.609 101.97 99.0114 100.211ZM118.677 93.7852C118.677 93.326 118.944 92.9496 119.541 92.5674C120.016 92.2631 120.527 92.0122 120.677 92.0098C121.268 92 122.132 92.864 122.132 93.4649C122.132 95.0561 121.248 95.9223 119.796 95.7554C119.462 95.7168 118.774 95.9297 118.268 96.2285C117.762 96.5269 117.348 96.6693 117.348 96.5447C117.348 96.4201 118.185 95.821 119.208 95.2129C120.232 94.6051 121.069 94.0419 121.069 93.9614C121.069 93.8198 119.085 94.9084 118.02 95.6345C117.098 96.263 116.998 96.0177 117.852 95.2209C118.349 94.7558 118.677 94.186 118.677 93.7852ZM53.752 95.9255C53.6752 95.5967 53.4746 94.6397 53.3058 93.7993C53.1371 92.9589 52.9686 92.2711 52.9311 92.2711C52.8939 92.2711 52.5928 92.5592 52.262 92.9116C51.6959 93.5139 51.6786 93.6404 51.9686 95.0378C52.2614 96.4477 52.3183 96.5235 53.0842 96.5235C53.7855 96.5235 53.8732 96.445 53.752 95.9255ZM6.10323 93.4453C6.19199 93.2141 6.26454 92.9151 6.26454 92.7809C6.26454 92.6466 6.36765 92.5369 6.49335 92.5369C6.61932 92.5369 6.66529 92.8359 6.5954 93.2013C6.52551 93.5667 6.34985 93.8657 6.20501 93.8657C6.06044 93.8657 6.01447 93.6765 6.10323 93.4453ZM69.2514 95.0144C69.2479 94.0762 69.3813 93.7988 70.1111 93.2236C71.1289 92.4213 71.3875 92.3944 72.5161 92.9727C73.619 93.5378 73.7561 93.7738 73.7612 95.1146C73.7646 96.07 73.6373 96.3281 72.8765 96.9086C71.8307 97.7061 71.6219 97.7274 70.4964 97.1507C69.3944 96.5862 69.2564 96.3494 69.2514 95.0144ZM95.8224 92.8027C95.3366 93.1165 95.7563 93.1165 96.4868 92.8027C96.8373 92.652 96.8825 92.5693 96.6197 92.5598C96.4004 92.5515 96.0417 92.661 95.8224 92.8027ZM119.076 93.5883C119.222 93.5883 119.64 93.3544 120.006 93.0684C120.371 92.7824 120.55 92.5486 120.404 92.5486C120.258 92.5486 119.84 92.7824 119.474 93.0684C119.109 93.3544 118.929 93.5883 119.076 93.5883ZM121.207 93.4477C121.699 94.0978 122.006 93.8272 121.612 93.0913C121.449 92.7864 121.2 92.5369 121.059 92.5369C120.702 92.5369 120.752 92.8465 121.207 93.4477ZM100.315 98.238C102.498 97.0069 104.223 95.7958 105.487 94.6078C106.53 93.6273 107.308 92.8199 107.216 92.8138C107.124 92.8077 106.894 92.9895 106.705 93.2175C106.046 94.0114 101.224 97.0497 98.9689 98.0912C94.6428 100.09 91.3352 100.847 84.9267 101.306C79.841 101.67 77.5016 102.027 75.2932 102.774C69.8719 104.608 64.4131 109.628 64.6892 112.525L64.7931 113.612L65.7379 111.822C67.4087 108.657 71.0518 105.476 74.6931 104.003C77.2863 102.954 79.0068 102.669 84.5676 102.368C92.5524 101.936 94.803 101.346 100.315 98.238ZM38.9898 95.753C40.8129 98.2597 40.9994 97.6644 39.2046 95.0678C38.4443 93.968 37.7049 93.0684 37.5614 93.0684C37.1559 93.0684 37.4791 93.676 38.9898 95.753ZM73.2336 94.3824C73.2336 94.0943 72.8988 93.7063 72.4497 93.474C71.4826 92.9738 71.4125 92.9759 70.5161 93.5319C69.6359 94.0776 69.5471 94.2849 69.7127 95.4035C69.8389 96.2553 70.7988 97.055 71.6952 97.055C72.2695 97.055 73.5496 95.7086 73.3843 95.2783C73.3014 95.0622 73.2336 94.6591 73.2336 94.3824ZM118.947 94.4842C119.018 94.5517 119.491 94.3207 119.998 93.9707C120.506 93.6207 120.745 93.3368 120.53 93.34C120.076 93.3469 118.755 94.3013 118.947 94.4842ZM71.5063 96.5235C70.2126 96.5235 69.6003 95.0628 70.4845 94.0861C71.3638 93.1144 72.9679 93.7445 72.9679 95.0617C72.9679 95.8635 72.308 96.5235 71.5063 96.5235ZM25.5501 94.9288C25.6231 94.9288 25.5551 94.6896 25.3986 94.3973C25.242 94.1049 25.0544 93.8657 24.9813 93.8657C24.9083 93.8657 24.9763 94.1049 25.1328 94.3973C25.2893 94.6896 25.477 94.9288 25.5501 94.9288ZM50.6919 94.4874C50.0525 95.0662 49.8476 95.0444 49.8476 94.3973C49.8476 94.102 49.6704 93.8657 49.449 93.8657C49.2782 93.8657 49.1655 93.8634 49.1159 93.9181C49.02 94.024 49.1599 94.3432 49.5723 95.3054C50.0334 96.3807 50.1918 96.5235 50.9244 96.5235C51.753 96.5235 51.7544 96.5216 51.5681 95.3939C51.3358 93.9893 51.2922 93.9441 50.6919 94.4874ZM72.0712 96.0249C72.7962 95.6945 72.8943 94.8932 72.2847 94.2833C72.0548 94.0536 71.7045 93.8657 71.5063 93.8657C70.9838 93.8657 70.3104 94.6195 70.3104 95.2042C70.3104 95.934 71.2796 96.3858 72.0712 96.0249ZM37.4934 98.8235C37.9399 98.9651 38.5072 98.4569 38.3255 98.0785C38.2306 97.881 37.6308 96.9102 36.9925 95.9212C35.8481 94.148 35.8242 94.1296 35.2683 94.5924L34.7046 95.0617L35.9677 96.9011C36.6624 97.9126 37.3491 98.7777 37.4934 98.8235ZM72.1204 95.6246C71.3242 96.4209 70.1363 95.3804 70.8541 94.5153C71.2674 94.0175 71.8826 94.1084 72.2706 94.7244C72.4935 95.0784 72.4587 95.286 72.1204 95.6246ZM32.0423 94.9059C32.2616 94.9142 32.6203 94.8047 32.8396 94.663C33.3254 94.3492 32.9058 94.3492 32.1752 94.663C31.8247 94.8137 31.7795 94.8964 32.0423 94.9059ZM120.271 95.4431C120.698 95.4434 121.6 94.8488 121.6 94.5674C121.6 94.2461 121.127 94.3978 120.5 94.9201C120.064 95.2831 119.995 95.4428 120.271 95.4431ZM59.9461 95.1733C60.3115 94.9993 60.6605 94.8132 60.7213 94.7601C61.0859 94.4409 60.2209 94.7372 59.7976 95.0763C59.3112 95.4662 59.3198 95.4715 59.9461 95.1733ZM71.1547 95.0758C71.2748 95.653 71.7465 95.6884 71.8544 95.1282C71.9102 94.8371 71.78 94.663 71.5063 94.663C71.2509 94.663 71.1045 94.835 71.1547 95.0758ZM5.99454 95.5906C5.84599 95.4986 5.7931 95.3123 5.87734 95.1763C6.10509 94.8076 6.26454 94.8762 6.26454 95.3432C6.26454 95.5709 6.1431 95.6823 5.99454 95.5906ZM37.157 99.1758L35.824 97.2517C34.4134 95.2153 34.1027 95.0109 33.2138 95.5327C32.6754 95.8489 32.7088 95.9257 34.2927 98.0152L35.9276 100.171L36.5423 99.6737L37.157 99.1758ZM48.386 97.582C54.0704 97.3742 55.84 97.0901 58.1903 96.0079C59.6549 95.3333 59.0888 95.3748 57.4215 96.0642C56.2533 96.5471 55.3069 96.6348 49.5819 96.7897C43.8063 96.946 42.8759 97.0332 41.3436 97.5624C37.9739 98.7254 36.3438 99.8509 30.9897 104.711C28.1661 107.275 25.9131 108.801 24.0284 109.427C22.1213 110.061 19.2515 110 17.3604 109.287C15.6019 108.624 13.1964 106.571 12.5283 105.163C12.1036 104.267 11.3138 103.876 11.3138 104.561C11.3138 105.189 13.2136 107.645 14.4366 108.599C16.6979 110.36 18.365 111.004 20.6135 110.981C24.1442 110.947 26.549 109.659 31.7766 105.005C39.7015 97.949 39.8232 97.8948 48.386 97.582ZM29.4563 95.9103C29.7149 95.9778 30.0736 95.9733 30.2536 95.9005C30.4335 95.8277 30.2219 95.7726 29.7835 95.778C29.345 95.7833 29.1977 95.8428 29.4563 95.9103ZM61.1271 102.823C61.7033 101.646 61.8611 100.866 61.9921 98.5545C62.0801 96.9989 62.1043 95.728 62.0458 95.7301C61.5377 95.7495 61.3307 96.4955 61.1991 98.7825C61.1149 100.244 60.8627 102.033 60.6387 102.757C60.4146 103.481 60.2743 104.116 60.3269 104.169C60.3793 104.221 60.7394 103.616 61.1271 102.823ZM26.6287 96.2021C26.5089 96.3962 28.1129 96.3382 28.7205 96.1264C28.8666 96.0756 28.485 96.0243 27.8724 96.0129C27.2599 96.0015 26.7002 96.0865 26.6287 96.2021ZM35.5165 100.485L33.8356 98.3065C32.1513 96.1235 31.6953 95.7883 31.0102 96.2292C30.7189 96.4166 30.9278 96.8743 32.0107 98.4216C33.5756 100.658 33.9478 101.251 34.2882 101.233C34.441 101.225 34.5874 101.094 34.8325 100.933L35.5165 100.485ZM21.3996 97.683C22.2696 97.3317 23.7344 96.8793 24.655 96.6776C26.1637 96.3472 26.224 96.3103 25.2657 96.3021C24.0401 96.292 22.5598 96.7191 20.9473 97.5483C19.3469 98.3711 19.5478 98.4312 21.3996 97.683ZM33.4994 101.46C33.3557 101.257 32.5345 100.093 31.6743 98.8734C30.8143 97.6541 30.037 96.5955 29.9469 96.5211C29.7053 96.3209 27.7903 96.5235 27.7903 96.7488C27.7903 97.0276 31.0402 101.031 32.0189 101.958C32.8018 102.7 32.8717 102.718 33.3039 102.286C33.6259 101.964 33.6836 101.72 33.4994 101.46ZM7.49789 99.6053C6.95549 98.8941 5.99879 96.9915 5.99879 96.6239C5.99879 96.5686 6.09792 96.5235 6.2191 96.5235C6.34028 96.5235 6.71233 97.1063 7.04612 97.8188C7.91831 99.6811 8.64327 100.479 9.85217 100.907C10.4368 101.115 10.6941 101.289 10.4238 101.296C9.58855 101.316 8.18272 100.503 7.49789 99.6053ZM59.3867 105C60.1853 103.238 60.6166 101.322 60.8587 98.4628C60.9355 97.556 60.9004 96.7534 60.7806 96.6792C60.2664 96.3614 59.9461 97.2719 59.9461 99.0525C59.9461 101.288 59.5167 103.829 58.9809 104.761L58.598 105.427L58.7816 104.762C59.2921 102.914 59.4024 102.036 59.4082 99.7699C59.4144 97.3582 59.4021 97.3088 58.8664 97.5956C58.3479 97.8731 58.32 98.1024 58.3535 101.791C58.3997 106.889 58.3965 106.948 58.0859 106.756C57.9267 106.657 57.8201 104.899 57.8201 102.374V98.1577L56.738 98.6028L55.6556 99.0483L55.819 100.377C55.9091 101.108 56.2883 102.998 56.662 104.577C57.4654 107.97 57.3803 108.359 55.4382 110.176C53.0257 112.433 50.1907 113.41 46.6732 113.198C44.0271 113.038 42.4124 112.487 39.2152 110.654L36.9587 109.36L36.4793 110.148C36.2157 110.581 36.0363 110.961 36.0807 110.992C36.1251 111.024 36.58 111.36 37.0916 111.74C38.5548 112.827 41.1573 114.027 42.9881 114.458C44.9161 114.913 48.3815 114.972 50.0828 114.58C52.934 113.923 56.0688 111.54 57.1983 109.17C57.6216 108.283 58.2357 107.783 57.9325 108.574C57.8573 108.769 58.0561 109.625 58.3742 110.476C59.0375 112.249 61.0346 114.479 61.7227 114.215C61.7718 114.196 61.8266 114.185 61.8845 114.179L61.9039 114.197L61.8908 114.179C62.1021 114.162 62.3524 114.232 62.5117 114.364C62.7166 114.534 62.5853 114.088 62.2202 113.372C61.8547 112.657 61.3235 110.995 61.0394 109.679C60.2169 105.87 59.7981 105.144 59.1366 106.38C58.9735 106.685 58.7888 106.883 58.7263 106.82C58.6639 106.758 58.961 105.938 59.3867 105ZM61.8908 114.179L61.0657 113.026C60.6047 112.382 59.9701 111.066 59.6551 110.103C59.3405 109.139 58.9634 108.231 58.8169 108.085C58.6394 107.907 58.599 107.951 58.695 108.217C58.7742 108.437 59.1515 109.524 59.5331 110.634C59.9982 111.985 60.5039 112.906 61.0657 113.424L61.8845 114.179C61.8866 114.179 61.8887 114.179 61.8908 114.179ZM29.9142 101.804C29.0053 100.727 27.7733 99.1578 27.1764 98.3174C26.0847 96.7799 25.9149 96.6747 25.0709 97.009C24.6709 97.1677 24.7908 97.4678 25.983 99.2915C26.7377 100.446 28.0712 102.156 28.9458 103.091C30.5196 104.774 30.5419 104.787 31.0516 104.277C31.5613 103.767 31.5494 103.741 29.9142 101.804ZM31.0537 101.735C30.3551 100.97 29.1855 99.5498 28.4547 98.5789C27.7239 97.6078 27.026 96.8081 26.9035 96.8015C26.6279 96.7863 27.7122 98.2706 30.088 101.161C31.0899 102.379 32.0027 103.32 32.1168 103.251C32.2305 103.183 31.7521 102.501 31.0537 101.735ZM28.5214 103.46C27.7069 102.58 26.3678 100.838 25.5458 99.5902C24.7238 98.3418 23.926 97.3208 23.7727 97.3208C23.6194 97.3208 23.5338 97.4106 23.5827 97.5201C23.6893 97.7604 28.1924 105.259 28.57 105.825C28.7989 106.169 28.9171 106.143 29.4194 105.642L30.003 105.06L28.5214 103.46ZM27.532 105.125C27.0728 104.414 25.8854 102.457 24.8934 100.776C23.9013 99.0948 22.9215 97.6926 22.7161 97.6602C22.5107 97.6275 21.9526 97.7715 21.4761 97.9807L20.6095 98.3605L21.8747 100.414C23.8878 103.683 27.4794 107.306 28.0957 106.689C28.2798 106.505 28.0991 106.004 27.532 105.125ZM103.33 98.1521C103.586 97.9515 103.795 97.742 103.795 97.687C103.795 97.4683 103.577 97.6089 103.229 98.0516C102.899 98.4732 102.908 98.4825 103.33 98.1521ZM64.3908 99.4616C64.2247 98.8272 64.5588 98.5186 65.7926 98.1659C66.3042 98.0198 66.8102 97.8895 66.917 97.8762C67.0927 97.8547 67.1756 98.1215 67.5248 99.8318C67.6595 100.491 67.2072 101.042 66.5319 101.042C65.8227 101.042 64.5603 100.11 64.3908 99.4616ZM10.0023 99.5729C8.96961 98.8673 8.12479 98.2512 8.12479 98.2039C8.12479 97.8733 10.276 99.2543 11.7882 100.556L12.6612 101.307L11.921 101.303C11.4228 101.3 11.2952 101.227 11.5304 101.077C11.7791 100.92 11.3388 100.486 10.0023 99.5729ZM33.2382 105.698C38.6197 100.222 40.5992 99.0584 45.6469 98.403L47.323 98.1856L45.7285 98.1729C43.6623 98.1566 41.2307 98.6943 39.5745 99.5336C37.9821 100.341 36.6217 101.414 32.441 105.161C26.6574 110.344 23.2704 112.071 18.8877 112.071C16.8143 112.071 16.2759 111.97 14.8424 111.307C12.7858 110.357 10.7746 108.294 9.68926 106.022C9.07618 104.738 8.92869 104.56 9.03685 105.233C9.28692 106.788 11.0095 110.124 12.0962 111.157C13.9846 112.954 18.1226 113.883 21.5664 113.283C25.6906 112.565 27.9035 111.127 33.2382 105.698ZM64.9954 98.9348C64.9954 99.3103 65.4222 99.2287 65.7926 98.7825C65.9747 98.5632 66.0788 98.3977 66.0244 98.4147C65.9702 98.4317 65.7161 98.5003 65.4604 98.567C65.2048 98.6339 64.9954 98.7995 64.9954 98.9348ZM96.1108 102.351C97.874 101.781 100.676 100.238 102.068 99.0714C102.933 98.3459 102.933 98.1433 102.068 98.8107C100.8 99.7885 97.7279 101.427 95.8564 102.122C93.4857 103.004 93.6457 103.148 96.1108 102.351ZM22.8718 103.168C22.9401 103.168 22.444 102.301 21.769 101.241C20.2808 98.9042 19.9371 98.5074 19.7136 98.8689C19.5669 99.1065 22.5505 103.168 22.8718 103.168ZM65.7902 99.7111C66.0597 99.8778 66.2535 99.8294 66.4055 99.5578C66.7634 98.9183 66.5006 98.6547 65.9268 99.0773C65.4759 99.4095 65.4554 99.5044 65.7902 99.7111ZM24.2896 105.553C23.1118 104.314 21.3746 102.314 20.4293 101.108C19.484 99.9022 18.6679 98.9154 18.6156 98.9154C18.5632 98.9154 18.4351 99.0536 18.3309 99.2224C18.2201 99.4012 18.2573 99.4573 18.4197 99.3569C18.5728 99.2622 18.7673 99.453 18.8515 99.781C19.1795 101.054 25.8764 108.36 26.3141 107.922C26.3787 107.857 25.4677 106.791 24.2896 105.553ZM33.2382 107.01C38.3199 101.862 38.9293 101.422 44.0011 99.2375C44.924 98.8399 44.3976 98.8795 42.7053 99.3348C41.9195 99.5461 40.4246 100.165 39.3834 100.711C37.4706 101.713 36.0562 103.01 30.7136 108.66C28.9336 110.542 28.0322 111.263 26.4616 112.057C24.2803 113.16 25.1424 113.119 27.5137 112.007C28.6559 111.472 29.9402 110.35 33.2382 107.01ZM47.1901 99.5798C47.9913 99.7151 48.2672 99.6851 48.1383 99.4759C47.8967 99.0855 46.5701 99.1309 44.9312 99.5859C44.2004 99.789 43.5057 99.9604 43.3875 99.9668C43.2692 99.9732 43.2589 100.118 43.3646 100.289C43.4922 100.496 43.4141 100.546 43.1318 100.437C42.898 100.348 42.6692 100.357 42.6232 100.458C42.5254 100.674 40.3651 102.105 40.1376 102.105C40.0528 102.105 40.068 101.968 40.1714 101.801C40.2747 101.633 39.9529 101.722 39.4562 101.998C38.9595 102.273 36.5202 104.55 34.0355 107.058C29.3923 111.743 28.5932 112.333 25.3986 113.43C24.22 113.834 23.1652 113.932 19.9507 113.932H15.9644L13.8384 112.868C12.0369 111.967 11.5615 111.582 10.7236 110.344C10.1796 109.54 9.35601 107.835 8.89334 106.556C8.027 104.161 7.42667 103.461 7.75381 105.227C8.491 109.207 10.3861 112.11 13.1756 113.534C15.4959 114.717 20.3424 115.286 23.9369 114.796C24.9689 114.656 25.0876 114.672 24.4684 114.869C22.0254 115.644 17.1874 115.391 14.0885 114.325C11.1929 113.328 9.04695 111.18 8.12028 108.35C7.92894 107.766 7.72138 107.438 7.65946 107.623C7.50134 108.094 8.95313 111.072 9.93296 112.287C12.1661 115.055 15.4138 116.311 20.3493 116.315C22.0302 116.317 24.0632 116.157 24.8671 115.959C28.5278 115.062 33.3424 111.292 36.073 107.186C36.7902 106.108 37.3318 105.18 37.2763 105.124C37.2207 105.069 36.1907 106.203 34.9871 107.644C33.7833 109.086 32.2398 110.72 31.5568 111.275C30.4744 112.155 30.5398 112.05 32.0647 110.451C33.0267 109.442 35.0982 107.151 36.668 105.36C38.2375 103.57 39.6585 102.105 39.8256 102.105C39.9928 102.105 39.4759 102.786 38.6771 103.619C37.1307 105.23 37.4721 105.088 39.5684 103.247C40.987 102.002 44.071 100.355 45.4789 100.091C45.9855 99.9958 46.3155 99.8025 46.2241 99.6545C46.1178 99.4826 46.4582 99.4562 47.1901 99.5798ZM50.1134 99.2428C49.6018 99.2428 49.3926 99.2976 49.6483 99.3643C49.9039 99.4313 50.3228 99.4313 50.5784 99.3643C50.8341 99.2976 50.6249 99.2428 50.1134 99.2428ZM55.1626 101.174C55.3436 101.886 55.3654 101.9 55.3654 101.307C55.3654 100.942 55.2742 100.284 55.1626 99.8456C54.9816 99.1344 54.9599 99.12 54.9599 99.7127C54.9599 100.078 55.051 100.736 55.1626 101.174ZM66.8806 100.244C67.013 100.244 67.1214 100.005 67.1214 99.7127C67.1214 99.4204 67.0754 99.1812 67.0196 99.1812C66.9635 99.1812 66.8551 99.4204 66.7786 99.7127C66.7023 100.005 66.748 100.244 66.8806 100.244ZM17.91 99.9785C17.7726 99.9785 17.7343 99.8589 17.8247 99.7127C18.0607 99.3305 17.9126 99.3898 17.1603 99.9785C16.7949 100.264 16.6216 100.501 16.775 100.504C16.9283 100.507 17.2244 100.361 17.4322 100.178C17.6403 99.9952 17.5916 100.108 17.3243 100.43C16.8438 101.006 16.8563 101.039 18.3687 103.186C20.1734 105.747 21.2037 106.821 23.0448 108.061C24.2038 108.841 24.4924 108.932 25.0324 108.686C25.848 108.314 25.8288 108.194 24.8533 107.553C23.9603 106.967 20.9411 103.663 19.2459 101.418C18.6485 100.626 18.0471 99.9785 17.91 99.9785ZM55.2631 106.868C55.7026 107.66 56.101 108.192 56.1486 108.05C56.1961 107.908 55.7845 105.933 55.2336 103.663C54.4462 100.415 54.1474 99.558 53.8339 99.6447C53.6146 99.7053 53.2952 99.7977 53.124 99.8504C52.545 100.028 53.8573 104.333 55.2631 106.868ZM65.5269 100.244C65.8192 100.401 66.0584 100.469 66.0584 100.396C66.0584 100.323 65.8192 100.135 65.5269 99.9785C65.2346 99.8219 64.9954 99.7539 64.9954 99.827C64.9954 99.9001 65.2346 100.088 65.5269 100.244ZM54.1621 105.892C53.7741 105.052 53.203 103.414 52.8928 102.252C52.583 101.091 52.1894 100.095 52.0185 100.038C51.5869 99.894 51.6079 100.003 52.4908 102.505C53.2497 104.656 54.5224 107.42 54.7539 107.42C54.8163 107.42 54.5501 106.732 54.1621 105.892ZM53.8517 107.007C53.4294 106.341 52.639 104.547 52.0951 103.02C51.247 100.64 51.0259 100.249 50.5433 100.28C49.5136 100.347 48.7846 100.545 48.7846 100.758C48.7846 101.189 53.0523 107.401 53.6239 107.801C54.6024 108.487 54.6609 108.283 53.8517 107.007ZM51.8585 107.154C52.0656 107.154 51.3512 105.811 50.1689 103.976C48.3796 101.201 48.0278 100.797 47.3894 100.787C46.9488 100.78 46.6586 100.918 46.6586 101.133C46.6586 102.284 50.8646 107.154 51.8585 107.154ZM47.9137 104.659C47.9621 104.611 47.6097 103.974 47.1308 103.244C46.6517 102.514 46.1404 101.729 45.9942 101.501C45.7864 101.176 45.5839 101.144 45.0641 101.353C44.4048 101.618 44.4127 101.632 46.1127 103.183C47.0548 104.043 47.8654 104.707 47.9137 104.659ZM21.7445 107.751C20.8386 107.088 19.6214 105.807 18.7548 104.602C16.4789 101.44 16.2791 101.229 15.9126 101.597C15.6663 101.844 16.0362 102.436 17.5666 104.24C18.6509 105.518 19.9159 106.882 20.3777 107.27C21.1298 107.903 23.2726 109.144 23.2726 108.947C23.2726 108.904 22.5851 108.366 21.7445 107.751ZM48.2531 105.871C47.1569 105.165 45.6094 104.029 44.8143 103.346C44.0192 102.663 43.2788 102.105 43.169 102.105C41.9817 102.105 44.5523 104.333 47.7524 106.077C50.4243 107.534 50.6752 107.43 48.2531 105.871ZM11.3853 102.545C11.2054 102.618 10.8466 102.622 10.588 102.555C10.3295 102.487 10.4767 102.428 10.9152 102.422C11.3537 102.417 11.5652 102.472 11.3853 102.545ZM21.9507 109.067C20.0275 107.748 19.0115 106.812 17.2905 104.778C16.2472 103.544 15.2711 102.494 15.1209 102.444C14.9711 102.394 14.7189 102.509 14.5605 102.699C14.3418 102.963 14.7183 103.637 16.1279 105.507C18.4534 108.591 19.7083 109.552 21.3857 109.532L22.6082 109.518L21.9507 109.067ZM50.2887 107.308C49.7153 107.528 45.9039 105.513 43.9947 103.981C43.0734 103.241 42.2341 102.636 42.1299 102.636C42.0255 102.636 41.781 102.828 41.5862 103.063C41.2806 103.431 41.3577 103.595 42.1517 104.262C44.9679 106.631 48.4224 108.232 51.7363 108.706C52.8625 108.867 53.1217 108.959 52.5051 108.978C49.9311 109.058 45.5108 107.306 42.6737 105.082L40.9476 103.729L40.3648 104.277L39.7818 104.824L40.4964 105.411C44.5052 108.706 49.394 110.453 52.7993 109.807C54.2875 109.524 54.7754 109.292 53.9447 109.262C53.4833 109.245 53.4791 109.226 53.9 109.059C54.228 108.929 53.8578 108.73 52.6417 108.382C51.694 108.11 50.9829 107.784 51.0613 107.657C51.1397 107.53 50.9988 107.505 50.748 107.601C50.4405 107.719 50.3539 107.676 50.4822 107.468C50.6034 107.272 50.5332 107.214 50.2887 107.308ZM63.9053 106.357C63.9109 105.992 63.5904 105.035 63.1931 104.231C62.7958 103.427 62.2613 102.731 62.0057 102.683C61.3676 102.565 61.4157 102.712 62.3381 103.7C62.7766 104.169 63.3065 105.109 63.5154 105.787C63.778 106.64 63.8984 106.816 63.9053 106.357ZM117.692 107.922C116.591 107.225 115.922 105.543 116.147 104.039C116.303 103.002 116.385 102.902 117.084 102.902C118.67 102.902 120.276 105.503 119.704 107.144C119.293 108.323 118.692 108.555 117.692 107.922ZM18.1869 108.436C17.6554 107.951 16.4842 106.566 15.5839 105.36C14.6838 104.155 13.9229 103.17 13.8929 103.172C13.8629 103.174 13.667 103.284 13.4576 103.417C13.148 103.613 13.3239 104.047 14.3978 105.738C15.7072 107.8 16.7449 108.663 18.4891 109.138C19.0878 109.301 19.058 109.232 18.1869 108.436ZM63.8003 110.53C63.5478 108.132 63.2249 106.445 62.8529 105.58C62.5428 104.859 62.0432 104.051 61.7429 103.785C61.1202 103.232 61.1468 103.331 62.1162 105.172C62.8728 106.608 63.4009 108.924 63.4009 110.806C63.4009 111.928 63.905 114.446 64.0921 114.259C64.1423 114.209 64.011 112.531 63.8003 110.53ZM117.911 103.965C118.057 103.965 118.103 103.845 118.013 103.699C117.922 103.553 117.729 103.434 117.583 103.434C117.436 103.434 117.391 103.553 117.481 103.699C117.571 103.845 117.765 103.965 117.911 103.965ZM37.3581 107.686C38.259 106.151 39.246 104.626 39.5519 104.297C40.3965 103.389 40.0138 103.583 38.7663 104.697C38.153 105.244 37.119 106.53 36.4687 107.553C34.458 110.717 30.0048 114.543 26.7419 115.91C24.6797 116.773 20.6528 117.179 17.991 116.791C15.2804 116.396 12.7443 115.54 11.5795 114.627C10.1278 113.489 9.77882 113.371 10.6494 114.314C12.494 116.311 15.6639 117.244 20.6257 117.25C25.5822 117.256 27.2519 116.713 31.9318 113.574C34.922 111.569 35.3552 111.099 37.3581 107.686ZM25.1894 105.705C26.1706 106.708 27.0305 107.471 27.1004 107.401C27.1706 107.331 26.3678 106.511 25.3165 105.577L23.4054 103.881L25.1894 105.705ZM92.8992 105.416C92.8992 104.886 93.1115 104.715 94.1615 104.401C94.8556 104.194 95.5118 104.105 95.6194 104.204C95.727 104.302 95.8466 104.977 95.8852 105.702C95.954 106.996 95.9399 107.023 95.144 107.101C94.1078 107.202 92.8992 106.295 92.8992 105.416ZM118.013 107.459C118.498 107.427 118.452 106.394 117.912 105.172C117.192 103.543 116.416 103.483 116.629 105.071C116.78 106.196 117.53 107.491 118.013 107.459ZM62.8675 109.981C62.72 108.529 62.3777 106.868 62.1008 106.26C61.4 104.721 60.872 104.074 60.6328 104.461C60.5273 104.631 60.3235 104.698 60.18 104.61C60.0362 104.521 60.1125 104.908 60.349 105.469C60.5855 106.031 61.0726 107.725 61.4314 109.236C62.0261 111.74 62.9228 114.064 63.2946 114.064C63.3762 114.064 63.3735 113.736 63.2885 113.334C63.2034 112.931 63.0139 111.423 62.8675 109.981ZM119.208 105.843C119.208 105.706 119.092 105.288 118.949 104.913C118.807 104.538 118.555 104.231 118.389 104.231C118.207 104.231 118.164 104.414 118.28 104.696C118.385 104.952 118.532 105.37 118.605 105.626C118.744 106.11 119.208 106.277 119.208 105.843ZM16.4311 110.474C14.3333 109.425 11.9375 107.192 11.1541 105.556C10.8416 104.904 10.4655 104.502 10.1666 104.5C9.57766 104.496 9.72807 105.167 10.6723 106.756C12.3901 109.645 15.0585 111.367 18.4226 111.757C19.0633 111.831 19.4878 111.784 19.4035 111.647C19.3219 111.515 19.0389 111.407 18.7747 111.407C18.5109 111.407 17.4561 110.987 16.4311 110.474ZM105.987 105.062C106.243 104.862 106.452 104.652 106.452 104.597C106.452 104.378 106.234 104.519 105.887 104.962C105.557 105.383 105.566 105.393 105.987 105.062ZM13.7345 105.976C13.895 106.076 13.8209 105.843 13.5698 105.46C13.3184 105.076 13.0627 104.762 13.0013 104.762C12.8089 104.762 13.4278 105.787 13.7345 105.976ZM94.0812 105.13C94.3082 105.042 94.4937 104.924 94.4937 104.867C94.4937 104.652 93.9872 104.772 93.8312 105.025C93.7382 105.176 93.8447 105.22 94.0812 105.13ZM94.3616 105.922C94.6223 106.022 94.8888 106.051 94.954 105.985C95.0188 105.92 95.0318 105.672 94.9821 105.434C94.904 105.058 94.8269 105.05 94.39 105.371C93.9138 105.721 93.9122 105.749 94.3616 105.922ZM7.08279 105.715C7.09555 106.024 7.15853 106.087 7.2433 105.875C7.32011 105.684 7.31054 105.454 7.22231 105.366C7.13408 105.278 7.07136 105.435 7.08279 105.715ZM49.9805 110.279C46.8393 109.99 43.6232 108.58 40.6346 106.183C40.0252 105.694 39.4701 105.294 39.4007 105.294C39.2577 105.294 38.9518 106.019 38.9518 106.358C38.9518 106.682 42.3707 108.906 44.0399 109.669C45.834 110.489 48.7657 110.939 50.512 110.662L51.8407 110.451L49.9805 110.279ZM70.8961 111.763C71.4765 110.114 73.0059 108.618 75.8672 106.901C78.555 105.288 78.3993 105.165 75.5621 106.66C74.1399 107.41 73.0136 108.27 71.9091 109.451C70.4061 111.058 69.0531 113.162 69.3391 113.447C69.6819 113.79 70.4906 112.916 70.8961 111.763ZM78.9473 106.083C79.0934 106.083 79.3924 105.967 79.6116 105.825C79.8309 105.684 79.8907 105.568 79.7445 105.568C79.5984 105.568 79.2994 105.684 79.0802 105.825C78.8609 105.967 78.8011 106.083 78.9473 106.083ZM95.5484 106.357C95.6898 106.357 95.7369 106.178 95.6529 105.958C95.5686 105.739 95.4528 105.56 95.3954 105.56C95.338 105.56 95.2909 105.739 95.2909 105.958C95.2909 106.178 95.4068 106.357 95.5484 106.357ZM72.5222 111.473C74.1933 109.485 76.6275 107.198 77.643 106.662C78.2141 106.361 78.555 106.11 78.4001 106.103C78.0687 106.089 75.3341 107.707 74.1003 108.647C72.8021 109.636 71.6756 110.922 71.3904 111.739C71.0242 112.788 71.5134 112.673 72.5222 111.473ZM93.8912 106.39C94.0717 106.572 94.2861 106.653 94.3677 106.571C94.4496 106.49 94.3021 106.341 94.0401 106.241C93.6614 106.097 93.6308 106.127 93.8912 106.39ZM7.34854 106.778C7.3613 107.087 7.42428 107.15 7.50905 106.939C7.58586 106.747 7.57629 106.517 7.48806 106.429C7.39983 106.341 7.33711 106.498 7.34854 106.778ZM72.6862 108.008C73.3527 107.48 74.0118 106.952 74.1505 106.835C74.6881 106.383 74.0816 106.657 72.9535 107.377C71.1743 108.512 69.5798 110.287 68.7037 112.109C67.8591 113.866 67.7353 114.436 68.2343 114.269C68.4079 114.211 68.722 113.633 68.9325 112.985C69.4132 111.503 71.1052 109.26 72.6862 108.008ZM118.871 107.133C118.756 107.575 118.79 107.679 118.987 107.482C119.142 107.327 119.216 107.044 119.152 106.852C119.086 106.653 118.965 106.774 118.871 107.133ZM54.1631 109.851C51.3098 111.316 47.4824 111.522 44.4911 110.371C43.6647 110.053 41.962 109.148 40.7077 108.361C39.4172 107.55 38.3563 107.043 38.2641 107.192C38.0794 107.491 38.3571 107.729 40.9187 109.462C45.3386 112.454 48.871 112.875 52.8971 110.891C54.777 109.965 55.1326 109.999 53.5102 110.95C50.4947 112.717 46.5722 112.945 43.4754 111.533C42.5288 111.102 40.8663 110.111 39.7812 109.333C38.2872 108.261 37.7549 108.002 37.587 108.267C37.4652 108.459 37.3637 108.707 37.3613 108.819C37.3552 109.126 40.0956 110.813 42.3035 111.862C46.0503 113.642 50.4897 113.332 53.9016 111.053C54.7903 110.46 55.3768 109.928 55.2054 109.87C55.034 109.813 54.9527 109.671 55.0252 109.554C55.0975 109.436 54.7095 109.57 54.1631 109.851ZM95.3672 113.282C98.2764 112.537 101.334 110.868 103.466 108.862C104.451 107.935 105.197 107.181 105.124 107.186C105.051 107.192 104.282 107.782 103.416 108.499C101.409 110.159 98.2336 111.814 96.0579 112.332C95.0329 112.576 91.8351 112.842 87.9828 113.003C76.9369 113.466 75.1072 113.888 69.5344 117.261C64.8792 120.078 63.74 120.638 61.7059 121.109C59.7542 121.562 57.9995 121.348 56.2192 120.44C54.9221 119.778 53.225 118.084 52.7786 117.006C52.4565 116.229 52.4485 116.226 51.5859 116.638L50.7177 117.052L52.6906 119.519C55.4828 123.011 57.1395 123.653 60.8869 122.696C63.0713 122.139 66.9513 120.233 69.0005 118.711C73.2817 115.532 75.9161 114.927 89.1787 114.076C91.5563 113.924 94.1726 113.588 95.3672 113.282ZM75.0155 109.546C75.1672 109.546 75.8149 109.073 76.4548 108.494C77.9135 107.175 77.6658 107.091 76.1157 108.379C75.0826 109.237 74.7991 109.466 74.8313 109.526C74.8452 109.552 74.9184 109.546 75.0155 109.546ZM104.527 111.488C104.305 110.581 105.135 110.059 107.846 109.399C109.199 109.069 110.552 108.788 110.853 108.774C112.072 108.718 112.862 110.224 112.075 111.104C111.795 111.418 110.67 111.805 108.977 112.168C105.197 112.98 104.879 112.931 104.527 111.488ZM97.2628 111.416C98.7574 110.9 101.137 109.663 101.137 109.402C101.137 109.366 101.144 109.336 101.132 109.321C101.094 109.276 100.865 109.39 99.6205 109.979C97.4889 110.988 94.8027 111.339 85.7239 111.797C74.5162 112.362 73.7519 112.541 68.5506 115.806C62.9581 119.317 60.8212 119.883 57.9562 118.613C56.3468 117.899 55.5432 117.18 54.8546 115.837C54.3611 114.874 54.3011 114.84 53.7509 115.204C52.8939 115.772 52.9192 116.221 53.8897 117.671C54.5612 118.674 55.1717 119.184 56.5209 119.87C59.8696 121.573 62.2903 121.042 68.4693 117.248C74.4654 113.567 75.9911 113.116 83.7308 112.73C92.6143 112.287 95.5708 112 97.2628 111.416ZM111.504 110.875C111.88 110.875 112.018 110.477 111.856 109.858C111.695 109.242 111.373 109.11 111.101 109.549C110.893 109.886 111.193 110.875 111.504 110.875ZM92.8912 110.518C92.8136 110.437 90.5436 110.186 87.8465 109.959C79.3757 109.246 76.3031 109.465 74.5624 110.906C74.0272 111.349 74.0014 111.419 74.4295 111.264C76.8348 110.395 77.9188 110.319 85.4582 110.491C89.6238 110.586 92.9685 110.598 92.8912 110.518ZM107.914 110.025C108.206 110.025 108.745 109.929 109.11 109.812C109.636 109.644 109.664 109.599 109.243 109.599C108.95 109.599 108.412 109.695 108.047 109.812C107.521 109.981 107.493 110.025 107.914 110.025ZM106.669 110.259C106.86 110.336 107.089 110.327 107.178 110.238C107.266 110.15 107.109 110.087 106.829 110.099C106.519 110.112 106.456 110.175 106.669 110.259ZM105.071 111.592C105.321 111.99 110.482 110.878 110.644 110.392C110.793 109.945 109.872 110.025 107.189 110.695C105.547 111.105 104.929 111.367 105.071 111.592ZM105.605 110.525C105.797 110.602 106.026 110.592 106.115 110.504C106.203 110.416 106.046 110.353 105.766 110.365C105.456 110.377 105.393 110.44 105.605 110.525ZM82.2622 111.403C83.5083 111.4 84.7074 111.283 84.9267 111.141C85.4156 110.825 78.4115 110.829 76.8199 111.145C75.6849 111.371 72.0875 112.741 72.2371 112.89C72.2862 112.94 73.0665 112.749 73.9708 112.468C76.0222 111.83 79.3031 111.408 82.2622 111.403ZM110.123 111.322C110.315 111.399 110.544 111.39 110.632 111.301C110.721 111.213 110.564 111.15 110.284 111.162C109.974 111.175 109.911 111.238 110.123 111.322ZM55.54 111.962C50.7522 116.207 43.2705 116.401 37.2606 112.435C36.0035 111.606 35.6895 111.386 35.5265 111.468C35.4615 111.501 35.4205 111.581 35.3533 111.69C35.295 111.785 35.2434 111.844 35.2396 111.907C35.2295 112.072 35.5492 112.257 36.9436 113.143C39.406 114.707 42.1831 115.888 44.2225 116.238C48.4272 116.959 53.6837 115.093 55.7045 112.161L56.3162 111.274L55.54 111.962ZM109.06 111.588C109.252 111.665 109.481 111.655 109.569 111.567C109.658 111.479 109.501 111.416 109.221 111.428C108.911 111.44 108.848 111.503 109.06 111.588ZM107.997 111.854C108.189 111.931 108.418 111.921 108.506 111.833C108.595 111.745 108.438 111.682 108.158 111.693C107.848 111.706 107.785 111.769 107.997 111.854ZM106.669 112.12C106.86 112.197 107.089 112.187 107.178 112.099C107.266 112.011 107.109 111.948 106.829 111.959C106.519 111.972 106.456 112.035 106.669 112.12ZM47.2241 116.661C43.898 116.857 41.245 116.133 37.4902 114.006C36.6132 113.509 35.5779 112.894 35.1896 112.639C34.7766 112.368 34.4176 112.281 34.3254 112.431C34.1038 112.789 39.6991 115.882 41.6901 116.502C43.9498 117.206 46.9825 117.402 49.2146 116.989C51.4365 116.578 52.2192 116.199 53.7313 114.805C54.8602 113.765 54.8969 113.752 54.8969 114.39C54.8969 115.309 55.8926 116.689 57.2376 117.634C58.1675 118.288 58.6992 118.451 60.1569 118.533C62.3958 118.657 63.7309 118.158 67.6085 115.748C70.8722 113.72 71.7805 112.998 69.2474 114.446C64.5409 117.136 61.9488 117.786 59.565 116.876C58.2695 116.381 56.6006 114.725 56.3364 113.672C56.1493 112.927 55.9548 112.847 55.4815 113.32C55.3061 113.496 55.1626 113.557 55.1626 113.457C55.1626 113.357 54.5349 113.753 53.7674 114.336C51.8219 115.816 49.8829 116.505 47.2241 116.661ZM9.65286 113.035C10.0743 113.366 10.0836 113.356 9.75331 112.935C9.55267 112.679 9.34326 112.47 9.28825 112.47C9.06953 112.47 9.21012 112.688 9.65286 113.035ZM27.1259 114.046C26.9798 114.046 27.1592 113.875 27.5246 113.666C27.89 113.457 28.3085 113.286 28.4547 113.286C28.6009 113.286 28.4215 113.457 28.0561 113.666C27.6907 113.875 27.2721 114.046 27.1259 114.046ZM121.628 117.534C120.887 117.138 120.922 116.402 121.752 114.986L122.435 113.82L123.741 114.673C125.149 115.594 125.409 116.322 124.59 117.057C123.944 117.637 122.311 117.9 121.628 117.534ZM25.6643 114.573C25.4015 114.563 25.4467 114.481 25.7972 114.33C26.5277 114.016 26.9474 114.016 26.4616 114.33C26.2423 114.472 25.8836 114.581 25.6643 114.573ZM34.4341 114.693C34.4341 114.86 34.5579 114.844 34.7485 114.654C34.9215 114.481 35.0012 114.277 34.9257 114.202C34.7485 114.024 34.4341 114.339 34.4341 114.693ZM122.533 115.648C122.31 116.661 122.408 116.799 123.15 116.525C123.707 116.319 123.708 116.308 123.216 115.559L122.719 114.801L122.533 115.648ZM123.603 115.504C124.002 116.113 124.753 116.246 124.38 115.642C124.297 115.507 123.987 115.267 123.692 115.109C123.172 114.831 123.17 114.842 123.603 115.504ZM33.9026 115.792C33.7564 115.882 33.6368 115.829 33.6368 115.675C33.6368 115.52 33.7564 115.393 33.9026 115.393C34.0487 115.393 34.1683 115.446 34.1683 115.51C34.1683 115.575 34.0487 115.702 33.9026 115.792ZM36.8205 115.798C36.4559 116.238 36.1304 116.14 36.4163 115.677C36.5125 115.521 36.7187 115.393 36.8739 115.393C37.0504 115.393 37.0302 115.546 36.8205 115.798ZM100.477 117.042C100.285 116.275 100.377 116.156 101.489 115.746C102.999 115.188 103.214 115.282 103.41 116.586C103.508 117.242 103.519 117.96 103.434 118.181C103.08 119.104 100.771 118.215 100.477 117.042ZM121.857 116.554C122.046 116.743 122.132 116.604 122.132 116.111C122.132 115.291 121.999 115.195 121.753 115.836C121.659 116.08 121.706 116.403 121.857 116.554ZM101.174 116.581C101.258 116.666 101.479 116.553 101.664 116.33C102.047 115.868 101.973 115.824 101.411 116.18C101.196 116.316 101.089 116.497 101.174 116.581ZM102.04 117.339C102.28 117.431 102.455 117.253 102.535 116.836C102.603 116.481 102.645 116.194 102.629 116.199C102.612 116.203 102.39 116.328 102.134 116.478C101.574 116.804 101.536 117.146 102.04 117.339ZM30.7136 116.988C30.5674 116.988 30.4478 116.868 30.4478 116.722C30.4478 116.576 30.5674 116.456 30.7136 116.456C30.8597 116.456 30.9793 116.576 30.9793 116.722C30.9793 116.868 30.8597 116.988 30.7136 116.988ZM111.469 119.41C110.094 118.034 110.185 117.518 111.903 116.943C114.4 116.107 114.7 116.357 114.11 118.782C113.622 120.787 112.995 120.936 111.469 119.41ZM122.98 117.227C123.373 117.242 123.769 117.134 123.859 116.988C124.046 116.686 123.872 116.686 122.929 116.988L122.265 117.201L122.98 117.227ZM103.013 117.519C103.168 117.519 103.221 117.4 103.131 117.254C103.04 117.107 102.914 116.988 102.849 116.988C102.785 116.988 102.732 117.107 102.732 117.254C102.732 117.4 102.859 117.519 103.013 117.519ZM113.818 118.029C113.86 118.09 113.893 117.88 113.893 117.564C113.893 117.21 113.727 116.988 113.462 116.988C113.093 116.988 113.082 117.055 113.387 117.453C113.583 117.709 113.777 117.968 113.818 118.029ZM72.9679 117.785C73.1141 117.785 73.2336 117.666 73.2336 117.519C73.2336 117.373 73.1141 117.254 72.9679 117.254C72.8217 117.254 72.7021 117.373 72.7021 117.519C72.7021 117.666 72.8217 117.785 72.9679 117.785ZM74.9469 118.074C74.7104 118.457 74.2966 118.357 74.2966 117.918C74.2966 117.393 74.0708 117.416 73.0343 118.048C72.3296 118.478 72.1706 118.502 72.1706 118.18C72.1706 117.963 72.0511 117.785 71.9049 117.785C71.7587 117.785 71.6391 117.887 71.6391 118.011C71.6391 118.135 71.1539 118.455 70.5607 118.722C69.6633 119.127 69.557 119.25 69.9267 119.457C70.7149 119.898 75.7875 120.016 77.782 119.64C79.6993 119.278 80.4174 118.87 79.2287 118.819C78.8548 118.803 78.2794 118.778 77.9507 118.765C77.622 118.751 77.2029 118.555 77.0201 118.329C76.7264 117.967 76.7062 117.973 76.8492 118.383C76.9398 118.644 76.8816 118.848 76.7168 118.848C76.555 118.848 76.4226 118.661 76.4226 118.432C76.4226 118.145 76.2669 118.065 75.9225 118.174C75.6071 118.274 75.365 118.183 75.2666 117.926C75.1808 117.702 74.9573 117.529 74.77 117.54C74.5013 117.557 74.4999 117.59 74.7633 117.696C74.9469 117.77 75.0296 117.94 74.9469 118.074ZM111.206 118.431C111.335 118.511 111.504 118.339 111.58 118.048C111.669 117.705 111.586 117.519 111.344 117.519C110.933 117.519 110.83 118.199 111.206 118.431ZM112.943 119.026C113.486 118.817 113.485 117.889 112.942 117.681C112.666 117.575 112.534 117.52 112.423 117.548C112.311 117.577 112.22 117.693 112.022 117.931C111.74 118.271 111.754 118.417 112.102 118.765C112.334 118.997 112.712 119.114 112.943 119.026ZM20.922 118.424C20.7533 118.529 20.6151 118.512 20.6151 118.387C20.6151 118.108 17.4245 118.105 17.2523 118.383C17.1311 118.579 17.8409 118.691 18.8877 118.642C19.18 118.628 19.269 118.679 19.0854 118.755C18.6552 118.934 18.9267 119.38 19.466 119.38C19.749 119.38 19.8359 119.212 19.7407 118.848C19.5826 118.243 19.6557 118.211 20.3506 118.583C20.699 118.77 20.9058 118.757 21.0387 118.542C21.1567 118.351 21.1123 118.307 20.922 118.424ZM72.9679 118.715C72.8217 118.806 72.7021 118.753 72.7021 118.598C72.7021 118.443 72.8217 118.317 72.9679 118.317C73.1141 118.317 73.2336 118.369 73.2336 118.434C73.2336 118.499 73.1141 118.625 72.9679 118.715ZM73.7651 118.715C73.619 118.806 73.4994 118.753 73.4994 118.598C73.4994 118.443 73.619 118.317 73.7651 118.317C73.9113 118.317 74.0309 118.369 74.0309 118.434C74.0309 118.499 73.9113 118.625 73.7651 118.715ZM96.1772 122.485C93.4243 121.108 90.3868 119.787 89.4274 119.548C86.8284 118.901 84.008 119.023 80.1432 119.948C76.1242 120.91 73.219 121.031 70.1148 120.366C67.967 119.906 67.9067 119.907 66.8774 120.432C66.3007 120.726 65.7629 121.073 65.6826 121.203C65.3778 121.697 68.0834 122.17 71.1076 122.153C73.8401 122.138 74.4875 122.035 77.2199 121.184C81.2187 119.938 83.8583 119.532 86.737 119.719C89.5741 119.903 91.1226 120.462 96.6197 123.287C102.124 126.117 106.07 127.385 109.189 127.327C110.453 127.304 110.373 127.271 108.256 126.941C104.828 126.407 101.762 125.276 96.1772 122.485ZM51.1764 120.31C51.3225 120.22 51.4421 119.974 51.4421 119.763C51.4421 119.552 51.3225 119.38 51.1764 119.38C51.0302 119.38 50.9106 119.626 50.9106 119.927C50.9106 120.228 51.0302 120.4 51.1764 120.31ZM112.784 120.015C112.935 120.109 113.14 120.056 113.237 119.898C113.481 119.503 113.287 119.363 112.861 119.627C112.632 119.768 112.605 119.905 112.784 120.015ZM20.7735 120.812C20.9829 121.358 21.1306 121.345 21.9438 120.709C22.66 120.148 22.6366 120.098 21.8109 120.425C21.5186 120.54 21.1285 120.578 20.9443 120.509C20.7262 120.427 20.6664 120.533 20.7735 120.812ZM95.5567 123.337C92.9988 122.038 90.1933 120.795 89.3222 120.576C87.3708 120.085 83.5187 120.093 81.2062 120.593C80.2561 120.799 78.2231 121.356 76.6884 121.83C74.1731 122.608 73.5836 122.692 70.709 122.677C68.17 122.663 67.2455 122.551 66.1729 122.127L64.8256 121.593L63.5462 122.152C62.5292 122.596 62.3424 122.771 62.6347 123.004C63.5013 123.695 65.2183 124.023 67.7858 123.99C70.0019 123.961 71.2158 123.755 75.0939 122.753C80.9348 121.243 83.5642 120.855 86.515 121.064C89.665 121.288 91.6855 121.963 97.4169 124.706C104.013 127.863 105.513 128.274 110.439 128.279C114.495 128.283 116.444 127.905 117.858 126.838C118.383 126.442 118.142 126.476 116.529 127.026C115.077 127.521 113.803 127.731 111.69 127.826C106.341 128.064 103.073 127.155 95.5567 123.337ZM22.0658 122.702C22.0467 122.556 21.9385 122.227 21.8261 121.971C21.4482 121.113 21.2794 121.494 21.2794 123.206C21.2794 125.31 21.7886 126.024 23.2888 126.024C24.1158 126.024 24.2646 125.943 24.1615 125.549C24.0929 125.287 23.7754 124.957 23.4554 124.815C23.1357 124.673 22.8894 124.355 22.9085 124.109C22.9398 123.699 22.8904 123.696 22.3106 124.076C21.9159 124.335 21.6781 124.379 21.6781 124.194C21.6781 124.031 21.8048 123.898 21.9595 123.898C22.1142 123.898 22.1652 123.775 22.0727 123.626C21.98 123.476 22.0477 123.386 22.2231 123.426C22.3982 123.466 22.5978 123.346 22.6664 123.159C22.735 122.971 22.6356 122.852 22.4458 122.893C22.2561 122.934 22.0852 122.848 22.0658 122.702ZM96.9343 124.988C92.908 123.106 91.3863 122.546 88.9663 122.057C87.0824 121.676 81.7866 121.736 79.4788 122.166C78.4556 122.356 76.1237 122.908 74.2966 123.392C71.3362 124.177 70.5846 124.273 67.3871 124.283C64.238 124.291 63.6459 124.221 62.5428 123.708C61.5542 123.249 61.0014 123.158 59.9517 123.282C59.218 123.369 58.6174 123.537 58.6174 123.656C58.6174 124.081 61.9762 125.461 63.7684 125.773C66.3964 126.23 68.8769 125.922 74.7883 124.405C80.444 122.954 83.6061 122.564 87.1784 122.878C89.7713 123.105 92.0955 123.858 96.811 125.997C98.679 126.844 100.985 127.792 101.935 128.103C105.385 129.232 110.291 129.771 112.033 129.213C112.489 129.067 112.005 128.992 110.494 128.974C106.365 128.924 103.64 128.123 96.9343 124.988ZM60.383 126.553C58.9084 125.933 57.1366 124.766 56.3585 123.9C55.6314 123.092 54.3654 122.212 54.3654 122.515C54.3654 122.651 54.9593 123.366 55.6853 124.104C57.0593 125.499 59.1465 126.669 60.7434 126.938C61.5765 127.079 61.539 127.038 60.383 126.553ZM63.901 126.333C61.5218 125.997 58.9807 124.983 58.0606 124.004C57.7314 123.653 57.2822 123.366 57.063 123.366C56.3064 123.366 57.8685 124.683 59.7319 125.615C63.5925 127.546 67.8421 127.606 73.2177 125.804C76.5282 124.694 77.7857 124.399 76.2898 125.084C75.2634 125.554 75.7407 125.561 76.9541 125.094C77.6156 124.839 77.7307 124.724 77.3528 124.697L76.8213 124.658L77.3528 124.417C78.2986 123.989 75.9161 124.464 73.1066 125.265C69.152 126.392 66.4971 126.7 63.901 126.333ZM82.0034 123.428C81.4918 123.428 81.2827 123.483 81.5383 123.549C81.794 123.616 82.2128 123.616 82.4685 123.549C82.7241 123.483 82.515 123.428 82.0034 123.428ZM85.6575 123.554C85.9862 123.617 86.5246 123.617 86.8534 123.554C87.1821 123.491 86.9131 123.439 86.2554 123.439C85.5977 123.439 85.3287 123.491 85.6575 123.554ZM79.5452 123.808C79.7281 123.882 80.027 123.882 80.2096 123.808C80.3924 123.734 80.2428 123.674 79.8774 123.674C79.512 123.674 79.3626 123.734 79.5452 123.808ZM87.9214 123.816C88.18 123.884 88.5387 123.879 88.7187 123.807C88.8986 123.734 88.687 123.679 88.2485 123.684C87.8101 123.689 87.6628 123.749 87.9214 123.816ZM78.2165 124.074C78.3993 124.148 78.6983 124.148 78.8808 124.074C79.0637 124 78.9141 123.94 78.5487 123.94C78.1832 123.94 78.0339 124 78.2165 124.074ZM55.1626 125.625C55.0165 125.716 54.8969 125.663 54.8969 125.508C54.8969 125.354 55.0165 125.227 55.1626 125.227C55.3088 125.227 55.4284 125.279 55.4284 125.344C55.4284 125.409 55.3088 125.535 55.1626 125.625ZM70.4632 127.339C70.8398 127.357 74.4048 126.142 75.0155 125.786C75.2778 125.634 75.3729 125.516 75.2268 125.525C74.8016 125.551 70.1475 127.323 70.4632 127.339ZM69.1977 127.534C69.3893 127.611 69.6186 127.602 69.7069 127.514C69.7951 127.425 69.6383 127.363 69.3582 127.374C69.0486 127.387 68.9856 127.45 69.1977 127.534ZM92.2348 127.885C92.0155 127.885 91.8362 127.765 91.8362 127.619C91.8362 127.473 92.0155 127.353 92.2348 127.353C92.454 127.353 92.6334 127.473 92.6334 127.619C92.6334 127.765 92.454 127.885 92.2348 127.885ZM61.2749 129.08C61.1287 129.171 61.0091 129.058 61.0091 128.83C61.0091 128.603 61.1287 128.416 61.2749 128.416C61.421 128.416 61.5406 128.528 61.5406 128.666C61.5406 128.804 61.421 128.99 61.2749 129.08ZM64.7296 129.08C64.5835 129.171 64.4639 129.118 64.4639 128.963C64.4639 128.809 64.5835 128.682 64.7296 128.682C64.8758 128.682 64.9954 128.734 64.9954 128.799C64.9954 128.864 64.8758 128.99 64.7296 129.08ZM113.047 128.863C113.238 128.94 113.467 128.931 113.556 128.842C113.644 128.754 113.487 128.691 113.207 128.703C112.897 128.716 112.834 128.779 113.047 128.863ZM60.4776 130.144C60.3315 130.234 60.2119 130.121 60.2119 129.893C60.2119 129.666 60.3315 129.479 60.4776 129.479C60.6238 129.479 60.7434 129.592 60.7434 129.729C60.7434 129.867 60.6238 130.053 60.4776 130.144ZM61.8064 130.808C61.6602 130.808 61.5406 130.688 61.5406 130.542C61.5406 130.396 61.6602 130.276 61.8064 130.276C61.9525 130.276 62.0721 130.396 62.0721 130.542C62.0721 130.688 61.9525 130.808 61.8064 130.808ZM60.7277 131.871C60.573 131.871 60.5201 131.751 60.6105 131.605C60.7009 131.459 60.8274 131.34 60.8919 131.34C60.9565 131.34 61.0091 131.459 61.0091 131.605C61.0091 131.751 60.8824 131.871 60.7277 131.871ZM99.0999 134.175C99.0221 134.096 99.0369 133.905 99.1334 133.749C99.35 133.399 99.8087 133.376 99.8087 133.716C99.8087 134.029 99.2905 134.365 99.0999 134.175Z" fill="black"/>
</svg>
