<svg width="146" height="146" viewBox="0 0 146 146" fill="none" xmlns="http://www.w3.org/2000/svg">
<rect x="1.5" y="1.5" width="143" height="143" fill="white" stroke="black" stroke-width="3"/>
<path fill-rule="evenodd" clip-rule="evenodd" d="M46.2485 58.3735L20 84.747L46.0027 110.873C60.3041 125.243 72.2277 137 72.4995 137C72.7713 137 84.6949 125.243 98.9968 110.873L125 84.746L98.7485 58.373L72.497 32L46.2485 58.3735ZM95.1749 58.4238C95.118 58.476 90.7872 58.0422 85.5521 57.4605C77.0172 56.5116 75.9942 56.3001 75.6526 55.4163C75.4431 54.874 74.9141 51.1029 74.4765 47.0361C74.0393 42.9692 73.5574 38.8654 73.4058 37.9164C73.1521 36.3257 73.9941 37.0547 84.2047 47.2599C90.296 53.3478 95.2323 58.3715 95.1749 58.4238ZM69.5161 45.8293C68.837 50.2886 68.0932 54.3983 67.8635 54.9613C67.4936 55.8678 66.5269 56.1118 59.4228 57.0928C55.0106 57.7026 50.9586 58.3173 50.4188 58.4588C49.8791 58.6007 54.1745 53.934 59.9645 48.0885C65.7546 42.2431 70.55 37.5191 70.6212 37.5906C70.6928 37.6621 70.1952 41.3696 69.5161 45.8293ZM74.4191 53.1438L74.7718 56.2942L72.7365 56.0201C71.6167 55.8693 70.632 55.6716 70.5476 55.5809C70.4082 55.4311 72.5024 41.9409 72.7542 41.3671C72.87 41.1044 73.8342 47.9273 74.4191 53.1438ZM67.6452 57.4285C67.4813 57.8574 67.3473 58.8556 67.3473 59.6468C67.3473 60.8866 67.1614 61.0857 65.998 61.0877C63.5622 61.0921 50.3967 59.4023 51.3433 59.2066C52.6077 58.9453 66.4494 56.7704 67.2772 56.7029C67.6908 56.6694 67.8302 56.9439 67.6452 57.4285ZM74.7277 57.4724C74.9436 57.6972 75.1884 58.8793 75.2714 60.0993L75.423 62.3176L73.7159 62.1747C69.893 61.8552 69.2934 61.5856 69.5559 60.3069C70.3959 56.2144 70.1678 56.5023 72.3381 56.7946C73.4367 56.9425 74.5123 57.2476 74.7277 57.4724ZM86.7293 58.4218C90.7774 58.8635 94.1464 59.2756 94.2166 59.3377C94.2863 59.3998 90.3579 60.1151 85.4869 60.9275C80.6154 61.7399 76.557 62.2737 76.4672 62.1145C76.3779 61.9553 76.1492 60.7485 75.9593 59.4333L75.6138 57.042L77.4917 57.3304C78.5241 57.4886 82.6811 57.9796 86.7293 58.4218ZM58.1701 61.1296C62.813 61.6965 66.6702 62.2176 66.7424 62.288C66.814 62.3585 66.3724 65.5593 65.761 69.4013L64.6486 76.386L56.5577 68.2429C52.1082 63.7639 48.751 60.0993 49.0984 60.0993C49.4453 60.0993 53.5278 60.5632 58.1701 61.1296ZM87.6061 69.0745C82.6924 74.0105 78.5678 77.9442 78.4397 77.8156C78.1581 77.5331 76.6703 66.3411 76.6703 64.5063V63.2035L85.3799 61.7064C90.1704 60.8831 94.6405 60.1846 95.3147 60.1545C96.3123 60.1097 94.8805 61.766 87.6061 69.0745ZM56.2413 68.9059C63.2467 75.9547 63.9003 76.7542 62.8596 77.0007C59.8375 77.717 50.5871 78.9183 50.3015 78.6314C49.8889 78.2168 47.8329 61.0852 48.196 61.0852C48.3452 61.0852 51.9655 64.6044 56.2413 68.9059ZM95.4031 70.5746C94.2294 79.2358 94.0856 79.8175 93.1199 79.8175C92.5532 79.8175 89.4481 79.4867 86.2199 79.082C82.9917 78.6773 80.1321 78.3445 79.8651 78.3426C79.5982 78.3406 83.2307 74.4645 87.9383 69.7297C92.6454 64.9949 96.5326 61.1686 96.5763 61.2262C96.6204 61.2844 96.0925 65.4912 95.4031 70.5746ZM98.7667 70.858C99.3535 76.0907 99.7559 80.4302 99.6607 80.5012C99.565 80.5717 98.4203 80.5342 97.116 80.4174C94.9889 80.2266 94.7706 80.096 94.9879 79.1485C95.1214 78.5673 95.7313 74.2688 96.3437 69.5961C96.9561 64.9229 97.5115 61.1547 97.5782 61.2213C97.6445 61.2883 98.1793 65.6248 98.7667 70.858ZM45.0503 71.2287C44.3545 76.0479 43.7323 80.0235 43.6675 80.063C43.4767 80.1793 26.4225 82.786 25.8891 82.7801C25.6217 82.7776 30.0276 78.1251 35.6802 72.4414C41.3329 66.7581 46.038 62.1885 46.1361 62.2871C46.2343 62.3861 45.7456 66.4096 45.0503 71.2287ZM109.467 72.5903C118.197 81.3683 119.699 83.0798 118.54 82.9324C117.776 82.8353 113.527 82.3172 109.098 81.7814C104.669 81.2456 100.961 80.723 100.858 80.62C100.478 80.2385 98.539 62.0711 98.8781 62.0711C98.9477 62.0711 103.713 66.8045 109.467 72.5903ZM75.5231 63.2355C75.8219 63.4908 77.2591 77.4182 77.0123 77.6662C76.6904 77.9896 67.7997 76.9854 67.3964 76.5807C67.1761 76.3589 68.5902 65.9591 69.157 63.6323C69.4244 62.534 69.5721 62.4975 72.4402 62.8249C74.0923 63.0137 75.4794 63.1985 75.5231 63.2355ZM48.4021 71.6133C48.8688 75.6417 49.1823 78.9992 49.0984 79.0746C49.015 79.15 47.9752 79.3733 46.7883 79.5705L44.6298 79.9288L44.8947 78.2711C45.0405 77.3591 45.5581 73.6728 46.0449 70.0787C46.5312 66.4851 47.0699 63.7122 47.2417 63.9168C47.4134 64.1218 47.936 67.5853 48.4021 71.6133ZM65.2453 84.4719C65.5784 87.1669 65.7796 89.4439 65.6928 89.5316C65.6054 89.6189 62.3188 89.3167 58.389 88.8592L51.2437 88.0281L50.9542 86.5724C50.7947 85.7718 50.6642 84.2826 50.6642 83.2627V81.4087L56.675 80.4179C59.9807 79.8727 63.1255 79.4591 63.6628 79.499C64.5235 79.5626 64.7119 80.1551 65.2453 84.4719ZM75.0923 80.2735C76.1811 80.5623 76.1595 80.6229 74.3366 82.4114L72.4602 84.2516L70.0412 81.7843L67.6221 79.3171L70.7969 79.6469C72.5432 79.8278 74.476 80.1103 75.0923 80.2735ZM70.1776 86.5699C69.1786 87.5736 68.2703 88.2948 68.1594 88.173C68.0481 88.0512 67.8032 86.1766 67.6148 84.0076L67.2723 80.0639L69.633 82.4045L71.9941 84.745L70.1776 86.5699ZM78.3941 86.599L78.7287 90.4159L75.8725 87.5894L73.0162 84.7623L75.2051 82.5218L77.3936 80.2813L77.7262 81.5315C77.9093 82.2192 78.2101 84.4995 78.3941 86.599ZM87.0899 81.6163L93.8299 82.443L94.0738 83.9647C94.2082 84.8017 94.377 86.2529 94.4492 87.1896L94.5802 88.8927L88.2013 89.993C78.9397 91.5911 79.869 91.952 79.2022 86.5009C78.8891 83.9415 78.633 81.6123 78.633 81.3249C78.633 80.6308 79.2238 80.6511 87.0899 81.6163ZM49.6828 82.4597C49.6828 82.8289 49.8231 84.1599 49.9949 85.4174L50.3069 87.7047H48.8001C47.9713 87.7047 46.7269 87.4883 46.0346 87.2241C44.9433 86.8071 44.776 86.4511 44.776 84.5469C44.776 82.6613 44.932 82.3207 45.88 82.1373C48.2642 81.6759 49.6828 81.7962 49.6828 82.4597ZM44.0454 84.78C44.2308 85.8828 44.3005 86.8677 44.1999 86.9687C44.063 87.1062 33.9049 85.9631 28.3381 85.1837C27.5845 85.0778 40.3952 82.8989 42.1567 82.8334C43.6023 82.7791 43.7313 82.9122 44.0454 84.78ZM99.9257 83.3199C100.02 83.4268 100.245 84.5385 100.426 85.7901L100.754 88.065L98.223 88.4027C96.8314 88.5881 95.6386 88.6734 95.5723 88.592C95.5066 88.5107 95.3064 87.1398 95.1273 85.5456L94.802 82.6475L97.2779 82.8866C98.6396 83.0177 99.831 83.2129 99.9257 83.3199ZM109.546 84.2821C112.65 84.6193 115.358 85.0433 115.565 85.2237C115.861 85.482 103.096 87.754 101.572 87.7141C101.37 87.7092 101.204 86.6789 101.204 85.4248C101.204 83.2026 101.239 83.1513 102.554 83.4067C103.296 83.5506 106.442 83.9445 109.546 84.2821ZM77.948 91.0218C77.7321 91.2392 68.6447 90.1423 68.3591 89.8648C68.2414 89.7499 69.1167 88.661 70.3047 87.4449L72.4647 85.2336L75.2905 88.0429C76.845 89.5883 78.0408 90.9286 77.948 91.0218ZM34.717 86.7972C39.8446 87.3907 44.1067 87.9236 44.1882 87.9808C44.3898 88.1223 46.2637 107.078 46.093 107.25C46.0184 107.325 41.1121 102.514 35.1895 96.5596C29.267 90.6047 24.6399 85.7295 24.9078 85.725C25.1752 85.7211 29.5894 86.2032 34.717 86.7972ZM109.809 96.5596C103.887 102.514 98.9713 107.315 98.8854 107.23C98.5974 106.94 101.323 89.435 101.725 88.9938C102.078 88.6058 117.14 85.8975 119.601 85.7797C120.25 85.7487 116.96 89.3704 109.809 96.5596ZM50.069 88.9144C50.2697 89.1155 47.328 106.009 47.0429 106.295C46.9742 106.364 46.6484 103.486 46.3187 99.8974C45.9889 96.3092 45.5831 92.1743 45.4163 90.7083L45.1136 88.0424L47.4821 88.3687C48.7849 88.5482 49.9487 88.7936 50.069 88.9144ZM58.7604 89.7298C61.729 90.0536 64.5426 90.4559 65.0122 90.623C65.683 90.8621 63.917 92.8842 56.7933 100.033C51.8031 105.041 47.723 108.808 47.7265 108.404C47.7304 108 48.5032 103.469 49.4438 98.3367C50.385 93.2036 51.1548 88.9292 51.1548 88.838C51.1548 88.7463 51.6519 88.7774 52.2589 88.906C52.8659 89.0352 55.7918 89.4059 58.7604 89.7298ZM100.461 90.2927C100.298 91.1736 99.6627 95.2222 99.0498 99.2891C98.2451 104.629 97.8501 106.273 97.6268 105.205C96.9723 102.071 95.6945 90.1177 95.983 89.8283C96.2308 89.5794 98.512 89.0169 100.368 88.7473C100.583 88.7162 100.624 89.4118 100.461 90.2927ZM94.9938 91.2786C95.1469 92.1595 95.6199 95.9863 96.0459 99.782C96.4713 103.578 96.9354 107.238 97.0772 107.916C97.2632 108.803 94.9978 106.81 88.983 100.791C84.3897 96.1948 80.739 92.3261 80.871 92.1935C81.0472 92.0165 90.822 90.2306 94.403 89.7208C94.5753 89.6967 94.8412 90.3977 94.9938 91.2786ZM77.2027 91.9594L78.9623 92.2413L78.343 96.0114C78.0025 98.0853 77.4637 101.409 77.1458 103.398L76.5672 107.015L73.552 106.671C71.8935 106.481 70.4744 106.27 70.3979 106.201C70.3218 106.132 69.9367 103.329 69.5422 99.9714C69.1477 96.6138 68.7124 93.2248 68.575 92.44L68.3248 91.0134L71.8842 91.3451C73.842 91.5275 76.2351 91.8041 77.2027 91.9594ZM66.9739 98.9194C67.4048 102.648 67.6099 105.837 67.4298 106.008C67.1437 106.278 50.1112 109.395 48.9173 109.395C48.6695 109.395 52.3261 105.513 57.043 100.768C61.76 96.0233 65.7482 92.1413 65.9052 92.1413C66.0627 92.1413 66.5436 95.1917 66.9739 98.9194ZM96.0375 109.328C95.9138 109.452 91.7264 109.026 86.7322 108.383C78.2993 107.296 77.6522 107.14 77.6605 106.208C77.6654 105.656 78.1031 102.543 78.633 99.2891C79.163 96.0356 79.6007 93.1543 79.6056 92.8861C79.6105 92.6179 83.3602 96.1569 87.9383 100.75C92.5164 105.344 96.1611 109.203 96.0375 109.328ZM68.0196 108.039C68.6035 110.229 68.3905 111.45 67.47 111.188C66.998 111.054 62.968 110.785 58.5151 110.591C54.0621 110.396 50.6612 110.152 50.9571 110.047C51.4949 109.856 66.1157 107.096 67.1673 106.988C67.4734 106.956 67.8567 107.429 68.0196 108.039ZM75.1055 107.718C76.0501 107.911 76.214 108.214 76.0869 109.535C75.9382 111.077 75.8641 111.124 73.3582 111.269C70.9553 111.408 70.7816 111.342 70.7753 110.283C70.7718 109.659 70.6384 108.659 70.4789 108.062C70.209 107.051 70.3204 106.993 72.08 107.231C73.1202 107.372 74.4818 107.591 75.1055 107.718ZM86.6046 109.21C90.3142 109.675 93.2946 110.111 93.2279 110.178C92.9771 110.43 77.1124 111.482 76.8926 111.261C76.7665 111.135 76.8052 110.319 76.9785 109.449C77.2547 108.061 77.451 107.897 78.5766 108.115C79.2822 108.252 82.8951 108.745 86.6046 109.21ZM64.1427 111.791L68.5436 112.106L69.6633 121.472C70.2796 126.623 70.7281 131.12 70.6599 131.464C70.5922 131.809 65.7978 127.323 60.0058 121.496L49.4743 110.902L54.6083 111.189C57.4317 111.347 61.7222 111.618 64.1427 111.791ZM84.662 121.821C78.6693 127.841 73.6595 132.661 73.5294 132.53C73.2115 132.21 76.2164 113.198 76.6644 112.695C76.9416 112.384 85.6782 111.528 94.5787 110.939C95.2186 110.896 91.7764 114.673 84.662 121.821ZM75.4858 113.708C75.3312 114.454 74.7454 117.945 74.1835 121.468C73.2056 127.601 72.764 129.384 72.7282 127.347C72.7188 126.826 72.3219 123.241 71.8454 119.377L70.9789 112.352H73.3729C75.7257 112.352 75.762 112.376 75.4858 113.708Z" fill="black"/>
<path fill-rule="evenodd" clip-rule="evenodd" d="M63.7253 7.25429C62.433 7.67789 61.4618 8.33829 60.4155 9.50526C59.0924 10.9807 58.745 12.1958 58.6186 15.7901C58.4463 20.6911 58.9827 22.7413 60.9385 24.6565C62.7925 26.4718 65.7539 27.1113 68.2816 26.2418C70.4099 25.5099 72.4574 23.1034 72.9185 20.7924L73.0463 20.1516H71.3387H69.631L69.3893 20.8856C69.0968 21.7743 68.0028 22.7804 66.9501 23.1287C65.4059 23.6397 63.4229 22.7842 62.6817 21.2875C62.3331 20.5835 62.2773 19.9856 62.2773 16.9602C62.2773 13.8146 62.3233 13.3613 62.7201 12.5987C63.4815 11.1356 65.0944 10.3616 66.7379 10.6707C67.6522 10.8426 68.9235 11.9237 69.3141 12.8613L69.6038 13.5561H71.3222H73.0405L72.8994 12.8028C72.5028 10.6831 70.9445 8.61678 69.0364 7.68065C67.617 6.98429 65.1527 6.78665 63.7253 7.25429ZM7 16.9692V26.7649L8.64453 26.7028L10.2891 26.6407L10.3951 20.3848L10.5012 14.1289L12.2209 18.2572L13.9403 22.3855H15.7016H17.4628L19.1809 18.2668L20.8989 14.1478L21.005 20.3944L21.1111 26.6407L22.7556 26.7028L24.4001 26.7649V16.9692V7.17344H22.3164H20.2326L18.0385 12.4924C16.8317 15.4178 15.7782 17.8113 15.6971 17.8113C15.616 17.8113 14.5669 15.4178 13.3659 12.4924L11.1822 7.17344H9.09099H7V16.9692ZM27.3709 16.9602V26.7471H33.5246H39.6783V25.045V23.3429H35.2222H30.766V21.0026V18.6623H34.3734H37.9807V16.9602V15.2582H34.3734H30.766V12.9179V10.5775H35.2222H39.6783V8.87549V7.17344H33.5246H27.3709V16.9602ZM42.4369 16.9685V26.7637L44.2936 26.7022L46.1503 26.6407L46.208 22.6515L46.2657 18.6623L47.3751 18.6644L48.4845 18.6666L50.7804 22.7068L53.0764 26.7471H55.0774C56.2449 26.7471 57.0784 26.66 57.0784 26.5381C57.0784 26.4232 56.0281 24.6025 54.7443 22.4919C53.4605 20.3814 52.4101 18.6098 52.4101 18.5549C52.4101 18.5002 52.7273 18.3223 53.1152 18.16C56.8762 16.5843 57.7008 11.4101 54.6233 8.69423C53.1087 7.35726 52.1841 7.17344 46.9747 7.17344H42.4369V16.9685ZM75.2567 7.31535C75.0278 7.5447 75.098 18.8555 75.3373 20.335C75.634 22.1673 76.3512 23.4976 77.7152 24.7454C79.1664 26.0728 80.6529 26.6403 82.6482 26.6285C85.2964 26.6128 87.8642 24.9691 89.0629 22.5221L89.6507 21.3218L89.7143 14.2476L89.778 7.17344H88.0698H86.3616V13.7238C86.3616 20.0942 86.3484 20.3003 85.8842 21.2218C85.3596 22.2628 84.3549 23.0493 83.2947 23.2487C81.6046 23.5666 79.6233 22.31 79.1563 20.6239C79.0283 20.1614 78.9366 17.2013 78.936 13.503L78.9347 7.17344H77.1665C76.1938 7.17344 75.3344 7.23727 75.2567 7.31535ZM92.3031 16.9602V26.7471H94.2129H96.1227V22.7047V18.6623H97.2479H98.373L100.668 22.7047L102.963 26.7471H105.073C106.233 26.7471 107.139 26.6754 107.086 26.5875C105.188 23.4376 102.665 19.2059 102.5 18.8966C102.309 18.5385 102.401 18.4268 103.216 18.0315C105.06 17.1366 106.52 14.8759 106.52 12.9179C106.52 11.5567 105.861 10.1014 104.73 8.96804C103.096 7.3296 102.409 7.17344 96.8267 7.17344H92.3031V16.9602ZM106.945 7.36513C106.945 7.47066 108.449 10.2231 110.287 13.4819L113.629 19.407L113.735 23.0238L113.841 26.6407L115.592 26.7024L117.342 26.7643V23.3281V19.8918L120.844 13.6274C122.769 10.182 124.345 7.31705 124.345 7.26067C124.345 7.20428 123.427 7.18535 122.304 7.21897L120.264 7.27982L118.083 11.0762C116.884 13.1642 115.812 14.9629 115.702 15.0731C115.577 15.1988 114.637 13.7612 113.186 11.2254L110.87 7.17684L108.908 7.17514C107.828 7.17429 106.945 7.25961 106.945 7.36513ZM126.467 8.97868V10.7903H130.605C133.078 10.7903 134.742 10.8716 134.742 10.9926C134.742 11.1037 133.176 14.6701 131.262 18.9178L127.782 26.6407L129.705 26.7024C130.762 26.7362 131.706 26.6854 131.801 26.5896C131.897 26.4937 133.556 22.8755 135.488 18.5495L139 10.6839L138.94 8.98187L138.88 7.27982L132.674 7.22344L126.467 7.16705V8.97868ZM52.4265 11.6249C53.2494 12.45 53.25 13.3213 52.4282 14.2442L51.8094 14.9391L49.033 15.0091L46.2564 15.0793V13.0411V11.0031H49.0313H51.8062L52.4265 11.6249ZM102.364 11.6577C103.096 12.5304 103.074 13.3689 102.294 14.2442L101.676 14.9391L98.8993 15.0091L96.1227 15.0793V13.0411V11.0031H98.9684H101.814L102.364 11.6577Z" fill="black"/>
</svg>
