<svg width="140" height="140" viewBox="0 0 140 140" fill="none" xmlns="http://www.w3.org/2000/svg">
<rect x="1.5" y="1.5" width="137" height="137" fill="white" stroke="black" stroke-width="3"/>
<path fill-rule="evenodd" clip-rule="evenodd" d="M18.6748 46.9035C18.6715 47.5933 18.8431 47.7666 19.5329 47.7699C20.2227 47.7733 20.3943 47.9466 20.3909 48.6364C20.3876 49.3262 20.2143 49.4978 19.5245 49.4944C18.7691 49.4908 18.6615 49.6396 18.6563 50.6974C18.6527 51.4448 18.912 52.1686 19.3369 52.5977C19.7144 52.9789 20.0218 53.6013 20.0199 53.9807C20.0152 54.9557 18.806 54.866 17.7633 53.8127C17.0913 53.1345 16.9225 52.6097 16.9292 51.2218C16.9339 50.2647 16.7825 49.4811 16.5928 49.4801C16.4031 49.4792 16.2498 49.0904 16.2521 48.6162C16.2544 48.142 16.4115 47.7547 16.6012 47.7556C16.7909 47.7566 16.948 47.3693 16.9503 46.8951C16.9537 46.2053 17.127 46.0337 17.8168 46.037C18.5066 46.0404 18.6782 46.2137 18.6748 46.9035ZM23.54 47.7678C23.9125 47.5709 24.5597 47.5248 24.9788 47.6658C25.3975 47.8065 26.2363 47.8858 26.8425 47.8415C27.8421 47.7688 28.0235 47.9166 28.7911 49.4286L29.6373 51.0959L30.1881 49.8162C30.491 49.1123 30.7394 48.3765 30.7404 48.1806C30.7414 47.9847 31.2077 47.8269 31.7768 47.8297C32.3459 47.8325 32.8112 47.8972 32.8109 47.9737C32.8105 48.0503 32.2515 49.7159 31.5687 51.6754C30.2524 55.452 29.2539 56.785 27.7474 56.7776C27.0783 56.7744 26.9053 56.5959 26.9087 55.9113C26.9111 55.4088 27.1112 55.05 27.3882 55.0513C27.6493 55.0526 28.0581 54.8211 28.2964 54.5367C28.6524 54.1121 28.496 53.4878 27.4229 51.0468C26.1409 48.1323 26.1039 48.0883 25.5238 48.7973C25.1986 49.1952 24.6245 49.5193 24.2486 49.5175C23.3667 49.5132 23.1429 50.1391 23.1306 52.6445C23.1211 54.5918 23.081 54.6854 22.2584 54.6814C21.4182 54.6773 21.3965 54.6127 21.4035 52.1766C21.4078 50.8015 21.3198 49.328 21.2078 48.9025C21.0506 48.304 21.1894 48.0605 21.8214 47.8266C22.2824 47.6557 22.6873 47.6553 22.751 47.825C22.8129 47.9901 23.168 47.9646 23.54 47.7678ZM37.8851 47.9743C38.329 48.1328 38.9542 48.0837 39.383 47.8571C40.4667 47.2837 41.9855 48.0233 42.4392 49.3455C42.6385 49.9259 42.7969 51.3087 42.7915 52.4186C42.7817 54.4308 42.7786 54.4366 41.747 54.4316L40.7123 54.4265L40.7239 52.0326C40.7309 50.5985 40.5768 49.5396 40.3395 49.3911C39.6301 48.9479 39.0076 50.3504 38.9975 52.4146C38.9882 54.3219 38.9464 54.4179 38.1255 54.4139C37.2884 54.4098 37.2636 54.3394 37.2749 52.0158C37.287 49.5525 36.9444 48.8648 36.0644 49.5876C35.7195 49.8711 35.5568 50.6967 35.5495 52.2015C35.5392 54.3182 35.506 54.4011 34.6765 54.3971C33.846 54.393 33.8147 54.3108 33.8251 52.1735C33.831 50.9529 33.6844 49.5497 33.4992 49.0553C33.2166 48.3013 33.2703 48.117 33.8328 47.9135C34.7073 47.5963 36.9194 47.6299 37.8851 47.9743ZM47.9746 48.0753C49.125 48.6773 49.8596 50.5392 49.5285 52.0131C48.866 54.9606 45.0356 55.4237 43.6557 52.7233C43.0049 51.4494 43.0106 50.8569 43.6865 49.4502C44.5458 47.6619 46.1822 47.137 47.9746 48.0753ZM55.083 48.4573C55.8226 49.2042 55.9118 49.5968 55.8998 52.048C55.8924 53.5621 56.0297 55.1832 56.2051 55.651C56.4843 56.3964 56.4181 56.5209 55.6704 56.66C54.4742 56.8825 54.1566 56.0842 54.1661 52.8766C54.1749 49.8018 53.8507 48.9394 52.9039 49.5207C52.4344 49.8096 52.262 50.4409 52.1755 52.1902C52.0683 54.3657 52.0195 54.4817 51.2158 54.4778C50.405 54.4738 50.3699 54.3805 50.3803 52.2542C50.3862 51.0336 50.2433 49.6405 50.0629 49.1589C49.6458 48.0455 50.0938 47.7718 52.4762 47.6844C53.953 47.6299 54.3928 47.7604 55.083 48.4573ZM15.2662 48.432C15.9584 49.018 16.0011 49.1692 15.5582 49.4623C15.2727 49.6513 14.5126 49.7069 13.8693 49.5858C13.0398 49.4297 12.7695 49.4801 12.9403 49.7596C13.0727 49.9762 13.4823 50.1548 13.8506 50.1566C14.7477 50.1609 15.8938 51.3658 15.8892 52.3001C15.8843 53.32 14.5654 54.6439 13.5587 54.639C12.4488 54.6335 10.7089 53.6852 10.7118 53.0875C10.715 52.4187 12.0198 52.0691 12.6233 52.5749C13.162 53.0263 14.3252 52.7705 14.0179 52.2682C13.9143 52.0984 13.2867 51.8546 12.6233 51.7268C10.7571 51.3673 10.1472 49.6849 11.4244 48.4202C12.3255 47.5278 14.2056 47.5336 15.2662 48.432ZM45.3883 50.0914C44.6242 51.2459 45.1964 52.7239 46.4105 52.7298C47.6845 52.736 48.2714 51.3527 47.4998 50.1625C46.7878 49.0639 46.0846 49.0405 45.3883 50.0914ZM58.8765 54.7145C59.1499 55.4371 58.225 56.321 57.4938 56.0364C57.1757 55.9124 56.918 55.4403 56.9202 54.9861C56.9234 54.3329 57.1063 54.1616 57.7972 54.165C58.2776 54.1674 58.7631 54.4146 58.8765 54.7145ZM24.2691 59.6558C24.9007 59.9234 25.8618 60.73 26.405 61.4487C27.5027 62.9006 27.375 61.1417 27.5786 77.6555L27.6404 82.6683L24.1919 82.5539L20.7433 82.4391L20.5872 72.9534C20.4786 66.3586 20.2941 63.1076 19.9815 62.2862C19.5517 61.1563 19.5756 61.0705 20.5264 60.3198C21.0731 59.8882 21.8367 59.4739 22.223 59.3989C22.6097 59.3239 22.9698 59.2415 23.0234 59.2159C23.077 59.1902 23.6375 59.3882 24.2691 59.6558ZM34.7283 60.1787C35.1505 60.455 35.8451 61.2485 36.2718 61.9422C37.0298 63.1744 37.0507 63.4815 37.1619 75.1903L37.2758 87.1767L33.7775 87.1593C30.9059 87.145 30.2421 87.0441 30.0725 86.5953C29.9588 86.2946 29.8904 81.0124 29.9204 74.8566C29.9636 66.002 29.8745 63.4206 29.4941 62.4975C29.0468 61.4126 29.0657 61.281 29.7618 60.6335C31.2981 59.2045 33.0014 59.0486 34.7283 60.1787ZM121.739 59.8562C121.739 59.969 121.405 60.5247 120.997 61.0912C120.061 62.3931 119.755 64.7666 120.377 65.9099C120.634 66.381 122.726 68.5262 125.028 70.6779C129.329 74.6984 129.94 75.6089 129.929 77.9801C129.913 81.0979 128.102 83.1355 125.357 83.1221C123.957 83.1152 123.512 82.9503 122.8 82.1742C122.195 81.5149 122.008 81.0252 122.174 80.5328C122.303 80.1468 122.487 79.2654 122.582 78.574C122.779 77.1364 122.311 76.5622 117.249 72.0265C115.672 70.614 114.09 68.8779 113.732 68.1687C112.848 66.4144 112.889 63.695 113.824 62.0498C114.921 60.1199 115.963 59.6425 119.067 59.6469C120.537 59.6489 121.74 59.7431 121.739 59.8562ZM128.492 60.9008C129.722 62.2181 130.341 64.3134 129.69 64.9579C129.402 65.2438 129.301 65.2368 129.302 64.9302C129.304 64.6373 128.346 64.5116 126.028 64.5003C124.073 64.4908 122.751 64.6236 122.75 64.8292C122.749 65.0189 122.614 65.1735 122.451 65.1727C122.086 65.1709 121.684 61.895 121.961 61.1824C122.292 60.3308 123.877 59.6897 125.666 59.6836C127.154 59.6788 127.482 59.8197 128.492 60.9008ZM19.6465 59.8219C19.6457 60.0006 19.4734 60.2512 19.2637 60.3795C19.0541 60.5078 18.6238 61.1745 18.308 61.861C17.8126 62.9379 17.6997 65.1502 17.4887 77.9394L17.2439 92.7693L13.6219 92.8489L10 92.9285L10.1418 79.208C10.2287 70.8079 10.435 64.7854 10.6739 63.6766C10.94 62.4418 11.4279 61.4836 12.2065 60.6662L13.3489 59.4666L16.4985 59.482C18.2368 59.4905 19.6474 59.6429 19.6465 59.8219ZM28.5308 60.7231C28.1013 61.3715 27.7367 61.8743 27.7206 61.8401C27.7046 61.8062 27.3454 61.2722 26.9228 60.6538L26.1543 59.5291L27.7329 59.5368L29.3115 59.5445L28.5308 60.7231ZM48.6443 61.4486C47.7795 63.1741 47.7328 63.5522 47.585 70.0341C47.4204 77.2505 47.6991 79.7238 48.8634 81.3761C49.2374 81.907 49.5432 82.4338 49.5426 82.5465C49.5421 82.6597 48.2041 82.7456 46.5693 82.7376L43.5973 82.7231L42.3023 81.4154C41.5816 80.6876 40.8417 79.4992 40.6333 78.7343C40.1393 76.92 40.2008 65.5239 40.7151 63.5211C40.9415 62.6403 41.6013 61.4549 42.2354 60.7889C43.3489 59.6196 43.3724 59.6131 46.452 59.6282L49.5489 59.6433L48.6443 61.4486ZM55.6687 60.74C57.4772 62.3433 57.6446 63.3833 57.4694 71.931C57.3042 79.9807 57.1652 80.6881 55.4431 82.2311C53.6366 83.8506 49.586 82.5757 49.8398 80.4675C50.2341 77.1897 50.3359 63.8209 49.9756 62.5902C49.593 61.2818 49.6186 61.1878 50.5632 60.4391C52.0621 59.252 54.1278 59.3735 55.6687 60.74ZM68.395 71.3004L68.3386 82.8652L64.7176 82.7506L61.0966 82.636L61.0594 71.6019C61.0387 65.5328 61.098 60.3726 61.1906 60.1343C61.3111 59.8249 62.3736 59.7059 64.9055 59.7182L68.4515 59.7355L68.395 71.3004ZM76.1053 60.4489C77.683 61.4213 78.3628 62.9819 78.3742 65.6581C78.3844 68.028 77.4917 70.1521 76.2961 70.6043C75.9993 70.7163 74.2999 70.8011 72.5198 70.7924L69.283 70.7766L70.0539 69.487C71.125 67.6949 71.1414 63.9703 70.0872 61.9495C69.1082 60.0723 69.4844 59.7402 72.573 59.757C74.3758 59.7669 75.2893 59.9455 76.1053 60.4489ZM88.9146 60.2851C89.1587 60.5823 89.3012 64.5284 89.3314 71.8416L89.3776 82.9468L85.8627 82.9297C83.8502 82.9195 82.2558 82.7617 82.1326 82.56C82.0142 82.3663 81.901 77.4377 81.8812 71.608C81.8613 65.7779 81.7248 60.736 81.5782 60.4032C81.3336 59.8484 81.6108 59.7997 84.9277 59.8159C87.4789 59.8284 88.653 59.9666 88.9146 60.2851ZM100.372 70.0061L100.428 80.1208L101.375 81.5654L102.321 83.0096L99.2586 82.9947C95.7124 82.9774 94.747 82.4712 93.6671 80.0629C93.1021 78.8023 93.0394 77.6573 93.0735 69.2544L93.1118 59.8559L96.7139 59.8734L100.316 59.891L100.372 70.0061ZM110.396 69.1662C110.248 79.3647 110.037 80.5753 108.128 82.1661C106.687 83.3659 104.484 83.3544 103.054 82.1392C102.047 81.2834 102.033 81.2289 102.521 80.0782C102.911 79.1561 103.031 76.9569 103.064 70.0675C103.091 64.6412 103.246 60.9825 103.468 60.5734C103.786 59.9859 104.219 59.9101 107.179 59.9242L110.529 59.9402L110.396 69.1662ZM122.053 66.2054C122.052 66.3951 121.896 66.5496 121.707 66.5487C121.517 66.5477 121.362 66.3918 121.363 66.2021C121.364 66.0124 121.52 65.8579 121.71 65.8589C121.9 65.8598 122.054 66.0157 122.053 66.2054ZM129.296 66.2204C129.295 66.3991 129.139 66.6401 128.949 66.7564C128.758 66.8728 128.604 66.7258 128.605 66.4302C128.607 66.1346 128.763 65.8933 128.953 65.8942C129.142 65.8951 129.297 66.0418 129.296 66.2204ZM128.6 67.5967C128.599 67.7753 128.442 68.0163 128.252 68.1327C128.062 68.249 127.907 68.102 127.909 67.8064C127.91 67.5109 128.067 67.2695 128.256 67.2704C128.446 67.2714 128.6 67.418 128.6 67.5967ZM127.558 68.9712C127.557 69.1499 127.401 69.3909 127.211 69.5072C127.02 69.6236 126.866 69.4766 126.867 69.181C126.869 68.8854 127.025 68.6441 127.215 68.645C127.405 68.6459 127.559 68.7926 127.558 68.9712ZM126.344 70.3653C126.226 70.5544 125.974 70.7084 125.784 70.7074C125.595 70.7065 125.536 70.551 125.654 70.3619C125.773 70.1728 126.024 70.0188 126.214 70.0197C126.404 70.0207 126.462 70.1762 126.344 70.3653ZM76.4276 72.1542C77.6209 72.8006 78.328 74.5589 78.3222 76.867C78.3154 79.5424 77.4048 81.4629 75.757 82.2757C74.4034 82.9438 70.9372 83.0721 69.869 82.494C69.2158 82.1404 69.218 82.1055 69.9734 80.6837C70.9711 78.8061 71.0856 74.9788 70.1964 73.2286C69.8674 72.5813 69.5993 71.8988 69.6002 71.7122C69.6024 71.2504 75.4585 71.6297 76.4276 72.1542ZM116.538 72.8339C116.093 73.2746 115.646 72.9302 115.976 72.4014C116.104 72.1968 116.366 72.1277 116.559 72.248C116.794 72.3947 116.787 72.5874 116.538 72.8339ZM115.587 73.9343C115.374 74.4803 114.769 74.6481 114.771 74.1604C114.773 73.7955 115.152 73.4148 115.511 73.4166C115.663 73.4173 115.697 73.6503 115.587 73.9343ZM114.483 75.5559C114.234 75.8019 114.073 75.8215 114.074 75.6056C114.077 75.1452 114.487 74.7391 114.716 74.9707C114.813 75.0691 114.708 75.3324 114.483 75.5559ZM120.828 77.143C120.476 77.4921 120.189 76.9626 120.479 76.4988C120.698 76.148 120.78 76.1484 120.895 76.4994C120.974 76.7395 120.943 77.0291 120.828 77.143ZM114.068 76.8586C114.067 77.0483 113.911 77.2028 113.722 77.2018C113.532 77.2009 113.377 77.045 113.378 76.8553C113.379 76.6656 113.535 76.5111 113.725 76.512C113.915 76.513 114.069 76.6689 114.068 76.8586ZM120.611 79.1376C120.608 79.7095 120.913 80.7581 121.289 81.4677C121.665 82.1776 121.972 82.8362 121.971 82.9317C121.969 83.3542 116.698 83.046 115.789 82.5704C114.392 81.8393 113.018 80.057 113.023 78.9826L113.029 78.0607L116.822 78.0792L120.616 78.0978L120.611 79.1376Z" fill="black"/>
</svg>
