<svg width="140" height="140" viewBox="0 0 140 140" fill="none" xmlns="http://www.w3.org/2000/svg">
<rect x="1.5" y="1.5" width="137" height="137" fill="black" stroke="white" stroke-width="3"/>
<path fill-rule="evenodd" clip-rule="evenodd" d="M97.605 87.589V102.178H98.8182H100.031V87.589V73H98.8182H97.605V87.589ZM16.3678 75.8878C13.0065 76.6008 9.64279 78.8866 8.40132 81.3014C8.08751 81.9121 7.83072 83.3541 7.83072 84.5068C7.83072 88.0082 9.51095 90.2192 13.6256 92.1314C21.0057 95.5616 30.8311 91.2092 30.872 84.4912C30.906 78.9034 23.3321 74.4112 16.3678 75.8878ZM43.8294 76.8153C43.2778 77.0993 42.598 77.7901 42.3186 78.3507C41.6659 79.6621 41.617 89.4038 42.2563 90.8295C43.0372 92.5711 44.197 92.7503 53.9331 92.6315C63.0213 92.5206 63.0298 92.5197 63.1592 91.5959L63.2882 90.6712H54.0402C47.386 90.6712 44.6556 90.5327 44.3066 90.1781C44.0397 89.9068 43.8213 88.8005 43.8213 87.7197V85.7545L53.4255 85.6444C63.0168 85.5342 63.0298 85.533 63.158 84.617L63.2861 83.7001L53.6548 83.5896L44.0235 83.4795L43.9022 81.5771C43.6968 78.3527 43.7283 78.3425 53.9597 78.3425H62.8276V77.3151V76.2877L53.8299 76.2938C47.4256 76.298 44.5432 76.4484 43.8294 76.8153ZM91.4539 79.8836L91.337 83.4795H82.4404H73.5439L73.4266 80.089C73.3114 76.7693 73.2875 76.6986 72.2883 76.6986H71.2676L71.3949 83.8768C71.5053 90.1082 71.617 91.1516 72.243 91.7878C72.8799 92.4347 73.9471 92.5358 81.3417 92.6488C85.9497 92.719 90.3102 92.6648 91.0329 92.5275C93.2376 92.1088 93.5611 90.9014 93.5611 83.089V76.2877H92.5659C91.5934 76.2877 91.5679 76.3695 91.4539 79.8836ZM110.748 76.7578C109.055 77.7075 108.928 78.2673 108.928 84.7612V91.0226L109.993 91.8741C111.002 92.6808 111.561 92.726 120.508 92.726H129.956V91.706V90.6864L120.554 90.5759L111.152 90.4658L111.031 88.1105L110.91 85.7549L120.332 85.6448L129.754 85.5342L129.883 84.6096L130.012 83.6849H120.481H110.95V81.2631C110.95 79.434 111.106 78.7801 111.59 78.5919C111.941 78.4547 116.23 78.3425 121.121 78.3425H130.012L129.883 77.4178C129.754 76.4936 129.751 76.4932 120.655 76.3986C114.606 76.3358 111.285 76.4562 110.748 76.7578ZM24.8037 79.0929C31.4506 82.4389 29.5213 89.5703 21.5799 91.0115C15.5877 92.0989 9.85266 88.9177 9.85266 84.5068C9.85266 78.9199 18.3489 75.843 24.8037 79.0929ZM91.5392 87.7123C91.5392 88.7973 91.3208 89.9068 91.0539 90.1781C90.7086 90.529 88.2232 90.6712 82.4404 90.6712C76.6577 90.6712 74.1723 90.529 73.827 90.1781C73.5601 89.9068 73.3417 88.7973 73.3417 87.7123V85.7397H82.4404H91.5392V87.7123ZM18.3448 98.0685V100.534H11.6724H5V101.562V102.589H19.3841H33.7678L33.6388 101.664C33.5114 100.754 33.4063 100.738 26.9381 100.627L20.3668 100.514V98.0582C20.3668 95.7129 20.3215 95.6027 19.3558 95.6027C18.3897 95.6027 18.3448 95.7125 18.3448 98.0685ZM51.9091 98.0582V100.514L45.3378 100.627C38.8696 100.738 38.7644 100.754 38.637 101.664L38.5081 102.589H52.8917H67.2759V101.562V100.534H60.6034H53.931V98.0685C53.931 95.7125 53.8861 95.6027 52.9201 95.6027C51.9544 95.6027 51.9091 95.7129 51.9091 98.0582ZM105.288 101.767V103H119.644H134V101.767V100.534H119.644H105.288V101.767Z" fill="white"/>
<path fill-rule="evenodd" clip-rule="evenodd" d="M9.53254 14.4268C8.03089 15.2463 8.00669 15.4006 8.00669 24.1393C8.00669 34.9873 7.48251 34.3026 15.7156 34.2069C23.6705 34.1144 23.1649 34.823 23.0824 23.8803C23.0255 16.3419 23.0057 16.0112 22.5757 15.4151C21.6408 14.1187 21.1644 14.0257 15.4575 14.0255C10.8443 14.0251 10.187 14.0697 9.53254 14.4268ZM25.625 15.0695C25.5436 15.6438 25.4247 16.3366 25.361 16.6086C25.2452 17.1024 25.2497 17.1033 28.0774 17.1033H30.9095V25.6784V34.2535H32.638H34.3666V25.6848V17.1161L37.2238 17.0547L40.0808 16.9934L40.2426 16.0039C40.3317 15.4598 40.4576 14.7918 40.5227 14.5198L40.6406 14.0251H33.2069H25.773L25.625 15.0695ZM43.1262 15.0695C43.0448 15.6438 42.926 16.3366 42.8622 16.6086C42.7464 17.1024 42.7509 17.1033 45.5786 17.1033H48.4107V25.6784V34.2535H50.1393H51.8678V25.6848V17.1161L54.7261 17.0547L57.5842 16.9934L57.8232 15.5092L58.0621 14.0251H50.6682H43.2742L43.1262 15.0695ZM61.598 14.4103C61.1862 14.6216 60.6514 15.1409 60.4097 15.5642C59.9903 16.2988 59.9702 16.6891 59.9702 24.1393C59.9702 32.8175 59.9845 32.9116 61.4392 33.8303C62.0898 34.241 62.4608 34.2634 67.6792 34.2054C72.9174 34.1471 73.2616 34.1179 73.837 33.6841C75.0828 32.7448 75.0947 32.6544 75.0947 24.1393C75.0947 13.3859 75.5733 14.0257 67.5325 14.0257C63.0251 14.0257 62.249 14.0761 61.598 14.4103ZM78.6598 24.1268V34.2535L84.7636 34.2527C90.3545 34.252 90.9234 34.2173 91.5329 33.8389C92.6804 33.1269 92.9926 32.0996 93.0114 28.9765C93.0304 25.8352 92.7692 25.0331 91.5312 24.4324L90.8102 24.0824L91.7354 23.1765C92.626 22.3042 92.6666 22.2062 92.8167 20.5553C93.0829 17.6293 92.5514 15.2986 91.4432 14.5328C90.9275 14.1766 90.2298 14.128 84.7636 14.0675L78.6598 14V24.1268ZM97.2413 24.2492V34.4734H99.0779H100.914V24.2492V14.0251H99.0779H97.2413V24.2492ZM105.167 14.5198C105.103 14.7918 104.984 15.4815 104.904 16.0521L104.756 17.0899L107.535 17.1515L110.313 17.2133L110.37 25.7334L110.426 34.2535H112.152H113.878V25.6784V17.1033H116.664C119.81 17.1033 119.514 17.2937 119.829 15.0695L119.977 14.0251H112.63H105.283L105.167 14.5198ZM88.6927 17.3177C89.2357 17.5279 89.2469 17.5758 89.2469 19.6923C89.2469 21.0793 89.154 21.9471 88.9877 22.1165C88.8094 22.2978 87.7297 22.3803 85.5306 22.3803H82.3329V19.7418V17.1033H85.2357C86.8322 17.1033 88.3879 17.1998 88.6927 17.3177ZM19.3501 24.1393V30.8455L15.7055 30.906C13.2011 30.9473 11.9676 30.8875 11.7623 30.714C11.3518 30.3672 11.3194 17.9978 11.728 17.582C11.9203 17.3863 12.9922 17.3296 15.6711 17.3731L19.3501 17.4331V24.1393ZM71.2905 17.6246C71.4648 17.8383 71.5197 19.8029 71.4789 24.3858L71.4216 30.8455H67.5325H63.6433L63.5828 24.5791C63.5493 21.1325 63.5755 18.0899 63.6409 17.8179C63.758 17.3291 63.8038 17.3232 67.4022 17.3232C70.2237 17.3232 71.0999 17.3911 71.2905 17.6246ZM89.2037 25.7224C89.3727 25.8943 89.463 26.7974 89.463 28.3169C89.463 29.8365 89.3727 30.7395 89.2037 30.9114C89.0246 31.0937 87.9218 31.1753 85.6387 31.1753H82.3329V28.3169V25.4586H85.6387C87.9218 25.4586 89.0246 25.5401 89.2037 25.7224ZM124.519 27.6085C123.539 27.9176 122.739 28.2778 122.742 28.4086C122.744 28.5397 122.921 28.8769 123.133 29.1584C123.665 29.8618 125.002 29.7787 125.012 29.0416C125.016 28.7584 125.375 28.2371 125.876 27.7866C126.885 26.8807 126.843 26.8752 124.519 27.6085ZM129.105 30.712L127.391 31.7876L126.872 31.3716C126.586 31.1428 126.233 30.9554 126.087 30.9554C125.942 30.9554 125.029 32.4149 124.059 34.1986L122.294 37.4417L122.785 37.8507C123.27 38.2548 123.281 38.2526 123.709 37.6475C125.409 35.2425 126.257 34.2379 127.457 33.2041C128.211 32.5548 128.868 32.0645 128.918 32.1146C128.967 32.1649 128.861 32.6298 128.681 33.1476C128.303 34.2377 128.28 34.4734 128.551 34.4734C128.898 34.4734 133 30.8299 133 30.5218C133 30.2349 131.836 29.687 131.153 29.6529C130.969 29.6436 130.047 30.1203 129.105 30.712ZM120.008 32.6295C116.567 37.8375 116.549 37.8584 114.969 38.4208C112.47 39.3096 109.592 40.8669 108.801 41.7581C107.945 42.7216 106.905 44.7187 106.54 46.0955C106.183 47.4445 106.581 48.0107 108.027 48.2132C109.966 48.4845 110.183 48.3479 113.37 44.8431C114.983 43.0701 116.892 40.863 117.612 39.9386C118.854 38.3452 118.979 38.2487 120.019 38.08C121.106 37.9039 121.109 37.9013 120.306 37.8234C119.861 37.7803 119.496 37.6981 119.496 37.6409C119.496 37.5838 120.162 36.5262 120.976 35.2907C121.79 34.055 122.618 32.7234 122.817 32.3316C123.177 31.6214 123.176 31.6157 122.456 30.8173L121.735 30.0159L120.008 32.6295ZM113.172 41.9962C112.039 43.361 110.659 44.9724 110.106 45.5771C109.133 46.6386 109.103 46.6538 109.228 46.0168C109.506 44.5969 110.649 42.6418 111.86 41.5158C112.962 40.4912 114.946 39.235 115.149 39.434C115.194 39.4784 114.305 40.6314 113.172 41.9962Z" fill="white"/>
</svg>
