<svg width="146" height="146" viewBox="0 0 146 146" fill="none" xmlns="http://www.w3.org/2000/svg">
<rect x="1.5" y="1.5" width="143" height="143" fill="white" stroke="black" stroke-width="3"/>
<path fill-rule="evenodd" clip-rule="evenodd" d="M102.294 13.2045C100.601 13.4805 98.9212 14.4254 97.3632 15.9777C96.2189 17.1181 95.8684 17.625 95.3502 18.8882C94.4775 21.0154 94.3493 22.0382 94.6774 24.2579C95.0369 26.6905 95.6056 27.8109 97.4315 29.6835C98.7555 31.0412 99.082 31.266 100.547 31.8287C102.933 32.7452 105.493 32.8708 106.251 32.1083C106.964 31.392 107.705 26.6474 107.705 22.8003C107.705 18.7524 106.945 14.1621 106.142 13.355C105.733 12.9431 104.253 12.8852 102.294 13.2045ZM105.281 13.7333C104.782 14.9274 104.441 16.5217 104.229 18.6581L103.984 21.124L103.534 20.8278C103.016 20.4867 102.681 20.6171 102.681 21.1598C102.681 21.5504 103.315 22.3144 103.639 22.3144C103.741 22.3144 103.599 22.0889 103.325 21.8135C102.741 21.2262 102.945 20.7701 103.627 21.1372C103.993 21.3341 104.035 21.5267 104.035 23.0315C104.035 24.6423 104.021 24.6944 103.681 24.3852C103.486 24.2083 103.093 24.0635 102.806 24.0635C102.287 24.0635 102.286 24.0664 102.589 24.6549C102.756 24.9803 103.128 25.3503 103.415 25.477C104.145 25.7988 104.17 25.8608 104.323 27.7044C104.398 28.6089 104.529 29.5941 104.615 29.8938C104.758 30.3954 104.722 30.4482 104.161 30.5608C103.825 30.628 103.399 30.6859 103.213 30.6892C102.989 30.6933 102.874 30.849 102.874 31.1485C102.874 31.4011 103.024 31.6588 103.213 31.7309C103.484 31.8347 103.503 31.812 103.31 31.6157C103.177 31.4812 103.068 31.2466 103.068 31.0946C103.068 30.8702 103.123 30.8639 103.359 31.0614C103.53 31.2035 103.914 31.2618 104.283 31.2017C104.808 31.116 104.949 31.1749 105.127 31.5537C105.39 32.1142 105.176 32.2261 103.839 32.2261C103.035 32.2261 102.881 32.1633 102.764 31.7888C102.689 31.5484 102.485 31.1677 102.311 30.9432C102.053 30.6113 101.95 30.5821 101.759 30.7872C101.51 31.0554 101.767 31.3644 102.079 31.1708C102.247 31.0668 102.546 31.8433 102.397 31.9937C102.3 32.0907 100.377 31.3698 99.4104 30.8741C98.4335 30.3732 96.4266 28.1518 95.814 26.8934C94.8209 24.8529 94.6736 21.9321 95.4542 19.757C96.1124 17.9233 96.6087 17.1545 97.8749 16.008C99.2447 14.7675 100.086 14.2487 101.333 13.8766C102.502 13.5275 102.746 13.4995 102.604 13.7306C102.55 13.8198 102.628 13.8927 102.778 13.8927C102.928 13.8927 103.01 13.8264 102.96 13.7454C102.837 13.5456 103.366 13.4331 104.483 13.4216C105.277 13.4132 105.395 13.4595 105.281 13.7333ZM103.485 13.9574C103.485 14.2247 103.529 14.3341 103.583 14.2004C103.636 14.0668 103.636 13.8482 103.583 13.7145C103.529 13.581 103.485 13.6902 103.485 13.9574ZM103.872 13.9574C103.872 14.2247 103.916 14.3341 103.969 14.2004C104.023 14.0668 104.023 13.8482 103.969 13.7145C103.916 13.581 103.872 13.6902 103.872 13.9574ZM104.615 13.8717C104.615 14.0383 104.702 14.1207 104.808 14.0546C104.914 13.9885 105.001 13.8523 105.001 13.7516C105.001 13.6509 104.914 13.5687 104.808 13.5687C104.702 13.5687 104.615 13.7052 104.615 13.8717ZM114.476 13.6748C114.476 13.7304 114.697 14.2136 114.967 14.7484C115.746 16.2948 116.41 19.9974 116.41 22.8003C116.41 26.0841 115.734 29.4549 114.774 30.964C114.215 31.8427 114.154 32.031 114.43 32.0275C115.431 32.0149 118.332 30.0298 119.393 28.6317C119.68 28.2535 120.19 27.3114 120.527 26.5381C121.105 25.2098 121.138 25.0042 121.128 22.8003C121.12 20.855 121.045 20.2811 120.68 19.3414C120.165 18.0146 118.28 15.5503 117.329 14.9597C116.513 14.4524 114.476 13.5353 114.476 13.6748ZM6.61799 14.5984L6 15.2391V23.4412V31.6431H7.35354H8.70707V28.6307V25.6183H14.5667H20.4264L21.0443 24.9773L21.6623 24.3366V19.7682V15.1997L21.0246 14.5786L20.3871 13.9574H13.8116H7.23597L6.61799 14.5984ZM24.794 14.5984L24.176 15.2391V22.8199V30.4008L24.8138 31.0219L25.4513 31.6431H31.1746H36.8979L37.4979 30.9561L38.0981 30.269V22.8003V15.3315L37.4979 14.6444L36.8979 13.9574H31.1551H25.412L24.794 14.5984ZM40.6118 22.8003V31.6431H47.1861H53.7605V30.2826V28.9222H48.5397H43.3189V21.4398V13.9574H41.9654H40.6118V22.8003ZM51.6766 14.3947C51.8313 14.6351 53.7121 17.9851 55.8561 21.839L59.7547 28.846V30.2446V31.6431H61.2049H62.6551V30.3699V29.0969L66.2524 22.3531C68.2309 18.6441 70.0619 15.2376 70.3212 14.7834L70.7926 13.9574L69.2859 13.9596L67.7792 13.9617L64.517 19.7099L61.2548 25.4582L57.846 19.7115L54.4372 13.965L52.9164 13.9613L51.3956 13.9574L51.6766 14.3947ZM72.1299 22.8003V31.6431H73.6735H75.2173L75.2687 26.5879L75.3203 21.5325L77.6407 26.5856L79.961 31.6388L81.3329 31.6409L82.7047 31.6431L85.0068 26.6513L87.3088 21.6592L87.3604 26.6513L87.4121 31.6431H88.9557H90.4993V22.8003V13.9574L89.0007 13.9642L87.5022 13.971L84.4923 20.5235C82.8369 24.1273 81.4115 27.0594 81.3244 27.0394C81.2374 27.0192 79.8118 24.0676 78.1562 20.4801L75.1463 13.9574H73.6381H72.1299V22.8003ZM125.498 22.7917V31.6431H126.948H128.398V25.7155C128.398 22.4553 128.463 19.7916 128.543 19.7962C128.623 19.8009 130.55 22.4683 132.825 25.7238L136.961 31.6431H138.481H140V22.8003V13.9574H138.552H137.105L137.054 20.196L137.003 26.4346L132.652 20.2446L128.302 14.0546L126.9 13.9975L125.498 13.9403V22.7917ZM102.177 14.6536C102.242 14.8227 102.294 15.085 102.294 15.2366C102.294 15.3882 102.366 15.5122 102.454 15.5122C102.542 15.5122 102.576 15.2498 102.529 14.9292C102.482 14.6085 102.357 14.3461 102.252 14.3461C102.146 14.3461 102.112 14.4845 102.177 14.6536ZM100.947 14.825C100.645 15.1898 100.831 16.3444 101.246 16.6907C101.486 16.8911 101.596 16.8806 101.841 16.6346C102.209 16.264 102.048 15.3114 101.538 14.8472C101.228 14.5653 101.163 14.563 100.947 14.825ZM102.81 14.6701C102.739 14.7412 102.681 14.8662 102.681 14.9476C102.681 15.1661 103.257 15.7066 103.49 15.7066C103.6 15.7066 103.485 15.5392 103.234 15.3346C102.63 14.8421 102.908 14.5918 103.594 15.0116L104.131 15.341L103.675 14.9406C103.19 14.5156 103.017 14.4616 102.81 14.6701ZM99.7973 15.0263C99.8031 15.2401 99.8826 15.5899 99.974 15.8037C100.126 16.1598 100.141 16.1516 100.151 15.7066C100.157 15.4393 100.077 15.0895 99.974 14.9292C99.8193 14.6886 99.7884 14.7055 99.7973 15.0263ZM101.693 15.534C101.813 15.8811 101.833 16.2638 101.739 16.4323C101.603 16.6777 101.524 16.6513 101.258 16.27C100.869 15.7106 100.841 14.9292 101.212 14.9292C101.361 14.9292 101.578 15.2013 101.693 15.534ZM107.04 20.2737C107.292 25.7306 107.221 26.928 106.549 28.6299C106.229 29.4376 105.968 30.2885 105.968 30.5209C105.968 32.0592 104.9 27.9763 104.736 25.8126C104.684 25.1178 104.716 22.8877 104.808 20.8568C104.948 17.7635 105.046 16.9793 105.41 16.0257L105.844 14.8872L106.366 15.9285C106.846 16.8859 106.9 17.2359 107.04 20.2737ZM105.524 16.5125C105.143 17.5229 104.796 23.9753 105.008 26.1042C105.159 27.615 105.601 29.6996 105.771 29.6996C105.831 29.6996 106.118 29.0584 106.408 28.2748C106.892 26.9673 106.934 26.6275 106.924 24.1449C106.906 19.9202 106.668 17.2829 106.224 16.414L105.843 15.6663L105.524 16.5125ZM102.617 16.2249C102.38 16.4624 102.484 16.6785 102.826 16.6629C103.03 16.6536 103.068 16.6085 102.922 16.5492C102.788 16.495 102.728 16.3708 102.788 16.2731C102.915 16.0665 102.805 16.0356 102.617 16.2249ZM98.1506 16.462C98.0924 16.5566 98.1674 16.7366 98.3173 16.8618C98.5402 17.0476 98.571 17.0161 98.4861 16.6894C98.3712 16.248 98.3084 16.2055 98.1506 16.462ZM18.795 16.8056C19.1043 17.087 19.1486 17.4561 19.1486 19.754C19.1486 21.9257 19.0931 22.4425 18.8286 22.7363C18.5355 23.0618 18.118 23.0918 13.8648 23.0918C9.81504 23.0918 9.17578 23.0506 8.86737 22.7701C8.55799 22.4887 8.51371 22.1196 8.51371 19.8217C8.51371 17.65 8.5692 17.1333 8.83372 16.8394C9.12686 16.5139 9.54433 16.4839 13.7975 16.4839C17.8473 16.4839 18.4866 16.5252 18.795 16.8056ZM35.137 16.9065C35.584 17.3288 35.5844 17.3338 35.5844 22.773C35.5844 29.762 36.0436 29.1166 31.0702 29.1166C27.9236 29.1166 27.3462 29.0705 27.0434 28.7949C26.7162 28.4974 26.6898 28.0504 26.6898 22.8341C26.6898 17.8593 26.7275 17.1529 27.0098 16.8394C27.2985 16.5187 27.6902 16.4839 31.0097 16.4839C34.5215 16.4839 34.7098 16.5032 35.137 16.9065ZM101.811 17.067C101.745 17.1739 101.876 17.2613 102.101 17.2613C102.326 17.2613 102.457 17.1739 102.391 17.067C102.325 16.9601 102.195 16.8726 102.101 16.8726C102.007 16.8726 101.877 16.9601 101.811 17.067ZM96.8955 17.3746C96.9048 17.6011 96.9506 17.6471 97.0123 17.4922C97.0682 17.3519 97.0612 17.1842 96.997 17.1197C96.9328 17.0551 96.8872 17.1698 96.8955 17.3746ZM97.498 17.5529C97.5019 17.8735 97.5452 17.9812 97.5943 17.7921C97.6434 17.603 97.6401 17.3406 97.5872 17.2091C97.5342 17.0775 97.4942 17.2322 97.498 17.5529ZM101.137 17.2775C101.142 17.7649 101.368 18.4274 101.53 18.4274C101.616 18.4274 101.609 18.1532 101.513 17.818C101.317 17.1296 101.133 16.8655 101.137 17.2775ZM102.704 17.316C102.691 17.5064 102.802 17.7087 102.949 17.7657C103.097 17.8226 103.271 18.1367 103.336 18.4638C103.436 18.9656 103.5 19.0206 103.745 18.8161C103.904 18.683 104.028 18.4756 104.019 18.3551C104.01 18.2173 103.968 18.2263 103.907 18.3788C103.725 18.8297 103.455 18.6259 103.455 18.0387C103.455 17.4516 103.725 17.2477 103.907 17.6986C103.967 17.8483 104.01 17.8152 104.019 17.6129C104.041 17.1519 103.737 17.0165 103.453 17.3606C103.137 17.7433 102.923 17.7262 102.814 17.3099C102.732 16.9912 102.725 16.9916 102.704 17.316ZM99.2209 17.8879C99.0627 18.3062 99.2135 19.8656 99.4336 20.0868C99.4825 20.1359 99.4827 19.6952 99.4342 19.1075C99.3007 17.4905 99.986 17.7804 100.493 19.5558L100.754 20.4681L100.644 19.5945C100.527 18.6659 100.03 17.6366 99.6351 17.5041C99.5038 17.4602 99.3174 17.6327 99.2209 17.8879ZM100.764 17.65C100.77 17.8104 100.849 18.1165 100.941 18.3303L101.107 18.7189L101.118 18.3303C101.124 18.1165 101.044 17.8104 100.941 17.65C100.774 17.391 100.755 17.391 100.764 17.65ZM101.974 17.7556C101.911 17.9206 101.914 18.1101 101.98 18.1767C102.047 18.2434 102.101 18.147 102.101 17.9625C102.101 17.7585 102.188 17.6813 102.324 17.7657C102.463 17.8518 102.495 17.8191 102.409 17.6802C102.224 17.378 102.111 17.3976 101.974 17.7556ZM97.0889 18.152C97.0982 18.3785 97.144 18.4245 97.2057 18.2696C97.2615 18.1293 97.2546 17.9616 97.1904 17.897C97.1262 17.8325 97.0806 17.9472 97.0889 18.152ZM97.669 18.5407C97.6782 18.7671 97.7241 18.8132 97.7857 18.6583C97.8416 18.518 97.8347 18.3503 97.7705 18.2857C97.7063 18.2212 97.6606 18.3359 97.669 18.5407ZM101.328 19.0868C101.328 19.2357 101.47 19.4126 101.645 19.48C101.896 19.5768 101.916 19.5469 101.743 19.3372C101.623 19.1912 101.581 19.0144 101.651 18.944C101.721 18.8737 101.677 18.8161 101.553 18.8161C101.429 18.8161 101.328 18.938 101.328 19.0868ZM106.389 22.5602C106.411 24.4528 106.343 25.311 106.133 25.8086L105.847 26.4847L105.589 25.2644C105.335 24.0629 105.405 20.6887 105.712 19.302L105.841 18.7189L106.1 19.3535C106.264 19.7572 106.369 20.9236 106.389 22.5602ZM96.6345 19.6075C96.6863 19.8065 96.8715 20.0774 97.0461 20.2094C97.3134 20.4113 97.3253 20.4063 97.1219 20.1769C96.5987 19.5871 97.1695 19.329 97.7366 19.8988C97.9037 20.0669 98.0404 20.1157 98.0404 20.0075C98.0404 19.7626 97.7964 19.6075 97.0906 19.404C96.6116 19.266 96.5525 19.2923 96.6345 19.6075ZM103.068 19.7641C103.068 19.9647 103.197 20.237 103.356 20.369C103.589 20.5635 103.666 20.5491 103.764 20.2932C103.886 19.9729 103.548 19.3992 103.238 19.3992C103.144 19.3992 103.068 19.5634 103.068 19.7641ZM105.689 21.3347C105.523 23.4706 105.722 25.8593 106.021 25.3217C106.255 24.9019 106.229 19.9717 105.991 19.7334C105.901 19.6423 105.765 20.3623 105.689 21.3347ZM101.242 20.2737C101.317 20.5944 101.464 20.9442 101.571 21.0511C101.7 21.1808 101.719 21.0511 101.629 20.6624C101.554 20.3418 101.406 19.9919 101.3 19.885C101.171 19.7554 101.152 19.885 101.242 20.2737ZM101.717 20.128C101.719 20.3221 101.782 20.3847 101.865 20.2737C101.944 20.1668 102.088 20.0139 102.184 19.9336C102.28 19.8534 102.214 19.7879 102.037 19.7879C101.857 19.7879 101.716 19.9389 101.717 20.128ZM97.6053 20.4996C97.7384 20.5536 97.9559 20.5536 98.0887 20.4996C98.2218 20.4457 98.1129 20.4016 97.847 20.4016C97.5812 20.4016 97.4725 20.4457 97.6053 20.4996ZM99.5873 20.5538C99.5873 20.6545 99.6734 20.7901 99.7785 20.8554C99.888 20.9234 99.9205 20.8455 99.8545 20.6725C99.7259 20.3359 99.5873 20.2743 99.5873 20.5538ZM100.99 22.0229C100.992 22.4504 101.031 22.6024 101.078 22.3606C101.124 22.1189 101.122 21.769 101.074 21.5832C101.025 21.3974 100.987 21.5953 100.99 22.0229ZM101.586 22.7031C101.586 23.5048 101.62 23.8328 101.662 23.4319C101.703 23.0311 101.703 22.3752 101.662 21.9743C101.62 21.5735 101.586 21.9014 101.586 22.7031ZM97.7024 22.6059C97.7045 23.0335 97.7442 23.1854 97.7904 22.9437C97.8366 22.7019 97.8349 22.3521 97.7865 22.1663C97.7382 21.9805 97.7003 22.1783 97.7024 22.6059ZM98.2367 22.5249C98.2384 22.7833 98.3252 23.1258 98.4298 23.2861C98.5636 23.4912 98.5832 23.3759 98.4958 22.8974C98.3428 22.0592 98.2328 21.9012 98.2367 22.5249ZM98.651 22.5087C98.651 22.776 98.6949 22.8854 98.7485 22.7517C98.8022 22.6181 98.8022 22.3995 98.7485 22.2658C98.6949 22.1323 98.651 22.2415 98.651 22.5087ZM100.416 22.9946C100.418 23.5291 100.455 23.7246 100.5 23.4292C100.544 23.1338 100.543 22.6965 100.497 22.4574C100.451 22.2184 100.415 22.4601 100.416 22.9946ZM102.101 22.3259C102.101 22.439 102.188 22.4776 102.294 22.4116C102.401 22.3455 102.488 22.253 102.488 22.2057C102.488 22.1585 102.401 22.12 102.294 22.12C102.188 22.12 102.101 22.2127 102.101 22.3259ZM99.0345 22.6059C99.0345 22.8197 99.1091 23.1695 99.2006 23.3833L99.3667 23.772V23.3833C99.3667 23.1695 99.292 22.8197 99.2006 22.6059L99.0345 22.2172V22.6059ZM99.8406 23.3833C99.8416 24.0246 99.8777 24.2635 99.9208 23.9143C99.9638 23.565 99.963 23.0403 99.9189 22.7482C99.8746 22.4561 99.8394 22.7419 99.8406 23.3833ZM96.9179 22.9946C96.9218 23.3153 96.9651 23.4229 97.0142 23.2338C97.0633 23.0447 97.0601 22.7824 97.0071 22.6508C96.9541 22.5192 96.9141 22.6739 96.9179 22.9946ZM100.809 24.2579C100.809 24.9527 100.845 25.237 100.887 24.8895C100.93 24.542 100.93 23.9737 100.887 23.6262C100.845 23.2787 100.809 23.5631 100.809 24.2579ZM102.135 23.4158C102.17 23.594 102.328 23.7755 102.488 23.8192C102.726 23.8845 102.73 23.8655 102.511 23.7114C102.365 23.6083 102.305 23.4266 102.378 23.3079C102.451 23.1889 102.412 23.0918 102.292 23.0918C102.171 23.0918 102.101 23.2375 102.135 23.4158ZM96.3527 24.0635C96.3527 24.5445 96.3904 24.7412 96.4367 24.5008C96.4827 24.2604 96.4827 23.8666 96.4367 23.6262C96.3904 23.3858 96.3527 23.5825 96.3527 24.0635ZM97.0889 24.1768C97.0982 24.4032 97.144 24.4493 97.2057 24.2944C97.2615 24.1541 97.2546 23.9864 97.1904 23.9218C97.1262 23.8573 97.0806 23.972 97.0889 24.1768ZM103.799 25.0034C103.897 25.3 103.404 25.2951 103.106 24.9964C102.979 24.8681 102.874 24.6388 102.874 24.4868C102.874 24.2501 102.935 24.2511 103.299 24.4938C103.532 24.6495 103.757 24.8788 103.799 25.0034ZM100.22 25.2296C100.22 25.7106 100.258 25.9073 100.304 25.6669C100.35 25.4265 100.35 25.0327 100.304 24.7923C100.258 24.5519 100.22 24.7486 100.22 25.2296ZM101.714 24.8409C101.714 25.0827 101.842 25.2284 102.053 25.2267C102.32 25.2244 102.335 25.1882 102.125 25.0539C101.978 24.9606 101.918 24.7871 101.991 24.6683C102.064 24.5494 102.032 24.4522 101.919 24.4522C101.807 24.4522 101.714 24.6271 101.714 24.8409ZM101.271 25.2296C101.327 25.4434 101.441 25.6183 101.525 25.6183C101.609 25.6183 101.632 25.4434 101.577 25.2296C101.521 25.0158 101.407 24.8409 101.323 24.8409C101.239 24.8409 101.216 25.0158 101.271 25.2296ZM96.4115 25.9411C96.3452 26.1149 96.3367 26.3028 96.3922 26.3588C96.4479 26.4147 96.4935 26.3584 96.4935 26.2338C96.4935 25.7942 97.0856 26.0134 97.2789 26.5245C97.5469 27.2331 97.2126 27.5353 96.806 26.9519C96.6341 26.7053 96.4935 26.604 96.4935 26.7271C96.4935 26.8499 96.7228 27.1319 97.003 27.3532C97.5787 27.8084 98.0129 27.8997 97.679 27.4953C97.5607 27.3519 97.5089 27.189 97.5641 27.1336C97.749 26.9476 97.29 26.033 96.9089 25.828C96.6142 25.6696 96.5059 25.6941 96.4115 25.9411ZM101.803 25.8249C101.616 26.1298 102.291 26.7885 102.759 26.758C103.153 26.7321 103.153 26.7292 102.744 26.6491C102.126 26.5282 101.755 26.0288 102.113 25.8008C102.288 25.69 102.305 25.6232 102.161 25.6212C102.034 25.6197 101.873 25.7112 101.803 25.8249ZM102.488 25.8861C102.488 25.9263 102.64 26.0795 102.826 26.2262C103.133 26.4678 103.14 26.461 102.899 26.1528C102.646 25.829 102.488 25.7262 102.488 25.8861ZM101.244 26.9111C101.318 27.3223 101.413 27.7207 101.456 27.7962C101.587 28.029 102.101 27.7318 102.101 27.423C102.101 27.2438 101.989 27.1746 101.811 27.2434C101.603 27.3237 101.521 27.2234 101.521 26.887C101.521 26.6293 101.428 26.3611 101.315 26.2909C101.175 26.2039 101.152 26.4017 101.244 26.9111ZM98.9115 26.5885C98.8463 26.6946 98.8867 26.935 99.0016 27.1229C99.1928 27.4362 99.2058 27.4323 99.1571 27.0759C99.1205 26.8083 99.2085 26.6956 99.4402 26.7138C99.6252 26.7284 99.7288 26.6629 99.6704 26.5681C99.5281 26.3364 99.0586 26.349 98.9115 26.5885ZM100.477 26.7519C100.423 26.8411 100.501 26.914 100.651 26.914C100.801 26.914 100.879 26.8411 100.824 26.7519C100.77 26.6629 100.691 26.59 100.651 26.59C100.61 26.59 100.532 26.6629 100.477 26.7519ZM100.699 27.9501C101.269 28.5926 100.795 29.2421 100.167 28.6793C99.9348 28.4711 99.9346 28.4873 100.165 28.792C100.335 29.0172 100.598 29.1164 100.881 29.0619C101.13 29.0141 101.329 29.0717 101.33 29.1922C101.332 29.3189 101.4 29.3018 101.496 29.1508C101.705 28.819 102.239 29.3148 102.41 29.9989C102.51 30.3987 102.565 30.4267 102.797 30.1936C103.155 29.8341 103.144 29.4343 102.78 29.5748C102.587 29.6493 102.452 29.5282 102.372 29.2069C102.279 28.8324 102.153 28.7459 101.798 28.8107C101.481 28.8684 101.311 28.7858 101.232 28.5366C101.17 28.3405 100.97 28.0669 100.788 27.9289C100.508 27.7159 100.494 27.7192 100.699 27.9501ZM101.618 28.3392C101.552 28.4461 101.585 28.5335 101.691 28.5335C101.798 28.5335 101.939 28.4461 102.004 28.3392C102.07 28.2323 102.037 28.1448 101.93 28.1448C101.824 28.1448 101.683 28.2323 101.618 28.3392ZM98.141 29.1651C98.5561 29.6728 98.9268 30.0883 98.9647 30.0883C99.1031 30.0883 98.2632 29.0085 97.8308 28.6307C97.5862 28.4169 97.7258 28.6575 98.141 29.1651ZM98.7193 29.1898C98.9022 29.4703 99.0882 29.6996 99.1329 29.6996C99.2729 29.6996 98.8225 28.9506 98.5994 28.812C98.4826 28.7393 98.5366 28.9094 98.7193 29.1898ZM103.261 29.3237C103.261 29.6561 103.645 30.2826 103.848 30.2826C104.112 30.2826 104.08 29.6287 103.803 29.3498C103.515 29.061 103.261 29.0487 103.261 29.3237ZM101.038 29.6996C101.103 29.8065 101.244 29.8939 101.35 29.8939C101.457 29.8939 101.49 29.8065 101.424 29.6996C101.358 29.5927 101.218 29.5053 101.111 29.5053C101.005 29.5053 100.972 29.5927 101.038 29.6996ZM100.554 29.7927C100.554 30.1316 101.022 31.2544 101.163 31.2544C101.242 31.2544 101.213 30.9702 101.098 30.6228C100.886 29.9843 100.554 29.4778 100.554 29.7927ZM104.711 30.8657C104.646 30.9726 104.374 31.06 104.108 31.06C103.835 31.06 103.677 30.9755 103.745 30.8657C103.81 30.7588 104.082 30.6713 104.347 30.6713C104.621 30.6713 104.779 30.7559 104.711 30.8657ZM103.841 31.7517C103.841 31.9183 103.93 31.9997 104.038 31.9327C104.146 31.8654 104.184 31.7292 104.123 31.6297C103.957 31.3601 103.841 31.4103 103.841 31.7517Z" fill="black"/>
<path fill-rule="evenodd" clip-rule="evenodd" d="M53.4152 39.7429C41.8819 41.0772 33.4148 46.0846 30.7738 53.1324C30.2364 54.5666 29.7966 56.1374 29.7966 56.6232C29.7966 57.2955 29.3181 57.5857 27.7912 57.8401C22.7701 58.6764 16.8492 63.418 14.5814 68.4183C12.8827 72.1644 12.3684 75.4978 12.8894 79.3828C13.4009 83.1953 13.9458 84.5301 16.442 88.0835C18.6494 91.2251 20.9398 93.0164 25.078 94.836C27.3212 95.8225 28.3768 95.9747 32.8637 95.9597C37.865 95.9427 38.1858 95.8781 41.6686 94.2004C44.0553 93.0508 45.9069 91.7518 47.1196 90.3761L48.9565 88.2927L52.7064 90.8755C54.7694 92.296 58.2617 94.4336 60.4676 95.6251C62.6736 96.8166 64.5629 97.8588 64.6662 97.9408C64.7701 98.0233 64.1401 99.8433 63.2662 101.986C61.8242 105.524 61.6798 106.314 61.6916 110.593C61.7138 118.527 63.0086 122.288 67.7673 128.244C70.7745 132.007 73.0238 133.687 77.7231 135.682C82.6791 137.786 85.4706 138.253 90.9027 137.887C95.986 137.544 98.3147 136.931 102.633 134.803C106.082 133.103 107.746 131.714 110.622 128.136C114.697 123.066 115.966 119.736 116.52 112.658L116.855 108.363L120.384 107.469C127.487 105.671 132.687 102.474 135.416 98.2282C140.214 90.7634 138.548 81.6966 130.461 71.2452L128.451 68.6463L129.69 66.146C131.448 62.5987 131.481 57.5033 129.77 53.8198C128.449 50.9769 125.794 48.3131 122.657 46.6824C121.006 45.8245 119.843 45.6271 116.383 45.6162C111.633 45.6016 109.442 46.3757 106.029 49.2733L104.167 50.8535L99.7001 48.7833C89.5626 44.085 76.8478 40.6452 66.13 39.7005C60.0085 39.1611 58.399 39.1662 53.4152 39.7429ZM67.1322 41.8028C72.2382 42.1514 80.5113 43.857 86.6559 45.8268C91.4916 47.3774 101.897 51.6549 102.645 52.4003C102.887 52.641 102.722 53.6648 102.253 54.8347C101.341 57.1108 101.218 61.3158 101.98 64.1417C102.464 65.9368 105.07 69.8346 106.673 71.1618C107.083 71.5005 108.586 72.3199 110.013 72.9818C113.678 74.6817 118.811 74.6294 122.779 72.8518C124.315 72.1639 125.812 71.3102 126.107 70.9554C126.402 70.6002 126.81 70.31 127.013 70.31C127.753 70.31 132.207 76.8419 133.945 80.4773C135.642 84.025 135.73 84.441 135.73 88.9202C135.73 93.0121 135.575 93.9342 134.554 95.9295C132.452 100.038 128.11 103.13 121.642 105.121C118.078 106.218 116.147 106.389 116.147 105.607C116.147 104.473 113.209 97.8701 111.69 95.5926C109.722 92.6409 103.784 87.9723 100.143 86.5141C95.9705 84.8434 90.4525 84.2276 85.4234 84.8717C78.0176 85.8201 74.2705 87.6882 68.5473 93.2854L65.5293 96.2376L61.9365 94.2734C59.9608 93.1931 56.4974 91.0719 54.24 89.5591L50.1357 86.8091L51.0365 84.776C52.4106 81.6745 53.0934 76.4179 52.4889 73.6019C51.6896 69.8817 49.4171 65.3921 47.2895 63.3304C43.1994 59.3671 39.6156 57.7421 34.4006 57.4863C32.91 57.4133 31.6893 57.2328 31.6874 57.0858C31.6855 56.9384 32.0073 55.7313 32.4022 54.4031C33.916 49.3133 40.0459 44.6282 47.7274 42.6904C50.8563 41.9012 59.0912 41.1276 61.6473 41.383C62.4258 41.4607 64.8942 41.6497 67.1322 41.8028ZM117.563 47.1997C117.563 47.7128 117.988 48.3597 118.507 48.6372C119.183 48.9986 119.45 48.9953 119.45 48.6259C119.45 48.3423 119.695 48.2612 119.993 48.4459C120.383 48.6862 120.337 48.9275 119.832 49.2983C119.443 49.5824 118.971 50.6405 118.782 51.6497C118.383 53.7779 117.747 54.5322 116.265 54.6321C115.442 54.6877 115.204 54.4521 115.204 53.5829C115.204 52.9666 115.439 52.3169 115.726 52.1397C116.081 51.9202 116.147 52.1751 115.931 52.9364C115.686 53.7991 115.727 53.8938 116.109 53.3487C116.519 52.7645 116.606 52.7579 116.612 53.3096C116.616 53.6766 116.736 53.8603 116.878 53.7185C117.02 53.5762 116.998 52.9049 116.827 52.2264C116.601 51.326 116.212 50.993 115.389 50.993C114.768 50.993 114.26 50.7809 114.26 50.5218C114.26 50.2627 114.472 50.0507 114.732 50.0507C114.991 50.0507 115.204 49.8509 115.204 49.6064C115.204 49.3623 114.768 49.2464 114.235 49.3487C113.441 49.5013 113.313 49.3482 113.523 48.4973C113.664 47.9263 113.657 47.7255 113.507 48.0511C113.358 48.3767 113.025 48.5133 112.768 48.3546C112.489 48.1821 112.362 48.6089 112.454 49.4118C112.542 50.1774 112.893 50.7574 113.268 50.7574C113.958 50.7574 114.642 52.053 114.699 53.4665C114.717 53.9197 114.497 54.291 114.209 54.291C113.922 54.291 113.811 53.9682 113.963 53.5734C114.185 52.9944 114.064 52.9487 113.336 53.3378C112.84 53.6031 112.339 53.8198 112.222 53.8198C111.748 53.8198 111.571 51.9814 112.004 51.5494C112.31 51.2441 112.311 50.7993 112.006 50.2561C111.579 49.4942 111.498 49.5122 110.978 50.4832C110.522 51.3331 110.557 51.8415 111.156 53.1032C111.565 53.9645 111.891 55.1668 111.88 55.7756C111.864 56.6203 111.707 56.4554 111.215 55.0806C110.861 54.0893 110.446 53.1532 110.292 52.9996C109.811 52.5185 109.989 55.2493 110.501 56.2067C110.838 56.8347 110.838 57.1179 110.501 57.1179C110.233 57.1179 110.013 56.9058 110.013 56.6467C110.013 56.3876 109.801 56.1756 109.541 56.1756C109.282 56.1756 109.069 56.7056 109.069 57.3534C109.069 58.3414 109.292 58.5313 110.45 58.5313C111.356 58.5313 111.917 58.2472 112.082 57.7068C112.219 57.2536 112.219 58.1011 112.082 59.5914C111.919 61.3596 112.008 62.3005 112.338 62.3005C112.617 62.3005 112.844 62.6185 112.844 63.0072C112.844 63.3959 113.15 63.7139 113.525 63.7139C113.9 63.7139 114.515 64.1535 114.892 64.6906C115.32 65.3017 115.694 65.4784 115.89 65.1617C116.337 64.4385 116.945 64.5379 117.271 65.3874C117.432 65.8067 117.353 65.9957 117.086 65.8308C116.829 65.6725 116.614 65.8204 116.609 66.1596C116.603 66.4988 116.183 67.3064 115.675 67.9542C115.168 68.6021 114.748 69.5034 114.742 69.9566C114.731 70.8678 114.22 71.0242 113.525 70.3297C113.272 70.0777 112.791 70.0518 112.436 70.2708C111.992 70.5446 111.958 70.7609 112.322 70.9856C112.609 71.1627 112.851 71.0303 112.858 70.6911C112.867 70.3151 113.063 70.3999 113.359 70.9088C113.627 71.3677 114.023 71.6339 114.24 71.5005C114.456 71.3667 114.76 71.5877 114.915 71.9915C115.07 72.3952 115.421 72.587 115.695 72.4179C116.04 72.2054 116.027 71.9104 115.654 71.4619C114.732 70.3533 115.351 69.7587 116.552 70.5983C117.418 71.2047 117.52 71.4605 117.021 71.7766C116.593 72.0475 116.568 72.1823 116.945 72.1875C117.861 72.1992 118.232 71.1505 117.51 70.5917C116.705 69.9693 116.33 67.0119 117.056 67.0119C117.512 67.0119 117.786 68.0235 117.607 69.0492C117.57 69.2631 117.793 69.281 118.103 69.0897C118.484 68.8546 118.572 68.9884 118.375 69.5019C118.182 70.0042 118.289 70.1827 118.691 70.0292C119.026 69.901 119.598 70.1766 119.965 70.6416C120.579 71.4228 120.563 71.4355 119.758 70.8032C118.972 70.1856 118.896 70.2087 118.987 71.0388C119.205 73.0464 119.066 73.1368 115.751 73.1368C111.439 73.1368 107.668 71.3272 105.237 68.0908C103.121 65.2743 102.464 63.3568 102.461 59.9923C102.458 56.275 103.733 53.0259 106.146 50.6019C108.367 48.3701 111.951 46.5326 113.362 46.9011C113.855 47.0301 114.349 46.9896 114.459 46.8115C114.57 46.633 115.313 46.4379 116.111 46.3771C117.281 46.2881 117.563 46.4478 117.563 47.1997ZM121.102 47.4019C121.102 47.6294 120.428 47.8683 119.605 47.9333C118.582 48.0134 118.179 47.8678 118.331 47.4721C118.581 46.8219 121.102 46.7583 121.102 47.4019ZM110.896 48.5194C110.31 49.2667 110.326 49.2832 111.075 48.6975C111.861 48.0817 112.11 47.6949 111.722 47.6949C111.624 47.6949 111.253 48.0662 110.896 48.5194ZM115.302 48.0134C114.834 48.201 114.82 48.4111 115.242 48.9185C116.024 49.8594 116.572 49.7359 116.489 48.6372C116.416 47.6587 116.317 47.6068 115.302 48.0134ZM116.226 49.9922C115.719 50.3131 115.742 50.4464 116.344 50.6768C117.217 51.0113 118.507 50.608 118.507 50.0003C118.507 49.4697 117.059 49.465 116.226 49.9922ZM119.837 54.372C119.646 55.6667 118.507 56.1016 118.507 54.8799C118.507 53.9023 118.888 53.3487 119.562 53.3487C119.796 53.3487 119.92 53.809 119.837 54.372ZM117.086 56.1756C117.305 56.1756 117.586 55.9108 117.711 55.5866C117.837 55.263 117.914 55.4802 117.885 56.0696C117.853 56.7212 117.601 57.0524 117.241 56.9143C116.369 56.5803 115.976 57.5216 116.65 58.3325C117.115 58.8922 117.104 59.2941 116.595 60.3141C116.243 61.018 115.86 61.7855 115.743 62.0202C115.625 62.2543 115.752 62.3085 116.024 62.1408C116.324 61.9561 116.492 62.2981 116.451 63.01C116.36 64.5822 115.233 64.5168 113.775 62.8545C112.795 61.737 112.601 61.0166 112.564 58.3494L112.519 55.1753L114.333 55.4811C115.674 55.7077 116.161 55.6229 116.202 55.157C116.232 54.8102 116.354 54.8978 116.472 55.3511C116.591 55.8043 116.867 56.1756 117.086 56.1756ZM113.631 56.4898C113.06 57.0594 113.303 58.4253 114.024 58.7019C114.455 58.8668 114.732 58.7023 114.732 58.2811C114.732 57.9004 114.937 57.589 115.189 57.589C115.44 57.589 115.507 57.2286 115.338 56.7885C115.145 56.2877 114.96 56.1991 114.842 56.553C114.738 56.8635 114.446 57.1179 114.193 57.1179C113.939 57.1179 113.863 56.9058 114.024 56.6467C114.354 56.1134 114.106 56.0144 113.631 56.4898ZM29.581 58.97C29.4314 59.2112 29.5253 59.5414 29.7891 59.7044C30.0528 59.867 30.2685 59.6696 30.2685 59.2658C30.2685 58.676 30.8725 58.5313 33.3356 58.5313C35.0225 58.5313 36.4027 58.7066 36.4027 58.9209C36.4027 59.1353 37.0147 59.2206 37.7626 59.1113C39.0866 58.9172 40.1502 59.6837 39.4523 60.3297C39.2612 60.5064 39.0069 60.3777 38.8875 60.0427C38.7162 59.5631 38.5242 59.5551 37.9806 60.006C37.6012 60.3202 36.7967 60.6303 36.1927 60.6943C35.3188 60.7876 35.1433 60.627 35.332 59.907C35.6038 58.87 35.1806 58.7344 34.3468 59.5914C33.8962 60.0545 33.9348 60.3377 34.528 60.9167C34.9427 61.3214 35.534 61.5688 35.8426 61.4661C36.1507 61.3634 36.4187 61.5622 36.439 61.908C36.4588 62.2534 36.5541 62.9601 36.6509 63.4783C36.7476 63.9966 36.5192 64.8904 36.1427 65.4642C35.7666 66.0381 35.459 66.9163 35.459 67.4162C35.459 68.3208 34.2585 69.1561 33.8692 68.5224C33.4318 67.8096 33.462 65.3054 33.9216 64.1851C34.4813 62.8225 34.2746 62.3523 33.4691 63.1566C33.1624 63.4628 32.4758 63.7351 31.9436 63.761C31.1145 63.8011 31.1447 63.8618 32.1559 64.1851C33.2086 64.5219 33.1454 64.5672 31.5661 64.6091C29.6291 64.6605 29.1974 63.9047 30.821 63.305C31.5435 63.0383 31.6732 62.8206 31.2613 62.5667C30.9404 62.3683 30.545 62.3382 30.3831 62.4998C30.2213 62.6618 29.8353 62.2058 29.5253 61.4873C29.0029 60.2764 28.9794 60.3363 29.2068 62.3005C29.3417 63.4666 29.6168 64.6326 29.8183 64.8918C30.5398 65.8209 30.8456 68.7759 30.2581 69.1387C29.5503 69.5754 28.8755 68.5634 28.8411 67.0119C28.8265 66.3641 28.2041 65.1212 27.4576 64.2501L26.1005 62.6661L25.3238 64.1662C24.7194 65.3328 24.6703 65.8148 25.1025 66.3344C25.4078 66.7024 25.934 67.8002 26.2718 68.7745C26.7343 70.1102 27.1561 70.5582 27.987 70.5964C29.9608 70.6883 30.2685 70.7745 30.2685 71.2376C30.2685 71.4883 29.8967 71.5632 29.4427 71.4035C28.776 71.1693 28.7283 71.2334 29.1955 71.7371C29.673 72.2515 29.9363 72.2143 30.6993 71.5246C31.2084 71.0652 31.8261 70.8131 32.0724 70.9653C32.3187 71.117 32.633 70.8113 32.7708 70.2855C32.9737 69.5118 32.8486 69.3837 32.1168 69.6155C31.3703 69.852 31.2136 69.6701 31.2193 68.5747C31.2235 67.8449 31.4359 66.9295 31.6911 66.5408C32.1045 65.9127 32.2074 65.9127 32.6207 66.5408C32.876 66.9295 33.0883 67.5128 33.0926 67.8364C33.0963 68.1606 33.5243 68.8494 34.0434 69.3677C34.5832 69.9067 34.9871 70.938 34.9871 71.7776V73.2452L33.7494 72.4353C33.0685 71.9901 32.6622 71.869 32.8463 72.1663C33.0303 72.4636 32.9241 73.0158 32.6108 73.3931C32.1974 73.8902 32.1889 74.0791 32.5801 74.0791C32.8769 74.0791 33.3776 74.6619 33.6923 75.3748C34.007 76.0876 34.6398 76.9475 35.098 77.2862C35.5562 77.6245 35.9308 78.2233 35.9308 78.6163C35.9308 79.7136 34.3586 79.1755 34.0641 77.9779C33.8957 77.2928 33.6055 77.0601 33.22 77.2999C32.8397 77.5364 32.6854 78.5263 32.7826 80.1126C32.9123 82.2385 32.8165 82.5598 32.0535 82.5598C31.5704 82.5598 30.3869 81.7593 29.4239 80.7812C27.903 79.2363 27.6935 78.7571 27.8271 77.1298C27.9998 75.0257 27.4297 70.6954 27.0999 71.6056C26.7743 72.5046 26.0217 72.3067 26.0217 71.3224C26.0217 70.0334 25.0506 67.4831 24.5599 67.4831C23.879 67.4831 24.0682 70.2294 24.8543 71.7469C25.2502 72.5111 25.363 73.1368 25.1054 73.1368C24.8473 73.1368 24.3358 72.5644 23.9687 71.8643L23.3005 70.5917L23.1217 72.84C22.9527 74.9611 23.0032 75.077 24.0102 74.8848C24.9501 74.7053 25.087 74.8848 25.1535 76.3826L25.229 78.0839L25.4192 76.5526C25.5239 75.7102 25.8084 75.0214 26.0514 75.0214C26.2949 75.0214 26.4936 74.7161 26.4936 74.3425C26.4936 73.9689 26.7262 73.5199 27.0108 73.3441C27.3797 73.1166 27.4317 74.0556 27.1915 76.6144C26.9541 79.1458 27.0103 80.204 27.3821 80.204C27.6718 80.204 27.9092 80.5329 27.9092 80.9352C27.9092 81.3376 28.5377 81.8851 29.3054 82.1527C30.0736 82.4198 30.8399 83.0728 31.0084 83.6038C31.2509 84.3666 31.4019 84.4325 31.7284 83.9176C32.071 83.3772 32.1441 83.3866 32.1559 83.9732C32.1682 84.5796 32.2314 84.5838 32.599 84.0033C33.3696 82.7873 34.6304 84.3417 34.4091 86.2347C34.2449 87.6402 34.5063 88.125 36.4914 90.0972C37.772 91.3688 38.762 92.785 38.762 93.3452C38.762 93.8913 38.603 94.3318 38.4081 94.3234C37.8749 94.3007 36.4027 93.1073 36.4027 92.6974C36.4027 92.5 36.7023 92.5867 37.0685 92.8901C38.0014 93.6633 38.3986 92.7822 37.6059 91.6996C36.7575 90.5415 36.205 91.1299 36.2616 93.1313C36.3059 94.6852 36.2574 94.7262 34.1906 94.8901C33.0265 94.983 31.9596 94.8736 31.82 94.648C31.6803 94.4223 31.4019 94.5028 31.2013 94.8275C30.7139 95.6147 27.309 94.7695 23.3189 92.8713C21.1686 91.8484 19.7884 90.7511 18.1751 88.7831C15.0019 84.9122 14.1223 82.6347 13.859 77.609C13.6509 73.6353 13.7354 73.1137 15.1345 69.7582C16.7312 65.9288 18.5262 63.7521 22.1289 61.2771C24.7939 59.4463 30.3511 57.7257 29.581 58.97ZM115.685 59.2493C116.013 59.6441 116.379 59.8703 116.498 59.752C116.825 59.4251 116.16 58.5313 115.59 58.5313C115.277 58.5313 115.313 58.8017 115.685 59.2493ZM114.491 59.9523C114.328 60.2156 113.997 60.3094 113.755 60.16C113.514 60.0112 113.316 60.3259 113.316 60.8592C113.316 62.2369 114.576 62.0658 114.847 60.6515C115.087 59.3977 114.973 59.1735 114.491 59.9523ZM118.441 61.3016C118.339 61.6003 118.011 61.638 117.62 61.3959C117.263 61.174 117.127 60.7382 117.32 60.4277C117.733 59.7596 118.71 60.521 118.441 61.3016ZM25.5404 61.1339C24.6288 62.2312 25.279 62.4376 26.2548 61.361C26.7262 60.8413 26.8923 60.4159 26.6243 60.4159C26.3567 60.4159 25.8688 60.7391 25.5404 61.1339ZM109.513 61.3582C109.197 64.4918 109.936 65.925 111.449 65.1165C112.272 64.6765 113.316 65.3497 113.316 66.3208C113.316 66.6148 113.635 66.855 114.024 66.855C114.413 66.855 114.732 66.5724 114.732 66.2265C114.732 65.8812 114.42 65.5985 114.039 65.5985C113.658 65.5985 113.03 65.0157 112.642 64.3028C112.255 63.59 111.93 63.2847 111.919 63.6239C111.909 63.9632 111.688 64.1097 111.429 63.9495C111.169 63.7893 110.932 63.9358 110.901 64.275C110.87 64.6143 110.572 63.8317 110.238 62.536C109.795 60.8131 109.6 60.4969 109.513 61.3582ZM27.3127 61.476C27.0443 62.2552 27.8856 64.6562 28.4273 64.6562C28.9105 64.6562 28.9978 62.7546 28.5665 61.6324C28.2234 60.7391 27.594 60.6609 27.3127 61.476ZM30.9909 61.3346C30.6856 61.8279 32.5504 63.0058 32.9713 62.5855C33.2842 62.2736 32.2088 60.887 31.6543 60.887C31.4415 60.887 31.1433 61.0882 30.9909 61.3346ZM37.9206 62.3867C37.6135 62.6934 37.2261 62.8088 37.06 62.6425C36.8939 62.4767 36.8972 61.9787 37.0675 61.5353C37.3035 60.9209 37.5082 60.8602 37.9282 61.2795C38.3477 61.6983 38.3463 61.9617 37.9206 62.3867ZM34.8668 62.8894C34.7455 63.2136 34.8139 63.9024 35.0192 64.4206C35.3235 65.1881 35.3986 65.0788 35.4259 63.8317C35.4604 62.2392 35.2466 61.8788 34.8668 62.8894ZM114.741 63.0185C115.07 63.4133 115.435 63.6395 115.554 63.5212C115.881 63.1942 115.216 62.3005 114.646 62.3005C114.333 62.3005 114.369 62.5709 114.741 63.0185ZM118.035 63.5339C118.035 63.9226 117.822 64.1097 117.563 63.9495C117.303 63.7893 117.091 63.3403 117.091 62.9516C117.091 62.5629 117.303 62.3759 117.563 62.536C117.822 62.6962 118.035 63.1452 118.035 63.5339ZM21.5593 64.1526C21.4098 64.3938 21.5037 64.724 21.7674 64.8871C22.0312 65.0496 22.2468 64.8522 22.2468 64.4484C22.2468 63.6206 21.9637 63.4991 21.5593 64.1526ZM28.381 67.0741C28.381 68.1695 28.1932 68.4584 27.5605 68.3368C26.5469 68.1417 26.2213 66.7293 26.9801 65.8166C27.7742 64.8607 28.381 65.4053 28.381 67.0741ZM34.0806 65.8732C34.1033 66.4221 34.2151 66.5337 34.3656 66.1582C34.502 65.818 34.485 65.4114 34.3284 65.255C34.1717 65.0986 34.0603 65.3766 34.0806 65.8732ZM105.64 66.1281C105.961 66.4503 106.342 66.595 106.486 66.4499C106.632 66.3047 106.37 66.0414 105.905 65.8642C105.232 65.6089 105.178 65.6626 105.64 66.1281ZM20.434 67.4831C20.434 68.1309 20.541 68.3962 20.6718 68.072C20.8029 67.7483 20.8029 67.2183 20.6718 66.8941C20.541 66.5705 20.434 66.8353 20.434 67.4831ZM111.665 67.0119C111.825 67.2711 112.05 67.4831 112.164 67.4831C112.279 67.4831 112.372 67.2711 112.372 67.0119C112.372 66.7528 112.147 66.5408 111.873 66.5408C111.598 66.5408 111.504 66.7528 111.665 67.0119ZM110.485 67.4275C110.485 67.6866 110.697 68.0296 110.957 68.1898C111.216 68.35 111.429 68.2689 111.429 68.0098C111.429 67.7507 111.216 67.4077 110.957 67.2475C110.697 67.0873 110.485 67.1684 110.485 67.4275ZM31.6841 68.2176C31.6841 68.6214 31.8964 68.8211 32.1559 68.6609C32.4154 68.5008 32.6278 68.1705 32.6278 67.9264C32.6278 67.6824 32.4154 67.4831 32.1559 67.4831C31.8964 67.4831 31.6841 67.8138 31.6841 68.2176ZM109.069 67.9542C109.069 68.2134 109.294 68.4254 109.569 68.4254C109.844 68.4254 109.938 68.2134 109.777 67.9542C109.617 67.6951 109.392 67.4831 109.277 67.4831C109.163 67.4831 109.069 67.6951 109.069 67.9542ZM120.394 67.9542C120.394 68.2134 120.194 68.4254 119.95 68.4254C119.706 68.4254 119.375 68.2134 119.214 67.9542C119.054 67.6951 119.254 67.4831 119.658 67.4831C120.063 67.4831 120.394 67.6951 120.394 67.9542ZM37.8183 69.338C37.8183 70.2991 36.7193 71.4115 36.2413 70.9342C35.7501 70.4438 35.8794 69.1363 36.4782 68.5384C37.1732 67.8444 37.8183 68.2289 37.8183 69.338ZM116.389 69.7545C116.014 70.129 115.203 69.2791 115.491 68.8136C115.687 68.497 115.93 68.5455 116.181 68.9502C116.394 69.2946 116.487 69.6565 116.389 69.7545ZM36.4027 69.631C36.4027 70.0348 36.615 70.2346 36.8745 70.0744C37.1341 69.9142 37.3464 69.5839 37.3464 69.3399C37.3464 69.0958 37.1341 68.8965 36.8745 68.8965C36.615 68.8965 36.4027 69.2273 36.4027 69.631ZM18.5092 69.8991C18.4889 70.3208 18.8438 70.9568 19.2977 71.3126C20.0154 71.8742 20.0546 71.8662 19.5968 71.2523C19.3076 70.8636 18.9528 70.2275 18.8084 69.8388C18.5894 69.2475 18.5404 69.2574 18.5092 69.8991ZM20.282 70.4343C20.6288 70.8617 20.7756 71.4322 20.608 71.7027C20.4405 71.9731 20.642 72.1945 21.0559 72.1945C21.6547 72.1945 21.708 72.008 21.3173 71.2786C21.0469 70.7745 20.5618 70.204 20.2391 70.0103C19.8248 69.762 19.8375 69.8869 20.282 70.4343ZM33.1723 70.57C33.2624 71.0318 33.6211 71.5048 33.9707 71.6207C34.3765 71.7559 34.5464 71.5293 34.4426 70.9922C34.3524 70.5305 33.9938 70.0574 33.6442 69.9415C33.2384 69.8063 33.0685 70.0329 33.1723 70.57ZM111.223 71.3903C111.4 71.8549 111.664 72.1163 111.809 71.9712C111.955 71.8266 111.81 71.4464 111.487 71.1264C111.021 70.6647 110.967 70.7189 111.223 71.3903ZM29.7966 72.6643C28.4141 73.0153 28.4296 74.2808 29.8311 75.4473C30.4601 75.9708 30.603 76.4047 30.3015 76.8758C29.9429 77.4365 29.7409 77.4464 29.1247 76.9357C28.4745 76.3972 28.381 76.5046 28.381 77.7908C28.381 79.0271 28.5608 79.2617 29.5074 79.2617C30.4138 79.2617 30.6799 78.9635 30.872 77.7305C31.0036 76.8881 30.9215 75.9976 30.6899 75.7517C30.1057 75.1312 30.1609 74.7251 30.9333 73.9538C31.8568 73.0318 31.2146 72.3039 29.7966 72.6643ZM31.6841 75.1265C31.6841 76.0311 32.9189 77.1081 33.2823 76.5206C33.429 76.2836 33.1294 75.7102 32.6165 75.2471C31.8313 74.5376 31.6841 74.5182 31.6841 75.1265ZM20.4689 76.4349C20.4689 77.3418 20.5661 77.7126 20.6845 77.2594C20.8034 76.8061 20.8034 76.0636 20.6845 75.6104C20.5661 75.1571 20.4689 75.5279 20.4689 76.4349ZM21.3031 76.1993C21.3031 76.8471 21.4862 77.3772 21.7094 77.3772C21.9331 77.3772 22.0147 76.8471 21.8906 76.1993C21.7665 75.5515 21.5834 75.0214 21.4838 75.0214C21.3847 75.0214 21.3031 75.5515 21.3031 76.1993ZM19.0627 77.6127C19.0679 78.6492 19.1646 79.0177 19.2774 78.4316C19.3902 77.8455 19.3859 76.9974 19.268 76.547C19.15 76.0966 19.0575 76.5762 19.0627 77.6127ZM17.6632 79.0262C17.667 80.3218 17.7585 80.7958 17.867 80.0797C17.9751 79.3635 17.9722 78.3034 17.8604 77.7239C17.7486 77.1444 17.6599 77.7305 17.6632 79.0262ZM23.4742 79.869C23.1443 82.1367 23.2104 82.743 23.8681 83.4686C24.7519 84.4434 26.9824 84.5659 26.6186 83.6198C26.4945 83.2962 26.6474 83.0309 26.9593 83.0309C27.2707 83.0309 27.6369 83.4549 27.7723 83.9732C27.9082 84.4915 28.2069 84.9155 28.4362 84.9155C28.6651 84.9155 28.8699 85.3928 28.8902 85.9756C28.9105 86.5584 29.0374 86.7619 29.1719 86.4269C29.3597 85.9596 29.5701 85.9459 30.0783 86.3671C30.611 86.8081 30.7403 86.72 30.7403 85.9152C30.7403 85.3423 30.4393 84.9155 30.0354 84.9155C29.648 84.9155 28.6925 84.0354 27.912 82.9602C27.0235 81.7352 26.4936 81.3056 26.4936 81.8102C26.4936 82.253 26.2812 82.4844 26.0217 82.3242C25.7622 82.164 25.5499 82.2577 25.5499 82.532C25.5499 82.8062 25.3281 83.0309 25.0568 83.0309C24.7491 83.0309 24.6736 82.3652 24.8562 81.2641C25.0629 80.0137 25.01 79.6961 24.6755 80.1772C24.3169 80.6917 24.1621 80.4061 24.0366 78.9993C23.8781 77.2259 23.8526 77.2655 23.4742 79.869ZM30.3864 80.793C30.494 81.1171 30.9829 81.4592 31.4722 81.5539C32.2418 81.7027 32.2767 81.6236 31.7294 80.9649C30.981 80.0646 30.1062 79.9524 30.3864 80.793ZM34.9701 80.89C35.7473 81.8252 35.1348 82.7977 34.2373 82.0538C33.5022 81.4446 33.3337 80.204 33.9858 80.204C34.2132 80.204 34.6563 80.5126 34.9701 80.89ZM20.8383 82.442C20.8426 82.9127 20.9969 83.0644 21.1979 82.7953C21.3913 82.5362 21.7424 82.1654 21.9769 81.9708C22.2119 81.7762 22.0501 81.6175 21.6178 81.6175C21.1804 81.6175 20.8346 81.9836 20.8383 82.442ZM17.583 83.1487C17.624 83.9463 17.691 84.0048 17.8533 83.3843C18.1775 82.1456 18.8886 82.392 19.2118 83.8554C19.6662 85.912 19.8106 86.1706 19.8503 85.0022C19.8706 84.4024 19.6677 83.5011 19.3992 82.9998C18.7197 81.7324 17.515 81.8314 17.583 83.1487ZM32.7071 86.4349C32.2881 87.7768 32.2569 88.5028 32.6037 88.8491C33.3096 89.5539 33.2171 90.0981 32.3919 90.0981C31.9941 90.0981 31.6841 89.6774 31.6841 89.1375C31.6841 88.3784 31.5576 88.2946 31.0815 88.7384C30.7498 89.0479 30.4841 89.8305 30.4917 90.4779C30.5087 92.0256 29.6173 92.2922 28.9628 90.9358C28.6778 90.3454 28.4306 90.1415 28.4131 90.4826C28.3952 90.8232 28.5995 91.5101 28.8671 92.0091C29.2781 92.7761 29.4956 92.8265 30.2826 92.3356C30.7937 92.0171 31.2122 91.4889 31.2122 91.1624C31.2122 90.8176 31.8044 90.5692 32.6278 90.5692C33.9976 90.5692 34.5049 89.9671 33.6031 89.4112C33.3611 89.2618 33.1808 88.5146 33.203 87.7504C33.2247 86.9866 33.4224 86.4726 33.6428 86.6083C33.8631 86.7445 34.0434 86.4317 34.0434 85.9134C34.0434 84.2013 33.3167 84.4849 32.7071 86.4349ZM26.5082 85.8578C26.5082 86.2465 26.7139 86.8825 26.9654 87.2712C27.3722 87.8993 27.4227 87.8993 27.4227 87.2712C27.4227 86.8825 27.217 86.2465 26.9654 85.8578C26.5587 85.2297 26.5082 85.2297 26.5082 85.8578ZM22.898 86.5419C22.579 87.3716 23.041 88.2163 23.8082 88.2064C24.1725 88.2017 24.1385 88.0524 23.7115 87.7829C23.3496 87.5539 23.1835 87.0267 23.343 86.6121C23.5025 86.197 23.5265 85.8578 23.3968 85.8578C23.267 85.8578 23.0424 86.1655 22.898 86.5419ZM94.3114 86.825C94.5242 87.6378 94.629 87.6684 95.0895 87.0522C95.4774 86.533 96.1007 86.4189 97.3908 86.6314C99.433 86.9683 99.5486 87.2561 98.1363 88.4938C97.2176 89.2995 97.1435 89.307 97.4139 88.5669C97.7687 87.5954 97.5654 87.5511 96.18 88.2988C95.6133 88.6051 94.579 88.9198 93.882 88.9985C92.7746 89.1233 92.6255 88.9853 92.7024 87.9044C92.7505 87.2241 92.5467 86.581 92.2489 86.475C91.9512 86.3695 91.7388 86.6644 91.777 87.1304C91.8219 87.6807 91.569 87.9323 91.056 87.8474C90.6215 87.7758 90.1434 87.9153 89.9939 88.157C89.8443 88.3987 89.2446 88.4835 88.6609 88.3459C87.6157 88.0995 87.6138 88.1071 88.5434 88.8284C89.0624 89.2312 89.5579 89.3641 89.6442 89.1229C89.933 88.3186 91.5704 88.6719 92.0956 89.6515C92.884 91.1224 92.4792 92.1989 91.1339 92.2093C90.2506 92.2159 89.9797 92.4505 90.0429 93.1535C90.0892 93.668 89.8768 94.2479 89.5711 94.4421C88.7727 94.949 86.3067 94.8769 85.4763 94.3224C84.8638 93.9129 84.8916 93.7556 85.6843 93.1516C86.1883 92.7676 86.9041 92.4538 87.276 92.4538C87.8002 92.4538 87.829 92.3069 87.4043 91.7957C87.1032 91.4338 86.4615 91.2411 85.9779 91.3674C85.3003 91.544 85.0247 91.2623 84.7779 90.1409C84.6019 89.34 84.2622 88.6847 84.0234 88.6847C83.4289 88.6847 83.4775 89.3273 84.1201 89.969C84.4127 90.2611 84.6689 91.4164 84.6906 92.5368C84.7119 93.6572 84.9506 94.7252 85.2205 94.9095C85.4909 95.0942 85.7518 95.6242 85.8 96.0873C85.8481 96.5509 86.0303 97.6935 86.2044 98.6268C86.4606 100 86.361 100.385 85.6825 100.645C84.4453 101.119 83.7757 99.6841 84.0272 97.0984C84.0687 96.6725 83.5615 95.8993 82.8994 95.3792C82.2379 94.8595 81.4027 93.7373 81.0436 92.885L80.391 91.3353L79.1637 93.7542C78.3384 95.3797 78.1053 96.2777 78.4521 96.4921C80.0503 97.4782 81.6759 105.175 80.2858 105.175C80.0263 105.175 79.8139 104.57 79.8139 103.832C79.8139 102.146 78.9485 99.5017 78.1006 98.5957C77.5485 98.0058 77.457 98.28 77.4711 100.48C77.4806 101.896 77.7915 103.585 78.1624 104.232C78.9627 105.63 79.0552 106.588 78.3908 106.588C78.127 106.588 77.5429 105.817 77.0932 104.875L76.275 103.161L75.9484 104.992C75.2718 108.785 75.3761 109.098 77.2187 108.8C78.7513 108.551 78.8754 108.623 78.941 109.798L79.0118 111.064L79.2118 109.731C79.3496 108.815 79.6219 108.479 80.0848 108.657C80.5552 108.837 80.7577 108.565 80.7577 107.751C80.7577 107.025 81.0271 106.588 81.4744 106.588C81.9732 106.588 82.1194 106.911 81.9557 107.648C81.7004 108.799 80.7577 117.402 80.7577 118.584C80.7577 120.025 79.812 119.271 79.7469 117.778C79.6804 116.258 79.678 116.259 79.393 118.029C79.0042 120.445 78.178 120.253 78.2846 117.771C78.3318 116.674 78.253 116.041 78.1091 116.365C77.9657 116.689 77.6325 116.953 77.3687 116.953C77.0672 116.953 76.9903 115.864 77.1607 114.009L77.431 111.064L76.744 113.42C75.6248 117.26 75.8168 119.362 77.4546 121.194C78.5432 122.411 78.8702 122.581 78.8702 121.93C78.8702 121.329 79.1311 121.152 79.7734 121.32C80.3849 121.479 80.7511 121.269 80.9087 120.668C81.2607 119.324 82.0199 119.605 82.3393 121.198C82.4979 121.991 82.8876 122.561 83.2241 122.493C83.6138 122.414 83.8229 122.914 83.8191 123.919C83.8144 125.259 83.8917 125.36 84.3943 124.674C84.8718 124.022 85.1035 123.987 85.6976 124.48C86.3119 124.989 86.4186 124.911 86.4096 123.96C86.4025 123.174 85.9571 122.633 84.9072 122.136C84.0866 121.747 83.1887 121.014 82.9122 120.507C82.6357 119.999 82.144 119.295 81.8193 118.942C81.0483 118.102 81.0379 115.869 81.8061 116.125C82.1237 116.23 82.4998 116.811 82.6427 117.414C82.8074 118.111 83.3156 118.575 84.0342 118.684C85.4862 118.905 86.3973 119.672 86.9928 121.174C87.443 122.309 87.4878 122.323 87.8544 121.429C88.0673 120.911 88.256 120.752 88.2744 121.076C88.3216 121.919 89.2512 121.807 89.2512 120.958C89.2512 120.022 89.706 120.065 90.5129 121.076C91.6657 122.521 92.0356 123.893 91.6445 125.272C91.3359 126.359 91.4831 126.847 92.4235 127.86C93.3771 128.887 93.4913 129.278 93.0671 130.069C92.7774 130.61 92.7354 131.144 92.9713 131.289C93.202 131.432 93.5074 131.102 93.6499 130.558L93.9094 129.567L95.3386 130.583C96.5933 131.476 98.0976 134.661 97.5314 135.227C97.1511 135.607 95.325 134.753 94.402 133.763L93.4502 132.743L93.7622 134.691L94.0741 136.639L91.2118 136.679C89.6372 136.701 88.2211 136.512 88.0644 136.259C87.9082 136.006 87.4477 135.799 87.0424 135.799C86.4143 135.799 86.3992 135.914 86.9414 136.565C87.519 137.26 87.3812 137.301 85.4654 137.004C80.9568 136.304 74.3852 133.505 71.6781 131.132C69.1853 128.946 65.2386 123.454 64.2005 120.726C62.7745 116.979 62.08 109.973 62.8109 106.707C63.5795 103.274 66.4985 96.9519 68.2911 94.8397C70.3847 92.3723 76.669 87.919 79.2057 87.1054C82.2487 86.1291 83.0108 86.0392 88.9449 85.9567C93.6947 85.8903 94.083 85.9534 94.3114 86.825ZM24.7916 87.0743C24.9492 87.4842 25.078 87.9082 25.078 88.0166C25.078 88.125 25.404 88.2135 25.8023 88.2135C26.3803 88.2135 26.4247 88.0232 26.0217 87.2712C25.4258 86.1593 24.3754 85.9911 24.7916 87.0743ZM84.8473 86.6432C84.3962 87.0931 84.4594 87.7424 84.9539 87.7424C85.1856 87.7424 85.4975 87.4243 85.6471 87.0357C85.9231 86.3176 85.4201 86.0707 84.8473 86.6432ZM38.0542 87.7094C38.0542 88.7874 37.0166 88.8067 36.7358 87.7344C36.5405 86.9895 36.6712 86.7826 37.2652 86.8966C37.6994 86.9805 38.0542 87.3462 38.0542 87.7094ZM86.4573 87.5459C86.4799 88.0948 86.5917 88.2064 86.7423 87.8309C86.8786 87.4908 86.8617 87.0842 86.705 86.9278C86.5483 86.7713 86.437 87.0493 86.4573 87.5459ZM29.8339 88.0171C29.8565 88.5659 29.9684 88.6776 30.1189 88.3021C30.2553 87.9619 30.2383 87.5553 30.0816 87.3989C29.925 87.2425 29.8136 87.5205 29.8339 88.0171ZM20.3594 88.3916C20.3594 88.4892 20.7312 88.8604 21.1851 89.2161C21.9335 89.8018 21.95 89.7853 21.3635 89.038C20.7468 88.2531 20.3594 88.0039 20.3594 88.3916ZM79.36 89.3721C78.7754 89.9935 78.3733 90.7295 78.4663 91.0079C78.5592 91.2863 79.2227 90.8925 79.9409 90.1325C80.659 89.3725 81.0615 88.6366 80.835 88.4967C80.6086 88.3567 79.9446 88.7511 79.36 89.3721ZM34.6341 89.4296C35.089 89.969 35.34 90.5306 35.1928 90.6781C35.0451 90.8255 35.1508 91.0856 35.4273 91.2566C36.3942 91.8531 35.9219 90.2366 34.8691 89.3466C33.8084 88.45 33.8079 88.4501 34.6341 89.4296ZM82.0119 89.4739C81.4518 90.0331 81.6867 92.7252 82.3775 93.6595C83.3798 95.0159 84.2659 93.9304 83.8715 91.8296C83.5582 90.1617 82.5729 88.9137 82.0119 89.4739ZM87.132 89.6199C86.6847 90.3431 87.762 91.5115 88.8765 91.5115C90.0024 91.5115 89.79 90.6493 88.4443 89.7575C87.745 89.2938 87.359 89.2533 87.132 89.6199ZM89.0761 90.9014C88.6873 91.2896 87.3637 90.6677 87.3637 90.0962C87.3637 89.748 87.6652 89.7551 88.348 90.1198C88.8892 90.4091 89.2167 90.7605 89.0761 90.9014ZM96.8009 90.0595C96.8009 91.0262 96.1889 91.9827 95.5708 91.9827C94.9022 91.9827 94.6554 90.5132 95.2282 89.9412C95.6935 89.4767 96.8009 89.56 96.8009 90.0595ZM94.4416 92.9396C94.4416 95.031 94.2548 95.8531 93.7338 96.0524C93.2993 96.2192 93.0261 96.9344 93.0261 97.9059C93.0261 99.0273 92.7396 99.6412 92.0417 100.014C91.5005 100.303 90.9768 100.459 90.8772 100.36C90.7781 100.261 90.5511 98.9382 90.3723 97.4211C90.1331 95.3867 90.1906 94.7516 90.5931 94.9999C90.9517 95.2209 91.1386 94.9231 91.1386 94.1306C91.1386 92.4986 92.0743 92.5853 92.1121 94.2206L92.1423 95.5163L92.6443 94.3384C92.9208 93.6906 93.1129 92.4713 93.0718 91.6293C93.018 90.5358 93.203 90.0981 93.7192 90.0981C94.2883 90.0981 94.4416 90.7021 94.4416 92.9396ZM26.9749 91.2873C27.3033 91.6821 27.669 91.9082 27.7879 91.79C28.1149 91.463 27.45 90.5692 26.88 90.5692C26.5667 90.5692 26.6026 90.8397 26.9749 91.2873ZM33.5715 91.7471C33.8947 92.1358 34.4775 92.4538 34.8668 92.4538C35.4424 92.4538 35.4646 92.3219 34.9871 91.7471C34.6639 91.3584 34.0811 91.0404 33.6918 91.0404C33.1162 91.0404 33.094 91.1723 33.5715 91.7471ZM26.0595 92.4538C26.7475 93.896 26.9654 94.1632 26.9654 93.5648C26.9654 93.3118 26.6351 92.6937 26.2317 92.1905C25.5395 91.3283 25.5301 91.3433 26.0595 92.4538ZM30.7403 93.1214C30.7403 93.5313 31.0763 93.8673 31.4873 93.8673C31.8983 93.8673 32.1507 93.6157 32.0479 93.308C31.7563 92.434 30.7403 92.2894 30.7403 93.1214ZM33.0996 92.9396C33.0996 93.1907 33.4182 93.3961 33.8074 93.3961C34.1967 93.3961 34.5152 93.3128 34.5152 93.211C34.5152 93.1092 34.1967 92.9038 33.8074 92.7544C33.4182 92.6055 33.0996 92.6889 33.0996 92.9396ZM73.8321 93.6793C73.6727 94.0939 73.8388 94.6211 74.2007 94.8501C75.2605 95.5201 75.8319 95.3419 74.8717 94.6409C74.0199 94.0194 74.0204 93.9869 74.899 93.4776C75.7271 92.9975 75.7323 92.9523 74.9627 92.9391C74.5003 92.9316 73.9916 93.2642 73.8321 93.6793ZM87.4817 93.7207C87.9356 93.8395 88.6793 93.8395 89.1332 93.7207C89.5871 93.6025 89.2158 93.5055 88.3074 93.5055C87.3991 93.5055 87.0277 93.6025 87.4817 93.7207ZM71.9018 96.223C71.9018 97.13 71.999 97.5012 72.1174 97.0475C72.2363 96.5938 72.2363 95.8522 72.1174 95.3985C71.999 94.9448 71.9018 95.316 71.9018 96.223ZM70.4687 96.4586C70.4782 97.236 70.5838 97.497 70.7037 97.0385C70.8236 96.5801 70.8155 95.9441 70.6862 95.6251C70.557 95.3061 70.4593 95.6812 70.4687 96.4586ZM83.1991 97.2006C83.461 98.4355 83.3576 98.9537 82.7583 99.4093C81.6499 100.252 81.0969 99.9234 80.6355 98.1462C80.3122 96.8996 80.3995 96.475 81.0861 95.9563C82.2907 95.0451 82.8065 95.349 83.1991 97.2006ZM89.4512 98.7601C89.4711 99.6506 89.5777 100.29 89.6881 100.182C89.7985 100.073 90.3827 100.446 90.9857 101.012C91.8054 101.782 92.0823 102.555 92.0823 104.079C92.0823 106.363 91.7775 106.546 90.2841 105.156C89.5848 104.506 89.2512 103.638 89.2512 102.471C89.2512 101.13 89.1252 100.872 88.6849 101.311C87.7799 102.215 87.4265 101.984 87.1061 100.277C86.8937 99.1479 87.0471 98.3092 87.6265 97.4258C88.6359 95.8875 89.3998 96.4459 89.4512 98.7601ZM91.1759 96.9688C91.1985 97.5177 91.3104 97.6294 91.4609 97.2539C91.5973 96.9137 91.5803 96.5071 91.4236 96.3507C91.267 96.1943 91.1556 96.4722 91.1759 96.9688ZM72.3014 98.8534C72.3241 99.4023 72.4359 99.514 72.5864 99.1385C72.7228 98.7983 72.7058 98.3917 72.5492 98.2353C72.3925 98.0788 72.2811 98.3568 72.3014 98.8534ZM85.079 99.0499C85.079 99.6977 85.1861 99.963 85.3168 99.6388C85.448 99.3151 85.448 98.7851 85.3168 98.4609C85.1861 98.1373 85.079 98.4021 85.079 99.0499ZM87.8356 99.3132C87.8356 99.9969 88.0399 100.393 88.3074 100.228C88.567 100.068 88.7793 99.5253 88.7793 99.0221C88.7793 98.5189 88.567 98.1076 88.3074 98.1076C88.0479 98.1076 87.8356 98.6503 87.8356 99.3132ZM96.1701 100.258C96.607 101.394 95.5326 103.29 94.4515 103.29C93.7216 103.29 93.4979 102.981 93.4979 101.971C93.4979 99.8617 95.5199 98.5655 96.1701 100.258ZM94.2888 101.124C93.9939 101.891 94.3902 102.436 94.9791 102.072C95.5151 101.741 95.5033 100.463 94.964 100.463C94.7323 100.463 94.4284 100.761 94.2888 101.124ZM69.433 102.03C69.433 102.938 71.3473 104.531 72.8733 104.891L74.1903 105.203L73.458 103.789C72.3991 101.744 69.433 100.448 69.433 102.03ZM89.9561 101.958C89.589 102.903 90.5275 104.845 91.1622 104.453C91.8035 104.058 91.7162 103.142 90.9362 102.085C90.3265 101.257 90.2331 101.245 89.9561 101.958ZM72.3769 102.932C73.3466 103.9 73.3631 104 72.5775 104.151C71.6163 104.336 69.7902 102.915 70.1799 102.285C70.5928 101.618 71.2563 101.813 72.3769 102.932ZM85.4763 103.29C85.9953 103.808 86.42 104.419 86.42 104.646C86.42 105.397 85.1375 106.139 84.3566 105.839C83.7276 105.598 83.5888 105.881 83.5888 107.4C83.5888 109.02 83.7228 109.25 84.6505 109.217C85.4697 109.188 85.7462 109.476 85.8613 110.475C86.0217 111.865 85.1771 112.226 84.1551 111.205C83.7148 110.766 83.5874 110.844 83.5822 111.559C83.5789 112.064 83.4477 112.955 83.2915 113.538C83.0344 114.495 83.1731 114.598 84.7303 114.598C85.6778 114.598 87.0296 114.938 87.7341 115.354L89.0152 116.111L87.7176 115.079C86.8348 114.378 86.42 113.609 86.42 112.674C86.42 111.918 86.6224 111.3 86.8697 111.3C87.1174 111.3 86.9749 110.699 86.553 109.965C85.6612 108.414 86.0029 107.059 87.2854 107.059C88.6509 107.059 90.6667 108.871 90.6667 110.098C90.6667 111.289 89.6154 112.439 89.0346 111.884C88.7005 111.565 88.9869 113.646 89.5541 115.658C89.682 116.112 89.5654 116.482 89.2946 116.482C88.9614 116.482 88.9511 116.872 89.263 117.691C89.8877 119.332 89.9 119.309 88.3711 119.309C86.8532 119.309 84.5325 117.716 84.5325 116.674C84.5325 116.298 83.9748 115.737 83.2934 115.427C82.0657 114.869 82.0562 114.825 82.2865 110.79C82.4144 108.551 82.3639 106.423 82.1742 106.064C81.984 105.704 81.6934 104.842 81.5282 104.148C81.2781 103.095 81.4046 102.851 82.2903 102.681C84.2768 102.298 84.5321 102.347 85.4763 103.29ZM89.2011 104.547C89.9146 106.11 89.0761 107.421 87.9559 106.493C86.9551 105.663 86.453 104.091 86.9806 103.436C87.6119 102.653 88.5514 103.123 89.2011 104.547ZM84.1494 104.262C84.2626 104.602 84.6345 104.973 84.9752 105.087C85.329 105.204 85.506 105.028 85.388 104.674C85.2743 104.334 84.9025 103.963 84.5623 103.85C84.2084 103.732 84.0314 103.909 84.1494 104.262ZM72.3991 110.593C72.4029 111.889 72.4944 112.363 72.603 111.646C72.711 110.93 72.7082 109.87 72.5963 109.291C72.4845 108.711 72.3958 109.297 72.3991 110.593ZM87.3637 109.106C87.3637 109.861 88.8586 111.3 89.6423 111.3C90.3912 111.3 90.3369 110.77 89.4602 109.52C88.65 108.365 87.3637 108.111 87.3637 109.106ZM74.7155 110.122C74.7249 110.899 74.8306 111.16 74.9505 110.702C75.0703 110.243 75.0623 109.607 74.933 109.288C74.8037 108.969 74.706 109.344 74.7155 110.122ZM70.0332 111.771C70.0332 112.937 70.1252 113.414 70.238 112.831C70.3503 112.248 70.3503 111.294 70.238 110.711C70.1252 110.128 70.0332 110.605 70.0332 111.771ZM73.2451 111.103C73.2678 111.652 73.3796 111.764 73.5301 111.388C73.6665 111.048 73.6495 110.642 73.4929 110.485C73.3362 110.329 73.2248 110.607 73.2451 111.103ZM84.7685 110.829C84.9289 111.088 85.1535 111.3 85.2682 111.3C85.3829 111.3 85.4763 111.088 85.4763 110.829C85.4763 110.569 85.2512 110.357 84.9766 110.357C84.7019 110.357 84.608 110.569 84.7685 110.829ZM68.1457 112.713C68.1457 113.879 68.2378 114.356 68.3505 113.773C68.4628 113.19 68.4628 112.236 68.3505 111.653C68.2378 111.07 68.1457 111.547 68.1457 112.713ZM78.5267 113.184C78.5267 114.35 78.6187 114.827 78.7315 114.244C78.8438 113.662 78.8438 112.707 78.7315 112.124C78.6187 111.541 78.5267 112.018 78.5267 113.184ZM93.2157 112.79C93.6088 113.351 93.8207 113.987 93.6862 114.203C93.2275 114.945 91.6444 114.599 91.1334 113.646C90.1265 111.767 91.9672 111.01 93.2157 112.79ZM91.6105 112.658C91.6105 112.917 91.8228 113.26 92.0823 113.42C92.3419 113.58 92.5542 113.499 92.5542 113.24C92.5542 112.981 92.3419 112.638 92.0823 112.478C91.8228 112.317 91.6105 112.398 91.6105 112.658ZM68.5813 116.247C68.5907 117.024 68.6964 117.285 68.8163 116.827C68.9361 116.368 68.9281 115.732 68.7988 115.413C68.6695 115.094 68.5718 115.469 68.5813 116.247ZM85.7825 116.731C86.1024 117.563 87.787 118.572 88.1876 118.172C88.5707 117.79 86.8734 116.011 86.1255 116.011C85.7636 116.011 85.6211 116.31 85.7825 116.731ZM91.988 116.577C92.6665 117.254 92.7458 119.309 92.0932 119.309C91.4043 119.309 90.0675 117.07 90.4181 116.503C90.8168 115.859 91.2915 115.881 91.988 116.577ZM72.5831 118.249C72.3684 118.614 73.0333 120.723 73.3631 120.723C73.4655 120.723 73.4429 120.169 73.3136 119.492C73.1012 118.384 73.189 118.294 74.2044 118.581C75.0722 118.826 75.1685 118.786 74.6235 118.405C73.7897 117.822 72.8762 117.753 72.5831 118.249ZM68.292 119.558C67.9895 120.763 69.097 123.549 69.8784 123.549C70.1101 123.549 70.6093 123.668 70.9878 123.813C71.5507 124.029 71.6149 123.744 71.3407 122.246C70.9411 120.064 70.6093 119.467 69.4556 118.85C68.7393 118.467 68.535 118.592 68.292 119.558ZM70.1917 120.134C71.0014 121.198 71.0491 123.222 70.2587 122.965C69.4797 122.712 68.3567 120.376 68.7266 119.778C69.1395 119.111 69.4764 119.192 70.1917 120.134ZM89.8046 123.072C89.8896 123.942 90.2246 124.742 90.5488 124.848C91.4165 125.133 91.2877 122.846 90.3945 122.106C89.7381 121.562 89.6683 121.677 89.8046 123.072ZM76.9828 122.579C76.9828 122.823 77.1927 123.152 77.4494 123.311C77.7165 123.476 77.7958 123.287 77.6349 122.867C77.3211 122.051 76.9828 121.902 76.9828 122.579ZM80.6189 123.556C80.4623 124.156 80.6185 125.042 80.969 125.542C81.8481 126.795 82.1119 125.991 81.4522 124.072C80.9417 122.587 80.8827 122.551 80.6189 123.556ZM75.2411 124.791C74.8594 125.785 75.6549 127.038 76.7973 127.243C77.6693 127.4 77.6693 127.387 76.7912 126.725C76.1952 126.275 75.9815 125.705 76.1575 125.034C76.4656 123.856 75.6804 123.649 75.2411 124.791ZM77.9265 124.705C77.9265 125.492 79.1335 127.319 79.654 127.319C80.5604 127.319 80.4326 126.184 79.4228 125.272C78.5876 124.517 77.9265 124.267 77.9265 124.705ZM88.8548 125.547C88.1125 126.288 88.1668 127.137 89.0407 128.47C89.5503 129.246 89.6159 129.685 89.2563 129.907C88.4858 130.382 87.2641 129.163 87.5227 128.177C87.6459 127.705 87.5544 127.201 87.3194 127.056C87.0844 126.911 86.8919 127.123 86.8919 127.526C86.8919 127.93 86.6795 128.261 86.42 128.261C86.1605 128.261 85.9481 127.85 85.9481 127.346C85.9481 126.843 85.6999 126.279 85.3961 126.091C85.0455 125.875 84.9351 125.994 85.0936 126.417C86.2794 129.585 86.5266 130.602 86.2723 131.264C85.8599 132.337 84.4943 132.22 84.1975 131.088C84.0616 130.57 83.6837 130.146 83.3571 130.146C82.9343 130.146 83.0254 130.675 83.6738 131.983L84.5844 133.82L85.7382 132.668C86.3728 132.034 86.8919 131.337 86.8919 131.117C86.8919 130.54 88.231 130.112 88.5287 130.593C88.667 130.816 89.2969 130.755 89.9287 130.457C90.9824 129.961 91.0164 129.849 90.3383 129.102C89.8438 128.556 89.6933 127.821 89.882 126.879C90.1925 125.328 89.706 124.697 88.8548 125.547ZM96.3239 125.664C97.051 126.538 96.616 127.79 95.5854 127.79C95.0999 127.79 94.9111 127.533 95.0782 127.098C95.2245 126.718 95.1376 126.279 94.8852 126.123C94.3855 125.815 94.7309 124.963 95.3556 124.963C95.568 124.963 96.004 125.278 96.3239 125.664ZM71.3204 126.027C71.3204 126.402 75.1486 131.559 75.427 131.559C75.7073 131.559 75.1434 130.655 73.5165 128.497C71.6658 126.041 71.3204 125.653 71.3204 126.027ZM74.3875 128.261C74.79 129.038 75.2256 129.674 75.3553 129.674C75.4851 129.674 75.2619 129.038 74.8594 128.261C74.4569 127.484 74.0214 126.848 73.8916 126.848C73.7618 126.848 73.985 127.484 74.3875 128.261ZM91.3297 128.663C92.3282 129.787 92.5542 129.889 92.5542 129.22C92.5542 128.97 92.0762 128.515 91.4925 128.209C90.4365 127.656 90.4355 127.658 91.3297 128.663ZM82.1732 128.676C82.1732 128.936 82.3856 129.279 82.6451 129.439C82.9046 129.599 83.117 129.518 83.117 129.259C83.117 129 82.9046 128.657 82.6451 128.497C82.3856 128.336 82.1732 128.417 82.1732 128.676ZM81.5183 131.809C82.4078 133.165 82.8834 133.051 82.4205 131.594C82.2497 131.057 81.8005 130.617 81.423 130.617C80.8468 130.617 80.8619 130.809 81.5183 131.809ZM89.983 131.687C90.1095 132.016 90.6587 132.564 91.2033 132.904C92.5183 133.723 93.3757 132.918 92.3149 131.859C91.3962 130.941 89.6471 130.813 89.983 131.687ZM94.4416 131.972C94.4416 133.057 96.1163 134.64 96.54 133.955C96.934 133.318 96.0903 131.749 95.1627 131.394C94.679 131.208 94.4416 131.399 94.4416 131.972ZM79.604 132.619C79.98 133.844 80.7987 134.973 81.0955 134.677C81.3395 134.433 79.9003 131.559 79.5341 131.559C79.3935 131.559 79.4251 132.036 79.604 132.619ZM86.7612 132.789C86.5734 132.976 86.42 133.521 86.42 134.001C86.42 134.684 86.7342 134.848 87.8714 134.761C88.6698 134.701 89.4206 134.494 89.5395 134.301C89.6589 134.108 90.2798 134.149 90.9192 134.392C91.559 134.635 92.0823 134.65 92.0823 134.425C92.0823 133.776 90.6984 133.418 89.4253 133.737C88.6241 133.937 88.0781 133.782 87.6803 133.239C87.3623 132.804 86.9485 132.602 86.7612 132.789ZM92.5915 135.132C92.6141 135.681 92.7259 135.792 92.8765 135.417C93.0128 135.077 92.9959 134.67 92.8392 134.514C92.6825 134.357 92.5712 134.635 92.5915 135.132Z" fill="black"/>
</svg>
