<svg width="140" height="140" viewBox="0 0 140 140" fill="none" xmlns="http://www.w3.org/2000/svg">
<path fill-rule="evenodd" clip-rule="evenodd" d="M0 70V140H70H140V70V0H70H0V70ZM61.494 10.36C61.757 11.537 65.14 33.425 69.012 59C72.884 84.575 76.193 105.95 76.365 106.5C76.538 107.05 78.646 97.228 81.05 84.672C84.149 68.488 85.869 61.607 86.961 61.026C88.737 60.081 121.515 61.182 122.555 62.222C122.936 62.602 122.981 63.608 122.655 64.457C122.175 65.708 120.12 66.002 111.781 66.009C106.127 66.013 99.189 66.295 96.364 66.635L91.228 67.252L85.601 96.094C82.507 111.957 79.542 126.075 79.012 127.468C77.981 130.18 74.91 130.867 73.286 128.75C72.759 128.063 69.279 105.45 65.553 78.5C61.828 51.55 58.675 29.384 58.547 29.241C58.42 29.099 57.288 36.749 56.032 46.241C52.124 75.775 51.766 77.5 49.562 77.5C48.146 77.5 47.028 76.016 45.417 72L43.21 66.5L32.855 65.873C20.103 65.1 21 65.269 21 63.631C21 61.869 26.17 61.025 37.05 61.011C42.151 61.004 46.062 61.462 46.745 62.145C48.246 63.646 48.255 63.599 52.378 33.621C54.526 18.001 56.269 8.452 57.059 7.963C58.912 6.818 60.95 7.92 61.494 10.36Z" fill="white"/>
</svg>
