<svg width="79" height="75" viewBox="0 0 79 75" fill="none" xmlns="http://www.w3.org/2000/svg">
<path fill-rule="evenodd" clip-rule="evenodd" d="M38.3651 5.59546C38.3651 8.50304 38.2136 10.8821 38.0283 10.8821C37.8431 10.8821 36.1764 11.1477 34.3248 11.4722C31.5028 11.9668 29.6694 12.5581 25.7182 14.2485C25.471 14.354 24.1448 12.4751 22.6889 9.95508C20.8691 6.80483 19.9348 5.53703 19.5441 5.68777C19.2388 5.80539 18.9888 5.9608 18.9888 6.03247C18.9888 6.10452 20.1223 8.1116 21.5077 10.4926C22.8931 12.8736 24.0266 14.9492 24.0266 15.105C24.0266 15.2608 23.5264 15.6849 22.9152 16.048C21.0729 17.1417 17.9665 20.1303 16.1567 22.5498L14.4517 24.8299L10.1404 22.3071C6.29773 20.059 5.03784 19.6286 5.03784 20.5649C5.03784 20.7239 6.38917 21.6212 8.0412 22.5592C13.9893 25.9361 14.0335 25.9723 13.3987 26.9562C12.3776 28.5399 10.8694 33.719 10.6089 36.5378L10.352 39.3153H5.17584C0.833612 39.3153 0 39.4095 0 39.8995C0 40.3895 0.833612 40.4837 5.17584 40.4837H10.352L10.6089 43.2612C10.874 46.1314 12.3423 51.1224 13.3976 52.7412C14.0591 53.7558 14.6539 53.2978 6.68481 57.9106C5.77917 58.4352 5.03784 59.0124 5.03784 59.1936C5.03784 60.128 6.14112 59.7424 10.1202 57.4178C13.7998 55.2682 14.5392 54.9629 14.824 55.4747C16.1281 57.8163 21.178 62.8665 23.5493 64.2001C24.0751 64.4958 23.8669 65.0695 22.1014 68.1917C20.9675 70.1972 19.7995 72.2078 19.5057 72.6596C19.0504 73.3591 19.052 73.548 19.5154 73.9348C19.9607 74.3064 20.4482 73.7003 22.2111 70.5816C25.4643 64.8272 24.911 65.2035 28.1243 66.5617C30.8808 67.727 36.4464 68.9169 39.1401 68.9169C41.8338 68.9169 47.3995 67.727 50.156 66.5617C53.3628 65.2062 52.7904 64.8156 56.0355 70.5758C57.7561 73.6306 58.301 74.3216 58.7161 73.9757C59.1381 73.6236 58.7652 72.7313 56.7451 69.2593C54.2951 65.0485 53.9452 64.243 54.5656 64.243C55.3283 64.243 60.2669 59.6878 61.8759 57.5008C62.8513 56.1746 63.8461 55.1444 64.0864 55.2114C64.3266 55.2784 66.3309 56.3884 68.5402 57.6784C71.6106 59.4709 72.6612 59.9149 72.9968 59.5613C73.5064 59.0249 73.8346 59.2715 68.2988 56.032L64.3243 53.706L65.0583 52.2555C66.1922 50.0155 67.3831 45.7933 67.6671 43.0065L67.9241 40.4837H73.1022C77.4467 40.4837 78.2803 40.3895 78.2803 39.8995C78.2803 39.4091 77.4405 39.3153 73.0487 39.3153H67.8171V37.9314C67.8171 35.7666 66.6696 31.1849 65.4415 28.4452C64.8261 27.0726 64.3677 25.9221 64.4227 25.8886C64.4781 25.8551 66.4414 24.7209 68.7859 23.3677C73.8195 20.4625 73.4913 20.7137 72.955 20.1747C72.6407 19.8588 71.4017 20.3912 68.3356 22.1595C66.031 23.4885 64.0341 24.606 63.8973 24.6426C63.7609 24.6792 62.8513 23.6244 61.8759 22.2982C60.2669 20.1112 55.3283 15.556 54.5656 15.556C53.9332 15.556 54.3087 14.6789 56.7672 10.4135C58.5917 7.24808 59.1493 5.96898 58.8017 5.74814C58.2037 5.36799 57.8957 5.78085 55.1807 10.6009C53.9417 12.8 52.8253 14.3607 52.5695 14.2512C48.5846 12.5491 46.781 11.9672 43.9556 11.4722C42.104 11.1477 40.4422 10.8821 40.2632 10.8821C40.0841 10.8821 39.8889 8.56185 39.8296 5.72593C39.7343 1.17585 39.6416 0.554601 39.0433 0.439311C38.4244 0.320125 38.3651 0.769995 38.3651 5.59546ZM47.0806 15.7216C51.1337 17.1093 54.2804 19.0677 57.1531 21.9889C66.8924 31.8942 66.8955 47.7841 57.1601 57.7848C54.3319 60.6904 51.1907 62.6605 47.0806 64.1067C44.3183 65.0788 43.4614 65.1953 39.1401 65.1875C34.9115 65.1801 33.8915 65.0434 31.1125 64.1141C27.209 62.8085 22.816 59.9266 20.1533 56.924C17.9436 54.4328 15.0632 48.8271 14.3067 45.5472C13.5805 42.3973 13.6909 36.4922 14.5327 33.4728C17.119 24.1947 23.6968 17.6873 33.0645 15.1397C37.0998 14.0421 42.8778 14.282 47.0806 15.7216ZM43.2499 43.6406C41.3991 45.8148 39.9439 47.6532 40.016 47.7256C40.2776 47.9885 55.15 54.1239 55.2593 54.0141C55.3465 53.9268 47.1282 40.2555 46.7109 39.7936C46.6582 39.7351 45.1011 41.4664 43.2499 43.6406Z" fill="white" fill-opacity="0.91"/>
</svg>
