<svg width="112" height="106" viewBox="0 0 112 106" fill="none" xmlns="http://www.w3.org/2000/svg">
<path fill-rule="evenodd" clip-rule="evenodd" d="M55.4162 6.62434V12.8255L52.8004 13.0631C48.3419 13.4682 42.0237 15.1161 38.3488 16.8322C36.4333 17.7269 34.7963 18.3883 34.7119 18.3022C34.627 18.2161 33.3086 15.9547 31.7822 13.2769C28.6471 7.77724 28.4479 7.50888 27.9058 8.05379C27.6523 8.30852 28.5602 10.2435 30.5765 13.7467L33.631 19.0535L30.2821 21.5837C26.2111 24.6588 23.6096 27.3179 20.8276 31.2479L18.7214 34.2232L13.3921 31.1509C8.53329 28.35 7.36298 27.9009 7.36298 28.8384C7.36298 29.0172 9.71722 30.5183 12.5946 32.1745C15.472 33.8306 17.8262 35.269 17.8262 35.3707C17.8262 35.4727 17.0531 37.5102 16.1083 39.8989C14.2691 44.548 13.3786 48.2708 12.9496 53.1029L12.6814 56.1214H6.3407C0.962998 56.1214 0 56.2102 0 56.7057C0 57.2011 0.963753 57.2899 6.34882 57.2899H12.6973L12.9763 60.3085C13.3681 64.5478 14.7896 69.8886 16.6427 74.0846C17.5119 76.0531 18.1777 77.6987 18.1215 77.7416C18.0657 77.784 15.6657 79.185 12.7883 80.8544C6.63015 84.4273 7.11571 84.0724 7.64972 84.6092C7.96323 84.9243 9.54126 84.1982 13.5138 81.9111L18.9489 78.7823L21.2647 81.9855C23.853 85.5661 27.3523 89.0182 31.1675 91.7544C32.5684 92.7593 33.7148 93.6657 33.7148 93.7689C33.7148 93.8721 32.2956 96.4167 30.5615 99.424C28.141 103.621 27.5286 104.966 27.927 105.213C28.547 105.599 28.4758 105.699 32.1441 99.2581C33.6992 96.5269 35.02 94.292 35.0781 94.292C35.1366 94.292 36.467 94.8985 38.0341 95.6397C44.7155 98.7996 53.0449 100.208 60.2409 99.3936C65.0714 98.8476 69.8524 97.5365 73.9435 95.6369C75.5436 94.8938 76.8848 94.331 76.9236 94.3863C76.9623 94.4416 78.3702 96.897 80.0517 99.8423C82.7477 104.565 84.0931 106.197 84.0931 104.747C84.0931 104.369 81.4948 99.6639 78.6248 94.8443L77.9102 93.6439L80.7108 91.675C84.8771 88.746 89.7328 83.6346 92.425 79.3451C92.7583 78.8139 93.5666 79.1644 98.2073 81.8519C101.175 83.5704 103.845 84.8826 104.141 84.7681C104.438 84.6539 104.585 84.4031 104.467 84.2115C104.349 84.0198 101.896 82.5071 99.0168 80.8497C96.1375 79.1921 93.7817 77.7268 93.7821 77.5928C93.7829 77.4584 94.4889 75.7045 95.3519 73.6943C97.1446 69.5181 98.3518 64.813 98.7428 60.4776L99.0129 57.4847L105.31 57.3776C110.505 57.2895 111.608 57.1715 111.608 56.7057C111.608 56.2398 110.505 56.1218 105.31 56.0338L99.0129 55.9267L98.7304 52.2265C98.4119 48.0488 97.0962 43.0297 95.1175 38.4403C94.3804 36.7308 93.9402 35.2332 94.139 35.1128C94.3378 34.9925 96.761 33.5883 99.5244 31.9926C102.77 30.1179 104.48 28.9117 104.355 28.5845C104.249 28.3056 104.05 28.0801 103.912 28.0832C103.775 28.0859 101.309 29.4737 98.4316 31.1672C93.238 34.224 93.1957 34.2403 92.6187 33.4154C88.7404 27.8709 85.1503 24.0726 81.0677 21.1923C79.6413 20.1862 78.4039 19.3106 78.3179 19.2467C78.2322 19.1828 79.5769 16.6659 81.3061 13.654C83.7742 9.35509 84.3249 8.12896 83.8676 7.95252C83.1468 7.67442 83.4925 7.21014 80.4826 12.4979C76.7604 19.0372 77.2363 18.6103 74.9603 17.4578C70.6363 15.268 64.8909 13.6871 59.0009 13.0662L56.5788 12.8111V6.61733C56.5788 1.3716 56.4897 0.423569 55.9975 0.423569C55.505 0.423569 55.4162 1.37238 55.4162 6.62434ZM63.6872 17.1952C71.3044 18.7478 77.6792 22.0971 83.2689 27.483C86.9717 31.0504 89.212 34.0394 91.2578 38.14C94.9319 45.5046 96.2991 53.0475 95.364 60.7954C93.2659 78.1844 80.6519 91.9792 63.6872 95.4371C46.0183 99.0388 28.3518 90.2413 20.3246 73.8435C17.5139 68.1019 16.6671 64.658 16.3974 57.8742C16.0932 50.2237 17.2139 44.9184 20.5544 38.1937C28.4371 22.3261 46.2691 13.6446 63.6872 17.1952ZM65.5981 73.9642C63.8449 74.9691 62.4064 75.9109 62.401 76.0578C62.3902 76.3737 72.1706 85.3722 72.3399 85.202C72.4038 85.1377 71.8481 82.2305 71.1052 78.741C70.3623 75.2515 69.7547 72.3276 69.7547 72.2438C69.7547 71.7901 68.4507 72.3299 65.5981 73.9642Z" fill="white" fill-opacity="0.91"/>
</svg>
