<svg width="223" height="164" viewBox="0 0 223 164" fill="none" xmlns="http://www.w3.org/2000/svg">
<path fill-rule="evenodd" clip-rule="evenodd" d="M2.73405 0.750816C0.0551062 2.19246 0.0119303 2.464 0.0119303 17.8374C0.0119303 36.9215 -0.923198 35.717 13.7647 35.5488C27.9562 35.3859 27.0542 36.6326 26.9069 17.3818C26.8056 4.11994 26.7701 3.53818 26.003 2.48953C24.3352 0.208892 23.4852 0.0452677 13.3041 0.0448809C5.07417 0.0441073 3.9016 0.122635 2.73405 0.750816ZM31.443 1.88146C31.2977 2.89181 31.0857 4.11065 30.972 4.58914C30.7654 5.45791 30.7735 5.45946 35.818 5.45946H40.8706V20.5451V35.6308H43.9543H47.0379V20.5563V5.48189L52.1352 5.37397L57.2322 5.26606L57.5209 3.5254C57.6797 2.56805 57.9044 1.39291 58.0204 0.914427L58.2309 0.0441018H44.9692H31.7071L31.443 1.88146ZM62.6652 1.88146C62.5199 2.89181 62.3079 4.11065 62.1942 4.58914C61.9876 5.45791 61.9957 5.45946 67.0402 5.45946H72.0928V20.5451V35.6308H75.1764H78.2601V20.5563V5.48189L83.3594 5.37397L88.4582 5.26606L88.8845 2.65508L89.3108 0.0441018H76.12H62.9293L62.6652 1.88146ZM95.6189 0.721801C94.8842 1.09353 93.9302 2.00717 93.4989 2.75178C92.7507 4.04412 92.7148 4.73071 92.7148 17.8374C92.7148 33.1045 92.7403 33.27 95.3356 34.8861C96.4962 35.6087 97.158 35.6482 106.468 35.546C115.813 35.4435 116.427 35.3921 117.453 34.6289C119.676 32.9764 119.697 32.8175 119.697 17.8374C119.697 -1.08036 120.551 0.0452586 106.206 0.0452586C98.1648 0.0452586 96.7803 0.133848 95.6189 0.721801ZM126.057 17.8154V35.6308L136.946 35.6292C146.92 35.628 147.935 35.5669 149.023 34.9012C151.07 33.6487 151.627 31.8415 151.66 26.3473C151.694 20.8209 151.228 19.4098 149.02 18.353L147.733 17.7373L149.384 16.1436C150.973 14.6091 151.045 14.4366 151.313 11.5324C151.788 6.38472 150.84 2.28452 148.863 0.937257C147.943 0.310623 146.698 0.225127 136.946 0.118754L126.057 0V17.8154ZM159.207 18.0308V36.0176H162.483H165.759V18.0308V0.0441018H162.483H159.207V18.0308ZM173.345 0.914427C173.231 1.39291 173.02 2.60634 172.876 3.61011L172.614 5.43588L177.57 5.54417L182.527 5.65287L182.628 20.6418L182.728 35.6308H185.808H188.887V20.5451V5.45946H193.856C199.469 5.45946 198.94 5.79444 199.503 1.88146L199.767 0.0441018H186.66H173.552L173.345 0.914427ZM143.956 5.83659C144.924 6.20638 144.945 6.29073 144.945 10.0142C144.945 12.4542 144.779 13.9809 144.482 14.2788C144.164 14.5979 142.238 14.7429 138.315 14.7429H132.61V10.1012V5.45946H137.788C140.637 5.45946 143.412 5.62926 143.956 5.83659ZM20.2485 17.8374V29.6352L13.7466 29.7416C9.27875 29.8143 7.07816 29.709 6.71198 29.4039C5.9796 28.7938 5.92179 7.03301 6.65069 6.30155C6.99375 5.95729 8.90601 5.85749 13.6853 5.93407L20.2485 6.03968V17.8374ZM112.91 6.37658C113.221 6.75256 113.319 10.2087 113.246 18.271L113.144 29.6352H106.206H99.2676L99.1597 18.611C99.1 12.5478 99.1466 7.19508 99.2634 6.7166C99.4723 5.85672 99.554 5.84627 105.973 5.84627C111.007 5.84627 112.57 5.96579 112.91 6.37658ZM144.867 20.6225C145.169 20.925 145.33 22.5136 145.33 25.1868C145.33 27.8601 145.169 29.4487 144.867 29.7512C144.548 30.0719 142.581 30.2154 138.507 30.2154H132.61V25.1868V20.1583H138.507C142.581 20.1583 144.548 20.3018 144.867 20.6225ZM207.871 23.9405C206.122 24.4844 204.695 25.118 204.699 25.3481C204.704 25.5787 205.018 26.1721 205.398 26.6672C206.346 27.9046 208.732 27.7584 208.75 26.4618C208.756 25.9636 209.397 25.0464 210.291 24.2539C212.09 22.6602 212.017 22.6505 207.871 23.9405ZM216.051 29.4004L212.994 31.2927L212.067 30.5608C211.557 30.1581 210.927 29.8286 210.668 29.8286C210.409 29.8286 208.78 32.3962 207.049 35.534L203.901 41.2395L204.777 41.959C205.642 42.6699 205.661 42.6661 206.424 41.6016C209.458 37.3706 210.97 35.6033 213.111 33.7845C214.456 32.6422 215.629 31.7796 215.717 31.8678C215.805 31.9564 215.615 32.7741 215.295 33.6851C214.62 35.6029 214.58 36.0176 215.064 36.0176C215.682 36.0176 223 29.6077 223 29.0658C223 28.561 220.923 27.5971 219.705 27.5371C219.377 27.5209 217.732 28.3595 216.051 29.4004ZM199.822 32.7738C193.684 41.9358 193.652 41.9725 190.832 42.962C186.375 44.5255 181.24 47.2652 179.829 48.833C178.303 50.528 176.446 54.0414 175.796 56.4636C175.159 58.8367 175.868 59.8328 178.447 60.189C181.907 60.6663 182.294 60.4261 187.98 54.2603C190.857 51.1411 194.262 47.2583 195.548 45.6322C197.764 42.8289 197.987 42.6591 199.842 42.3624C201.781 42.0526 201.786 42.048 200.354 41.911C199.559 41.8352 198.909 41.6905 198.909 41.59C198.909 41.4894 200.097 39.6288 201.549 37.4553C203.001 35.2815 204.479 32.9389 204.834 32.2496C205.475 31.0002 205.473 30.9902 204.19 29.5857L202.903 28.1757L199.822 32.7738ZM187.627 49.2519C185.606 51.6529 183.144 54.4878 182.156 55.5515C180.422 57.4191 180.368 57.4457 180.591 56.3251C181.087 53.8271 183.127 50.3876 185.286 48.4068C187.252 46.6042 190.792 44.3943 191.154 44.7444C191.235 44.8225 189.647 46.851 187.627 49.2519ZM124.901 62.9009V76.6328H126.057H127.213V62.9009V49.1691H126.057H124.901V62.9009ZM47.4662 51.8873C44.2622 52.5584 41.056 54.7099 39.8726 56.9828C39.5735 57.5576 39.3288 58.9149 39.3288 59.9999C39.3288 63.2955 40.9303 65.3765 44.8524 67.1764C51.887 70.4051 61.2525 66.3084 61.2915 59.9852C61.3238 54.7257 54.1046 50.4974 47.4662 51.8873ZM73.6423 52.7603C73.1166 53.0276 72.4686 53.6778 72.2022 54.2054C71.5801 55.4397 71.5335 64.6091 72.1429 65.951C72.8872 67.5903 73.9927 67.7589 83.273 67.6471C91.9358 67.5427 91.9439 67.5419 92.0673 66.6724L92.1902 65.802H83.3752C77.0324 65.802 74.4298 65.6717 74.0972 65.3379C73.8428 65.0826 73.6346 64.0413 73.6346 63.0239V61.1742L82.7893 61.0706C91.9316 60.9669 91.9439 60.9658 92.0661 60.1035L92.1883 59.2405L83.0078 59.1365L73.8273 59.0328L73.7117 57.2423C73.5159 54.2073 73.5459 54.1977 83.2984 54.1977H91.7512V53.2307V52.2636L83.1747 52.2694C77.0702 52.2733 74.3227 52.4149 73.6423 52.7603ZM119.037 55.6482L118.926 59.0328H110.446H101.966L101.854 55.8416C101.744 52.717 101.721 52.6504 100.769 52.6504H99.7961L99.9175 59.4069C100.023 65.2721 100.129 66.2542 100.726 66.853C101.333 67.4619 102.35 67.557 109.399 67.6634C113.791 67.7295 117.947 67.6785 118.636 67.5493C120.738 67.1551 121.046 66.0187 121.046 58.6654V52.2636H120.097C119.17 52.2636 119.146 52.3406 119.037 55.6482ZM137.428 52.7062C135.815 53.6001 135.694 54.1269 135.694 60.2393V66.1327L136.709 66.9342C137.671 67.6935 138.203 67.7361 146.731 67.7361H155.737V66.776V65.8163L146.775 65.7123L137.814 65.6086L137.698 63.3918L137.583 61.1746L146.564 61.071L155.545 60.9669L155.668 60.0966L155.791 59.2262H146.706H137.621V56.9468C137.621 55.2251 137.77 54.6097 138.231 54.4325C138.566 54.3033 142.654 54.1977 147.315 54.1977H155.791L155.668 53.3274C155.545 52.4574 155.542 52.457 146.872 52.3681C141.106 52.3089 137.941 52.4222 137.428 52.7062ZM55.5072 54.904C61.843 58.0534 60.004 64.7658 52.4344 66.1223C46.7226 67.1458 41.2561 64.1515 41.2561 59.9999C41.2561 54.7412 49.3545 51.8451 55.5072 54.904ZM119.119 63.017C119.119 64.0382 118.911 65.0826 118.656 65.3379C118.327 65.6682 115.958 65.802 110.446 65.802C104.934 65.802 102.565 65.6682 102.236 65.3379C101.981 65.0826 101.773 64.0382 101.773 63.017V61.1603H110.446H119.119V63.017ZM49.3507 72.7646V75.0855H42.9906H36.6305V76.0525V77.0196H50.3413H64.0517L63.9288 76.1492C63.8073 75.2924 63.7071 75.2774 57.5417 75.1725L51.278 75.0661V72.755C51.278 70.5474 51.2348 70.4438 50.3143 70.4438C49.3935 70.4438 49.3507 70.547 49.3507 72.7646ZM81.3438 72.755V75.0661L75.0801 75.1725C68.9147 75.2774 68.8144 75.2924 68.693 76.1492L68.5701 77.0196H82.2805H95.9912V76.0525V75.0855H89.6312H83.2711V72.7646C83.2711 70.547 83.2283 70.4438 82.3074 70.4438C81.387 70.4438 81.3438 70.5474 81.3438 72.755ZM132.224 76.2459V77.4064H145.908H159.592V76.2459V75.0855H145.908H132.224V76.2459ZM36.1233 137.522C34.1952 138.23 33.2092 139.147 32.3446 141.037C31.7294 142.381 31.6354 143.657 31.6281 150.743C31.62 158.544 31.6589 158.977 32.5158 160.607C33.0697 161.66 33.9898 162.645 34.9249 163.186C36.397 164.037 36.6899 164.058 45.7578 163.96C56.1271 163.848 56.1698 163.837 58.1199 160.962C58.9571 159.727 58.9872 159.375 58.9872 150.805C58.9872 140.708 58.8206 139.965 56.1617 138.198C54.6153 137.17 54.6026 137.169 46.1036 137.076C39.592 137.004 37.2488 137.109 36.1233 137.522ZM148.414 151.094V161.344H150.534H152.654V151.094V140.843H150.534H148.414V151.094ZM67.0818 151.287V161.344H69.193H71.3045L71.4093 154.294L71.5146 147.243L75.5076 146.373C81.2914 145.113 80.9583 144.659 80.9583 153.815V161.344H83.0784H85.1984V154.416V147.487L89.5209 146.45L93.8438 145.412L94.5319 146.265C95.1371 147.015 95.2203 147.979 95.2203 154.231V161.344H97.3735H99.5267L99.3941 153.125C99.2831 146.224 99.1543 144.707 98.5923 143.671C97.1172 140.953 95.5653 140.715 88.8857 142.186L84.6715 143.114L83.5563 142.172C82.2473 141.067 80.719 140.975 76.8397 141.767C71.3168 142.895 71.3219 142.895 71.3219 142.021C71.3219 141.32 71.0806 141.23 69.2018 141.23H67.0818V151.287ZM108.711 141.609C105.69 142.003 105.015 142.284 103.91 143.601C102.945 144.753 102.929 144.873 102.929 151.26C102.929 157.374 102.98 157.824 103.808 159.058C105.205 161.137 105.953 161.332 112.541 161.339C117.758 161.344 118.691 161.247 120.122 160.551C122.852 159.225 123.011 158.752 121.231 157.253C119.805 156.051 119.642 156.003 118.829 156.538C118.142 156.989 116.83 157.088 112.659 157.004L107.362 156.896L107.245 155.285C107.109 153.404 106.397 153.728 114.301 152.068C117.481 151.4 120.356 150.774 120.691 150.679C121.227 150.525 121.247 150.148 120.86 147.511C120.366 144.141 119.954 143.189 118.491 142.034C117.625 141.35 116.978 141.238 114.152 141.281C112.326 141.309 109.877 141.456 108.711 141.609ZM125.672 151.287V161.344H127.792H129.912V154.265V147.185L134.598 146.279C139.128 145.403 139.301 145.397 139.801 146.083C140.086 146.474 140.319 146.913 140.319 147.059C140.319 147.368 143.843 146.692 144.262 146.303C144.737 145.863 143.778 143.119 142.81 142.148C141.646 140.979 139.681 140.947 134.152 142.004C131.926 142.429 130.062 142.777 130.009 142.777C129.955 142.777 129.912 142.429 129.912 142.004C129.912 141.324 129.655 141.23 127.792 141.23H125.672V151.287ZM159.115 141.836C157.734 142.588 156.88 144.309 156.616 146.87C156.223 150.696 157.63 151.677 166.029 153.432C171.27 154.527 171.914 154.894 171.141 156.344C170.781 157.018 170.29 157.09 166.024 157.09C162.344 157.09 161.114 156.955 160.435 156.477C159.608 155.897 159.487 155.931 158.069 157.154C157.246 157.863 156.559 158.55 156.541 158.681C156.523 158.812 157.231 159.421 158.114 160.035L159.719 161.151H166.201H172.683L173.87 159.96C174.798 159.028 175.151 158.216 175.49 156.23C175.868 154.016 175.84 153.563 175.269 152.688C174.187 151.031 173.124 150.59 167.096 149.306C163.923 148.63 161.174 147.941 160.988 147.776C160.803 147.611 160.763 147.028 160.899 146.48L161.148 145.485H166.067C169.881 145.485 171.175 145.619 171.836 146.084C172.643 146.651 172.774 146.602 174.315 145.159L175.942 143.637L174.052 142.433L172.161 141.23L166.166 141.246C161.616 141.257 159.916 141.4 159.115 141.836ZM39.2848 142.948C39.8934 143.264 40.4994 143.804 40.6312 144.149C40.9076 144.871 40.9623 158.25 40.689 158.25C40.5888 158.25 39.5481 157.824 38.3763 157.304L36.2451 156.358V148.997V141.636L37.2114 142.005C37.743 142.208 38.6758 142.632 39.2848 142.948ZM54.187 159.714C54.0826 159.819 53.1687 159.545 52.1557 159.106L50.3143 158.306L50.2087 151.634C50.1405 147.334 50.2473 144.818 50.509 144.555C50.7326 144.331 51.6473 143.86 52.5423 143.509L54.1689 142.87L54.273 151.197C54.3301 155.777 54.2915 159.61 54.187 159.714ZM45.5212 145.533L47.4234 146.354V152.254V158.155L45.5212 158.976C44.4746 159.428 43.5206 159.797 43.4011 159.797C43.2813 159.797 43.1833 156.403 43.1833 152.254C43.1833 148.106 43.2813 144.712 43.4011 144.712C43.5206 144.712 44.4746 145.081 45.5212 145.533ZM115.958 145.563C117.034 146.642 116.481 147.352 114.204 147.815C112.985 148.064 110.904 148.49 109.579 148.763L107.17 149.259V147.766C107.17 146.061 107.25 146.021 111.634 145.51C115.517 145.059 115.455 145.058 115.958 145.563Z" fill="black"/>
</svg>
