<svg width="99" height="77" viewBox="0 0 99 77" fill="none" xmlns="http://www.w3.org/2000/svg">
<path fill-rule="evenodd" clip-rule="evenodd" d="M28.9228 0.62176C28.0284 1.24514 27.8053 2.63207 28.4898 3.31364C28.7843 3.60682 28.7687 3.93247 28.4344 4.46555C27.8117 5.45843 28.264 7.09926 29.2457 7.40982C31.2776 8.05171 33.1825 6.29642 32.279 4.6148C31.9864 4.07113 31.9675 3.58716 32.2202 3.11717C32.7586 2.11598 32.334 0.947053 31.2545 0.457415C30.0509 -0.0885171 29.9287 -0.0802062 28.9228 0.62176ZM34.1504 0.191054C34.1504 0.277572 34.484 1.12387 34.8919 2.07103C35.6307 3.78703 35.6307 3.80024 34.8604 5.534C33.8601 7.78535 34.2195 8.16128 35.3256 6.02062L36.174 4.3783L36.8844 5.98398C37.8876 8.25309 38.4496 7.99052 37.4934 5.69949C36.7277 3.86524 36.7239 3.75831 37.3648 2.08726C38.2231 -0.150113 37.7981 -0.583824 36.8718 1.58403L36.1623 3.24487L35.3385 1.63919C34.6213 0.241683 34.1504 -0.332209 34.1504 0.191054ZM58.8146 0.295698C57.7127 0.687862 57.2968 1.70683 57.2968 4.01409C57.2968 6.62626 57.9415 7.58966 59.6897 7.58966C60.9787 7.58966 62.0316 6.09428 61.692 4.74589C61.3744 3.4859 59.7967 2.7352 58.7866 3.36349C58.1301 3.77153 58.0557 3.70996 58.0557 2.75675C58.0557 0.797063 59.391 0.220135 60.6971 1.61613C61.4545 2.4254 61.4708 2.42654 61.4708 1.6766C61.4708 1.22209 61.0777 0.732081 60.5043 0.47215C59.9727 0.230731 59.5033 0.0471046 59.4608 0.0633503C59.4183 0.079596 59.1277 0.184245 58.8146 0.295698ZM63.368 0.168755C63.368 0.267741 63.7035 1.12764 64.1133 2.08009C64.8543 3.801 64.8543 3.82217 64.1133 5.54308C63.2603 7.52506 63.2216 7.72453 63.7532 7.39734C63.9649 7.267 64.4123 6.53445 64.747 5.76939L65.3552 4.3783L66.0834 5.98398C66.4841 6.86691 66.9701 7.58966 67.1633 7.58966C67.3568 7.58966 67.1641 6.78229 66.7353 5.79507C65.9821 4.06094 65.9775 3.93928 66.604 2.18739C67.4331 -0.131972 67.0734 -0.546055 66.0986 1.60518L65.3552 3.24487L64.747 1.85379C64.2245 0.659536 63.368 -0.386999 63.368 0.168755ZM54.5648 0.864692C54.846 1.14465 55.0201 2.51873 55.0201 4.45386C55.0201 6.29265 55.1772 7.58966 55.3996 7.58966C55.6258 7.58966 55.779 6.14152 55.779 4.00049C55.779 0.554508 55.7457 0.411319 54.9443 0.411319C54.295 0.411319 54.2108 0.512198 54.5648 0.864692ZM31.2776 1.38266C32.0198 2.12202 32.0263 2.45942 31.3095 3.05182C30.535 3.69183 28.8381 3.22257 28.8381 2.36873C28.8381 0.925125 30.2463 0.355775 31.2776 1.38266ZM60.861 4.66165C61.4711 5.63111 60.6952 6.64514 59.3425 6.64514C58.486 6.64514 58.2181 6.45435 58.1214 5.7743C57.8671 3.98689 59.9127 3.15571 60.861 4.66165ZM31.6897 4.96313C32.0251 6.01495 31.201 6.89675 30.0122 6.75885C29.0191 6.64324 28.5809 5.77995 28.9838 4.73418C29.3189 3.86522 31.396 4.0409 31.6897 4.96313ZM46.6723 10.6049C46.6723 15.3925 46.6518 15.513 45.8185 15.6664C45.3491 15.7529 43.7088 16.0136 42.1739 16.246C39.1482 16.7039 34.8816 18.3164 32.1762 20.0248L30.4739 21.0997L27.4843 17.178C25.8401 15.0215 24.372 13.2568 24.2225 13.2568C23.239 13.2568 23.8476 14.5016 26.5068 17.9314L29.5378 21.8413L27.4554 23.8773C24.4384 26.8265 22.062 30.5872 20.5176 34.8564L20.1525 35.8655L15.3112 34.5806C11.6612 33.6123 10.3999 33.409 10.1852 33.7551C9.79965 34.3758 10.1825 34.5383 14.8509 35.7367C17.071 36.3064 19.087 36.8954 19.3307 37.0458C19.6687 37.2536 19.6668 37.9325 19.3227 39.9009C18.6651 43.6593 19.1444 48.5274 20.6254 53.1389C20.85 53.8386 20.4094 54.1065 16.3194 55.759C13.7429 56.7998 11.7629 57.8154 11.7629 58.0965C11.7629 58.8842 12.5226 58.7051 16.8646 56.8935C19.1064 55.9585 21.053 55.1934 21.1903 55.1934C21.3277 55.1934 21.8669 55.9985 22.3883 56.9823C23.9269 59.8858 27.4069 63.9378 30.0554 65.9103L32.5241 67.7487L30.112 71.8811C28.7854 74.154 27.6998 76.1746 27.6998 76.371C27.6998 76.5675 27.9464 76.7284 28.2473 76.7284C28.5486 76.7284 29.7439 75.0706 30.9035 73.0448C32.0631 71.019 33.1525 69.1447 33.3244 68.8802C33.5676 68.5054 34.1064 68.6059 35.7604 69.3344C39.5591 71.0069 42.3887 71.5747 47.0517 71.6004C51.7584 71.6265 54.0097 71.2067 58.165 69.5278L60.7411 68.4873L61.2503 69.3022C61.5303 69.7503 62.6528 71.6469 63.7441 73.5171C64.8357 75.3872 65.7574 76.9506 65.7927 76.9914C65.8276 77.0318 66.0819 76.9264 66.3574 76.7568C66.7395 76.5218 66.2651 75.428 64.3603 72.1494L61.862 67.8499L62.7101 67.1823C67.4839 63.4235 69.6191 61.0993 71.6723 57.4285C72.5875 55.7915 73.1324 55.1825 73.5695 55.3083C73.9065 55.4054 76.0261 56.2618 78.2793 57.212C81.6484 58.6326 82.4153 58.8388 82.5951 58.3726C82.7154 58.0606 82.7499 57.7572 82.6721 57.6979C82.594 57.6386 80.5241 56.7719 78.0717 55.7715C75.6193 54.7714 73.6132 53.8937 73.6132 53.8216C73.6132 53.7494 73.9824 52.3712 74.4335 50.7583C75.2122 47.975 75.3939 44.1112 75.0224 38.2238L74.9412 36.9332L79.4946 35.7333C82.8053 34.8609 84.0814 34.3622 84.1706 33.907C84.3296 33.0966 84.4491 33.0811 78.9907 34.5636C74.8335 35.6925 74.2901 35.7654 74.1091 35.2184C72.8323 31.3681 70.2456 27.2236 67.1212 24.0243L64.9078 21.7574L67.9154 17.8211C70.6607 14.2281 71.1456 13.2568 70.1955 13.2568C70.0096 13.2568 68.5426 14.9569 66.9356 17.0348C65.3283 19.1128 63.8518 20.8129 63.6541 20.8129C63.4568 20.8129 62.8031 20.4638 62.2012 20.0373C59.5383 18.149 53.0098 15.9014 50.189 15.9014C47.8087 15.9014 47.8106 15.9056 47.8106 10.5717C47.8106 6.49364 47.718 5.70062 47.2414 5.70062C46.7649 5.70062 46.6723 6.4974 46.6723 10.6049ZM6.4977 18.9239C5.84618 20.2745 5.31266 21.5923 5.31266 21.8519C5.31228 22.1511 5.86856 22.3242 6.83009 22.3242C8.19611 22.3242 8.34789 22.4186 8.34789 23.2687C8.34789 23.7882 8.51864 24.2132 8.72733 24.2132C8.93603 24.2132 9.10678 23.7882 9.10678 23.2687C9.10678 22.7492 9.31169 22.3242 9.56213 22.3242C9.91615 22.3242 9.91615 22.2233 9.56213 21.8708C9.31169 21.6214 9.10678 20.7714 9.10678 19.9817C9.10678 19.1921 8.93603 18.5461 8.72733 18.5461C8.51864 18.5461 8.34789 19.2261 8.34789 20.0573C8.34789 21.4816 8.28301 21.5685 7.21903 21.5685C6.17061 21.5685 6.11596 21.5009 6.45177 20.6214C6.6506 20.1004 7.08356 19.154 7.41406 18.5177C7.74418 17.8819 7.93998 17.1603 7.84854 16.9147C7.75747 16.6691 7.14959 17.5732 6.4977 18.9239ZM11.3835 16.798C11.3835 16.8754 11.731 17.7206 12.1556 18.6764L12.9274 20.4139L12.1333 21.9641C11.6965 22.8164 11.4074 23.7137 11.4912 23.9582C11.5747 24.2022 12.0331 23.6446 12.5093 22.719L13.3756 21.0358L14.2935 22.719C15.2713 24.512 15.3244 23.6129 14.3777 21.2939C13.9341 20.2073 13.9706 19.8892 14.7135 18.3659C15.1723 17.4259 15.3764 16.657 15.167 16.657C14.9575 16.657 14.5014 17.2521 14.1531 17.9794C13.8047 18.7066 13.4147 19.3017 13.2868 19.3017C13.1585 19.3017 12.8375 18.7066 12.5734 17.9794C12.3093 17.2521 11.9337 16.657 11.7383 16.657C11.5432 16.657 11.3835 16.7205 11.3835 16.798ZM78.6306 17.2453C78.1666 17.5687 77.7871 18.1082 77.7871 18.4445C77.7871 18.9394 77.9613 18.8929 78.7035 18.1985C79.8631 17.1138 81.2021 17.4111 81.2021 18.7531C81.2021 19.4109 80.9377 19.7313 80.2535 19.902C79.1448 20.1793 78.9805 20.8129 80.0175 20.8129C81.1229 20.8129 81.7186 21.7408 81.2151 22.6778C80.6683 23.6952 79.4992 23.6725 78.7661 22.6302C78.14 21.7404 77.5477 21.9135 77.9192 22.878C78.2887 23.8365 79.92 24.3998 80.9597 23.9279C82.0893 23.4156 82.4027 22.275 81.7554 21.0324C81.4613 20.4684 81.4002 19.9802 81.6074 19.8525C82.2692 19.4453 81.9675 17.8377 81.1175 17.2453C80.6538 16.9219 80.0942 16.657 79.8741 16.657C79.654 16.657 79.0943 16.9219 78.6306 17.2453ZM84.2377 17.4127C83.4705 18.1766 83.2379 18.9239 83.7669 18.9239C83.9255 18.9239 84.2685 18.5839 84.5291 18.1683C85.5555 16.532 87.811 17.9733 86.8939 19.6795C86.6704 20.0951 86.341 20.4351 86.1619 20.4351C85.4805 20.4351 83.4789 22.6623 83.4789 23.4202C83.4789 24.1297 83.6989 24.2132 85.5658 24.2132C86.7137 24.2132 87.6528 24.0432 87.6528 23.8354C87.6528 23.6276 86.9698 23.4576 86.135 23.4576C85.2604 23.4576 84.6172 23.277 84.6172 23.031C84.6172 22.7964 85.4019 21.8764 86.3611 20.9871C87.7966 19.6565 88.0584 19.2137 87.8406 18.486C87.2897 16.6434 85.5351 16.1209 84.2377 17.4127ZM89.55 17.0277C89.55 17.2559 89.895 18.1161 90.3165 18.939L91.0834 20.4351L90.2945 21.9747C89.8608 22.8214 89.574 23.7137 89.6578 23.9582C89.7413 24.2022 90.1943 23.6548 90.6645 22.7413L91.5194 21.0804L92.2866 22.7413C92.7086 23.6548 93.1237 24.2185 93.2095 23.9937C93.2948 23.7693 93.0319 22.8448 92.6247 21.9392C91.8894 20.3036 91.8894 20.2829 92.6365 18.8245C93.0505 18.0168 93.3168 17.1565 93.2288 16.9121C93.1407 16.668 92.7575 17.1059 92.3773 17.8849C91.9971 18.6643 91.568 19.3017 91.423 19.3017C91.2784 19.3017 90.946 18.7879 90.685 18.1603C90.1848 16.9582 89.55 16.3246 89.55 17.0277ZM54.451 20.0615C58.4341 21.2886 61.7319 23.2781 64.7272 26.2602C69.2021 30.7156 71.5896 36.0813 71.9702 42.5368C72.6702 54.4087 64.3482 65.2495 52.5241 67.8688C48.7129 68.7128 42.9521 68.4597 39.4627 67.2949C24.945 62.4492 18.2492 46.1408 25.1423 32.4165C27.3697 27.9826 31.6613 23.7489 36.0689 21.6377C37.8311 20.7933 40.4683 19.8401 41.9291 19.5189C45.4732 18.7399 50.9289 18.976 54.451 20.0615ZM33.4655 42.8739L26.1406 46.6927L34.1436 47.9697C38.5452 48.6721 42.2338 49.1602 42.3401 49.054C42.4463 48.9482 42.2695 47.2277 41.9466 45.231C41.6241 43.2343 41.36 41.0985 41.36 40.4854C41.36 39.8718 41.2321 39.2994 41.0754 39.2125C40.9187 39.126 37.4945 40.7736 33.4655 42.8739ZM0.596109 42.9415C-0.0804494 43.6151 -0.184412 44.237 0.379449 44.237C0.588146 44.237 0.758899 44.073 0.758899 43.8724C0.758899 43.1731 2.27784 42.6343 2.87016 43.1236C3.87874 43.957 3.48183 45.1547 1.70752 46.6315C0.755484 47.4238 0 48.3785 0 48.7896C0 49.4307 0.270547 49.5263 2.08697 49.5263C4.64142 49.5263 4.87099 48.8564 2.37156 48.697L0.569174 48.5818L2.37156 46.9081C4.22327 45.1883 4.68923 43.7678 3.7186 42.8013C3.07391 42.1594 1.30188 42.2391 0.596109 42.9415ZM6.09926 42.6313C6.11482 42.7873 6.43318 43.5947 6.80656 44.4259C7.47704 45.9186 7.47439 45.959 6.5823 47.7317C6.08522 48.7185 5.85529 49.5263 6.07082 49.5263C6.28635 49.5263 6.74774 48.9312 7.09608 48.204C7.44441 47.4767 7.83715 46.8816 7.96844 46.8816C8.09972 46.8816 8.50231 47.4978 8.86317 48.2508C9.81786 50.2445 10.0706 49.5297 9.14625 47.4495C8.36382 45.6881 8.36382 45.687 9.11475 44.2215C9.94878 42.5935 10.0068 42.3479 9.55643 42.3479C9.38644 42.3479 8.93262 42.9857 8.54824 43.7647L7.84891 45.1815L7.28807 43.7647C6.80389 42.5421 6.01578 41.7907 6.09926 42.6313ZM84.6172 42.6358C83.5221 42.9759 83.0994 44.0129 83.0994 46.3603C83.0994 49.048 83.6538 49.9041 85.3943 49.9041C87.6535 49.9041 88.3187 46.5839 86.2477 45.6447C85.5529 45.3292 85.1363 45.3375 84.5891 45.678C83.9293 46.0883 83.8583 46.0233 83.8583 45.0092C83.8583 44.2853 84.1193 43.7466 84.5921 43.4946C85.5742 42.9713 85.6099 42.9793 86.4997 43.9306C87.1015 44.5736 87.2733 44.6257 87.2733 44.1656C87.2733 43.1923 85.7149 42.2951 84.6172 42.6358ZM95.2399 42.5682C95.2387 42.7586 95.5173 43.6903 95.8584 44.6382C96.4515 46.2862 96.4443 46.4396 95.6918 48.1329C95.2592 49.1069 95.0733 49.9041 95.2786 49.9041C95.4843 49.9041 95.9722 49.1814 96.3634 48.2984L97.0745 46.6927L97.7336 48.2984C98.096 49.1814 98.5373 49.9041 98.7145 49.9041C99.1546 49.9041 99.1387 49.827 98.291 47.8575C97.5492 46.1343 97.5492 46.1177 98.3005 44.3722C99.2757 42.1073 98.9634 41.7828 97.8626 43.917L97.0153 45.5593L96.3824 44.1433C95.7108 42.6415 95.2429 41.9962 95.2399 42.5682ZM89.9136 45.2174C89.2958 46.5877 88.8864 47.8628 89.0029 48.0509C89.1197 48.2391 89.8881 48.3929 90.7108 48.3929C91.9986 48.3929 92.2062 48.5081 92.2062 49.224C92.2062 49.8758 92.3056 49.9562 92.6668 49.5966C93.1563 49.1092 93.1605 45.2185 92.6725 44.4716C92.5204 44.2385 92.3105 44.8131 92.2062 45.7482C92.0366 47.2666 91.9049 47.4612 90.973 47.5677C89.6942 47.7143 89.6874 47.5209 90.8732 44.8506C91.3923 43.682 91.6416 42.7258 91.4268 42.7258C91.2117 42.7258 90.5309 43.8471 89.9136 45.2174ZM86.5782 47.0592C87.1363 48.2784 86.4025 49.232 85.0293 49.0733C84.3368 48.9928 84.0116 48.7034 83.9239 48.0887C83.6564 46.2099 85.8079 45.3757 86.5782 47.0592ZM75.8899 67.661C75.8899 67.8688 76.0606 68.0388 76.2693 68.0388C76.4924 68.0388 76.6488 69.3612 76.6488 71.2502C76.6488 73.1392 76.8051 74.4616 77.0282 74.4616C77.2544 74.4616 77.4077 73.0134 77.4077 70.8724C77.4077 67.5352 77.3545 67.2832 76.6488 67.2832C76.2314 67.2832 75.8899 67.4532 75.8899 67.661ZM79.5216 67.8768C79.1937 68.2036 78.9255 68.6286 78.9255 68.8213C78.9255 69.3952 79.5849 69.2199 79.8312 68.5802C79.9799 68.1941 80.4231 68.0298 81.105 68.108C81.9151 68.2009 82.177 68.4529 82.2669 69.2259C82.3568 69.9989 82.0999 70.4171 81.1285 71.0791C79.539 72.1622 78.9255 72.9141 78.9255 73.7781C78.9255 74.3546 79.2518 74.4616 81.0124 74.4616C82.1603 74.4616 83.0994 74.2916 83.0994 74.0838C83.0994 73.876 82.331 73.706 81.3919 73.706C80.4527 73.706 79.6844 73.5563 79.6844 73.3735C79.6844 73.191 80.4527 72.4146 81.3919 71.6484C82.5386 70.7126 83.0994 69.9619 83.0994 69.3627C83.0994 68.2213 82.158 67.2832 81.0124 67.2832C80.5207 67.2832 79.8498 67.5503 79.5216 67.8768ZM85.0725 67.7366C84.5178 68.289 84.4867 69.3566 84.9978 70.3076C85.252 70.7806 85.252 71.093 84.9978 71.2494C84.4264 71.6012 84.5402 73.5495 85.1617 74.0634C86.1069 74.8447 88.1305 74.3936 88.7669 73.2594C89.2825 72.3398 89.2727 72.1777 88.6591 71.5026C88.2185 71.0179 88.1237 70.6718 88.387 70.5097C88.9346 70.1731 88.8997 68.298 88.3358 67.7366C88.0854 67.4873 87.3511 67.2832 86.7042 67.2832C86.0572 67.2832 85.323 67.4873 85.0725 67.7366ZM90.6884 67.4872C90.6884 67.5994 91.028 68.3543 91.4435 69.1647C92.1974 70.6359 92.1974 70.6416 91.4435 72.3923C90.5768 74.406 90.5658 74.4616 91.0432 74.4616C91.2386 74.4616 91.6142 73.8665 91.8783 73.1392C92.1424 72.412 92.4634 71.8169 92.5917 71.8169C92.7196 71.8169 93.1096 72.412 93.458 73.1392C93.8063 73.8665 94.2677 74.4616 94.4832 74.4616C94.6988 74.4616 94.4624 73.6508 93.9581 72.6602C93.1605 71.0927 93.1043 70.7368 93.5251 69.9211C94.2461 68.5239 94.5747 67.2829 94.2237 67.2851C94.0533 67.2863 93.6416 67.9236 93.3092 68.7019L92.7048 70.1168L92.0059 68.7C91.4063 67.4854 90.6884 66.8242 90.6884 67.4872ZM13.6602 67.7963C13.6602 67.8953 13.9937 68.7514 14.4016 69.6986C15.1404 71.4146 15.1404 71.4278 14.3701 73.1615C13.3699 75.4129 13.7292 75.7888 14.8353 73.6481L15.6838 72.0058L16.3941 73.6115C17.3974 75.8806 17.9593 75.618 17.0031 73.327C16.2374 71.4928 16.2336 71.3858 16.8745 69.7148C17.7347 67.4721 17.3093 67.0531 16.3638 69.2116L15.636 70.8724L15.0334 69.4813C14.5162 68.2886 13.6602 67.2379 13.6602 67.7963ZM10.9357 71.3439C11.1069 75.9981 11.7629 76.2837 11.7629 71.7036C11.7629 69.0242 11.6354 68.0385 11.2886 68.0381C10.9361 68.0373 10.8454 68.8855 10.9357 71.3439ZM87.8425 69.1723C87.8425 69.9222 87.6274 70.1413 86.7968 70.2366C85.6755 70.365 85.1158 69.6373 85.5229 68.5802C85.6717 68.1941 86.1149 68.0298 86.7968 68.108C87.6274 68.2032 87.8425 68.4223 87.8425 69.1723ZM88.017 71.6099C88.2709 71.9144 88.3616 72.5125 88.2208 72.9537C87.8402 74.1476 85.617 73.8771 85.4379 72.6152C85.2353 71.1898 87.0707 70.4742 88.017 71.6099Z" fill="black"/>
</svg>
