<svg width="107" height="76" viewBox="0 0 107 76" fill="none" xmlns="http://www.w3.org/2000/svg">
<path fill-rule="evenodd" clip-rule="evenodd" d="M31.2944 0.604827C30.6104 1.29128 30.5053 1.925 31.0754 1.925C31.2864 1.925 31.459 1.7579 31.459 1.55346C31.459 0.840828 32.9947 0.291821 33.5936 0.790395C34.5497 1.58657 34.2431 2.95793 32.8977 3.9058C31.3401 5.00305 30.7197 5.77691 30.704 6.64124C30.6936 7.20256 31.0431 7.31498 32.8018 7.31498C33.9623 7.31498 34.9118 7.14173 34.9118 6.92999C34.9118 6.71824 34.1349 6.54499 33.1854 6.54499C32.2359 6.54499 31.459 6.39252 31.459 6.20618C31.459 6.02023 32.2359 5.22904 33.1854 4.44826C34.9763 2.97564 35.4547 1.46878 34.4514 0.462004C33.7996 -0.19211 32.008 -0.110886 31.2944 0.604827ZM36.9267 0.481249C38.179 3.85423 38.1728 3.76991 37.2954 5.58171C36.8339 6.53497 36.6294 7.31498 36.8412 7.31498C37.0529 7.31498 37.5141 6.70861 37.8663 5.96749C38.2185 5.22636 38.6155 4.61999 38.7483 4.61999C38.881 4.61999 39.2881 5.24791 39.6529 6.01521C40.6109 8.03145 40.8284 7.37311 39.9126 5.22905C39.1404 3.42071 39.1404 3.41801 39.9031 1.91729C40.7509 0.249857 40.8096 0 40.3538 0C40.182 0 39.7231 0.649879 39.3345 1.44375L38.6278 2.88749L38.0167 1.44567C37.6806 0.652576 37.2574 0.00308187 37.0767 0.00192688C36.896 0.000771878 36.8285 0.216755 36.9267 0.481249ZM72.1309 2.29883C70.5721 5.39808 70.6132 5.77499 72.5092 5.77499C73.7879 5.77499 74.0437 5.90319 74.0437 6.54499C74.0437 6.96848 74.2164 7.31498 74.4274 7.31498C74.6384 7.31498 74.811 6.98273 74.811 6.57694C74.811 6.17115 75.027 5.73803 75.2906 5.61445C75.6742 5.43504 75.6742 5.34494 75.2906 5.16553C75.0117 5.03463 74.811 4.21958 74.811 3.21781C74.811 2.16715 74.6614 1.58735 74.4274 1.7325C74.2164 1.8634 74.0437 2.65301 74.0437 3.48769C74.0437 4.91681 73.977 5.00499 72.8928 5.00499C72.2598 5.00499 71.7419 4.91336 71.7419 4.80133C71.7419 4.68968 72.2621 3.56356 72.8982 2.29883C73.5343 1.0345 73.8822 0 73.6712 0C73.4602 0 72.767 1.0345 72.1309 2.29883ZM77.5641 1.79564L78.3556 3.59165L77.5249 5.3072C77.068 6.25084 76.7883 7.11747 76.9034 7.23335C77.1762 7.5067 77.2614 7.39813 78.1438 5.64831L78.8873 4.17378L79.5928 5.74456C79.9811 6.60811 80.4472 7.31498 80.629 7.31498C80.8109 7.31498 80.6797 6.66549 80.3375 5.87124C79.3247 3.52159 79.3131 3.24939 80.1575 1.58812C80.6018 0.714558 80.7929 0 80.5826 0C80.3724 0 79.8698 0.646397 79.4662 1.43642L78.7319 2.87285L78.1338 1.43642C77.805 0.646397 77.3638 0 77.154 0C76.9441 0 77.1287 0.808114 77.5641 1.79564ZM22.2515 3.46499C22.2515 5.15899 22.3558 6.54499 22.4832 6.54499C22.9386 6.54499 28.0062 3.7495 28.0062 3.49848C28.0062 3.2413 22.9482 0.384999 22.4932 0.384999C22.3604 0.384999 22.2515 1.771 22.2515 3.46499ZM61.7671 3.46499C61.7671 5.15899 61.8507 6.54499 61.9524 6.54499C62.3475 6.54499 67.9054 3.66943 67.9054 3.46499C67.9054 3.26056 62.3475 0.384999 61.9524 0.384999C61.8507 0.384999 61.7671 1.771 61.7671 3.46499ZM52.5596 8.0534C52.5596 10.5771 52.4548 12.9159 52.3267 13.2509C52.1667 13.6694 51.5962 13.8619 50.5044 13.8658C45.9459 13.8819 38.7909 16.9165 34.2266 20.7688C32.5167 22.2125 31.2507 23.0179 30.9656 22.8435C30.7094 22.6868 28.9979 21.2789 27.1622 19.7146C24.2541 17.2376 23.0188 16.6219 23.0188 17.6503C23.0188 17.8043 24.7456 19.3651 26.856 21.1183L30.6933 24.3065L29.5032 26.0421C26.2763 30.7491 24.5534 36.5426 24.5534 42.6876V46.5302L22.5392 46.9322C21.4313 47.1531 19.3166 47.5316 17.8396 47.773C15.0715 48.2258 14.3288 48.5626 14.7151 49.1902C14.9054 49.499 21.0361 48.6824 24.0193 47.9509C24.739 47.7745 24.9443 48.1103 25.8796 50.9951C26.4574 52.7784 27.5612 55.3228 28.3315 56.6492C29.7268 59.0504 34.3283 64.075 36.7702 65.8637L38.0531 66.8035L36.0601 70.2654C32.9518 75.6643 32.9211 75.7343 33.5599 75.9803C33.9427 76.1278 34.8727 74.8673 36.6578 71.7831C38.0604 69.3584 39.2451 67.3748 39.29 67.3748C39.3349 67.3748 40.0512 67.7021 40.8821 68.1017C48.2896 71.6664 57.6482 71.6599 65.0281 68.0855C66.2458 67.4957 66.6263 67.4449 66.8715 67.8399C67.041 68.1133 68.2069 70.1076 69.4622 72.2709C71.1104 75.1114 71.9034 76.1436 72.3166 75.9842C72.6312 75.8633 72.8264 75.6523 72.7509 75.5157C72.6753 75.379 71.5286 73.37 70.2031 71.0512L67.793 66.8347L69.0959 65.8537C74.7804 61.5737 79.3772 54.9394 80.3816 49.5663C80.7023 47.8512 80.5469 47.8685 86.3166 48.9111C89.7667 49.5344 90.7293 49.5964 90.9668 49.211C91.1314 48.9434 91.2023 48.6608 91.1244 48.5823C91.0462 48.5041 88.8122 48.0637 86.1593 47.6036L81.3361 46.7674L81.1964 41.7674C81.089 37.9186 80.8581 36.1472 80.1921 34.0724C79.2103 31.0148 77.6301 27.7527 76.2083 25.8488L75.2426 24.5553L78.8382 21.5214C82.8523 18.1346 83.1274 17.8166 82.5465 17.2337C82.2588 16.945 81.2026 17.6153 78.9544 19.5145C73.9689 23.7263 74.5348 23.6197 71.5792 20.902C67.4734 17.1263 61.6504 14.4898 56.3189 13.9928L53.7105 13.7495V8.60702C53.7105 4.29311 53.6176 3.46499 53.135 3.46499C52.6558 3.46499 52.5596 4.23151 52.5596 8.0534ZM59.4652 17.8886C63.5928 18.9955 67.0975 21.1172 70.6047 24.6311C75.7375 29.7747 77.9166 35.0353 77.9166 42.2837C77.9163 49.261 75.4732 55.2174 70.627 60.0549C55.9072 74.748 30.8337 66.1944 28.0177 45.5184C27.0831 38.6574 29.3175 31.0706 33.8108 25.8484C37.0338 22.1028 42.8073 18.6062 47.1885 17.7465C48.349 17.519 49.6438 17.2526 50.0658 17.1552C51.4105 16.8445 57.2792 17.3022 59.4652 17.8886ZM13.0612 28.1881C13.0516 28.5515 13.3302 29.4509 13.6797 30.187C14.2851 31.4606 14.277 31.6188 13.5093 33.4726C12.5357 35.8234 13.0939 36.1045 14.1278 33.7837L14.8567 32.1474L15.5266 33.7837C15.8949 34.6834 16.3502 35.4199 16.5386 35.4199C16.999 35.4199 16.9917 35.3853 16.1112 33.3879L15.342 31.6427L16.1112 29.8421C16.9902 27.7846 17.0301 27.5817 16.491 27.9159C16.277 28.0487 15.8319 28.7952 15.5024 29.5749L14.9031 30.9924L13.9908 29.2599C13.489 28.3071 13.0708 27.8247 13.0612 28.1881ZM9.74193 28.714C9.87007 29.0489 9.97481 30.6948 9.97481 32.3715C9.97481 34.1471 10.1352 35.4199 10.3585 35.4199C10.5871 35.4199 10.7421 33.9442 10.7421 31.7624C10.7421 28.6597 10.6485 28.1049 10.1256 28.1049C9.72083 28.1049 9.58924 28.3144 9.74193 28.714ZM0 31.5699C0 33.2639 0.129289 34.6538 0.287735 34.6584C0.715117 34.6707 6.12952 31.7967 6.13413 31.5545C6.13988 31.2689 0.971011 28.4899 0.433522 28.4899C0.147322 28.4899 0 29.5364 0 31.5699ZM97.6027 29.4524C97.0334 30.3245 97.0299 30.5004 97.5667 31.3224C98.1034 32.1443 98.1007 32.2883 97.5348 32.8562C97.0483 33.344 96.9923 33.7186 97.2812 34.5475C97.5854 35.4219 97.9131 35.634 99.1104 35.7337C99.9126 35.8003 100.816 35.649 101.118 35.3976C101.725 34.8913 101.865 32.8939 101.316 32.5536C101.112 32.4262 101.143 31.8675 101.394 31.2027C101.751 30.2509 101.705 29.9418 101.108 29.2792C100.103 28.1646 98.3884 28.2493 97.6027 29.4524ZM103.415 29.3562C103.561 29.8324 103.901 30.6536 104.17 31.1803C104.568 31.9572 104.568 32.3211 104.171 33.1053C103.424 34.581 103.111 35.8049 103.482 35.8049C103.664 35.8049 104.033 35.1985 104.3 34.4574C104.567 33.7163 104.933 33.1099 105.114 33.1099C105.295 33.1099 105.643 33.7163 105.886 34.4574C106.13 35.1985 106.489 35.8049 106.684 35.8049C107.157 35.8049 107.102 35.5023 106.3 33.6874C105.645 32.2067 105.647 32.0835 106.328 30.4792C107.146 28.5562 107.157 28.4899 106.684 28.4899C106.489 28.4899 106.13 29.0963 105.886 29.8374C105.643 30.5786 105.295 31.1849 105.114 31.1849C104.933 31.1849 104.567 30.5786 104.3 29.8374C103.771 28.3721 102.981 27.9425 103.415 29.3562ZM87.855 32.1474C87.855 33.9473 87.9241 35.4199 88.0081 35.4199C88.0925 35.4199 89.5565 34.6719 91.2618 33.7575L94.362 32.0951L91.3508 30.485C89.6946 29.5995 88.2306 28.8749 88.0971 28.8749C87.964 28.8749 87.855 30.3476 87.855 32.1474ZM100.707 30.4149C100.707 31.2111 100.5 31.3978 99.5094 31.4945C98.6669 31.5769 98.238 31.4194 98.0638 30.9643C97.7094 30.0373 98.5572 29.2018 99.7151 29.3365C100.487 29.4266 100.707 29.6661 100.707 30.4149ZM100.439 32.8019C101.667 34.0347 100.371 35.8284 98.7774 35.0996C97.6718 34.5941 97.5221 33.3278 98.5012 32.7557C99.3943 32.2337 99.8842 32.2456 100.439 32.8019ZM55.3479 47.2787C52.9777 48.6835 51.165 49.9586 51.3196 50.113C53.829 52.6163 63.1424 60.6801 63.2334 60.4279C63.4095 59.9405 60.1535 44.6534 59.8818 44.6922C59.7583 44.7103 57.7181 45.8742 55.3479 47.2787ZM9.20751 62.7549C8.59752 63.367 8.44022 64.0381 8.44022 66.0273C8.44022 68.0166 8.59752 68.6877 9.20751 69.2998C10.111 70.2065 11.0755 70.2808 12.1075 69.5235C12.7325 69.0646 12.8522 68.5029 12.8522 66.0273C12.8522 63.5518 12.7325 62.9901 12.1075 62.5312C11.0755 61.7739 10.111 61.8482 9.20751 62.7549ZM14.6388 66.1236C14.6825 69.137 14.7608 69.7387 14.9265 68.3373C15.1444 66.494 15.2108 66.4031 16.4968 66.1902L17.8396 65.9684L16.4968 65.8052C15.2488 65.6539 15.154 65.5473 15.154 64.2949C15.154 63.0559 15.2545 62.9377 16.4009 62.8269C18.1772 62.6548 17.9481 61.9849 16.1131 61.9849H14.5786L14.6388 66.1236ZM19.0546 62.2417C18.6563 62.6409 18.7538 69.6117 19.1608 69.8643C19.3634 69.9898 19.5748 69.2787 19.6404 68.2507C19.7532 66.482 19.8084 66.4035 21.1005 66.1744L22.4433 65.9361L21.0046 65.8857C19.5905 65.8356 19.566 65.8087 19.566 64.2949C19.566 62.7868 19.594 62.7549 20.9314 62.7549C21.7439 62.7549 22.2008 62.5989 22.0597 62.3699C21.7953 61.9406 19.4539 61.8405 19.0546 62.2417ZM83.6349 65.6481V68.9349L86.6082 67.319C88.2437 66.4304 89.6424 65.6574 89.7169 65.6008C89.7917 65.5446 88.4535 64.7927 86.7436 63.9299L83.6349 62.3614V65.6481ZM11.8796 63.4995C12.0979 63.9091 12.2767 65.0468 12.2767 66.0273C12.2767 68.1248 11.7484 69.2998 10.8054 69.2998C9.62223 69.2998 9.20751 68.4505 9.20751 66.0273C9.20751 64.7141 9.41047 63.4752 9.66789 63.2169C10.3592 62.5231 11.4319 62.6602 11.8796 63.4995ZM93.3201 64.3911C92.4718 65.4549 92.4476 66.487 93.2472 67.5069C94.2128 68.7385 95.4451 68.8163 96.8189 67.7317L97.8298 66.934L98.8407 67.7317C100.112 68.7354 101.07 68.7435 102.05 67.7598C104.351 65.4502 101.105 62.6178 98.5066 64.6687C97.5498 65.4241 97.5417 65.4241 96.8607 64.6687C96.0846 63.8082 93.9201 63.6384 93.3201 64.3911ZM96.4993 65.4633C97.1872 66.2264 97.1845 66.2683 96.4019 67.0541C94.9406 68.5202 92.6805 67.1924 93.6247 65.4221C94.1414 64.4527 95.607 64.4739 96.4993 65.4633ZM101.894 65.6473C102.379 67.5897 100.584 68.4066 99.0283 66.9517C98.2066 66.1833 98.1962 66.107 98.8235 65.4117C99.1864 65.009 99.9713 64.6799 100.568 64.6799C101.405 64.6799 101.707 64.8997 101.894 65.6473Z" fill="black"/>
</svg>
