<svg width="103" height="77" viewBox="0 0 103 77" fill="none" xmlns="http://www.w3.org/2000/svg">
<path fill-rule="evenodd" clip-rule="evenodd" d="M37.0037 3.19313C37.0037 5.00546 37.1323 6.42962 37.2898 6.35789C37.4474 6.28617 38.6441 5.66748 39.9491 4.98359C41.2546 4.29931 42.4135 3.7397 42.5241 3.7397C42.6351 3.7397 42.7259 4.34381 42.7259 5.08217C42.7259 5.82053 42.7984 6.42464 42.8873 6.42464C43.1585 6.42464 48.8296 3.29937 48.8296 3.14978C48.8296 2.97986 44.3266 0.434936 43.3935 0.0778401C42.8343 -0.136571 42.7259 0.0463891 42.7259 1.20551C42.7259 1.9665 42.6225 2.58902 42.4959 2.58902C42.3696 2.58902 41.3823 2.12989 40.3024 1.56836C39.2224 1.00682 38.0383 0.401548 37.6713 0.222425C37.0621 -0.0740683 37.0037 0.186392 37.0037 3.19313ZM17.6485 12.9977C17.2876 13.3606 17.5417 13.8857 18.8158 15.4088C19.7115 16.4801 21.1657 18.2295 22.047 19.297L23.6492 21.2382L21.9405 23.0827C14.285 31.3489 12.038 43.1909 16.2095 53.2905C16.7596 54.6226 17.2815 55.8849 17.3692 56.0959C17.4566 56.3069 15.5587 57.6014 13.1516 58.9726C10.744 60.3438 8.77446 61.585 8.77446 61.7308C8.77331 62.6325 10.0444 62.1941 13.8367 59.9852C18.1131 57.494 18.1215 57.4913 18.6926 58.3175C20.4646 60.88 23.2502 63.8435 25.2007 65.2411C26.4245 66.1184 27.4346 66.9921 27.4461 67.1835C27.4575 67.3749 26.4226 69.3276 25.1461 71.5231C23.835 73.7789 22.9213 75.7649 23.0453 76.0898C23.3974 77.0115 23.8277 76.4764 26.323 72.0122C27.62 69.6924 28.7298 67.7945 28.7893 67.7945C28.8488 67.7945 29.8494 68.2176 31.0125 68.735C35.7647 70.8481 41.1886 71.6171 46.1726 70.8841C49.2721 70.4284 54.2402 68.8804 55.2606 68.0523C55.8989 67.5345 56.1224 67.8229 58.9721 72.8395C60.4499 75.4404 61.2571 76.5075 61.6367 76.361C61.9362 76.2455 62.1815 76.1036 62.1815 76.0457C62.1815 75.9878 61.0622 73.9783 59.6946 71.5799L57.2073 67.2192L58.4548 66.2603C60.8875 64.3896 64.2018 61.0573 65.4019 59.2741L66.6193 57.466L70.864 59.9453C75.3041 62.5386 75.9148 62.7733 75.9148 61.8842C75.9148 61.5873 74.0127 60.269 71.6876 58.9553C68.4805 57.1426 67.5112 56.4169 67.671 55.9474C67.7866 55.6072 68.4427 53.7753 69.129 51.8767C70.3303 48.5524 70.3765 48.2118 70.3749 42.6712C70.3738 37.362 70.2914 36.6811 69.3075 33.8493C67.9579 29.9657 65.8799 26.4293 63.229 23.5035L61.153 21.2125L64.3395 17.3876C66.4236 14.886 67.3967 13.4327 67.1518 13.1864C66.6639 12.6959 66.0398 13.28 62.7926 17.2672L60.1776 20.4779L57.6632 18.8175C51.3341 14.6378 42.7145 13.2279 35.4259 15.1798C32.6113 15.9335 28.4963 17.821 26.1315 19.4427C25.502 19.8746 24.8768 20.229 24.7421 20.2302C24.5388 20.2325 19.8203 14.8051 18.4969 13.0472C18.1944 12.6452 18.0097 12.6345 17.6485 12.9977ZM50.2327 18.9011C56.7175 21.0897 61.684 25.4156 64.6733 31.4778C69.6372 41.5451 67.8156 52.6534 59.9071 60.5417C54.7182 65.7179 48.5527 68.0622 41.0608 67.7086C34.5508 67.401 29.3767 65.0988 24.8096 60.4773C20.0297 55.6398 17.9201 50.7348 17.6462 43.8219C17.3349 35.9577 19.3609 30.673 24.7864 25.1965C29.0071 20.9363 32.9493 18.8647 38.9111 17.7746C41.3675 17.3255 47.3186 17.9177 50.2327 18.9011ZM82.2218 25.5824C82.0853 25.8045 82.1555 25.9863 82.3775 25.9863C82.63 25.9863 82.7815 27.2076 82.7815 29.2466C82.7815 31.243 82.9348 32.5068 83.1775 32.5068C83.7462 32.5068 83.488 25.5176 82.9119 25.3258C82.6689 25.2449 82.358 25.3603 82.2218 25.5824ZM52.263 33.2836C48.3814 34.3138 44.9828 35.2079 44.7104 35.27C44.3919 35.3429 45.1209 36.8211 46.7521 39.411C48.1472 41.626 49.4194 43.5787 49.5792 43.7502C49.7391 43.922 51.8986 41.5919 54.3787 38.5721C56.8583 35.5527 59.2292 32.6936 59.6473 32.2192C60.6655 31.0623 60.593 31.0731 52.263 33.2836ZM0 35.1918C0 37.0494 0.155643 38.2603 0.394451 38.2603C0.881602 38.2603 6.08921 35.4568 6.09455 35.1918C6.10027 34.9194 0.931576 32.1233 0.422298 32.1233C0.148776 32.1233 0 33.2038 0 35.1918ZM91.1741 35.1918C91.1741 36.8794 91.2927 38.2603 91.4377 38.2603C91.8493 38.2603 97.2747 35.407 97.272 35.1918C97.269 34.9616 91.8695 32.103 91.4602 32.1149C91.3026 32.1195 91.1741 33.5041 91.1741 35.1918ZM78.5852 35.1918C78.5852 35.4254 80.3018 35.5753 82.9722 35.5753C85.6426 35.5753 87.3593 35.4254 87.3593 35.1918C87.3593 34.9582 85.6426 34.8082 82.9722 34.8082C80.3018 34.8082 78.5852 34.9582 78.5852 35.1918ZM81.4734 38.0957C81.1438 38.4275 80.8779 38.9883 80.8825 39.3423C80.8893 39.854 81.0324 39.8014 81.5783 39.0876C82.4828 37.9055 84.0621 38.0654 84.2441 39.358C84.3402 40.0404 83.8935 40.7082 82.432 42.066C81.3654 43.0571 80.4926 44.0735 80.4926 44.3244C80.4926 44.6266 81.2666 44.7808 82.7815 44.7808C84.053 44.7808 85.0704 44.6105 85.0704 44.3973C85.0704 44.1863 84.2979 44.0137 83.3537 44.0137C82.4095 44.0137 81.637 43.8775 81.637 43.7114C81.637 43.545 82.4095 42.7598 83.3537 41.9662C85.2317 40.3879 85.5476 39.1973 84.3726 38.1279C83.4937 37.3278 82.2508 37.314 81.4734 38.0957ZM4.20965 70.0706C3.99259 70.4787 3.81481 71.871 3.81481 73.1644C3.81481 76.1903 4.24437 77 5.85002 77C7.69677 77 8.01111 76.4419 8.01111 73.1644C8.01111 71.4084 7.82915 70.0664 7.55333 69.789C6.80792 69.0396 4.66247 69.2202 4.20965 70.0706ZM9.53704 73.1644C9.53704 75.4658 9.68963 77 9.91852 77C10.1283 77 10.3 76.2233 10.3 75.274C10.3 73.612 10.3423 73.5479 11.4444 73.5479C12.0739 73.5479 12.5889 73.3753 12.5889 73.1644C12.5889 72.9534 12.0739 72.7808 11.4444 72.7808C10.3908 72.7808 10.3 72.6742 10.3 71.4384C10.3 70.1599 10.3637 70.0959 11.6352 70.0959C12.3695 70.0959 12.9704 69.9233 12.9704 69.7123C12.9704 69.5014 12.1979 69.3288 11.2537 69.3288H9.53704V73.1644ZM14.1148 73.1644C14.1148 75.4658 14.2674 77 14.4963 77C14.7061 77 14.8778 76.2233 14.8778 75.274C14.8778 73.612 14.9201 73.5479 16.0222 73.5479C16.6517 73.5479 17.1667 73.3753 17.1667 73.1644C17.1667 72.9534 16.6517 72.7808 16.0222 72.7808C14.9686 72.7808 14.8778 72.6742 14.8778 71.4384C14.8778 70.2025 14.9686 70.0959 16.0222 70.0959C16.6517 70.0959 17.1667 69.9233 17.1667 69.7123C17.1667 69.5014 16.48 69.3288 15.6407 69.3288H14.1148V73.1644ZM69.4296 73.1644C69.4296 75.4658 69.5822 77 69.8111 77C70.0209 77 70.1926 76.2233 70.1926 75.274C70.1926 73.8456 70.315 73.5479 70.9037 73.5479C71.395 73.5479 71.8173 74.0815 72.2705 75.274C72.631 76.2233 73.1018 77 73.3169 77C73.5378 77 73.5901 76.7081 73.4371 76.3288C72.4536 73.8889 72.4132 73.5621 73.019 72.9527C73.7945 72.1733 73.798 70.7073 73.0266 69.9313C72.6848 69.588 71.7822 69.3288 70.9285 69.3288H69.4296V73.1644ZM76.2902 70.9589C76.0613 71.8553 75.6253 73.4785 75.322 74.5659C74.672 76.8953 74.6636 77 75.1217 77C75.3147 77 75.586 76.4822 75.7241 75.8493C75.9339 74.8885 76.1609 74.6986 77.0989 74.6986C78.0423 74.6986 78.2594 74.8831 78.4517 75.8493C78.5776 76.4822 78.8309 77 79.0144 77C79.4805 77 79.4634 76.8573 78.5161 72.8767C77.5804 68.9433 76.9456 68.3963 76.2902 70.9589ZM80.4926 73.1644C80.4926 75.4658 80.6452 77 80.8741 77C81.093 77 81.267 75.735 81.2826 74.0274L81.3101 71.0548L82.6712 74.0274C83.4201 75.6625 84.1804 77 84.3608 77C84.5413 77 84.6572 75.231 84.6191 73.0685L84.5489 69.137L84.333 72.2055L84.1167 75.274L82.7048 72.3014C81.9285 70.6662 81.1129 69.3288 80.8928 69.3288C80.6402 69.3288 80.4926 70.743 80.4926 73.1644ZM86.2148 73.1644V77H87.719C89.7122 77 90.4111 76.0043 90.4111 73.1644C90.4111 70.3245 89.7122 69.3288 87.719 69.3288H86.2148V73.1644ZM92.1495 70.1814C91.7848 70.7046 91.5555 71.8568 91.5555 73.1644C91.5555 75.7722 92.2884 77 93.8444 77C95.4005 77 96.1333 75.7722 96.1333 73.1644C96.1333 70.5565 95.4005 69.3288 93.8444 69.3288C93.1391 69.3288 92.5299 69.6352 92.1495 70.1814ZM97.2778 73.1644C97.2778 75.4658 97.4304 77 97.6593 77C97.8748 77 98.0579 75.791 98.0804 74.2192L98.1197 71.4384L98.9643 74.1233C99.4289 75.6 99.9691 76.7791 100.164 76.7438C100.36 76.7081 100.898 75.4999 101.36 74.0588L102.199 71.4384L102.218 74.2192C102.229 75.8044 102.401 77 102.619 77C102.847 77 103 75.4658 103 73.1644C103 68.3238 102.419 68.1228 101.077 72.4981L100.107 75.6575L99.1936 72.4931C97.9049 68.0304 97.2778 68.2502 97.2778 73.1644ZM7.42668 72.1107C7.55066 73.0067 7.50603 74.2575 7.32712 74.8904C7.06122 75.8324 6.80029 76.0411 5.88549 76.0411H4.76852L4.65369 73.3654C4.56099 71.2063 4.66361 70.598 5.18319 70.2159C6.22464 69.45 7.16956 70.2482 7.42668 72.1107ZM95.0785 70.6432C95.5363 71.3156 95.4081 75.2744 94.9126 75.7726C94.2587 76.43 92.8228 76.341 92.5501 75.6261C92.0789 74.3918 92.309 70.9271 92.9018 70.3314C93.4961 69.7338 94.5631 69.8868 95.0785 70.6432ZM72.6722 71.4384C72.6722 72.4563 72.5292 72.6028 71.4324 72.7091C70.2395 72.8249 70.1926 72.7766 70.1926 71.4384C70.1926 70.1001 70.2395 70.0518 71.4324 70.1676C72.5292 70.2739 72.6722 70.4204 72.6722 71.4384ZM89.1904 70.5562C89.7847 71.1538 89.7847 75.175 89.1904 75.7726C88.9386 76.0257 88.3378 76.2329 87.8552 76.2329C87.0129 76.2329 86.9778 76.1105 86.9778 73.1644C86.9778 70.2182 87.0129 70.0959 87.8552 70.0959C88.3378 70.0959 88.9386 70.303 89.1904 70.5562ZM77.3351 73.8667C76.2768 74.0523 76.196 73.8046 76.7117 71.9566L77.1771 70.2877L77.6174 72.0137C78.0214 73.5955 77.9977 73.7505 77.3351 73.8667Z" fill="white"/>
</svg>
