<svg width="116" height="84" viewBox="0 0 116 84" fill="none" xmlns="http://www.w3.org/2000/svg">
<path fill-rule="evenodd" clip-rule="evenodd" d="M55.667 10.8624L55.5589 16.0232L52.9664 16.281C45.5956 17.0133 37.8873 21.3277 33.461 27.1982C31.051 30.3944 28.8707 35.1147 28.0352 38.9442C27.0168 43.6127 27.3632 49.6545 28.9041 54.1006C30.9308 59.9493 34.3469 64.6595 39.1452 68.221L41.3328 69.8448L38.8592 74.0938C37.499 76.4304 36.3837 78.5617 36.381 78.8293C36.3682 80.1287 37.5517 79.0186 39.0812 76.2976C40.0144 74.6372 41.1766 72.6348 41.6641 71.8472L42.5504 70.4154L44.4423 71.3327C47.377 72.7555 50.5575 73.4917 54.7838 73.7258C59.9503 74.0116 63.5861 73.2214 69.5211 70.5218C69.7404 70.4221 71.0052 72.2286 72.3325 74.5363C75.4947 80.0352 75.2596 79.7166 75.8715 79.3365C76.2834 79.0806 75.8175 78.0009 73.7509 74.4245L71.1025 69.8405L72.4376 68.8333C80.96 62.4039 85.2255 53.606 84.7105 43.5204C84.2866 35.2253 80.8919 28.2775 74.6554 22.9422C70.3058 19.2213 63.1335 16.2179 58.5971 16.2179H56.9152V10.9597C56.9152 6.59152 56.8187 0.248596 56.3452 0.248596C55.8774 0.248596 55.7557 6.62931 55.667 10.8624ZM51.7034 10.4729C52.1165 13.5413 52.2502 13.8809 53.0473 13.8809C53.7336 13.8809 53.815 13.613 53.815 11.3492V8.81749H52.6478C51.498 8.81749 51.484 8.84243 51.7034 10.4729ZM58.4006 10.5445C58.3653 11.5225 58.3215 12.6299 58.3037 13.0046C58.2843 13.4194 58.5986 13.7329 59.1078 13.8058C59.9925 13.9327 60.2429 13.3095 60.4843 10.3755C60.5858 9.14506 60.4928 9.00017 59.531 8.88916C58.5137 8.77153 58.4622 8.8467 58.4006 10.5445ZM47.4751 9.68764C46.0726 10.0588 45.9916 10.1597 46.1815 11.3005C46.2927 11.9701 46.5764 13.0186 46.812 13.6309C47.2081 14.6615 47.3476 14.7242 48.6865 14.4726C49.4824 14.323 50.2056 14.1298 50.2932 14.0426C50.6001 13.7388 49.7429 9.45899 49.3585 9.37564C49.1453 9.32968 48.2978 9.46991 47.4751 9.68764ZM62.1422 11.2518C62.0023 12.3763 61.8589 13.4525 61.8236 13.6433C61.7883 13.8338 62.4941 14.2077 63.392 14.4742L65.0246 14.9587L65.6202 12.8994C65.9477 11.7668 66.2158 10.6684 66.2158 10.4592C66.2158 10.1593 63.4543 9.20699 62.5844 9.20699C62.4809 9.20699 62.282 10.1274 62.1422 11.2518ZM39.9179 12.5531C37.5338 13.7247 36.4422 14.4609 36.6239 14.7748C36.7735 15.0331 37.3905 15.9784 37.9946 16.8758L39.0936 18.5074L42.1915 16.949C43.8955 16.0917 45.2894 15.2574 45.2894 15.0946C45.2894 14.5119 44.0486 11.1517 43.7692 10.9784C43.6126 10.881 41.8796 11.5895 39.9179 12.5531ZM67.528 13.0299L66.7084 15.2936L73.1429 18.5042L74.402 16.5322C75.6297 14.6093 75.6421 14.5462 74.9104 13.9795C74.2687 13.4821 68.8223 10.7642 68.4697 10.7654C68.4022 10.7654 67.9787 11.7847 67.528 13.0299ZM32.0167 17.8324C29.8004 19.797 25.9069 24.3985 25.9201 25.0369C25.924 25.2207 26.7885 25.937 27.8411 26.6287L29.7554 27.8868L31.4866 25.6258C32.4387 24.3821 34.2038 22.5013 35.4091 21.4457L37.6005 19.5271L36.1957 17.6777C35.423 16.6604 34.6677 15.8346 34.5178 15.8424C34.3678 15.8502 33.242 16.7457 32.0167 17.8324ZM75.9447 17.6407L74.6736 19.4531L77.3522 22.0226C78.8252 23.4357 80.5656 25.2889 81.2197 26.1411C82.3323 27.5904 82.4695 27.657 83.355 27.1806C83.8754 26.9006 84.7861 26.2833 85.3786 25.8081L86.4563 24.9445L84.1285 22.0416C82.0541 19.455 78.1714 15.8284 77.4766 15.8284C77.3332 15.8284 76.6438 16.644 75.9447 17.6407ZM0.723938 25.5658H2.26044C4.13141 25.5658 4.59918 24.8752 4.59918 22.1137C4.59918 19.7837 3.92487 18.9444 2.05273 18.9444H0.723938V25.5658ZM5.76178 25.5658H7.1181C7.86409 25.5658 8.47443 25.3905 8.47443 25.1763C8.47443 24.9621 8.03846 24.7868 7.50562 24.7868C6.68755 24.7868 6.5368 24.6049 6.5368 23.6183C6.5368 22.6317 6.68755 22.4498 7.50562 22.4498C8.03846 22.4498 8.47443 22.2746 8.47443 22.0603C8.47443 21.8461 8.03846 21.6709 7.50562 21.6709C6.73056 21.6709 6.5368 21.4761 6.5368 20.6971C6.5368 19.9181 6.73056 19.7234 7.50562 19.7234C8.03846 19.7234 8.47443 19.5481 8.47443 19.3339C8.47443 19.1197 7.86409 18.9444 7.1181 18.9444H5.76178V25.5658ZM9.65057 19.6977C9.43007 20.1121 9.24951 21.2631 9.24951 22.2551C9.24951 24.6299 9.77923 25.5658 11.1232 25.5658C12.3571 25.5658 13.1248 24.9383 13.1248 23.9299C13.1248 22.9823 12.4896 23.038 12.2373 24.0078C11.9947 24.9407 10.5977 25.0556 10.2598 24.1706C9.85131 23.1007 10.0044 21.0687 10.5496 20.3189C11.1468 19.4982 12.3497 19.7429 12.3497 20.685C12.3497 21.013 12.5241 21.2813 12.7372 21.2813C13.2364 21.2813 13.231 20.6504 12.7237 19.6977C12.4672 19.2162 11.913 18.9444 11.1871 18.9444C10.4613 18.9444 9.90712 19.2162 9.65057 19.6977ZM15.2581 19.4312C15.074 19.9664 13.8998 25.1218 13.8998 25.3952C13.8998 25.4891 14.0707 25.5658 14.28 25.5658C14.4888 25.5658 14.7718 25.1183 14.9086 24.571C15.2287 23.2888 16.7446 23.3772 16.9302 24.6894C17.0593 25.6028 17.7712 25.9292 17.7801 25.0789C17.7952 23.5817 16.4106 18.9444 15.9483 18.9444C15.6608 18.9444 15.3503 19.1637 15.2581 19.4312ZM18.9435 20.9063C19.3667 21.9852 19.7127 23.475 19.7127 24.217C19.7127 24.959 19.8871 25.5658 20.1002 25.5658C20.3134 25.5658 20.4877 25.0544 20.4877 24.4297C20.4877 23.8049 20.8365 22.4755 21.2628 21.4761C22.115 19.4784 22.2076 18.9444 21.703 18.9444C21.5185 18.9444 21.1113 19.6018 20.7974 20.405L20.227 21.8656L19.6023 20.405C18.6525 18.1852 18.0545 18.6402 18.9435 20.9063ZM91.9883 19.4312C91.8042 19.9664 90.63 25.1218 90.63 25.3952C90.63 25.4891 90.8009 25.5658 91.0101 25.5658C91.219 25.5658 91.5019 25.1183 91.6387 24.571C91.9588 23.2888 93.4748 23.3772 93.6605 24.6894C93.7895 25.6028 94.5013 25.9292 94.5103 25.0789C94.5254 23.5817 93.1408 18.9444 92.6785 18.9444C92.3909 18.9444 92.0805 19.1637 91.9883 19.4312ZM94.8928 19.3339C94.8928 19.5481 95.1544 19.7234 95.4741 19.7234C95.9391 19.7234 96.0554 20.3076 96.0554 22.6446C96.0554 24.3323 96.2189 25.5658 96.4429 25.5658C96.6669 25.5658 96.8304 24.3323 96.8304 22.6446C96.8304 19.9832 96.8994 19.7234 97.6055 19.7234C98.0317 19.7234 98.3805 19.5481 98.3805 19.3339C98.3805 19.1197 97.5958 18.9444 96.6367 18.9444C95.6775 18.9444 94.8928 19.1197 94.8928 19.3339ZM99.1556 19.3339C99.1556 19.5481 99.4171 19.7234 99.7368 19.7234C100.202 19.7234 100.318 20.3076 100.318 22.6446C100.318 24.9816 100.434 25.5658 100.899 25.5658C101.364 25.5658 101.481 24.9816 101.481 22.6446C101.481 20.3076 101.597 19.7234 102.062 19.7234C102.382 19.7234 102.643 19.5481 102.643 19.3339C102.643 19.1197 101.859 18.9444 100.899 18.9444C99.9403 18.9444 99.1556 19.1197 99.1556 19.3339ZM103.55 22.2551C102.904 24.9189 102.851 25.5658 103.277 25.5658C103.568 25.5658 103.806 25.2098 103.806 24.7747C103.806 23.0995 105.605 23.5062 106.258 25.329C106.343 25.5662 106.535 25.6468 106.685 25.5078C106.834 25.3687 106.783 24.58 106.57 23.7551C106.357 22.9301 105.99 21.51 105.755 20.5997C105.098 18.0626 104.447 18.5506 103.55 22.2551ZM108.146 19.4118C107.886 19.6731 107.681 20.9265 107.681 22.2551C107.681 24.9037 108.087 25.5658 109.709 25.5658C110.491 25.5658 110.901 25.3142 111.136 24.6894C111.621 23.4002 111.161 22.9858 110.388 24.0156C109.95 24.5995 109.493 24.8215 109.068 24.6575C108.089 24.2801 108.343 19.9843 109.356 19.7908C109.812 19.7031 110.136 19.9427 110.273 20.4685C110.389 20.9156 110.726 21.2813 111.02 21.2813C111.716 21.2813 111.698 20.8786 110.953 19.8102C110.297 18.8684 108.886 18.6682 108.146 19.4118ZM112.331 22.2551C112.331 25.5463 112.95 26.8955 113.18 24.1052L113.3 22.6446L114.204 24.1052C114.701 24.9087 115.363 25.5658 115.676 25.5658C116.084 25.5658 115.918 25.0902 115.084 23.8715L113.925 22.1776L114.872 20.7766C115.912 19.2373 116.004 18.9444 115.446 18.9444C115.24 18.9444 114.63 19.5983 114.089 20.398L113.107 21.8516V20.398C113.107 19.5983 112.932 18.9444 112.719 18.9444C112.491 18.9444 112.331 20.3076 112.331 22.2551ZM62.7281 20.2963C67.0777 21.4699 70.4488 23.5038 73.9764 27.0825C79.1034 32.2838 81.3995 37.773 81.4069 44.8458C81.4119 49.311 80.5589 52.9279 78.6174 56.6772C74.1539 65.2971 65.8391 70.3578 56.1401 70.3578C51.67 70.3578 48.8299 69.6855 44.7081 67.652C32.4604 61.6093 27.3338 46.5475 33.2331 33.94C36.7693 26.3826 44.14 20.9884 52.8462 19.5867C54.7765 19.2758 60.4583 19.6836 62.7281 20.2963ZM3.35907 20.1908C3.84813 20.6823 3.98924 23.1225 3.58893 24.1706C3.45949 24.5095 3.02353 24.7868 2.62012 24.7868C1.97566 24.7868 1.88647 24.4795 1.88647 22.2551C1.88647 19.6801 2.28911 19.1154 3.35907 20.1908ZM16.3715 21.7682C16.5652 22.5796 16.4842 22.8393 16.0386 22.8393C15.4453 22.8393 15.1965 21.2763 15.7084 20.7621C16.0354 20.433 16.063 20.4747 16.3715 21.7682ZM93.1016 21.7682C93.2954 22.5796 93.2144 22.8393 92.7687 22.8393C92.1754 22.8393 91.9266 21.2763 92.4385 20.7621C92.7656 20.433 92.7932 20.4747 93.1016 21.7682ZM105.35 22.1577C105.353 22.5324 105.076 22.8393 104.733 22.8393C104.324 22.8393 104.191 22.6275 104.346 22.2232C104.475 21.8843 104.584 21.3148 104.587 20.9573C104.592 20.3956 104.644 20.3867 104.968 20.8918C105.175 21.2132 105.347 21.783 105.35 22.1577ZM23.4725 29.1601C21.5224 33.307 20.3494 37.7001 19.8817 42.6062L19.6127 45.4301H24.637L24.8827 42.505C25.1861 38.9006 25.7205 36.6816 27.1315 33.1727C27.7318 31.6797 28.0957 30.3445 27.9399 30.2059C27.7845 30.0672 26.8502 29.4884 25.8643 28.9198L24.072 27.8856L23.4725 29.1601ZM85.8677 29.0202C84.6334 29.7019 84.0734 30.2405 84.1955 30.6292C84.2966 30.9506 84.9325 32.7773 85.6088 34.6886C86.3133 36.6797 87.0229 39.7224 87.2706 41.8132L87.7023 45.4628L92.3738 45.2353L92.2476 42.5396C92.1782 41.0568 91.7089 38.21 91.2051 36.213C90.3029 32.6394 88.4265 27.8584 87.9611 27.9491C87.8305 27.9748 86.8884 28.4566 85.8677 29.0202ZM62.925 42.4033C62.83 42.6756 62.0495 44.8996 61.1904 47.3452C60.3312 49.7909 59.6887 51.8529 59.7628 51.9276C59.9437 52.1091 75.9904 52.8733 76.1547 52.7082C76.2745 52.5878 73.6416 50.3923 66.1333 44.3508C64.1937 42.7901 63.0354 42.0871 62.925 42.4033ZM22.1421 50.0807C21.2399 50.2283 20.4188 50.4331 20.3168 50.5356C20.0274 50.8265 21.1834 55.4834 22.2425 58.2912C23.9681 62.8678 26.5649 66.783 30.5285 70.7855C35.5663 75.8727 35.6087 75.8902 37.1498 73.4765L38.3837 71.5438L35.0595 68.3811C33.2312 66.6416 30.9106 63.9716 29.9026 62.4479C27.9658 59.5197 25.7333 54.14 25.3058 51.3699C25.0299 49.5844 25.0706 49.6008 22.1421 50.0807ZM86.5931 52.6595C86.2041 54.3176 85.0066 57.4445 83.9316 59.6081C82.2265 63.0392 81.4731 64.0491 78.0323 67.5137L74.088 71.4854L75.2355 73.2588C75.8668 74.2337 76.5984 75.0317 76.8616 75.0317C77.1247 75.0317 78.8465 73.6152 80.6876 71.8842C86.2382 66.6642 89.9181 60.2893 91.517 53.1218C91.8398 51.6756 91.9902 50.4223 91.8511 50.337C91.7123 50.2517 90.6315 50.0612 89.4496 49.9132L87.3004 49.6448L86.5931 52.6595ZM20.7036 78.2346C20.0177 79.2185 19.901 82.1093 20.5013 83.2368C20.9559 84.0906 22.7738 84.2632 23.5104 83.5228C23.7705 83.2614 23.9755 82.008 23.9755 80.6794C23.9755 79.3509 23.7705 78.0975 23.5104 77.8361C22.7706 77.0926 21.3597 77.2928 20.7036 78.2346ZM25.1381 80.6794C25.1381 82.6269 25.2977 83.9901 25.5256 83.9901C25.7387 83.9901 25.9131 83.3767 25.9131 82.6269C25.9131 81.4323 26.0333 81.2637 26.882 81.2637C28.0876 81.2637 28.165 80.5836 26.9788 80.4146C26.3402 80.3231 26.1069 80.0294 26.1069 79.3162C26.1069 78.5434 26.327 78.3171 27.1726 78.2194C28.8118 78.0297 28.4351 77.3687 26.6882 77.3687H25.1381V80.6794ZM29.0133 80.6794C29.0133 82.6269 29.173 83.9901 29.4009 83.9901C29.614 83.9901 29.7884 83.3767 29.7884 82.6269C29.7884 81.4323 29.9085 81.2637 30.7572 81.2637C31.2901 81.2637 31.726 81.0884 31.726 80.8742C31.726 80.66 31.2901 80.4847 30.7572 80.4847C29.9391 80.4847 29.7884 80.3028 29.7884 79.3162C29.7884 78.3296 29.9391 78.1477 30.7572 78.1477C31.2901 78.1477 31.726 77.9725 31.726 77.7582C31.726 77.544 31.1157 77.3687 30.3697 77.3687H29.0133V80.6794ZM23.0067 80.6849C23.0067 82.8061 22.928 83.0277 22.1348 83.141C21.3151 83.2579 21.2628 83.1278 21.2628 80.9661C21.2628 78.5127 21.4554 78.0531 22.4064 78.2369C22.8687 78.3265 23.0067 78.8893 23.0067 80.6849Z" fill="black" fill-opacity="0.91"/>
</svg>
