<svg width="131" height="116" viewBox="0 0 131 116" fill="none" xmlns="http://www.w3.org/2000/svg">
<path fill-rule="evenodd" clip-rule="evenodd" d="M63.6026 1.2746C61.7503 3.93213 64.1421 8.55232 66.2657 6.41828C67.0043 5.67551 67.1105 1.58074 66.4095 0.876143C65.6697 0.132596 64.2587 0.332798 63.6026 1.2746ZM66.0251 3.26648C66.151 5.24784 65.629 6.34427 64.7253 5.99568C63.3434 5.46285 63.8189 0.991044 65.2287 1.26019C65.7402 1.35795 65.9348 1.84794 66.0251 3.26648ZM64.5494 16.9312V22.9376L61.9336 23.188C47.5459 24.5653 35.4469 32.0549 28.1835 44.0798C20.7221 56.4326 19.9765 72.2084 26.2432 85.1264C26.919 86.5196 27.4003 87.7204 27.3127 87.7944C27.2248 87.8688 24.7989 89.292 21.9215 90.9575C19.0441 92.6234 16.6143 94.0544 16.5221 94.1381C16.4295 94.2219 16.5477 94.4848 16.784 94.7224C17.0987 95.0387 18.4403 94.4478 21.7959 92.5143C24.316 91.0619 26.7412 89.6371 27.1849 89.3473C27.9421 88.8527 28.1479 89.0315 30.5521 92.2674C33.343 96.0233 36.1677 98.8027 40.2503 101.808C41.6989 102.875 42.8099 103.939 42.7188 104.173C42.6282 104.407 41.2373 106.875 39.6275 109.656C37.688 113.009 36.8494 114.805 37.1404 114.986C37.3818 115.136 37.6938 115.187 37.8341 115.1C37.9744 115.013 39.4396 112.571 41.0909 109.673C42.7417 106.775 44.1434 104.404 44.205 104.404C44.267 104.404 45.6001 105.011 47.1673 105.752C58.013 110.881 71.0982 111.023 82.1461 106.132C83.871 105.368 85.4564 104.667 85.6695 104.574C85.8827 104.48 87.4436 106.858 89.1379 109.857C90.8325 112.856 92.3482 115.31 92.5059 115.31C93.448 115.31 93.0007 114.004 90.6671 109.941C89.2259 107.431 87.8141 105.01 87.5301 104.561C87.0507 103.802 87.1592 103.646 89.0546 102.377C93.5956 99.3352 97.8824 95.0122 101 90.3304L101.992 88.8406L107.364 91.9644C110.319 93.6824 112.979 94.9943 113.275 94.8801C114.171 94.5347 113.564 94.054 108.623 91.1928C106.016 89.6831 103.639 88.2868 103.34 88.0897C102.894 87.7956 103.08 87.0805 104.379 84.0907C111.033 68.7765 108.688 51.5522 98.2211 38.8551C90.7136 29.7487 80.5492 24.4254 68.3277 23.1997L65.7119 22.9376V16.9312C65.7119 11.8521 65.622 10.9251 65.1306 10.9251C64.6393 10.9251 64.5494 11.8521 64.5494 16.9312ZM57.3801 15.8589C56.9538 15.9523 55.7149 16.202 54.6271 16.4139L52.6492 16.7991L53.251 19.3269C53.6432 20.9741 54.0168 21.7917 54.3229 21.6736C54.5814 21.5739 56.247 21.2779 58.0242 21.0162C59.8014 20.7544 61.391 20.4226 61.5573 20.2785C61.7231 20.1348 61.7429 19.0227 61.6007 17.8079L61.3426 15.5991L59.7487 15.6443C58.8725 15.6692 57.8064 15.7658 57.3801 15.8589ZM68.3649 17.9337C68.287 19.3523 68.3932 20.4129 68.6184 20.4678C68.8315 20.5196 70.6079 20.8086 72.5661 21.1101L76.1263 21.6585L76.5557 19.8944C76.7921 18.9246 77.0692 17.8461 77.1722 17.4983C77.3974 16.7348 75.3578 16.135 71.2264 15.749L68.4987 15.4943L68.3649 17.9337ZM46.0124 19.0843C44.0233 19.9166 42.3112 20.6828 42.2081 20.7864C42.0662 20.9285 43.7446 24.7133 44.1802 25.2329C44.2221 25.2831 45.6974 24.7137 47.4583 23.967C49.2192 23.2207 50.9077 22.61 51.2103 22.61C51.5134 22.61 51.761 22.4063 51.761 22.1574C51.761 21.1237 50.4252 17.5473 50.0431 17.5586C49.8156 17.5653 48.002 18.2515 46.0124 19.0843ZM78.8774 19.5692C78.5716 20.7061 78.3182 21.778 78.3139 21.951C78.31 22.1243 80.012 22.9403 82.0969 23.7645L85.8873 25.2629L86.8705 23.3126C87.4115 22.2404 87.7699 21.1435 87.6676 20.8756C87.487 20.4019 82.4062 18.1997 80.4201 17.7335C79.5024 17.5181 79.3943 17.6467 78.8774 19.5692ZM36.4521 24.219C34.7935 25.3341 32.3169 27.2991 30.9485 28.5856L28.4606 30.9246L31.9104 34.3922L34.9571 31.7772C36.6328 30.3391 39.0067 28.5397 40.2321 27.7782L42.4608 26.3939L41.3226 24.413C40.6967 23.3232 40.0232 22.3779 39.8264 22.3116C39.6291 22.2458 38.1108 23.1039 36.4521 24.219ZM88.8314 24.1232C88.2648 25.1698 87.8009 26.1155 87.8009 26.2249C87.8009 26.3344 88.7166 27.0109 89.8354 27.7287C91.9912 29.1115 96.5742 32.8202 97.3996 33.8504C97.8325 34.3903 98.1126 34.2396 99.7247 32.5982L101.558 30.7318L99.2329 28.6028C96.7477 26.3273 90.9852 22.2162 90.2846 22.2189C90.0521 22.2197 89.3979 23.0766 88.8314 24.1232ZM75.0126 27.7954C81.9144 29.6155 87.4529 32.754 92.5896 37.7563C96.1986 41.2711 98.4773 44.3625 100.548 48.5543C108.07 63.782 105.465 81.4032 93.8649 93.7463C86.5628 101.516 77.6133 105.683 67.0381 106.236C46.6646 107.302 29.0462 92.8329 25.782 72.3556C25.0469 67.7432 25.484 60.2723 26.7439 55.9119C31.0601 40.9763 42.9905 29.9232 57.8444 27.0982C62.3978 26.2323 70.3026 26.5533 75.0126 27.7954ZM62.4835 38.5505C61.0659 42.9261 59.9676 46.5683 60.0432 46.6442C60.1188 46.7202 62.4358 46.733 65.1919 46.673L70.203 46.564L65.0609 30.5947L62.4835 38.5505ZM102.018 35.202L100.173 36.8266L102.275 39.7478C103.431 41.3545 104.949 43.8083 105.65 45.2007C106.351 46.5932 106.955 47.7788 106.992 47.8353C107.185 48.1301 111.44 45.8528 111.44 45.4547C111.44 44.4186 105.21 34.4144 104.158 33.7609C103.996 33.66 103.033 34.3085 102.018 35.202ZM23.8653 36.5345C22.0401 39.0237 19.9722 42.5389 18.9375 44.911C18.4892 45.9384 18.5302 46.0105 19.9048 46.6002C23.31 48.0612 22.962 48.1496 24.292 45.4831C24.957 44.1495 26.4672 41.6661 27.6479 39.964L29.7952 36.8694L28.1339 35.3874C27.2197 34.5722 26.3191 33.9054 26.1323 33.9054C25.9455 33.9054 24.9252 35.0883 23.8653 36.5345ZM16.1291 52.5318C14.2682 59.5143 13.7447 67.2587 14.7073 73.5638C15.0448 75.7746 15.4118 77.7302 15.5223 77.9102C15.699 78.198 19.7823 77.4716 20.1683 77.0841C20.2501 77.0019 20.0501 75.1841 19.7242 73.0446C18.9864 68.2001 19.2607 61.1689 20.3675 56.5689C20.7957 54.7878 21.1464 53.1827 21.1464 53.0016C21.1464 52.8208 20.1036 52.3188 18.8286 51.886L16.5108 51.0993L16.1291 52.5318ZM111.012 51.8666L108.84 52.628L109.564 55.6334C110.904 61.1969 111.114 69.3144 110.075 75.4568L109.8 77.0848L111.492 77.525C112.422 77.7669 113.475 78.0492 113.831 78.1525C114.565 78.3659 114.688 78.0625 115.34 74.4129C115.921 71.1595 115.915 62.1037 115.329 58.8331C114.549 54.4797 113.714 51.042 113.444 51.0739C113.301 51.0907 112.207 51.4475 111.012 51.8666ZM4.69867 83.4582C3.6167 85.0107 4.08792 88.8285 5.42528 89.3446C5.7632 89.4747 6.47394 89.4155 7.00523 89.2126C7.90391 88.8691 7.97055 88.6599 7.97055 86.1854C7.97055 84.6372 7.77639 83.332 7.50551 83.0597C6.76572 82.3162 5.35475 82.5164 4.69867 83.4582ZM9.53423 83.3456C9.31372 83.76 9.13312 85.0707 9.13312 86.2579C9.13312 88.115 9.26488 88.5037 10.076 89.0377C10.784 89.5039 11.2072 89.5573 11.7741 89.2523C12.6929 88.758 13.1653 87.6577 12.672 87.1619C12.448 86.9368 12.2093 87.1187 12.0446 87.6394C11.8609 88.2209 11.5207 88.4433 10.9406 88.36C10.2705 88.2642 10.0771 87.9339 9.97792 86.719C9.73455 83.7273 10.8022 82.3263 11.9357 84.1503C12.5015 85.0606 13.0084 85.1657 13.0084 84.3727C13.0084 82.7707 10.2713 81.9613 9.53423 83.3456ZM13.3959 82.9818C13.3959 83.196 13.7447 83.3713 14.171 83.3713C14.877 83.3713 14.946 83.6311 14.946 86.2925C14.946 87.9802 15.1096 89.2137 15.3335 89.2137C15.5575 89.2137 15.7211 87.9802 15.7211 86.2925C15.7211 83.9556 15.8373 83.3713 16.3024 83.3713C16.6221 83.3713 16.8837 83.196 16.8837 82.9818C16.8837 82.7676 16.0989 82.5923 15.1398 82.5923C14.1806 82.5923 13.3959 82.7676 13.3959 82.9818ZM117.862 83.2042C117.446 83.6225 117.253 84.5449 117.253 86.1165C117.253 88.1403 117.369 88.4936 118.222 89.0548C119.119 89.6457 119.262 89.6457 120.159 89.0548C121.012 88.4936 121.128 88.1403 121.128 86.1165C121.128 83.6712 120.535 82.5923 119.191 82.5923C118.795 82.5923 118.197 82.8677 117.862 83.2042ZM122.707 83.1419C121.503 84.5994 121.887 88.7094 123.274 89.2212C124.565 89.6975 125.78 88.989 125.77 87.7656L125.761 86.682L125.044 87.6192C124.572 88.2365 124.106 88.471 123.677 88.3054C122.699 87.928 122.953 83.6323 123.965 83.4387C124.422 83.3511 124.745 83.5906 124.883 84.1164C125.141 85.1127 125.779 85.1922 125.779 84.2282C125.779 82.7325 123.663 81.9843 122.707 83.1419ZM126.554 82.9818C126.554 83.196 126.815 83.3713 127.135 83.3713C127.6 83.3713 127.716 83.9556 127.716 86.2925C127.716 87.9802 127.88 89.2137 128.104 89.2137C128.326 89.2137 128.491 88.0332 128.491 86.4507C128.491 84.0155 128.583 83.6638 129.266 83.4843C130.655 83.1193 130.083 82.5923 128.297 82.5923C127.338 82.5923 126.554 82.7676 126.554 82.9818ZM7.00172 85.9085C7.00172 88.0297 6.92306 88.2513 6.12979 88.3647C5.31017 88.4815 5.25786 88.3514 5.25786 86.1897C5.25786 83.7363 5.45045 83.2767 6.40144 83.4605C6.86376 83.5501 7.00172 84.1129 7.00172 85.9085ZM119.941 83.9252C120.197 84.2352 120.345 85.3067 120.279 86.356C120.185 87.8291 120.002 88.263 119.431 88.372C118.465 88.5567 118.041 87.8022 118.034 85.8836C118.026 83.7382 118.978 82.7598 119.941 83.9252ZM113.765 85.3188C113.765 85.8902 113.507 86.0978 112.796 86.0978C111.591 86.0978 111.513 86.7778 112.699 86.9469C113.26 87.0271 113.616 87.3847 113.695 87.9479C113.864 89.1401 114.54 89.0622 114.54 87.8505C114.54 87.1366 114.747 86.8768 115.315 86.8768C115.742 86.8768 116.09 86.7015 116.09 86.4873C116.09 86.2731 115.742 86.0978 115.315 86.0978C114.799 86.0978 114.54 85.838 114.54 85.3188C114.54 84.8904 114.366 84.5398 114.153 84.5398C113.94 84.5398 113.765 84.8904 113.765 85.3188ZM0.607544 86.682C0.607544 87.0902 1.01677 87.2663 1.96388 87.2663C2.911 87.2663 3.32024 87.0902 3.32024 86.682C3.32024 86.2738 2.911 86.0978 1.96388 86.0978C1.01677 86.0978 0.607544 86.2738 0.607544 86.682ZM21.1464 102.067C20.5617 102.655 20.3714 103.365 20.3714 104.961C20.3714 107.214 21.0011 108.299 22.309 108.299C23.651 108.299 24.2466 107.22 24.2466 104.788C24.2466 102.866 24.1091 102.404 23.3852 101.895C22.2768 101.114 22.0796 101.129 21.1464 102.067ZM26.0874 101.709C25.5476 102.025 25.4092 102.642 25.4092 104.735C25.4092 106.261 25.6045 107.561 25.8743 107.832C26.4815 108.442 27.9254 108.431 28.4017 107.812C29.1128 106.888 29.2806 105.962 28.7361 105.962C28.4482 105.962 28.1173 106.328 28.001 106.775C27.8638 107.301 27.5402 107.54 27.0837 107.453C26.5253 107.346 26.3532 106.885 26.2598 105.245C26.1943 104.097 26.3366 102.936 26.5788 102.643C27.0965 102.016 28.1219 102.308 28.1219 103.083C28.1219 103.381 28.2963 103.625 28.5094 103.625C29.2023 103.625 28.9179 102.106 28.1475 101.691C27.2314 101.199 26.9547 101.201 26.0874 101.709ZM109.502 102.067C108.445 103.13 108.402 106.714 109.436 107.654C111.192 109.251 112.603 107.974 112.603 104.788C112.603 102.866 112.465 102.404 111.741 101.895C110.633 101.114 110.436 101.129 109.502 102.067ZM114.443 101.709C113.904 102.025 113.765 102.642 113.765 104.735C113.765 106.261 113.961 107.561 114.23 107.832C114.837 108.442 116.281 108.431 116.758 107.812C117.469 106.888 117.637 105.962 117.092 105.962C116.804 105.962 116.473 106.328 116.357 106.775C116.22 107.301 115.896 107.54 115.44 107.453C114.881 107.346 114.709 106.885 114.616 105.245C114.55 104.097 114.693 102.936 114.935 102.643C115.452 102.016 116.478 102.308 116.478 103.083C116.478 103.381 116.734 103.625 117.047 103.625C117.737 103.625 117.428 102.492 116.543 101.775C115.825 101.193 115.35 101.178 114.443 101.709ZM13.342 102.423C12.1791 103.37 12.6267 103.894 13.8888 103.063C14.7201 102.516 14.8949 102.51 15.3095 103.012C15.8869 103.711 15.5548 104.348 13.8803 105.754C13.1878 106.335 12.6209 107.145 12.6209 107.555C12.6209 108.188 12.9092 108.299 14.5585 108.299C15.6242 108.299 16.4961 108.124 16.4961 107.91C16.4961 107.695 15.8858 107.52 15.1398 107.52C14.3938 107.52 13.7834 107.377 13.7834 107.202C13.7834 107.027 14.3938 106.341 15.1398 105.677C16.7007 104.289 16.8666 103.151 15.6346 102.284C14.5445 101.516 14.4476 101.522 13.342 102.423ZM29.672 102.067C29.672 102.281 29.9336 102.457 30.2533 102.457C30.7187 102.457 30.8346 103.044 30.8346 105.41C30.8346 107.6 30.9602 108.322 31.319 108.203C31.6313 108.099 31.8437 107.051 31.9173 105.249C32.0041 103.116 32.1646 102.457 32.5955 102.457C32.9059 102.457 33.1597 102.281 33.1597 102.067C33.1597 101.853 32.375 101.678 31.4159 101.678C30.4568 101.678 29.672 101.853 29.672 102.067ZM101.698 102.423C100.563 103.347 100.99 103.933 102.185 103.091C102.828 102.639 103.189 102.59 103.566 102.905C104.402 103.602 104.163 104.204 102.527 105.526C101.673 106.216 100.977 107.119 100.977 107.538C100.977 108.192 101.251 108.299 102.914 108.299C103.98 108.299 104.852 108.124 104.852 107.91C104.852 107.695 104.242 107.52 103.496 107.52C102.75 107.52 102.139 107.377 102.139 107.202C102.139 107.027 102.75 106.341 103.496 105.677C105.057 104.289 105.223 103.151 103.991 102.284C102.9 101.516 102.804 101.522 101.698 102.423ZM118.028 102.067C118.028 102.281 118.29 102.457 118.609 102.457C119.075 102.457 119.191 103.044 119.191 105.41C119.191 107.6 119.316 108.322 119.675 108.203C119.987 108.099 120.2 107.051 120.273 105.249C120.36 103.116 120.521 102.457 120.951 102.457C121.262 102.457 121.516 102.281 121.516 102.067C121.516 101.853 120.731 101.678 119.772 101.678C118.813 101.678 118.028 101.853 118.028 102.067ZM23.3929 104.633C23.4755 106.056 23.3383 106.757 22.9085 107.115C21.9905 107.881 21.1464 106.948 21.1464 105.167C21.1464 103.086 21.4898 102.395 22.4551 102.533C23.1523 102.633 23.2953 102.954 23.3929 104.633ZM111.749 104.633C111.831 106.056 111.694 106.757 111.264 107.115C110.346 107.881 109.502 106.948 109.502 105.167C109.502 103.086 109.846 102.395 110.811 102.533C111.508 102.633 111.651 102.954 111.749 104.633ZM97.4891 104.209C97.4891 104.923 97.2825 105.183 96.714 105.183C96.2877 105.183 95.939 105.358 95.939 105.573C95.939 105.787 96.2877 105.962 96.714 105.962C97.2306 105.962 97.4891 106.222 97.4891 106.741C97.4891 107.17 97.6635 107.52 97.8766 107.52C98.0897 107.52 98.2641 107.17 98.2641 106.741C98.2641 106.17 98.5226 105.962 99.2329 105.962C100.439 105.962 100.516 105.282 99.3298 105.113C98.7695 105.033 98.4137 104.675 98.3339 104.112C98.1657 102.92 97.4891 102.998 97.4891 104.209ZM9.13312 105.767C9.13312 106.175 9.54236 106.352 10.4895 106.352C11.4366 106.352 11.8458 106.175 11.8458 105.767C11.8458 105.359 11.4366 105.183 10.4895 105.183C9.54236 105.183 9.13312 105.359 9.13312 105.767Z" fill="black" fill-opacity="0.91"/>
</svg>
