<svg transform="scale(0.75)" width="348" height="137" viewBox="0 0 348 137" fill="none" xmlns="http://www.w3.org/2000/svg">
<path fill-rule="evenodd" clip-rule="evenodd" d="M25 2.5C25 4.5 25.5 5 27.5 5C29.5 5 30 5.5 30 7.5C30 9.5 29.5 10 27.5 10C25.31 10 25 10.433 25 13.5C25 15.667 25.762 17.762 27 19C28.1 20.1 29 21.9 29 23C29 25.827 25.493 25.584 22.455 22.545C20.497 20.588 20 19.069 20 15.045C20 12.27 19.55 10 19 10C18.45 10 18 8.875 18 7.5C18 6.125 18.45 5 19 5C19.55 5 20 3.875 20 2.5C20 0.5 20.5 0 22.5 0C24.5 0 25 0.5 25 2.5ZM39.118 4.937C40.195 4.361 42.071 4.218 43.288 4.621C44.504 5.023 46.937 5.241 48.694 5.104C51.591 4.879 52.119 5.305 54.366 9.678L56.843 14.5L58.422 10.782C59.29 8.737 60 6.6 60 6.032C60 5.464 61.35 5 63 5C64.65 5 66 5.181 66 5.403C66 5.625 64.403 10.462 62.451 16.153C58.688 27.121 55.812 31 51.444 31C49.504 31 49 30.485 49 28.5C49 27.043 49.575 26 50.378 26C51.135 26 52.317 25.323 53.004 24.495C54.03 23.259 53.568 21.451 50.422 14.389C46.664 5.957 46.556 5.83 44.884 7.894C43.947 9.052 42.287 10 41.197 10C38.64 10 38 11.818 38 19.082C38 24.728 37.885 25 35.5 25C33.064 25 33 24.813 32.986 17.75C32.979 13.763 32.703 9.492 32.372 8.26C31.908 6.527 32.307 5.819 34.136 5.132C35.47 4.63 36.644 4.623 36.831 5.114C37.013 5.592 38.042 5.513 39.118 4.937ZM80.712 5.333C82.001 5.786 83.813 5.635 85.053 4.972C88.187 3.294 92.601 5.417 93.935 9.244C94.521 10.924 95 14.931 95 18.149C95 23.983 94.991 24 92 24H89V17.059C89 12.901 88.538 9.833 87.848 9.406C85.785 8.131 84 12.206 84 18.191C84 23.721 83.88 24 81.5 24C79.073 24 79 23.796 79 17.059C79 9.917 77.997 7.928 75.456 10.036C74.46 10.863 74 13.259 74 17.622C74 23.759 73.905 24 71.5 24C69.092 24 69 23.762 69 17.565C69 14.026 68.555 9.96 68.011 8.529C67.181 6.347 67.334 5.812 68.962 5.214C71.493 4.282 77.907 4.348 80.712 5.333ZM109.966 5.483C113.31 7.212 115.466 12.6 114.527 16.878C112.648 25.433 101.549 26.83 97.51 19.02C95.605 15.336 95.613 13.618 97.553 9.53C100.019 4.333 104.756 2.788 109.966 5.483ZM130.581 6.49C132.736 8.645 133 9.782 133 16.889C133 21.279 133.421 25.977 133.936 27.331C134.756 29.488 134.566 29.85 132.4 30.264C128.935 30.926 128.003 28.616 127.985 19.316C127.967 10.401 127.015 7.905 124.278 9.604C122.921 10.448 122.43 12.281 122.204 17.354C121.924 23.663 121.784 24 119.454 24C117.103 24 117 23.73 117 17.565C117 14.026 116.566 9.989 116.036 8.595C114.811 5.373 116.106 4.573 123.012 4.286C127.293 4.107 128.57 4.479 130.581 6.49ZM15.139 6.98C17.154 8.669 17.28 9.107 16 9.963C15.175 10.515 12.972 10.687 11.105 10.345C8.698 9.904 7.915 10.054 8.414 10.862C8.801 11.488 9.991 12 11.059 12C13.66 12 17 15.477 17 18.186C17 21.143 13.195 25 10.276 25C7.058 25 2 22.275 2 20.542C2 18.603 5.778 17.571 7.535 19.029C9.103 20.33 12.472 19.572 11.574 18.12C11.271 17.629 9.448 16.931 7.523 16.57C2.107 15.554 0.315 10.685 4 7C6.6 4.4 12.051 4.39 15.139 6.98ZM102.496 11.365C100.297 14.723 101.977 19 105.497 19C109.191 19 110.873 14.981 108.619 11.541C106.539 8.366 104.5 8.308 102.496 11.365ZM141.668 24.578C142.471 26.669 139.802 29.245 137.678 28.43C136.754 28.075 136 26.71 136 25.393C136 23.499 136.528 23 138.531 23C139.924 23 141.335 23.71 141.668 24.578ZM41.4 39.394C43.235 40.161 46.033 42.486 47.618 44.562C50.821 48.756 50.426 43.658 51.25 91.534L51.5 106.067L41.5 105.784L31.5 105.5L30.913 78C30.505 58.881 29.924 49.458 29.006 47.081C27.744 43.811 27.812 43.562 30.558 41.372C32.137 40.113 34.345 38.901 35.464 38.678C36.584 38.455 37.627 38.211 37.782 38.136C37.937 38.061 39.565 38.627 41.4 39.394ZM71.732 40.762C72.96 41.557 74.985 43.848 76.232 45.853C78.447 49.415 78.512 50.305 79 84.251L79.5 119.002L69.357 119.001C61.031 119 59.105 118.717 58.607 117.418C58.273 116.548 58 101.234 58 83.386C58 57.713 57.705 50.23 56.589 47.559C55.277 44.42 55.33 44.038 57.339 42.151C61.773 37.986 66.709 37.51 71.732 40.762ZM324 38.596C324 38.923 323.04 40.539 321.867 42.187C319.169 45.975 318.317 52.861 320.137 56.167C320.887 57.529 326.985 63.719 333.688 69.925C346.215 81.521 348 84.152 348 91.027C348 100.067 342.777 106 334.817 106C330.759 106 329.467 105.528 327.391 103.288C325.628 101.385 325.079 99.968 325.552 98.538C325.923 97.417 326.444 94.859 326.709 92.853C327.26 88.682 325.895 87.024 311.153 73.945C306.562 69.872 301.95 64.861 300.903 62.81C298.314 57.736 298.394 49.851 301.082 45.068C304.235 39.457 307.25 38.058 316.25 38.027C320.512 38.012 324 38.268 324 38.596ZM343.592 41.529C347.178 45.331 349.003 51.397 347.125 53.275C346.292 54.108 346 54.089 346 53.2C346 52.351 343.222 52 336.5 52C330.833 52 327 52.404 327 53C327 53.55 326.613 54 326.139 54C325.081 54 323.868 44.508 324.662 42.438C325.611 39.964 330.197 38.083 335.382 38.04C339.698 38.005 340.65 38.409 343.592 41.529ZM28 39.941C28 40.459 27.504 41.188 26.898 41.563C26.292 41.938 25.054 43.877 24.148 45.872C22.727 49.001 22.431 55.417 22 92.5L21.5 135.5L11 135.782L0.5 136.064L0.716999 96.282C0.849999 71.926 1.363 54.462 2.04 51.244C2.794 47.66 4.195 44.875 6.441 42.494L9.736 39H18.868C23.908 39 28 39.422 28 39.941ZM53.771 42.428C52.535 44.314 51.485 45.777 51.438 45.678C51.391 45.58 50.342 44.037 49.108 42.25L46.864 39H51.441H56.018L53.771 42.428ZM112.097 44.247C109.614 49.262 109.484 50.359 109.147 69.154C108.772 90.079 109.615 97.246 113.014 102.02C114.106 103.554 115 105.077 115 105.404C115 105.732 111.122 106 106.382 106H97.765L93.992 102.227C91.892 100.127 89.73 96.692 89.115 94.477C87.657 89.224 87.674 56.182 89.137 50.368C89.781 47.811 91.677 44.365 93.506 42.425C96.718 39.019 96.786 39 105.715 39H114.694L112.097 44.247ZM132.453 42.093C137.719 46.716 138.219 49.729 137.832 74.514C137.467 97.855 137.074 99.908 132.103 104.406C126.888 109.127 115.126 105.488 115.832 99.372C116.929 89.863 117.035 51.101 115.973 47.538C114.845 43.75 114.918 43.477 117.646 41.293C121.975 37.83 127.966 38.153 132.453 42.093ZM169.5 72.531V106.062L159 105.781L148.5 105.5L148.236 73.509C148.09 55.913 148.189 40.951 148.454 40.259C148.799 39.36 151.878 39 159.219 39H169.5V72.531ZM191.701 40.96C196.289 43.757 198.282 48.272 198.353 56.031C198.416 62.902 195.858 69.073 192.398 70.401C191.539 70.73 186.613 71 181.452 71H172.067L174.284 67.25C177.364 62.039 177.359 51.24 174.274 45.396C171.409 39.967 172.495 38.999 181.45 39.004C186.677 39.007 189.328 39.512 191.701 40.96ZM228.837 40.304C229.549 41.162 230.018 52.601 230.209 73.804L230.5 106.001H220.309C214.474 106 209.849 105.565 209.489 104.982C209.143 104.422 208.745 90.134 208.605 73.232C208.465 56.329 207.998 41.713 207.568 40.75C206.851 39.145 207.654 39 217.271 39C224.668 39 228.074 39.384 228.837 40.304ZM262.194 68.326L262.5 97.651L265.264 101.826L268.028 106H259.149C248.867 106 246.061 104.546 242.896 97.579C241.24 93.932 241.042 90.613 241.022 66.25L241 39H251.444H261.889L262.194 68.326ZM291.243 65.749C290.959 95.32 290.364 98.833 284.851 103.472C280.692 106.971 274.305 106.969 270.142 103.466C267.21 100.999 267.169 100.841 268.565 97.498C269.685 94.819 270 88.441 270 68.466C270 52.733 270.399 42.123 271.035 40.934C271.95 39.226 273.204 39 281.785 38.999L291.5 38.998L291.243 65.749ZM325 57C325 57.55 324.55 58 324 58C323.45 58 323 57.55 323 57C323 56.45 323.45 56 324 56C324.55 56 325 56.45 325 57ZM346 56.941C346 57.459 345.55 58.16 345 58.5C344.45 58.84 344 58.416 344 57.559C344 56.702 344.45 56 345 56C345.55 56 346 56.423 346 56.941ZM344 60.941C344 61.459 343.55 62.16 343 62.5C342.45 62.84 342 62.416 342 61.559C342 60.702 342.45 60 343 60C343.55 60 344 60.423 344 60.941ZM341 64.941C341 65.459 340.55 66.16 340 66.5C339.45 66.84 339 66.416 339 65.559C339 64.702 339.45 64 340 64C340.55 64 341 64.423 341 64.941ZM337.5 69C337.16 69.55 336.432 70 335.882 70C335.332 70 335.16 69.55 335.5 69C335.84 68.45 336.568 68 337.118 68C337.668 68 337.84 68.45 337.5 69ZM192.801 74.893C196.27 76.75 198.345 81.838 198.361 88.53C198.379 96.287 195.766 101.868 191 104.248C187.085 106.204 177.037 106.625 173.932 104.964C172.033 103.948 172.039 103.847 174.209 99.714C177.075 94.256 177.353 83.158 174.75 78.096C173.787 76.224 173 74.249 173 73.708C173 72.369 189.984 73.386 192.801 74.893ZM309.104 76.296C307.82 77.58 306.519 76.588 307.469 75.05C307.837 74.455 308.596 74.251 309.156 74.597C309.839 75.019 309.822 75.578 309.104 76.296ZM306.362 79.5C305.753 81.086 304 81.581 304 80.167C304 79.109 305.093 78 306.135 78C306.576 78 306.678 78.675 306.362 79.5ZM303.183 84.217C302.466 84.934 302 84.993 302 84.367C302 83.032 303.183 81.849 303.85 82.517C304.134 82.801 303.834 83.566 303.183 84.217ZM321.604 88.729C320.588 89.746 319.749 88.215 320.583 86.866C321.213 85.846 321.449 85.846 321.787 86.862C322.019 87.557 321.936 88.397 321.604 88.729ZM302 88C302 88.55 301.55 89 301 89C300.45 89 300 88.55 300 88C300 87.45 300.45 87 301 87C301.55 87 302 87.45 302 88ZM321.001 94.515C321 96.173 321.9 99.209 323 101.261C324.1 103.314 325 105.219 325 105.496C325 106.721 309.712 105.902 307.069 104.536C303.008 102.436 299 97.288 299.001 94.173L299.003 91.5H310.002H321.002L321.001 94.515Z" fill="white"/>
</svg>
