<svg width="348" height="99" viewBox="0 0 348 99" fill="none" xmlns="http://www.w3.org/2000/svg">
<path fill-rule="evenodd" clip-rule="evenodd" d="M41.4 1.39399C43.235 2.16099 46.033 4.48599 47.618 6.56199C50.821 10.756 50.426 5.65799 51.25 53.534L51.5 68.067L41.5 67.784L31.5 67.5L30.913 40C30.505 20.881 29.924 11.458 29.006 9.08099C27.744 5.81099 27.812 5.562 30.558 3.372C32.137 2.113 34.345 0.900995 35.464 0.677995C36.584 0.454995 37.627 0.210995 37.782 0.135995C37.937 0.0609953 39.565 0.626991 41.4 1.39399ZM71.732 2.76199C72.96 3.55699 74.985 5.84799 76.232 7.85299C78.447 11.415 78.512 12.305 79 46.251L79.5 81.002L69.357 81.001C61.031 81 59.105 80.717 58.607 79.418C58.273 78.548 58 63.234 58 45.386C58 19.713 57.705 12.23 56.589 9.55899C55.277 6.41999 55.33 6.03799 57.339 4.15099C61.773 -0.0140052 66.709 -0.490005 71.732 2.76199ZM324 0.595994C324 0.922994 323.04 2.53899 321.867 4.18699C319.169 7.97499 318.317 14.861 320.137 18.167C320.887 19.529 326.985 25.719 333.688 31.925C346.215 43.521 348 46.152 348 53.027C348 62.067 342.777 68 334.817 68C330.759 68 329.467 67.528 327.391 65.288C325.628 63.385 325.079 61.968 325.552 60.538C325.923 59.417 326.444 56.859 326.709 54.853C327.26 50.682 325.895 49.024 311.153 35.945C306.562 31.872 301.95 26.861 300.903 24.81C298.314 19.736 298.394 11.851 301.082 7.06799C304.235 1.45699 307.25 0.0579942 316.25 0.0269942C320.512 0.0119942 324 0.267994 324 0.595994ZM343.592 3.52899C347.178 7.33099 349.003 13.397 347.125 15.275C346.292 16.108 346 16.089 346 15.2C346 14.351 343.222 14 336.5 14C330.833 14 327 14.404 327 15C327 15.55 326.613 16 326.139 16C325.081 16 323.868 6.508 324.662 4.438C325.611 1.964 330.197 0.0829947 335.382 0.0399947C339.698 0.00499465 340.65 0.408993 343.592 3.52899ZM28 1.941C28 2.459 27.504 3.188 26.898 3.563C26.292 3.938 25.054 5.877 24.148 7.872C22.727 11.001 22.431 17.417 22 54.5L21.5 97.5L11 97.782L0.5 98.064L0.716999 58.282C0.849999 33.926 1.363 16.462 2.04 13.244C2.794 9.66 4.195 6.875 6.441 4.494L9.736 0.999994H18.868C23.908 0.999994 28 1.422 28 1.941ZM53.771 4.428C52.535 6.314 51.485 7.777 51.438 7.678C51.391 7.58 50.342 6.03699 49.108 4.24999L46.864 0.999994H51.441H56.018L53.771 4.428ZM112.097 6.247C109.614 11.262 109.484 12.359 109.147 31.154C108.772 52.079 109.615 59.246 113.014 64.02C114.106 65.554 115 67.077 115 67.404C115 67.732 111.122 68 106.382 68H97.765L93.992 64.227C91.892 62.127 89.73 58.692 89.115 56.477C87.657 51.224 87.674 18.182 89.137 12.368C89.781 9.81099 91.677 6.365 93.506 4.425C96.718 1.019 96.786 0.999994 105.715 0.999994H114.694L112.097 6.247ZM132.453 4.093C137.719 8.716 138.219 11.729 137.832 36.514C137.467 59.855 137.074 61.908 132.103 66.406C126.888 71.127 115.126 67.488 115.832 61.372C116.929 51.863 117.035 13.101 115.973 9.538C114.845 5.75 114.918 5.47699 117.646 3.29299C121.975 -0.170007 127.966 0.152996 132.453 4.093ZM169.5 34.531V68.062L159 67.781L148.5 67.5L148.236 35.509C148.09 17.913 148.189 2.951 148.454 2.259C148.799 1.36 151.878 0.999994 159.219 0.999994H169.5V34.531ZM191.701 2.95999C196.289 5.75699 198.282 10.272 198.353 18.031C198.416 24.902 195.858 31.073 192.398 32.401C191.539 32.73 186.613 33 181.452 33H172.067L174.284 29.25C177.364 24.039 177.359 13.24 174.274 7.396C171.409 1.967 172.495 0.998992 181.45 1.00399C186.677 1.00699 189.328 1.51199 191.701 2.95999ZM228.837 2.30399C229.549 3.16199 230.018 14.601 230.209 35.804L230.5 68.001H220.309C214.474 68 209.849 67.565 209.489 66.982C209.143 66.422 208.745 52.134 208.605 35.232C208.465 18.329 207.998 3.71299 207.568 2.74999C206.851 1.14499 207.654 0.999994 217.271 0.999994C224.668 0.999994 228.074 1.38399 228.837 2.30399ZM262.194 30.326L262.5 59.651L265.264 63.826L268.028 68H259.149C248.867 68 246.061 66.546 242.896 59.579C241.24 55.932 241.042 52.613 241.022 28.25L241 0.999994H251.444H261.889L262.194 30.326ZM291.243 27.749C290.959 57.32 290.364 60.833 284.851 65.472C280.692 68.971 274.305 68.969 270.142 65.466C267.21 62.999 267.169 62.841 268.565 59.498C269.685 56.819 270 50.441 270 30.466C270 14.733 270.399 4.12299 271.035 2.93399C271.95 1.22599 273.204 0.999994 281.785 0.998994L291.5 0.997995L291.243 27.749ZM325 19C325 19.55 324.55 20 324 20C323.45 20 323 19.55 323 19C323 18.45 323.45 18 324 18C324.55 18 325 18.45 325 19ZM346 18.941C346 19.459 345.55 20.16 345 20.5C344.45 20.84 344 20.416 344 19.559C344 18.702 344.45 18 345 18C345.55 18 346 18.423 346 18.941ZM344 22.941C344 23.459 343.55 24.16 343 24.5C342.45 24.84 342 24.416 342 23.559C342 22.702 342.45 22 343 22C343.55 22 344 22.423 344 22.941ZM341 26.941C341 27.459 340.55 28.16 340 28.5C339.45 28.84 339 28.416 339 27.559C339 26.702 339.45 26 340 26C340.55 26 341 26.423 341 26.941ZM337.5 31C337.16 31.55 336.432 32 335.882 32C335.332 32 335.16 31.55 335.5 31C335.84 30.45 336.568 30 337.118 30C337.668 30 337.84 30.45 337.5 31ZM192.801 36.893C196.27 38.75 198.345 43.838 198.361 50.53C198.379 58.287 195.766 63.868 191 66.248C187.085 68.204 177.037 68.625 173.932 66.964C172.033 65.948 172.039 65.847 174.209 61.714C177.075 56.256 177.353 45.158 174.75 40.096C173.787 38.224 173 36.249 173 35.708C173 34.369 189.984 35.386 192.801 36.893ZM309.104 38.296C307.82 39.58 306.519 38.588 307.469 37.05C307.837 36.455 308.596 36.251 309.156 36.597C309.839 37.019 309.822 37.578 309.104 38.296ZM306.362 41.5C305.753 43.086 304 43.581 304 42.167C304 41.109 305.093 40 306.135 40C306.576 40 306.678 40.675 306.362 41.5ZM303.183 46.217C302.466 46.934 302 46.993 302 46.367C302 45.032 303.183 43.849 303.85 44.517C304.134 44.801 303.834 45.566 303.183 46.217ZM321.604 50.729C320.588 51.746 319.749 50.215 320.583 48.866C321.213 47.846 321.449 47.846 321.787 48.862C322.019 49.557 321.936 50.397 321.604 50.729ZM302 50C302 50.55 301.55 51 301 51C300.45 51 300 50.55 300 50C300 49.45 300.45 49 301 49C301.55 49 302 49.45 302 50ZM321.001 56.515C321 58.173 321.9 61.209 323 63.261C324.1 65.314 325 67.219 325 67.496C325 68.721 309.712 67.902 307.069 66.536C303.008 64.436 299 59.288 299.001 56.173L299.003 53.5H310.002H321.002L321.001 56.515Z" fill="white"/>
</svg>
