<svg width="137" height="116" viewBox="0 0 137 116" fill="none" xmlns="http://www.w3.org/2000/svg">
<path fill-rule="evenodd" clip-rule="evenodd" d="M63.1179 3.35291C63.1179 7.08568 63.4145 7.42096 65.23 5.7386C66.7657 4.31539 66.5464 2.36676 64.8509 2.36676C64.065 2.36676 63.9068 2.16874 63.9068 1.18338C63.9068 0.53252 63.7293 0 63.5124 0C63.2804 0 63.1179 1.38061 63.1179 3.35291ZM65.4848 3.71936C65.4848 4.23373 64.4781 5.52243 64.0761 5.52243C63.983 5.52243 63.9068 4.98991 63.9068 4.33905C63.9068 3.41878 64.082 3.15568 64.6958 3.15568C65.1298 3.15568 65.4848 3.40931 65.4848 3.71936ZM58.4294 4.98281C57.7315 5.47155 57.5951 5.96936 57.5951 8.03001C57.5951 10.6579 58.0089 11.4393 59.401 11.4393C60.4681 11.4393 61.0673 10.7443 61.3896 9.13371C61.6184 7.99017 61.5545 7.88919 60.603 7.88919C60.0334 7.88919 59.5675 8.0667 59.5675 8.28365C59.5675 8.5006 59.7572 8.67811 59.9896 8.67811C60.2216 8.67811 60.3545 9.0777 60.2855 9.56564C60.2026 10.1483 59.8882 10.4532 59.3702 10.4532C58.6688 10.4532 58.5813 10.1901 58.5813 8.08642C58.5813 5.93228 58.661 5.70822 59.4689 5.59344C60.0531 5.5106 60.3565 5.67114 60.3565 6.06324C60.3565 6.39103 60.5478 6.77721 60.7813 6.92158C61.0551 7.0908 61.16 6.7989 61.0772 6.09992C60.9131 4.71931 59.5979 4.16431 58.4294 4.98281ZM37.0817 12.6227C37.0817 14.7264 37.2423 16.1728 37.4762 16.1728C37.6932 16.1728 37.8707 15.4628 37.8707 14.595C37.8707 13.1749 37.9693 13.0172 38.8569 13.0172C39.3994 13.0172 39.8432 12.8397 39.8432 12.6227C39.8432 12.4058 39.3994 12.2282 38.8569 12.2282C38.068 12.2282 37.8707 12.031 37.8707 11.2421C37.8707 10.4532 38.068 10.2559 38.8569 10.2559C39.4708 10.2559 39.8432 10.0323 39.8432 9.66426C39.8432 9.25086 39.4266 9.07257 38.4625 9.07257H37.0817V12.6227ZM80.3061 9.69226C79.884 10.1147 79.6863 11.0484 79.6863 12.6227C79.6863 15.0829 80.2938 16.1728 81.6647 16.1728C82.6245 16.1728 83.6312 14.7141 83.6312 13.3237C83.6312 12.4184 83.4604 12.2282 82.645 12.2282C81.5601 12.2282 81.3171 12.8018 82.2505 13.16C82.9862 13.442 82.9965 13.8388 82.2931 14.8005C81.3992 16.0233 80.4753 14.9169 80.4753 12.6227C80.4753 10.1487 81.3885 9.24652 82.458 10.6638C83.3941 11.9048 83.944 11.3837 83.0836 10.0709C82.3396 8.93569 81.2161 8.78225 80.3061 9.69226ZM53.1078 16.0655C52.0044 16.23 51.9803 16.2841 52.2202 18.0339C52.3559 19.0236 52.4667 20.0334 52.4667 20.278C52.4667 20.5912 54.511 20.7206 59.3872 20.7158C67.1207 20.7083 66.3191 21.0318 66.8509 17.7029C67.0671 16.3507 67.013 16.2616 65.8382 16.0265C64.4994 15.7587 54.9694 15.7882 53.1078 16.0655ZM105.229 16.3981C104.746 16.89 104.872 23.2731 105.366 23.2731C105.603 23.2731 106.313 22.9059 106.944 22.4574C108.707 21.2018 108.377 18.5396 106.457 18.5396C105.981 18.5396 105.735 18.1676 105.649 17.3183C105.581 16.647 105.392 16.2328 105.229 16.3981ZM42.4073 18.693C38.5619 20.0985 33.346 22.6159 32.9491 23.2577C32.6947 23.6691 34.5823 27.2177 35.0557 27.2177C35.202 27.2177 36.7295 26.5104 38.4506 25.6458C40.1714 24.7815 42.9434 23.6198 44.6101 23.0648L47.641 22.0554L47.0114 19.706C46.6654 18.4134 46.2863 17.3649 46.1699 17.3759C46.0532 17.3866 44.36 17.9795 42.4073 18.693ZM72.1828 19.0327C71.9445 19.9549 71.6707 20.9845 71.5741 21.3213C71.4423 21.7801 72.0731 22.1505 74.0929 22.8009C75.575 23.2782 78.4172 24.462 80.409 25.4312L84.0308 27.194L85.0383 25.598C86.5934 23.1346 86.6001 23.1556 83.7385 21.6258C81.2205 20.2799 73.8755 17.3562 73.0124 17.3562C72.7942 17.3562 72.4211 18.1104 72.1828 19.0327ZM107.235 20.2677C107.372 20.9777 106.661 22.0897 106.069 22.0897C105.661 22.0897 105.598 19.9786 105.994 19.5833C106.421 19.1561 107.091 19.5257 107.235 20.2677ZM15.7795 25.0482V28.4011H17.3574C19.1358 28.4011 19.5192 27.7317 17.8505 27.5396C16.9898 27.4406 16.7657 27.2114 16.7657 26.4288C16.7657 25.7065 17.0032 25.4091 17.6533 25.3164C18.8608 25.1452 18.7819 24.4565 17.5547 24.4565C16.7657 24.4565 16.5684 24.2593 16.5684 23.4703C16.5684 22.6376 16.7527 22.4842 17.7519 22.4842C18.4028 22.4842 18.9354 22.3067 18.9354 22.0897C18.9354 21.8728 18.2253 21.6953 17.3574 21.6953H15.7795V25.0482ZM101.06 24.9397C100.612 26.7238 100.312 28.2508 100.394 28.332C100.726 28.6642 101.383 27.9088 101.383 27.1944C101.383 25.9755 103.204 26.1637 103.518 27.4149C103.858 28.7734 104.616 28.6796 104.313 27.3163C102.79 20.4756 102.276 20.0997 101.06 24.9397ZM102.933 24.9496C102.949 25.3338 102.678 25.6399 102.323 25.6399C101.854 25.6399 101.748 25.4048 101.924 24.7523C102.054 24.264 102.176 23.5985 102.195 23.2731C102.238 22.5 102.895 23.991 102.933 24.9496ZM54.2419 23.7177C44.7624 24.9018 34.1902 30.2582 27.8788 37.0748C7.61281 58.9626 13.9017 93.7618 40.4349 106.555C51.8095 112.039 64.0244 112.576 75.6235 108.104C78.9186 106.833 84.2154 103.844 86.4798 101.977C98.6016 91.9828 104.441 78.7976 103.339 63.9095C101.499 39.0527 78.9908 20.6267 54.2419 23.7177ZM89.7647 28.2595L88.3485 30.1138L91.6507 33.3007C93.4669 35.0532 95.5861 37.2796 96.3601 38.248L97.7672 40.0088L99.742 38.661L101.717 37.3135L100.944 36.2272C99.7507 34.5523 94.3837 28.9423 92.6929 27.6031L91.1805 26.4051L89.7647 28.2595ZM25.1047 29.0914C22.0408 31.8199 17.6541 36.9806 17.862 37.6121C17.9444 37.8614 18.7677 38.5979 19.6916 39.2487L21.3717 40.4321L22.5899 38.8543C23.2597 37.9864 25.373 35.7073 27.2863 33.7894L30.7644 30.302L29.3388 28.5628C28.5549 27.6059 27.8547 26.8232 27.7825 26.8232C27.7107 26.8232 26.5056 27.8441 25.1047 29.0914ZM66.5152 27.3873C70.0411 28.0078 74.8972 29.5355 77.448 30.827C82.9104 33.5922 89.1382 38.87 92.506 43.5878C102.608 57.7394 102.609 76.8013 92.5091 90.9229C90.1588 94.2092 85.1784 98.9328 81.68 101.194C67.9456 110.07 50.1621 109.778 36.49 100.451C33.4146 98.3529 28.5691 93.4802 26.4389 90.3431C24.0499 86.8261 21.5307 81.2598 20.4518 77.1168C19.6632 74.0878 19.5275 72.6113 19.5271 67.0581C19.5271 59.4608 20.191 56.3008 23.0641 50.2234C26.8851 42.1409 32.1305 36.4461 39.7639 32.092C47.7704 27.525 57.5375 25.8075 66.5152 27.3873ZM6.70627 42.2072C6.70627 44.1597 6.81199 45.7573 6.94139 45.7573C7.07038 45.7573 7.69919 45.4484 8.33826 45.0709C10.3052 43.9093 10.3079 41.3875 8.3426 41.0948C7.69722 40.9989 7.49525 40.6932 7.49525 39.8128C7.49525 39.1773 7.31773 38.657 7.10076 38.657C6.86683 38.657 6.70627 40.1035 6.70627 42.2072ZM8.9943 42.6849C9.05939 43.0205 8.79311 43.6158 8.40257 44.0083C7.71774 44.6962 7.68776 44.6899 7.56271 43.83C7.4913 43.3397 7.53588 42.6706 7.66133 42.3429C7.94023 41.6163 8.83137 41.845 8.9943 42.6849ZM102.567 43.2588C101.59 43.8331 100.746 44.3357 100.69 44.3759C100.634 44.4161 101.193 45.764 101.933 47.371C102.673 48.9785 103.764 51.8596 104.358 53.7739C105.325 56.8866 105.527 57.2333 106.271 57.055C106.729 56.9457 107.769 56.7355 108.582 56.588C109.396 56.4404 110.062 56.2708 110.062 56.2109C110.062 56.1505 109.609 54.5403 109.056 52.6319C108.071 49.2333 105.052 42.2036 104.58 42.2107C104.449 42.2131 103.543 42.6845 102.567 43.2588ZM12.7005 46.2504C11.1285 49.8648 9.46768 54.936 9.46768 56.1217C9.46768 56.5414 10.1008 56.8728 11.4594 57.1639C14.0224 57.7134 14.2015 57.7043 14.2015 57.0199C14.2015 55.9963 16.2402 49.9607 17.4549 47.3892C18.4245 45.336 18.5413 44.8126 18.0975 44.514C17.3519 44.0126 14.6662 42.6016 14.4575 42.6016C14.3641 42.6016 13.5731 44.2434 12.7005 46.2504ZM113.9 42.8766C113.801 43.0509 113.413 44.4729 113.036 46.0366C112.322 49.0033 112.4 50.7271 113.161 48.8144C113.435 48.1244 113.887 47.7296 114.401 47.7296C114.91 47.7296 115.378 48.1319 115.665 48.8144C116.458 50.705 116.457 48.657 115.663 45.5869C115.016 43.0833 114.357 42.0699 113.9 42.8766ZM1.57795 47.5324V50.8853H3.15589C4.02376 50.8853 4.73384 50.7078 4.73384 50.4908C4.73384 50.2739 4.29004 50.0964 3.74762 50.0964C2.91486 50.0964 2.76141 49.9121 2.76141 48.913C2.76141 47.9138 2.91486 47.7296 3.74762 47.7296C4.29004 47.7296 4.73384 47.5521 4.73384 47.3351C4.73384 47.1182 4.29004 46.9407 3.74762 46.9407C2.95865 46.9407 2.76141 46.7434 2.76141 45.9545C2.76141 45.1656 2.95865 44.9684 3.74762 44.9684C4.29004 44.9684 4.73384 44.7909 4.73384 44.5739C4.73384 44.357 4.02376 44.1795 3.15589 44.1795H1.57795V47.5324ZM114.894 45.5695C115.087 46.5782 114.684 47.1616 114.06 46.7762C113.657 46.5273 113.96 44.5739 114.401 44.5739C114.568 44.5739 114.789 45.022 114.894 45.5695ZM120.318 64.8886C120.318 68.5152 120.617 68.9275 122.186 67.466C123.83 65.9343 123.638 63.9024 121.848 63.9024C121.288 63.9024 121.107 63.6137 121.107 62.7191C121.107 62.0682 120.93 61.5357 120.713 61.5357C120.481 61.5357 120.318 62.9163 120.318 64.8886ZM107.238 62.209C106.19 62.37 106.189 62.3715 106.252 65.799C106.286 67.6845 106.173 70.7664 106 72.6476L105.687 76.0672L107.906 76.5279C109.126 76.7811 110.181 76.9287 110.252 76.8553C110.889 76.1871 111.499 64.6937 110.997 62.8177C110.753 61.9088 109.996 61.7862 107.238 62.209ZM8.29211 66.9059C8.29882 71.0907 8.82861 76.8064 9.24795 77.2261C9.33434 77.3125 10.4026 77.176 11.622 76.9228L13.839 76.4624L13.5273 74.0286C13.3557 72.6898 13.2153 69.5972 13.2153 67.1563C13.2153 63.3391 13.1265 62.7183 12.5802 62.7187C12.2307 62.7191 11.121 62.6062 10.1146 62.4682L8.28422 62.2173L8.29211 66.9059ZM122.483 65.0775C122.775 65.5489 122.016 67.0581 121.488 67.0581C121.279 67.0581 121.107 66.5256 121.107 65.8747C121.107 64.7095 121.953 64.2196 122.483 65.0775ZM115.19 68.8332V72.1861H116.523C118.316 72.1861 118.68 71.6157 118.663 68.8308C118.647 66.0262 118.298 65.4803 116.523 65.4803H115.19V68.8332ZM117.754 67.2553C117.754 67.7733 117.449 68.0877 116.867 68.1705C116.138 68.2738 115.979 68.1093 115.979 67.2553C115.979 66.4013 116.138 66.2368 116.867 66.3402C117.449 66.423 117.754 66.7374 117.754 67.2553ZM0.263123 66.9268C0.118346 67.0711 0 68.6687 0 70.4769V73.7639H1.18346C3.00441 73.7639 3.94487 72.5545 3.94487 70.2138C3.94487 68.7673 3.73461 68.0312 3.15589 67.4526C2.38862 66.6854 0.794102 66.3954 0.263123 66.9268ZM2.85411 68.4099C3.78865 69.7752 2.67383 73.2712 1.43357 72.863C0.967677 72.7095 0.591335 68.931 0.94874 67.9993C1.16926 67.4254 2.35469 67.6806 2.85411 68.4099ZM117.754 70.2138C117.754 70.936 117.517 71.2335 116.867 71.3262C116.108 71.4339 115.979 71.2721 115.979 70.2138C115.979 69.1555 116.108 68.9937 116.867 69.1014C117.517 69.1941 117.754 69.4915 117.754 70.2138ZM42.6413 80.1502C38.6494 90.3608 36.8403 95.4848 37.2881 95.3132C38.3611 94.9014 51.2833 86.2971 51.2833 85.9941C51.2833 85.7164 44.7155 80.2729 43.4914 79.536C43.175 79.3455 42.8697 79.5664 42.6413 80.1502ZM103.548 83.1323C102.653 85.5149 99.9337 90.9963 98.9688 92.3619L98.2303 93.4068L100.137 94.63C101.186 95.303 102.154 95.8537 102.288 95.8537C102.703 95.8537 105.671 90.521 107.054 87.2899C109.177 82.3292 109.177 82.618 107.046 81.8922C106.024 81.5434 104.977 81.2587 104.72 81.2587C104.462 81.2587 103.935 82.1016 103.548 83.1323ZM12.4559 82.276C11.6042 82.5876 10.8504 82.9004 10.7801 82.9706C10.2196 83.5311 16.6016 96.2453 17.4446 96.2473C17.6008 96.2477 18.5255 95.6864 19.4995 95L21.2699 93.7524L20.2814 92.1402C18.8805 89.8567 17.2438 86.5661 16.1941 83.9213C15.2122 81.4484 14.9865 81.349 12.4559 82.276ZM7.10076 89.5786V93.165L8.38087 92.4175C10.6046 91.119 10.7742 88.3589 8.63058 88.3589C8.07041 88.3589 7.88973 88.0702 7.88973 87.1755C7.88973 86.5247 7.71221 85.9922 7.49525 85.9922C7.26132 85.9922 7.10076 87.4505 7.10076 89.5786ZM110.851 91.5663V95.1681L112.298 94.933C113.094 94.804 113.89 94.4699 114.067 94.191C114.51 93.4932 114.482 92.0061 114.022 91.7209C113.785 91.575 113.817 91.1028 114.106 90.4681C114.513 89.5739 114.458 89.3589 113.653 88.7072C113.149 88.2986 112.312 87.9645 111.793 87.9645C110.869 87.9645 110.851 88.0319 110.851 91.5663ZM112.763 89.1025C113.479 89.5561 113.181 90.8811 112.326 91.046C111.794 91.1482 111.64 90.9048 111.64 89.9656C111.64 88.7057 111.865 88.5329 112.763 89.1025ZM9.26531 89.534C9.55683 90.0054 8.79824 91.5146 8.27041 91.5146C8.06094 91.5146 7.88973 90.9821 7.88973 90.3312C7.88973 89.166 8.73512 88.6761 9.26531 89.534ZM1.57795 94.8675V98.2204H2.93616C4.64311 98.2204 5.52281 97.08 5.52281 94.8675C5.52281 92.655 4.64311 91.5146 2.93616 91.5146H1.57795V94.8675ZM113.491 92.5579C113.644 92.9552 113.457 93.4139 113.009 93.7413C111.922 94.5362 111.64 94.4024 111.64 93.0924C111.64 92.1659 111.814 91.9091 112.441 91.9091C112.882 91.9091 113.355 92.201 113.491 92.5579ZM4.14211 94.8675C4.14211 97.0217 4.06242 97.2457 3.25452 97.3605C2.41071 97.48 2.36692 97.3577 2.36692 94.8675C2.36692 92.3773 2.41071 92.255 3.25452 92.3745C4.06242 92.4893 4.14211 92.7134 4.14211 94.8675ZM92.6685 100.049C91.2779 101.461 89.0309 103.436 87.6747 104.439C86.3188 105.441 85.2091 106.431 85.2091 106.637C85.2091 107.091 87.2968 110.449 87.576 110.444C88.5848 110.429 98.6217 101.566 98.6217 100.691C98.6217 100.469 97.8508 99.6562 96.9092 98.8847L95.1963 97.4812L92.6685 100.049ZM22.5169 99.435L20.7729 101.012L22.5169 102.799C24.1911 104.515 27.8007 107.558 30.8209 109.801L32.2524 110.864L33.5396 108.858C34.2572 107.74 34.671 106.716 34.475 106.545C34.2813 106.376 33.0221 105.406 31.6765 104.39C30.3309 103.374 28.1147 101.481 26.7517 100.184C25.3884 98.887 24.2704 97.833 24.2668 97.8421C24.2637 97.8512 23.4759 98.5679 22.5169 99.435ZM20.1188 108.871C19.0636 109.926 19.0249 113.14 20.0522 114.409C20.9319 115.495 22.6834 115.241 23.0873 113.968C23.4771 112.74 23.0009 112.584 22.1015 113.647C21.3181 114.572 21.2916 114.576 20.7109 113.825C20.3851 113.404 20.1188 112.417 20.1188 111.632C20.1188 110.847 20.3851 109.861 20.7109 109.439C21.2928 108.686 21.3153 108.689 22.0561 109.561C22.9169 110.575 23.2747 110.68 23.2747 109.918C23.2747 109.287 22.025 108.082 21.3697 108.082C21.1157 108.082 20.5528 108.437 20.1188 108.871ZM97.252 108.719C96.7664 109.204 96.6425 109.975 96.7309 111.965C96.8406 114.437 96.9057 114.595 97.9727 114.969C98.9412 115.308 99.2035 115.234 99.8466 114.44C100.732 113.347 100.798 112.815 100.049 112.815C99.7483 112.815 99.4059 113.186 99.2876 113.639C99.1479 114.171 98.8185 114.414 98.3538 114.325C97.7854 114.217 97.6102 113.75 97.5151 112.089C97.4485 110.927 97.5933 109.751 97.8398 109.454C98.3668 108.819 99.4106 109.115 99.4106 109.899C99.4106 110.201 99.6769 110.449 100.002 110.449C100.822 110.449 100.742 109.807 99.8051 108.871C98.8501 107.916 98.0998 107.871 97.252 108.719ZM101.679 108.308C101.227 108.766 101.319 115.182 101.778 115.182C101.995 115.182 102.172 114.472 102.172 113.604C102.172 112.184 102.271 112.026 103.158 112.026C104.046 112.026 104.144 112.184 104.144 113.604C104.144 114.472 104.322 115.182 104.539 115.182C104.773 115.182 104.933 113.728 104.933 111.609C104.933 109.327 104.791 108.123 104.539 108.279C104.322 108.413 104.144 109.134 104.144 109.88C104.144 111.057 104.016 111.238 103.181 111.238C102.336 111.238 102.202 111.039 102.096 109.623C102.029 108.735 101.842 108.143 101.679 108.308ZM106.295 108.58C105.881 109.661 106.294 114.915 106.807 115.085C107.148 115.198 107.3 114.75 107.3 113.637C107.3 111.594 107.825 111.581 108.635 113.604C108.982 114.472 109.445 115.182 109.664 115.182C110.173 115.182 110.169 115.14 109.504 113.55C109.024 112.401 109.024 112.111 109.504 111.455C110.657 109.878 110.062 108.779 107.793 108.293C106.856 108.093 106.453 108.17 106.295 108.58ZM111.64 108.871C110.57 109.941 110.546 113.141 111.598 114.44C112.241 115.234 112.504 115.308 113.472 114.969C114.539 114.595 114.604 114.437 114.714 111.965C114.802 109.975 114.678 109.204 114.193 108.719C113.345 107.871 112.595 107.916 111.64 108.871ZM115.979 111.599C115.979 113.725 116.14 115.182 116.374 115.182C116.591 115.182 116.78 114.162 116.796 112.914L116.823 110.646L117.421 112.618C117.749 113.703 118.161 114.739 118.335 114.921C118.509 115.102 119.013 114.215 119.454 112.948L120.256 110.646L120.287 112.914C120.305 114.2 120.496 115.182 120.728 115.182C121.263 115.182 121.056 108.508 120.517 108.375C120.301 108.323 119.75 109.334 119.293 110.623L118.462 112.966L117.689 110.647C116.503 107.088 115.979 107.379 115.979 111.599ZM123.563 108.73C123.355 109.133 122.968 110.439 122.703 111.632C122.438 112.825 122.137 114.112 122.032 114.492C121.928 114.871 122.029 115.182 122.257 115.182C122.484 115.182 122.782 114.738 122.918 114.196C123.232 112.945 125.052 112.757 125.052 113.976C125.052 114.684 125.708 115.446 126.036 115.119C126.285 114.87 124.759 108.814 124.342 108.397C124.072 108.127 123.819 108.235 123.563 108.73ZM126.517 108.326C126.052 108.792 126.199 109.265 126.81 109.265C127.25 109.265 127.412 109.937 127.5 112.125C127.564 113.698 127.794 114.985 128.011 114.985C128.228 114.985 128.458 113.698 128.521 112.125C128.613 109.864 128.764 109.265 129.244 109.265C129.579 109.265 129.779 109.044 129.69 108.772C129.512 108.232 126.969 107.874 126.517 108.326ZM130.575 111.632C130.575 114.525 130.685 115.182 131.167 115.182C131.649 115.182 131.759 114.525 131.759 111.632C131.759 108.739 131.649 108.082 131.167 108.082C130.685 108.082 130.575 108.739 130.575 111.632ZM133.632 108.508C133.083 108.828 132.942 109.453 132.942 111.573C132.942 113.118 133.141 114.434 133.415 114.709C134.034 115.327 135.503 115.315 135.988 114.689C136.712 113.753 136.883 112.815 136.329 112.815C136.036 112.815 135.699 113.186 135.58 113.639C135.441 114.171 135.111 114.414 134.647 114.325C134.078 114.217 133.903 113.75 133.808 112.089C133.741 110.927 133.886 109.751 134.133 109.454C134.66 108.819 135.703 109.115 135.703 109.899C135.703 110.201 135.964 110.449 136.283 110.449C136.985 110.449 136.671 109.301 135.77 108.575C135.039 107.986 134.555 107.971 133.632 108.508ZM114.007 111.451C114.007 113.511 113.703 114.393 112.992 114.393C111.674 114.393 111.123 110.627 112.273 109.477C113.23 108.521 114.007 109.406 114.007 111.451ZM109.076 110.251C109.076 110.769 108.771 111.084 108.188 111.167C107.46 111.27 107.3 111.105 107.3 110.251C107.3 109.397 107.46 109.233 108.188 109.336C108.771 109.419 109.076 109.734 109.076 110.251ZM124.63 111.731C124.645 112.11 124.392 112.421 124.066 112.421C123.422 112.421 123.345 111.957 123.743 110.47C123.982 109.576 124.023 109.562 124.302 110.273C124.467 110.695 124.615 111.351 124.63 111.731Z" fill="black"/>
</svg>
