<svg width="80" height="76" viewBox="0 0 80 76" fill="none" xmlns="http://www.w3.org/2000/svg">
<path fill-rule="evenodd" clip-rule="evenodd" d="M39.289 5.48965V10.8196L37.4152 11.0602C34.3042 11.4594 30.7436 12.397 28.3944 13.4356C27.1727 13.9761 26.1198 14.4182 26.0555 14.4182C25.9908 14.4182 24.7585 12.3872 23.317 9.90444C21.4747 6.7322 20.5276 5.45494 20.1299 5.60759C19.8191 5.72672 19.5646 5.88411 19.5646 5.95669C19.5646 6.02966 20.7185 8.06231 22.1288 10.4736C23.5391 12.885 24.693 14.987 24.693 15.1448C24.693 15.3026 24.1699 15.7405 23.5304 16.1184C21.5797 17.2706 18.182 20.5856 16.6048 22.8754C15.7831 24.0683 15.0036 24.9866 14.8722 24.9164C14.7408 24.8458 12.7302 23.6837 10.4035 22.3342C6.63494 20.1482 5.36311 19.7292 5.36311 20.6744C5.36311 20.8353 6.7387 21.7441 8.42039 22.694C10.1021 23.6439 12.1341 24.8292 12.9361 25.3282L14.3945 26.2354L13.2797 28.7091C12.0509 31.4368 10.8859 36.0851 10.8859 38.2621V39.6636H5.56036C1.08965 39.6636 0.234787 39.7587 0.234787 40.2553C0.234787 40.752 1.08965 40.847 5.56036 40.847H10.8859V42.2485C10.8859 44.4224 12.0501 49.0723 13.275 51.7909L14.3846 54.2539L11.5506 55.8921C9.99163 56.7934 7.9616 57.965 7.03969 58.4959C6.11777 59.0273 5.36311 59.6119 5.36311 59.7953C5.36311 60.742 6.48818 60.3499 10.5597 57.9835L15.0265 55.3876L15.619 56.2925C17.1839 58.6821 20.1213 61.8039 22.2799 63.3711C23.5943 64.3257 24.6752 65.1998 24.6815 65.3138C24.6878 65.4282 23.56 67.4695 22.175 69.8501C20.2345 73.186 19.7572 74.3027 20.0933 74.7197C20.4625 75.1776 20.5796 75.1776 20.8574 74.7197C21.038 74.4222 22.2535 72.345 23.5584 70.1041C25.4642 66.8317 26.0618 66.0857 26.5944 66.3169C32.746 68.9866 38.2973 69.9534 43.4974 69.2615C46.8399 68.817 50.5563 67.7551 52.8704 66.5843C54.2574 65.8822 54.1008 65.7141 57.2768 71.3226C59.0283 74.4163 59.583 75.1161 60.0054 74.7658C60.435 74.4092 60.0555 73.5055 57.9991 69.9893C56.6042 67.604 55.4629 65.5236 55.4629 65.3658C55.4629 65.208 55.986 64.7702 56.6255 64.3923C58.5746 63.2413 61.9735 59.9259 63.5471 57.6408L65.0375 55.4771L66.2079 56.0822C66.8517 56.4152 68.8873 57.5788 70.7311 58.6675C73.3182 60.1957 74.1872 60.5396 74.5368 60.1736C75.0626 59.6233 75.4038 59.8793 69.7615 56.5939L65.7164 54.2389L66.6537 52.3751C67.9177 49.8616 68.8589 46.4696 69.1465 43.3917L69.384 40.847H74.6527C79.0726 40.847 79.9211 40.7516 79.9211 40.2553C79.9211 39.7587 79.0663 39.6636 74.5955 39.6636H69.27L69.2632 38.1844C69.2526 35.8745 68.264 31.7638 67.0033 28.7876L65.8533 26.0722L70.2242 23.5504C75.3719 20.5805 75.0488 20.8278 74.4997 20.2787C74.1786 19.9576 72.874 20.5229 69.6179 22.3934L65.174 24.946L63.456 22.6605C61.6296 20.231 58.4638 17.2039 56.5943 16.0998C55.9722 15.7322 55.4629 15.2916 55.4629 15.1208C55.4629 14.95 56.6144 12.8226 58.0216 10.3936C59.8788 7.18779 60.4465 5.89239 60.0926 5.66873C59.4843 5.28413 59.1695 5.70344 56.4219 10.5557C55.2191 12.6799 54.1777 14.4182 54.1075 14.4182C54.0377 14.4182 53.027 13.9847 51.8616 13.4554C49.6442 12.4475 45.9124 11.4669 42.7522 11.0618L40.8894 10.8231L40.7797 5.62376C40.6827 1.03699 40.5884 0.409006 39.9793 0.292246C39.3493 0.171542 39.289 0.626358 39.289 5.48965ZM48.2442 15.7136C56.7797 18.6579 63.2903 25.8244 65.3432 34.5357C65.9997 37.3217 65.9997 43.1889 65.3432 45.975C64.6257 49.0198 62.5992 53.2441 60.5029 56.0641C53.7304 65.1745 40.2385 68.6521 29.9456 63.9403C28.7463 63.3912 27.6216 63.0306 27.4461 63.1391C27.2709 63.2476 27.0678 63.173 26.9948 62.9734C26.9222 62.7738 25.8394 61.8189 24.5888 60.8509C18.694 56.2877 15.275 50.2754 14.4643 43.0477C13.1238 31.0964 20.4467 19.5225 31.6643 15.8628C35.8692 14.4908 36.1236 14.4569 41.0642 14.6044C44.4145 14.7042 46.0509 14.9571 48.2442 15.7136ZM30.7495 50.8071C29.8576 55.4176 29.1913 59.2592 29.2682 59.3448C29.3456 59.4304 31.114 57.9216 33.1981 55.9919C35.2826 54.0622 38.1608 51.4067 39.5947 50.0904L42.2019 47.6972L37.4467 45.061C34.8317 43.611 32.6198 42.4249 32.5318 42.4249C32.4434 42.4249 31.6415 46.1971 30.7495 50.8071ZM2.82144 68.9416C2.13701 69.9187 2.01509 72.2413 2.57132 73.7047C3.02498 74.898 4.26566 75.2581 5.33748 74.5074C6.01284 74.0345 6.1521 73.5154 6.1521 71.474C6.1521 70.0848 5.94578 68.8051 5.67871 68.5381C4.92564 67.7851 3.48931 67.9878 2.82144 68.9416ZM7.33556 71.4176C7.33556 74.1351 7.44758 74.7705 7.92728 74.7705C8.3407 74.7705 8.51901 74.354 8.51901 73.3899C8.51901 72.2724 8.66931 72.0093 9.30798 72.0093C9.74192 72.0093 10.097 71.8318 10.097 71.6149C10.097 71.3979 9.74192 71.2204 9.30798 71.2204C8.69416 71.2204 8.51901 70.9573 8.51901 70.037C8.51901 69.0379 8.67247 68.8536 9.50523 68.8536C10.0477 68.8536 10.4914 68.6761 10.4914 68.4592C10.4914 68.2422 9.78137 68.0647 8.9135 68.0647H7.33556V71.4176ZM11.2804 71.4176C11.2804 73.3899 11.443 74.7705 11.6749 74.7705C11.8919 74.7705 12.0694 74.1493 12.0694 73.3899C12.0694 72.1801 12.1917 72.0093 13.0556 72.0093C13.598 72.0093 14.0418 71.8318 14.0418 71.6149C14.0418 71.3979 13.598 71.2204 13.0556 71.2204C12.2228 71.2204 12.0694 71.0362 12.0694 70.037C12.0694 69.0379 12.2228 68.8536 13.0556 68.8536C13.598 68.8536 14.0418 68.6761 14.0418 68.4592C14.0418 68.2422 13.4205 68.0647 12.6611 68.0647H11.2804V71.4176ZM5.16588 71.4232C5.16588 73.5714 5.08579 73.7958 4.27827 73.9106C3.44394 74.029 3.39069 73.8972 3.39069 71.708C3.39069 69.2233 3.58674 68.7578 4.55481 68.944C5.02543 69.0347 5.16588 69.6047 5.16588 71.4232Z" fill="black"/>
</svg>
