<svg width="114" height="88" viewBox="0 0 114 88" fill="none" xmlns="http://www.w3.org/2000/svg">
<path fill-rule="evenodd" clip-rule="evenodd" d="M56.279 0.908821C55.3382 2.25196 55.4048 5.0254 56.4021 6.02259C57.352 6.97245 57.5528 6.98783 58.681 6.19733C59.3635 5.71964 59.558 5.19461 59.558 3.83057C59.558 1.59596 58.8538 1.53127 58.6929 3.75089C58.601 5.01947 58.3923 5.45811 57.8301 5.56501C57.4222 5.64232 56.9366 5.46639 56.7512 5.1737C56.266 4.40805 56.3252 1.91823 56.8412 1.40267C57.0822 1.16126 57.2045 0.737219 57.1122 0.461097C57.0029 0.133301 56.7125 0.289519 56.279 0.908821ZM58.3745 0.453605C58.3745 0.670558 58.552 0.957718 58.769 1.09183C58.986 1.22595 59.1635 1.15812 59.1635 0.941169C59.1635 0.724217 58.986 0.437041 58.769 0.302925C58.552 0.168808 58.3745 0.236653 58.3745 0.453605ZM32.1692 9.00904C30.9794 10.1991 31.5411 10.8484 32.7858 9.72222C33.1743 9.37036 33.7653 9.18733 34.099 9.31513C34.9684 9.64884 34.8473 10.7928 33.9164 11.0362C33.4824 11.1498 33.1274 11.3872 33.1274 11.5644C33.1274 11.7415 33.4824 11.999 33.9164 12.1367C34.3503 12.2744 34.7053 12.6471 34.7053 12.9647C34.7053 13.7911 33.5511 14.12 32.6422 13.5524C31.4922 12.8341 31.2046 13.4656 32.2836 14.3402C33.3163 15.1776 33.8351 15.2592 34.688 14.7196C35.3858 14.2782 35.6537 9.64845 35.0253 8.89149C34.4505 8.19882 32.9167 8.26193 32.1692 9.00904ZM80.392 9.25242C79.7316 9.91235 79.6575 10.1581 80.076 10.2973C80.3774 10.3979 80.6914 10.276 80.7747 10.0263C80.8579 9.77665 81.355 9.57272 81.8792 9.57272C83.0777 9.57272 83.2079 10.9782 82.0437 11.3478C81.6098 11.4855 81.2548 11.7635 81.2548 11.9659C81.2548 12.1683 81.6098 12.3339 82.0437 12.3339C82.5739 12.3339 82.8327 12.5971 82.8327 13.1351C82.8327 14.2281 81.6682 14.6163 81.0256 13.7374C80.2543 12.683 79.5364 13.141 80.2847 14.2096C80.9605 15.1744 82.5049 15.3874 83.1258 14.6021C83.3404 14.3311 83.5211 12.9958 83.5274 11.6354C83.5369 9.63465 83.4012 9.08793 82.8173 8.77552C81.7621 8.21105 81.3526 8.29152 80.392 9.25242ZM56.7966 15.053C56.7966 20.6318 56.8029 20.6176 54.2908 20.6176C52.2146 20.6176 47.3447 22.1473 44.1837 23.7922C38.6198 26.6879 34.0343 31.3844 31.3782 36.908C29.5119 40.7891 28.7726 43.7735 28.5253 48.427C28.244 53.7135 29.0105 57.2408 31.7916 63.4642C31.9005 63.7075 31.2248 64.347 30.2902 64.8854C23.2719 68.9282 22.9094 69.1728 23.122 69.7262C23.3141 70.2272 23.4849 70.226 24.4676 69.7179C25.0866 69.398 25.6668 69.1361 25.7572 69.1361C25.8479 69.1361 26.3631 69.802 26.902 70.6153C29.2701 74.1883 35.2927 80.181 36.5152 80.181C36.7705 80.181 37.5326 79.3376 38.2092 78.3073L39.4392 76.4336L38.5516 75.7204C36.6213 74.1698 32.9822 70.4157 31.6374 68.5882L30.218 66.6597L31.1246 65.9256C32.3625 64.9233 32.8441 64.9998 33.6256 66.3228C34.7641 68.2505 37.6699 71.2504 40.1406 73.0495L42.5031 74.7698L39.8234 79.3491C37.632 83.0929 37.2502 83.9891 37.7291 84.2605C38.0514 84.4431 38.3634 84.5319 38.4226 84.4577C38.4813 84.3835 39.533 82.5477 40.7595 80.3782C41.9856 78.2087 43.1426 76.1957 43.3304 75.905C43.6073 75.4762 43.9706 75.5295 45.2626 76.1887C47.7463 77.4557 52.3341 78.5941 56.0076 78.8552C60.8949 79.2027 65.2694 78.2678 71.2447 75.5989C71.4963 75.4865 72.75 77.2892 74.1402 79.7617C76.672 84.266 77.1371 84.8506 77.7229 84.2648C77.919 84.0688 76.9391 81.9829 75.4463 79.4189L72.825 74.9169L74.18 73.9158C75.9028 72.6424 80.805 67.7255 81.878 66.1942L82.6958 65.0274L83.9578 65.8262L85.2197 66.6254L83.2828 69.1834C82.2177 70.5905 80.2208 72.7352 78.8452 73.9497L76.3442 76.1583L77.6961 78.1392L79.048 80.1206L80.25 79.2855C82.1147 77.9901 86.4959 73.4389 87.9559 71.28C88.6798 70.2094 89.3157 69.2758 89.3689 69.2055C89.4222 69.1353 90.0045 69.3566 90.6633 69.6974C91.537 70.1491 91.9371 70.194 92.141 69.8639C92.4909 69.2978 91.8601 68.8296 87.1058 66.1287L83.2923 63.9616L84.2458 61.8785C87.7066 54.3194 87.6293 44.5581 84.0493 37.0567C81.3956 31.4976 76.2779 26.288 70.8502 23.621C67.7515 22.098 62.8362 20.6176 60.8803 20.6176C58.3682 20.6176 58.3745 20.6318 58.3745 15.053C58.3745 10.2303 58.3339 9.96719 57.5855 9.96719C56.8372 9.96719 56.7966 10.2303 56.7966 15.053ZM27.999 12.1367C27.999 12.5501 28.4156 12.7284 29.3798 12.7284C30.3439 12.7284 30.7605 12.5501 30.7605 12.1367C30.7605 11.7233 30.3439 11.545 29.3798 11.545C28.4156 11.545 27.999 11.7233 27.999 12.1367ZM53.0994 12.6243L51.5724 12.7817L51.8481 15.2182C51.9996 16.5578 52.1866 17.7175 52.2639 17.7944C52.3409 17.8718 53.1444 17.8094 54.0498 17.6568C55.6293 17.3897 55.6857 17.331 55.4569 16.1878C55.3259 15.5326 55.2186 14.3974 55.2186 13.6652C55.2186 12.9331 55.0857 12.3639 54.9228 12.4002C54.7598 12.4369 53.9397 12.5375 53.0994 12.6243ZM60.347 15.049C60.347 17.1223 60.4416 17.3952 61.2346 17.6079C63.1379 18.1179 63.3545 17.9463 63.7869 15.5882C64.0161 14.3406 64.1238 13.1872 64.0271 13.0242C63.9301 12.8613 63.0626 12.7284 62.0989 12.7284H60.347V15.049ZM44.9884 14.6628C43.3753 15.2478 41.9895 15.9255 41.9087 16.1685C41.8274 16.4115 42.2148 17.5061 42.7694 18.6003L43.7777 20.59L45.4547 19.8772C46.377 19.4851 47.62 19.0441 48.2165 18.8973C48.8141 18.7502 49.3013 18.3577 49.3013 18.0236C49.3013 17.1207 48.4532 13.9212 48.168 13.7489C48.0319 13.6664 46.6011 14.0778 44.9884 14.6628ZM66.6864 16.1121C66.4157 17.3219 66.254 18.3719 66.3278 18.4453C66.4011 18.5187 67.6607 19.0295 69.1263 19.581L71.791 20.5837L72.7753 18.6413C73.3165 17.5731 73.7595 16.5365 73.7595 16.3373C73.7595 15.9689 68.6079 13.9118 67.6852 13.9118C67.3925 13.9118 66.9712 14.8395 66.6864 16.1121ZM35.5929 19.6662C34.2371 20.6488 33.1274 21.627 33.1274 21.8392C33.1274 22.0518 33.8083 22.956 34.6402 23.8478L36.1535 25.4698L38.5851 23.7551C39.9228 22.812 41.0171 21.9047 41.0171 21.7394C41.0171 21.1418 38.8435 17.8568 38.4557 17.8678C38.2372 17.8745 36.9492 18.6836 35.5929 19.6662ZM75.4704 19.9166L74.2297 21.9769L75.6712 22.9299C76.4641 23.4545 77.5777 24.3133 78.1458 24.8387L79.1794 25.7945L80.7837 23.9172C81.6666 22.8845 82.2915 21.8826 82.1727 21.6901C81.8922 21.2369 77.3024 17.8564 76.9671 17.8564C76.8262 17.8564 76.1529 18.7834 75.4704 19.9166ZM65.7428 25.1649C75.0321 28.2831 81.5534 35.9597 83.1353 45.6397C83.6702 48.9118 83.6927 50.0139 83.2836 52.8449C82.3526 59.2825 79.6157 64.5537 75.0148 68.7693C66.7566 76.3362 54.0324 77.6008 44.2551 71.8267C41.2672 70.0623 37.2048 65.9347 35.3854 62.8153C33.1061 58.9074 32.2449 55.8077 32.0453 50.7937C31.7242 42.7188 33.8122 37.2945 39.4289 31.6135C42.1978 28.8133 43.397 27.921 46.2145 26.5649C48.0966 25.6592 50.8481 24.6647 52.329 24.3555C56.2786 23.5307 61.8807 23.8687 65.7428 25.1649ZM28.4338 26.6114C27.3414 27.9794 26.4416 29.3 26.4345 29.5462C26.427 29.7923 26.8649 30.2807 27.4073 30.6309C30.6082 32.6983 30.0839 32.7579 32.1325 30.0957C33.1467 28.7782 33.9183 27.5601 33.8477 27.3889C33.7771 27.2181 32.9767 26.4134 32.0694 25.6012L30.4196 24.1247L28.4338 26.6114ZM82.6954 26.0785L81.2145 27.5952L82.6323 29.2917C83.4122 30.225 84.2296 31.324 84.4485 31.7335C84.8367 32.4581 84.8864 32.4561 86.3054 31.6518C89.3757 29.9123 89.3642 29.9335 88.122 28.237C86.4908 26.0098 85.1089 24.5622 84.6142 24.5622C84.3732 24.5622 83.51 25.2446 82.6954 26.0785ZM15.3755 31.6625C15.3755 33.034 15.4915 33.2411 16.2631 33.2462C17.5294 33.2549 18.2371 33.8091 18.0726 34.6635C17.8809 35.6587 16.5357 35.8595 15.8986 34.9885C15.2197 34.0596 14.7936 34.5199 15.3573 35.5731C15.8761 36.5423 17.7905 36.6969 18.5116 35.8279C18.7708 35.5159 18.9255 34.7613 18.8556 34.1515C18.7566 33.288 18.4454 32.9595 17.4465 32.6656C15.7242 32.1587 15.6536 30.8735 17.3479 30.8735C17.9988 30.8735 18.5314 30.696 18.5314 30.4791C18.5314 30.2621 17.8213 30.0846 16.9534 30.0846H15.3755V31.6625ZM96.6397 31.6376C96.6397 33.1011 96.7135 33.1973 97.9218 33.3141C98.9913 33.417 99.2039 33.6001 99.2039 34.4182C99.2039 35.5854 97.8934 36.0287 97.3443 35.0477C96.8244 34.1187 96.1486 34.6891 96.6524 35.6311C97.1419 36.5451 99.0792 36.6674 99.7759 35.8279C100.035 35.5159 100.19 34.7613 100.12 34.1515C100.021 33.288 99.7096 32.9595 98.7108 32.6656C96.9885 32.1587 96.9178 30.8735 98.6122 30.8735C99.2631 30.8735 99.7956 30.696 99.7956 30.4791C99.7956 30.2621 99.0856 30.0846 98.2177 30.0846C96.6441 30.0846 96.6397 30.089 96.6397 31.6376ZM23.4005 35.114C21.9784 38.3249 20.9018 42.7614 20.6245 46.5533L20.3866 49.8076H22.8044C25.5453 49.8076 25.4092 49.9989 25.7943 45.6023C25.9643 43.6615 27.543 37.9699 28.6432 35.3313C28.8074 34.9373 25.4369 32.8458 24.6372 32.8458C24.5098 32.8458 23.9532 33.8663 23.4005 35.114ZM88.2837 33.8442L86.4367 34.8059L87.4083 37.2772C88.6885 40.5346 89.4206 43.4915 89.7536 46.7505L90.0254 49.4131H92.5572H95.089L94.8535 47.3422C94.1691 41.3196 91.666 32.821 90.5891 32.8644C90.337 32.8742 89.2995 33.3152 88.2837 33.8442ZM11.4306 33.832C11.4306 34.2454 11.8472 34.4237 12.8113 34.4237C13.7754 34.4237 14.192 34.2454 14.192 33.832C14.192 33.4186 13.7754 33.2403 12.8113 33.2403C11.8472 33.2403 11.4306 33.4186 11.4306 33.832ZM69.6174 40.9524C66.3629 41.4581 62.9557 41.9803 62.046 42.1133L60.3915 42.3547L62.6377 47.0444C63.8729 49.6238 64.9723 51.7361 65.0808 51.7385C65.1893 51.7408 68.0296 49.0932 71.3926 45.8543C76.3927 41.0392 77.3272 39.9717 76.5209 39.9994C75.9785 40.0179 72.8719 40.4467 69.6174 40.9524ZM89.7784 52.7984C89.6467 53.1415 89.539 53.8315 89.539 54.332C89.539 55.1438 88.047 60.7424 87.3539 62.5321C87.1385 63.0875 87.5058 63.4121 89.1997 64.1643C90.3627 64.6807 91.4412 65.0274 91.5962 64.9355C92.1217 64.6227 94.2121 57.4917 94.4846 55.0823L94.7557 52.6883L92.8811 52.4311C90.2546 52.0714 90.0483 52.0958 89.7784 52.7984ZM20.6719 53.095C20.3803 53.8536 21.5709 59.2963 22.7457 62.5774C23.2995 64.1237 23.8025 65.4452 23.864 65.5138C23.9544 65.6152 27.9308 63.747 28.3 63.4295C28.3572 63.3806 27.9596 62.1601 27.4164 60.7176C26.8736 59.275 26.2239 56.8511 25.973 55.3316L25.5165 52.5688H23.195C21.6241 52.5688 20.8083 52.7388 20.6719 53.095ZM12.2196 53.7522C12.2196 53.9691 12.8409 54.1466 13.6003 54.1466C14.3597 54.1466 14.981 54.3021 14.981 54.4922C14.981 54.6819 14.5297 55.8578 13.9782 57.1051C13.0626 59.1752 12.9411 60.3582 13.7376 59.4454C14.1447 58.9792 16.1644 54.2192 16.1644 53.7262C16.1644 53.5234 15.2769 53.3577 14.192 53.3577C13.1072 53.3577 12.2196 53.5352 12.2196 53.7522ZM99.4011 53.9257C99.4011 54.2855 99.8962 54.5383 100.754 54.6161L102.107 54.7383L100.968 57.4009C100.165 59.2778 99.9814 60.0635 100.345 60.0635C100.855 60.0635 103.346 54.9458 103.346 53.8985C103.346 53.5127 102.781 53.3577 101.374 53.3577C99.9199 53.3577 99.4011 53.5072 99.4011 53.9257ZM8.6692 57.1051C8.6692 57.5185 9.08578 57.6968 10.0499 57.6968C11.014 57.6968 11.4306 57.5185 11.4306 57.1051C11.4306 56.6917 11.014 56.5134 10.0499 56.5134C9.08578 56.5134 8.6692 56.6917 8.6692 57.1051ZM101.275 62.8563C100.725 63.1766 100.585 63.8014 100.585 65.9212C100.585 68.7657 100.972 69.5306 102.411 69.5306C103.887 69.5306 104.529 68.5054 104.529 66.1497C104.529 63.1703 103.144 61.768 101.275 62.8563ZM106.107 63.2192C105.097 64.2294 104.986 67.959 105.938 68.9109C107.142 70.1144 109.263 69.4529 109.263 67.8738C109.263 66.9319 108.95 66.9784 108.072 68.0513C107.013 69.3479 106.43 68.5259 106.578 65.9418C106.674 64.2578 106.848 63.79 107.418 63.6815C107.882 63.5932 108.212 63.8358 108.351 64.3683C108.648 65.5043 109.263 65.4037 109.263 64.2192C109.263 63.308 108.308 62.4303 107.317 62.4303C107.086 62.4303 106.541 62.7853 106.107 63.2192ZM109.921 62.6934C109.421 63.1932 109.661 63.6137 110.447 63.6137C111.166 63.6137 111.236 63.8768 111.236 66.5721C111.236 68.2813 111.402 69.5306 111.63 69.5306C111.857 69.5306 112.025 68.2967 112.025 66.6183C112.025 63.9908 112.106 63.6843 112.854 63.489C113.31 63.3695 113.565 63.0831 113.422 62.8512C113.138 62.3928 110.347 62.267 109.921 62.6934ZM7.31651 63.4444C6.89322 63.8681 6.69677 64.8022 6.69677 66.3938C6.69677 68.4434 6.81511 68.8012 7.68298 69.3696C8.59661 69.968 8.74179 69.968 9.65542 69.3696C10.5233 68.8012 10.6416 68.4434 10.6416 66.3938C10.6416 63.9174 10.0377 62.8247 8.6692 62.8247C8.26643 62.8247 7.65774 63.1036 7.31651 63.4444ZM12.3162 63.3178C11.5931 64.2215 11.3501 65.6463 11.616 67.421C11.8117 68.7255 12.1139 69.2844 12.7888 69.5921C13.9482 70.1203 15.3755 69.426 15.3755 68.3334C15.3755 67.3417 14.9108 67.3429 14.2906 68.3361C13.9975 68.8051 13.5612 69.0205 13.1916 68.8789C12.235 68.5117 12.5367 63.8712 13.5297 63.6819C13.9944 63.5935 14.3238 63.8358 14.4634 64.3683C14.7269 65.3773 15.3755 65.4578 15.3755 64.4815C15.3755 63.0165 13.2149 62.1944 12.3162 63.3178ZM16.1644 63.2192C16.1644 63.4362 16.4307 63.6137 16.7562 63.6137C17.2296 63.6137 17.3479 64.2054 17.3479 66.5721C17.3479 68.2813 17.5144 69.5306 17.7424 69.5306C17.9684 69.5306 18.1369 68.335 18.1369 66.7323C18.1369 64.2661 18.2304 63.9099 18.9259 63.7281C20.3397 63.3584 19.757 62.8247 17.9396 62.8247C16.9633 62.8247 16.1644 63.0023 16.1644 63.2192ZM9.43293 64.1746C9.69329 64.4886 9.84477 65.5745 9.77692 66.64C9.66607 68.376 9.56823 68.5444 8.6692 68.5444C7.77016 68.5444 7.67233 68.376 7.56148 66.64C7.44984 64.8909 7.91731 63.6137 8.6692 63.6137C8.83291 63.6137 9.17651 63.8661 9.43293 64.1746ZM103.27 65.9418C103.405 68.3014 102.947 69.1617 101.982 68.361C101.591 68.0367 101.374 67.191 101.374 65.9978C101.374 63.9758 101.602 63.5249 102.538 63.7024C102.98 63.7864 103.182 64.4034 103.27 65.9418ZM96.6397 65.3887C96.6397 66.1118 96.4295 66.3749 95.8508 66.3749C95.4168 66.3749 95.0618 66.5524 95.0618 66.7693C95.0618 66.9863 95.4168 67.1638 95.8508 67.1638C96.3766 67.1638 96.6397 67.4269 96.6397 67.9527C96.6397 68.391 96.9029 68.7416 97.2315 68.7416C97.5601 68.7416 97.8232 68.391 97.8232 67.9527C97.8232 67.4269 98.0863 67.1638 98.6122 67.1638C99.6931 67.1638 99.6126 66.4597 98.5135 66.3039C97.9431 66.2226 97.581 65.8605 97.4997 65.2901C97.3285 64.0827 96.6397 64.1616 96.6397 65.3887ZM3.14639 66.9666C3.14639 67.38 3.56296 67.5583 4.52709 67.5583C5.49122 67.5583 5.90779 67.38 5.90779 66.9666C5.90779 66.5532 5.49122 66.3749 4.52709 66.3749C3.56296 66.3749 3.14639 66.5532 3.14639 66.9666ZM13.2819 72.1999C11.8523 72.5174 11.2886 76.4786 12.4393 78.1207C13.1174 79.0891 14.6476 79.2832 15.31 78.4848C15.9301 77.7377 16.2437 75.036 15.8642 73.7111C15.5238 72.5214 14.5088 71.9277 13.2819 72.1999ZM17.8304 72.5115C17.1045 73.0196 16.9534 73.5 16.9534 75.2983C16.9534 77.9373 17.458 78.9976 18.7144 78.9976C19.7641 78.9976 20.8983 78.0612 20.8983 77.1945C20.8983 76.3914 20.3823 76.4979 19.8063 77.4197C18.6525 79.267 17.5657 77.8481 17.8134 74.8183C17.9144 73.588 18.1112 73.2535 18.7933 73.1564C19.3748 73.0736 19.7298 73.2953 19.9065 73.8523C20.1539 74.6317 20.8983 74.6274 20.8983 73.8463C20.8983 73.3994 19.4458 71.8973 19.0138 71.8973C18.845 71.8973 18.3124 72.1738 17.8304 72.5115ZM4.65057 73.1549C3.9902 73.8148 3.91603 74.0605 4.33458 74.1998C4.63597 74.3004 4.94998 74.1781 5.03322 73.9288C5.25926 73.2511 6.68572 73.3813 6.96305 74.1047C7.12478 74.5256 6.66244 75.2305 5.57011 76.2289C3.30852 78.2959 3.39412 78.9976 5.90779 78.9976C6.99263 78.9976 7.88023 78.8201 7.88023 78.6031C7.88023 78.3862 7.25891 78.2087 6.49952 78.2087C5.74014 78.2087 5.11882 78.0521 5.11882 77.8612C5.11882 77.6698 5.74014 77.0395 6.49952 76.4604C8.26446 75.1141 8.44395 73.2756 6.86837 72.6764C5.55394 72.1766 5.64901 72.1561 4.65057 73.1549ZM21.49 72.6862C21.6241 72.9032 21.9894 73.0807 22.3023 73.0807C22.7469 73.0807 22.8707 73.7264 22.8707 76.0391C22.8707 77.7483 23.0372 78.9976 23.2652 78.9976C23.4932 78.9976 23.6597 77.7483 23.6597 76.0391C23.6597 73.6724 23.778 73.0807 24.2514 73.0807C24.5769 73.0807 24.8432 72.9032 24.8432 72.6862C24.8432 72.4693 24.0337 72.2918 23.0447 72.2918C21.946 72.2918 21.3409 72.4452 21.49 72.6862ZM14.7837 75.6447C14.7837 77.7483 14.6962 78.0114 13.9948 78.0114C13.3013 78.0114 13.1916 77.7089 13.0875 75.5161C12.9734 73.1099 13.0018 73.0255 13.8764 73.1493C14.708 73.2673 14.7837 73.4756 14.7837 75.6447ZM0.384979 76.4336C0.384979 76.847 0.801557 77.0253 1.76568 77.0253C2.72981 77.0253 3.14639 76.847 3.14639 76.4336C3.14639 76.0202 2.72981 75.8419 1.76568 75.8419C0.801557 75.8419 0.384979 76.0202 0.384979 76.4336ZM96.1466 79.0292C95.5971 79.3495 95.4563 79.9743 95.4563 82.0941C95.4563 84.9385 95.8433 85.7034 97.2824 85.7034C98.7585 85.7034 99.4011 84.6782 99.4011 82.3225C99.4011 79.3431 98.0153 77.9408 96.1466 79.0292ZM100.979 79.3921C99.9688 80.4023 99.858 84.1319 100.81 85.0837C102.014 86.2872 104.135 85.6257 104.135 84.0467C104.135 83.1047 103.821 83.1512 102.944 84.2242C101.884 85.5208 101.302 84.6987 101.45 82.1146C101.546 80.4307 101.72 79.9628 102.289 79.8544C102.754 79.766 103.083 80.0086 103.223 80.5411C103.52 81.6772 104.135 81.5766 104.135 80.392C104.135 79.4808 103.18 78.6031 102.189 78.6031C101.957 78.6031 101.413 78.9581 100.979 79.3921ZM104.793 78.8662C104.292 79.366 104.533 79.7865 105.318 79.7865C106.037 79.7865 106.107 80.0496 106.107 82.745C106.107 84.4541 106.274 85.7034 106.502 85.7034C106.729 85.7034 106.896 84.4695 106.896 82.7911C106.896 80.1636 106.978 79.8571 107.725 79.6619C108.181 79.5424 108.437 79.256 108.294 79.024C108.01 78.5657 105.219 78.4398 104.793 78.8662ZM88.1863 79.6173C87.5145 80.2894 87.35 81.3643 87.9188 81.3643C88.1125 81.3643 88.3733 81.0981 88.4983 80.7727C88.623 80.4472 89.0857 80.181 89.5267 80.181C90.7788 80.181 90.5019 81.4736 88.9472 82.8885C88.1879 83.5792 87.5665 84.4956 87.5665 84.9239C87.5665 85.5961 87.8375 85.7034 89.539 85.7034C90.6238 85.7034 91.5114 85.5259 91.5114 85.3089C91.5114 85.092 90.8901 84.9145 90.1307 84.9145C88.4388 84.9145 88.3792 84.4431 89.9327 83.3374C91.4455 82.2602 91.842 80.8058 90.9055 79.7707C90.0609 78.8375 89.025 78.7791 88.1863 79.6173ZM98.1415 82.1146C98.2765 84.4743 97.8185 85.3346 96.8535 84.5338C96.463 84.2096 96.2452 83.3639 96.2452 82.1706C96.2452 80.1486 96.474 79.6977 97.4094 79.8753C97.852 79.9593 98.054 80.5762 98.1415 82.1146ZM21.907 81.4523C20.9981 82.7497 21.0995 85.9046 22.0817 86.8868C23.8372 88.6421 25.2376 87.4169 25.2376 84.1256C25.2376 81.6653 24.6301 80.5754 23.2593 80.5754C22.8534 80.5754 22.2447 80.9699 21.907 81.4523ZM26.4211 84.1256C26.4211 86.2292 26.5817 87.6757 26.8156 87.6757C27.0326 87.6757 27.2101 86.9657 27.2101 86.0979C27.2101 84.6778 27.3087 84.52 28.1963 84.52C28.7387 84.52 29.1825 84.3425 29.1825 84.1256C29.1825 83.9086 28.7269 83.7311 28.1703 83.7311C27.2984 83.7311 27.175 83.5804 27.2827 82.6463C27.3718 81.8696 27.6594 81.5257 28.2949 81.4353C29.7032 81.2353 29.3249 80.5754 27.8018 80.5754H26.4211V84.1256ZM30.366 84.1256C30.366 86.2292 30.5265 87.6757 30.7605 87.6757C30.9774 87.6757 31.1549 86.9657 31.1549 86.0979C31.1549 84.6778 31.2536 84.52 32.1412 84.52C32.6836 84.52 33.1274 84.3425 33.1274 84.1256C33.1274 83.9086 32.6836 83.7311 32.1412 83.7311C31.3084 83.7311 31.1549 83.5469 31.1549 82.5477C31.1549 81.5486 31.3084 81.3643 32.1412 81.3643C32.6836 81.3643 33.1274 81.1868 33.1274 80.9699C33.1274 80.7529 32.5061 80.5754 31.7467 80.5754H30.366V84.1256ZM83.8848 80.8385C83.74 80.9829 83.6217 81.4267 83.6217 81.8247C83.6217 82.2846 83.3349 82.5477 82.8327 82.5477C82.3988 82.5477 82.0437 82.7252 82.0437 82.9422C82.0437 83.1591 82.3988 83.3366 82.8327 83.3366C83.3586 83.3366 83.6217 83.5997 83.6217 84.1256C83.6217 84.5638 83.8848 84.9145 84.2134 84.9145C84.542 84.9145 84.8051 84.5638 84.8051 84.1256C84.8051 83.5997 85.0683 83.3366 85.5941 83.3366C86.028 83.3366 86.3831 83.1591 86.3831 82.9422C86.3831 82.7252 86.028 82.5477 85.5941 82.5477C85.0154 82.5477 84.8051 82.2846 84.8051 81.5616C84.8051 80.6038 84.4209 80.3021 83.8848 80.8385ZM23.9753 81.8377C24.6901 82.5525 24.5753 85.8963 23.8143 86.5278C23.2751 86.9752 23.0972 86.9412 22.6309 86.3034C21.9847 85.4198 21.9101 83.2108 22.49 82.1272C22.9626 81.2448 23.3137 81.1762 23.9753 81.8377Z" fill="black"/>
</svg>
